*
*
G04 PADS 9.5 Build Number: 522968 generated Gerber (RS-274-X) file*
G04 PC Version=2.1*
*
%IN "1909A_Rev2.pcb"*%
*
%MOIN*%
*
%FSLAX35Y35*%
*
*
*
*
G04 PC Standard Apertures*
*
*
G04 Thermal Relief Aperture macro.*
%AMTER*
1,1,$1,0,0*
1,0,$1-$2,0,0*
21,0,$3,$4,0,0,45*
21,0,$3,$4,0,0,135*
%
*
*
G04 Annular Aperture macro.*
%AMANN*
1,1,$1,0,0*
1,0,$2,0,0*
%
*
*
G04 Odd Aperture macro.*
%AMODD*
1,1,$1,0,0*
1,0,$1-0.005,0,0*
%
*
*
G04 PC Custom Aperture Macros*
*
*
*
*
*
*
G04 PC Aperture Table*
*
%ADD024C,0.15*%
%ADD030C,0.015*%
%ADD035C,0.001*%
%ADD039C,0.055*%
%ADD085R,0.05X0.04*%
%ADD096C,0.006*%
%ADD123R,0.03X0.03*%
%ADD124C,0.11*%
%ADD125R,0.055X0.055*%
%ADD161C,0.325*%
%ADD169R,0.02X0.02*%
%ADD174O,0.055X0.056*%
%ADD179R,0.065X0.04*%
%ADD180R,0.1X0.04*%
%ADD189R,0.03937X0.01181*%
*
*
*
*
G04 PC Circuitry*
G04 Layer Name 1909A_Rev2.pcb - circuitry*
%LPD*%
*
G54D35*
G01X500938Y272177D02*
X500244D01*
X500194Y272227*
Y275483*
X499523*
X496823Y272374*
Y271616*
X499500*
X499550Y271566*
Y269550*
X500194*
Y271566*
X500244Y271616*
X500938*
Y272177*
X499550Y274624D02*
Y272227D01*
X499500Y272177*
X497351*
X497314Y272261*
X499463Y274657*
X499550Y274624*
X495814Y270029D02*
X494789D01*
X494739Y270079*
Y275483*
X494252*
X494177Y275110*
X494163Y275084*
X493916Y274837*
X493899Y274825*
X493486Y274660*
X493467Y274657*
X493021*
Y274178*
X494045*
X494095Y274128*
Y270079*
X494045Y270029*
X493021*
Y269550*
X495814*
Y270029*
X491599Y273216D02*
X491517Y273870D01*
X491355Y274439*
X490867Y275251*
X490552Y275487*
X490234Y275567*
X489749Y275648*
X488942Y275486*
X488627Y275249*
X488386Y274928*
X488141Y274439*
X487979Y273952*
X487897Y273299*
Y271735*
X487979Y271081*
X488141Y270594*
X488386Y270105*
X488627Y269784*
X488943Y269546*
X489262Y269466*
X489748Y269385*
X490234Y269466*
X490552Y269546*
X490869Y269784*
X491110Y270105*
X491355Y270594*
X491517Y271081*
X491599Y271735*
Y273216*
X490872Y272475D02*
Y271897D01*
Y271888*
X490790Y271397*
Y270988*
X490784Y270965*
X490622Y270640*
X490540Y270314*
X490527Y270291*
X490362Y270126*
X490354Y270120*
X490106Y269954*
X490079Y269946*
X489417*
X489390Y269954*
X489142Y270120*
X489128Y270133*
X488797Y270629*
X488790Y270646*
X488625Y271390*
X488624Y271401*
Y272475*
Y272479*
X488706Y273553*
Y273555*
X488789Y274381*
X488800Y274408*
X489214Y274904*
X489236Y274919*
X489732Y275085*
X489762*
X490340Y274920*
X490371Y274894*
X490619Y274398*
X490623Y274387*
X490788Y273643*
X490790Y273636*
X490872Y272479*
Y272475*
X487053Y270111D02*
X484128D01*
X484093Y270197*
X486154Y272258*
X486480Y272828*
X486724Y273398*
X486805Y274045*
X486725Y274686*
X486324Y275167*
X485843Y275568*
X485122Y275648*
X484221Y275484*
X483898Y275403*
X483600Y275254*
Y274509*
X483617*
X484100Y274831*
X484112Y274837*
X484608Y275002*
X484614Y275004*
X485027Y275086*
X485047*
X485460Y275004*
X485478Y274996*
X485726Y274831*
X485738Y274819*
X485986Y274489*
X485995Y274468*
X486078Y274055*
X486079Y274045*
X486078Y274037*
X485996Y273541*
X485994Y273534*
X485828Y273038*
X485824Y273029*
X485494Y272450*
X485488Y272442*
X484910Y271781*
X484907Y271779*
X483434Y270306*
Y269550*
X487053*
Y270111*
X479919Y270607D02*
X479042D01*
X478326Y268062*
X478806*
X479919Y270607*
X477384Y275483D02*
X474178D01*
Y272452*
X474616Y272525*
X474618*
X475279Y272607*
X475292*
X475871Y272525*
X475889Y272518*
X476303Y272270*
X476317Y272257*
X476565Y271927*
X476574Y271905*
X476657Y271409*
Y271401*
Y271394*
X476574Y270815*
X476568Y270797*
X476320Y270383*
X476312Y270374*
X475982Y270043*
X475955Y270029*
X475955D02*
X475459Y269947D01*
X475450Y269946*
X475037*
X475021Y269948*
X474526Y270114*
X474519Y270116*
X474188Y270282*
X474183Y270285*
X473948Y270442*
X473930*
Y269701*
X474634Y269467*
X475448Y269385*
X476258Y269547*
X476900Y269948*
X477221Y270591*
X477384Y271406*
Y271885*
X477226Y272201*
X476822Y272767*
X476180Y273088*
X475448Y273169*
X474872*
X474822Y273219*
Y274872*
X474872Y274922*
X477384*
Y275483*
X472921Y270111D02*
X469996D01*
X469961Y270197*
X472022Y272258*
X472348Y272828*
X472592Y273398*
X472673Y274045*
X472593Y274686*
X472192Y275167*
X471711Y275568*
X470989Y275648*
X470089Y275484*
X469765Y275403*
X469467Y275254*
Y274509*
X469485*
X469968Y274831*
X469980Y274837*
X470476Y275002*
X470482Y275004*
X470895Y275086*
X470915*
X471328Y275004*
X471346Y274996*
X471594Y274831*
X471606Y274819*
X471854Y274489*
X471863Y274468*
X471946Y274055*
X471947Y274045*
X471946Y274037*
X471863Y273541*
X471861Y273534*
X471696Y273038*
X471692Y273029*
X471362Y272450*
X471356Y272442*
X470777Y271781*
X470775Y271779*
X469302Y270306*
Y269550*
X472921*
Y270111*
X466227Y273995D02*
X465953D01*
X465386Y273833*
X465064Y273673*
X464655Y273345*
X464574Y273384*
Y273995*
X463930*
Y269550*
X464574*
Y272723*
X464599Y272767*
X465178Y273097*
X465190Y273102*
X465852Y273268*
X465864Y273269*
X466227*
Y273995*
X462756Y272638D02*
X462675Y273364D01*
X462279Y273839*
X461719Y274079*
X460987Y274160*
X460170Y274079*
X459845Y273997*
X459633Y273927*
Y273269*
X459656*
X460309Y273514*
X460320Y273517*
X460981Y273599*
X460988Y273600*
X461401*
X461423Y273594*
X461754Y273429*
X461767Y273420*
X462015Y273172*
X462029Y273145*
X462111Y272649*
X462112Y272640*
Y272475*
X462066Y272425*
X460996Y272343*
X460101Y272099*
X459781Y271859*
X459463Y271541*
X459463D02*
X459384Y271225D01*
X459303Y270820*
X459383Y270181*
X459701Y269784*
X460100Y269465*
X460579Y269385*
X460897*
X461134Y269464*
X461789Y269791*
X462034Y269955*
X462112Y269913*
Y269550*
X462756*
Y272638*
X462112Y271897D02*
Y270574D01*
X462087Y270531*
X461508Y270200*
X461496Y270195*
X460834Y270030*
X460810*
X460480Y270113*
X460476Y270114*
X460228Y270196*
X460202Y270216*
X460037Y270464*
X460029Y270482*
X459947Y270895*
X459948Y270921*
X460114Y271417*
X460136Y271444*
X460715Y271775*
X460740Y271781*
X460983*
X461391Y271863*
X461395Y271864*
X462056Y271946*
X462112Y271897*
X458376Y275483D02*
X457302D01*
X455910Y272125*
X455818Y272124*
X454261Y275483*
X453269*
Y269550*
X453913*
Y274707*
X454009Y274727*
X455566Y271203*
X455996*
X457553Y274727*
X457649Y274707*
Y269550*
X458376*
Y275483*
X449119Y270607D02*
X448228D01*
Y269550*
X449119*
Y270607*
Y273995D02*
X448228D01*
Y272938*
X449119*
Y273995*
X446888Y275483D02*
X443186D01*
Y269550*
X446888*
Y270194*
X443963*
X443913Y270244*
Y272393*
X443963Y272443*
X446723*
Y273086*
X443963*
X443913Y273136*
Y274789*
X443963Y274839*
X446888*
Y275483*
X442673D02*
X437649D01*
Y274839*
X439748*
X439798Y274789*
Y269550*
X440524*
Y274789*
X440574Y274839*
X442673*
Y275483*
X437695Y269550D02*
X435745Y275483D01*
X434825*
X432875Y269550*
X433677*
X434163Y271249*
X434211Y271286*
X436360*
X436408Y271249*
X436893Y269550*
X437695*
X436112Y271847D02*
X434459D01*
X434411Y271912*
X435237Y274556*
X435333*
X436159Y271912*
X436112Y271847*
X432508Y272475D02*
X432426Y273291D01*
X432182Y274023*
X432182D02*
X431777Y274590D01*
X431292Y274994*
X430476Y275320*
X429906Y275483*
X427814*
Y269550*
X429827*
X430396Y269631*
X430802Y269794*
X431291Y270038*
X431777Y270443*
X432182Y271011*
X432426Y271742*
X432508Y272475*
X431781Y272558D02*
Y272552D01*
X431698Y271890*
X431697Y271883*
X431532Y271304*
X431526Y271292*
X431278Y270879*
X431271Y270870*
X430940Y270539*
X430935Y270534*
X430604Y270286*
X430584Y270277*
X430171Y270195*
X430165Y270194*
X429174Y270111*
X429169*
X428591*
X428541Y270161*
Y274872*
X428591Y274922*
X429748*
X429758Y274921*
X430171Y274838*
X430184Y274834*
X430845Y274503*
X430854Y274498*
X431267Y274167*
X431278Y274154*
X431526Y273741*
X431532Y273729*
X431697Y273150*
X431698Y273143*
X431781Y272565*
Y272558*
X418871Y275483D02*
X418228D01*
Y270740*
X418133Y270717*
X415668Y275483*
X414591*
Y269550*
X415235*
Y274707*
X415329Y274730*
X418043Y269550*
X418871*
Y275483*
X413665Y272476D02*
X413583Y273213D01*
X413501Y273865*
X413258Y274351*
X412932Y274840*
X412611Y275161*
X412125Y275404*
X411638Y275567*
X410988Y275648*
X410421Y275567*
X409934Y275405*
X409529Y275161*
X409124Y274838*
X408800Y274351*
X408557Y273865*
X408475Y273213*
X408393Y272476*
X408557Y271166*
X408799Y270600*
X409122Y270197*
X409934Y269547*
X410417Y269467*
X410988Y269385*
X412128Y269548*
X412527Y269788*
X412934Y270195*
X413258Y270600*
X413501Y271166*
X413665Y272476*
X412938Y272475D02*
Y272471D01*
X412856Y271397*
X412849Y271377*
X412436Y270633*
X412425Y270619*
X411847Y270123*
X411833Y270115*
X411419Y269949*
X411401Y269946*
X410657*
X410638Y269949*
X410225Y270115*
X410211Y270123*
X409633Y270619*
X409620Y270637*
X409289Y271381*
X409285Y271393*
X409120Y272468*
X409119Y272475*
X409120Y272483*
X409285Y273557*
X409287Y273565*
X409453Y274061*
X409455Y274068*
X409621Y274398*
X409625Y274406*
X409873Y274737*
X409891Y274751*
X410221Y274917*
X410234Y274921*
X411060Y275086*
X411081*
X411825Y274921*
X411847Y274910*
X412425Y274414*
X412438Y274396*
X412769Y273653*
X412773Y273639*
X412938Y272482*
Y272475*
X407714Y275483D02*
X405500D01*
Y275005*
X406194*
X406244Y274955*
Y270079*
X406194Y270029*
X405500*
Y269550*
X407714*
Y270029*
X407021*
X406971Y270079*
Y274955*
X407021Y275005*
X407714*
Y275483*
X405152D02*
X400129D01*
Y274839*
X402227*
X402277Y274789*
Y269550*
X403004*
Y274789*
X403054Y274839*
X405152*
Y275483*
X400175Y269550D02*
X398224Y275483D01*
X397305*
X395354Y269550*
X396157*
X396157D02*
X396642Y271249D01*
X396690Y271286*
X398839*
X398887Y271249*
X399372Y269550*
X400175*
X398591Y271847D02*
X396938D01*
X396890Y271912*
X397717Y274556*
X397812*
X398639Y271912*
X398591Y271847*
X395345Y269550D02*
X393263Y272113D01*
X393279Y272189*
X393768Y272434*
X394170Y272835*
X394410Y273317*
X394491Y273879*
X394330Y274682*
X393852Y275159*
X393205Y275402*
X392801Y275483*
X390790*
Y269550*
X391516*
Y271897*
X391566Y271947*
X392640*
X392680Y271928*
X394565Y269550*
X395345*
X393765Y273880D02*
X393764Y273873D01*
X393682Y273295*
X393675Y273276*
X393427Y272863*
X393407Y272844*
X392911Y272596*
X392896Y272591*
X392896D02*
X392317Y272508D01*
X392310*
X391566*
X391516Y272558*
Y274872*
X391566Y274922*
X392393*
X392400Y274921*
X392978Y274839*
X392993Y274834*
X393324Y274669*
X393337Y274659*
X393668Y274329*
X393681Y274303*
X393764Y273890*
X393765Y273880*
X389863Y272476D02*
X389781Y273213D01*
X389699Y273865*
X389457Y274351*
X389131Y274840*
X388809Y275161*
X388324Y275404*
X387836Y275567*
X387186Y275648*
X386619Y275567*
X386133Y275405*
X385727Y275161*
X385322Y274838*
X384998Y274351*
X384755Y273865*
X384674Y273213*
X384592Y272476*
X384755Y271166*
X384998Y270600*
X385321Y270197*
X386133Y269547*
X386615Y269467*
X387186Y269385*
X388326Y269548*
X388725Y269788*
X389132Y270195*
X389457Y270600*
X389699Y271166*
X389863Y272476*
X389137Y272475D02*
Y272471D01*
X389054Y271397*
X389048Y271377*
X388635Y270633*
X388623Y270619*
X388045Y270123*
X388031Y270115*
X387618Y269949*
X387599Y269946*
X386855*
X386837Y269949*
X386424Y270115*
X386410Y270123*
X385831Y270619*
X385818Y270637*
X385487Y271381*
X385484Y271393*
X385318Y272468*
Y272475*
Y272483*
X385484Y273557*
X385486Y273565*
X385651Y274061*
X385654Y274068*
X385819Y274398*
X385824Y274406*
X386072Y274737*
X386089Y274751*
X386420Y274917*
X386432Y274921*
X387259Y275086*
X387279*
X388023Y274921*
X388045Y274910*
X388623Y274414*
X388637Y274396*
X388967Y273653*
X388971Y273639*
X389136Y272482*
X389137Y272475*
X390243Y282050D02*
X387002Y286101D01*
X387004Y286166*
X390027Y289491*
X388923*
X385839Y285996*
X385752Y286029*
Y289491*
X384819*
Y282050*
X385752*
Y284996*
X385763Y285028*
X386280Y285648*
X386357Y285647*
X389235Y282050*
X390243*
X381929Y260611D02*
X379004D01*
X378969Y260697*
X381030Y262758*
X381356Y263328*
X381600Y263898*
X381681Y264545*
X381601Y265186*
X381200Y265667*
X380719Y266068*
X379998Y266148*
X379097Y265984*
X378774Y265903*
X378476Y265754*
Y265009*
X378493*
X378976Y265331*
X378988Y265337*
X379484Y265502*
X379490Y265504*
X379903Y265586*
X379923*
X380336Y265504*
X380354Y265496*
X380602Y265331*
X380614Y265319*
X380862Y264989*
X380871Y264968*
X380954Y264555*
X380955Y264545*
X380954Y264537*
X380872Y264041*
X380870Y264034*
X380704Y263538*
X380700Y263529*
X380370Y262950*
X380364Y262942*
X379786Y262281*
X379783Y262279*
X378310Y260806*
Y260050*
X381929*
Y260611*
X384077Y273715D02*
X383917Y274517D01*
X383355Y275079*
X382707Y275403*
X382305Y275483*
X380376*
Y269550*
X381103*
Y271731*
X381153Y271781*
X382384*
X382871Y271944*
X383274Y272105*
X383592Y272423*
X383916Y272989*
X384077Y273715*
X383352D02*
X383351Y273708D01*
X383269Y273129*
X383262Y273111*
X383014Y272697*
X382993Y272678*
X382498Y272430*
X382487Y272427*
X382157Y272344*
X382145Y272343*
X381153*
X381103Y272393*
Y274872*
X381153Y274922*
X381814*
X381820*
X382481Y274839*
X382494Y274836*
X382907Y274670*
X382927Y274655*
X383258Y274242*
X383268Y274219*
X383351Y273723*
X383352Y273715*
X377774Y264495D02*
X377056D01*
X375828Y260975*
X375734*
X374506Y264495*
X373787*
X375485Y260050*
X376077*
X377774Y264495*
X379808Y269550D02*
X377726Y272113D01*
X377742Y272189*
X378231Y272434*
X378632Y272835*
X378873Y273317*
X378953Y273879*
X378793Y274682*
X378315Y275159*
X377668Y275402*
X377264Y275483*
X375252*
Y269550*
X375979*
Y271897*
X376029Y271947*
X377103*
X377142Y271928*
X379028Y269550*
X379808*
X378228Y273880D02*
X378227Y273873D01*
X378145Y273295*
X378138Y273276*
X377890Y272863*
X377869Y272844*
X377374Y272596*
X377358Y272591*
X376780Y272508*
X376773*
X376029*
X375979Y272558*
Y274872*
X376029Y274922*
X376855*
X376862Y274921*
X377441Y274839*
X377456Y274834*
X377787Y274669*
X377800Y274659*
X378130Y274329*
X378144Y274303*
X378227Y273890*
X378228Y273880*
X383789Y284063D02*
X383687Y284772D01*
X383386Y285275*
X382984Y285677*
X382272Y285982*
X381553Y286187*
X380728Y286394*
X380717Y286397*
X380304Y286604*
X380299Y286607*
X379989Y286814*
X379972Y286833*
X379765Y287246*
X379761Y287256*
X379658Y287670*
Y287692*
X379761Y288208*
X379770Y288228*
X380080Y288642*
X380101Y288658*
X380618Y288865*
X380628Y288868*
X380628D02*
X381248Y288971D01*
X381264*
X382504Y288764*
X382522Y288758*
X383038Y288448*
X383042Y288445*
X383442Y288145*
X383479*
Y289198*
X382484Y289595*
X381259Y289698*
X380240Y289494*
X379430Y289089*
X378926Y288384*
X378724Y287575*
X378825Y286770*
X379227Y286166*
X379730Y285764*
X381890Y285147*
X381898Y285144*
X382312Y284937*
X382317Y284934*
X382627Y284728*
X382647Y284702*
X382750Y284392*
X382751Y284388*
X382854Y283975*
X382856Y283963*
X382855Y283955*
X382752Y283335*
X382742Y283313*
X382433Y282900*
X382408Y282882*
X381789Y282676*
X381780Y282674*
X381057Y282570*
X381041Y282571*
X380422Y282674*
X380414Y282676*
X379794Y282882*
X379788Y282885*
X379168Y283195*
X379159Y283201*
X378656Y283603*
X378620*
Y282448*
X379723Y282047*
X380335Y281843*
X381763*
X382267Y282045*
X383081Y282554*
X383589Y283266*
X383789Y283665*
Y284063*
X373417Y263131D02*
X373256Y263533D01*
X372933Y264179*
X372374Y264498*
X371648Y264660*
X370843Y264499*
X370200Y264016*
X369796Y263289*
X369633Y262314*
X369796Y261256*
X370198Y260533*
X370922Y260130*
X371819Y259967*
X372305*
X372707Y260048*
X373334Y260361*
Y261107*
X373322*
X373172Y260956*
X373155Y260945*
X372328Y260615*
X372318Y260612*
X371822Y260529*
X371807*
X371228Y260612*
X371208Y260620*
X370712Y260950*
X370698Y260964*
X370367Y261460*
X370359Y261482*
X370277Y262226*
X370276Y262231*
X370326Y262281*
X373417*
Y263131*
X372773Y262810D02*
X372723Y262760D01*
X370326*
X370276Y262810*
X370277Y262818*
X370360Y263314*
X370370Y263337*
X370701Y263750*
X370704Y263754*
X371035Y264085*
X371062Y264099*
X371558Y264182*
X371573*
X372152Y264099*
X372175Y264090*
X372505Y263842*
X372522Y263820*
X372687Y263407*
X372690Y263396*
X372690D02*
X372773Y262817D01*
Y262810*
X369395Y260050D02*
X367312Y262613D01*
X367329Y262689*
X367817Y262934*
X368219Y263335*
X368460Y263817*
X368540Y264379*
X368380Y265182*
X367902Y265659*
X367255Y265902*
X366850Y265983*
X364839*
Y260050*
X365566*
Y262397*
X365616Y262447*
X366690*
X366729Y262428*
X368615Y260050*
X369395*
X367814Y264380D02*
Y264373D01*
X367731Y263795*
X367725Y263776*
X367477Y263363*
X367456Y263344*
X366960Y263096*
X366945Y263091*
X366367Y263008*
X366360*
X365616*
X365566Y263058*
Y265372*
X365616Y265422*
X366442*
X366449Y265421*
X367028Y265339*
X367043Y265334*
X367374Y265169*
X367387Y265159*
X367717Y264829*
X367731Y264803*
X367813Y264390*
X367814Y264380*
X374326Y272476D02*
X374244Y273213D01*
X374162Y273865*
X373919Y274351*
X373593Y274840*
X373272Y275161*
X372787Y275404*
X372299Y275567*
X371649Y275648*
X371082Y275567*
X370595Y275405*
X370190Y275161*
X369785Y274838*
X369461Y274351*
X369218Y273865*
X369136Y273213*
X369054Y272476*
X369218Y271166*
X369461Y270600*
X369784Y270197*
X370595Y269547*
X371078Y269467*
X371649Y269385*
X372789Y269548*
X373188Y269788*
X373595Y270195*
X373920Y270600*
X374162Y271166*
X374326Y272476*
X373600Y272475D02*
X373599Y272471D01*
X373517Y271397*
X373511Y271377*
X373097Y270633*
X373086Y270619*
X372508Y270123*
X372494Y270115*
X372081Y269949*
X372062Y269946*
X371318*
X371300Y269949*
X370886Y270115*
X370872Y270123*
X370294Y270619*
X370281Y270637*
X369950Y271381*
X369946Y271393*
X369781Y272468*
Y272475*
Y272483*
X369946Y273557*
X369948Y273565*
X370114Y274061*
X370116Y274068*
X370282Y274398*
X370286Y274406*
X370534Y274737*
X370552Y274751*
X370883Y274917*
X370895Y274921*
X371722Y275086*
X371742*
X372486Y274921*
X372508Y274910*
X373086Y274414*
X373099Y274396*
X373430Y273653*
X373434Y273639*
X373599Y272482*
X373600Y272475*
X378191Y282050D02*
X375745Y289491D01*
X374578*
X372131Y282050*
X373161*
X373770Y284183*
X373818Y284219*
X376504*
X376552Y284183*
X377162Y282050*
X378191*
X376194Y284946D02*
X374128D01*
X374080Y285011*
X375113Y288317*
X375209*
X376242Y285011*
X376194Y284946*
X371289Y289491D02*
X369926D01*
X368183Y285287*
X368091Y285285*
X366142Y289491*
X364881*
Y282050*
X365710*
Y288508*
X365806Y288528*
X367756Y284116*
X368310*
X370260Y288528*
X370356Y288508*
Y282050*
X371289*
Y289491*
X368541Y275169D02*
X367751Y275485D01*
X366772Y275648*
X366205Y275567*
X365636Y275404*
X365231Y275161*
X364827Y274838*
X364502Y274351*
X364259Y273865*
X364178Y273213*
X364096Y272475*
X364178Y271738*
X364259Y271167*
X364502Y270600*
X364827Y270195*
X365233Y269788*
X365633Y269548*
X366201Y269467*
X366202*
X366694Y269385*
X367342*
X367746Y269546*
X367749Y269547*
X368241Y269712*
X368541Y269861*
Y270772*
X368529*
X368296Y270539*
X368290Y270534*
X367960Y270286*
X367949Y270280*
X367371Y270033*
X367358Y270029*
X366780Y269946*
X366773*
X366360*
X366337Y269951*
X365676Y270282*
X365658Y270296*
X365410Y270627*
X365407Y270633*
X364993Y271377*
X364990Y271385*
X364824Y271881*
X364822Y271897*
Y272475*
Y272483*
X364988Y273557*
X364991Y273568*
X365321Y274395*
X365338Y274416*
X365999Y274912*
X366018Y274921*
X366762Y275086*
X366780Y275087*
X367358Y275004*
X367374Y274999*
X367869Y274751*
X367873Y274749*
X368286Y274502*
X368296Y274494*
X368529Y274261*
X368541*
Y275169*
X361580Y260050D02*
X359629Y265983D01*
X358710*
X356759Y260050*
X357561*
X358047Y261749*
X358095Y261786*
X360244*
X360292Y261749*
X360777Y260050*
X361580*
X359996Y262347D02*
X358343D01*
X358295Y262412*
X359122Y265056*
X359217*
X360044Y262412*
X359996Y262347*
X361229Y275483D02*
X360438D01*
X358882Y272863*
X358795Y272864*
X357322Y275483*
X356447*
X358469Y272088*
X358476Y272062*
Y269550*
X359202*
Y272145*
X359209Y272171*
X361229Y275483*
X356227Y264126D02*
X356064Y264776D01*
X355821Y265263*
X355580Y265584*
X355016Y265986*
X354293Y266147*
X353570Y265986*
X353008Y265585*
X352605Y264940*
X352443Y264049*
X352524Y263563*
X352605Y263161*
X353087Y262519*
X353564Y262280*
X354210Y262199*
X354774Y262280*
X355428Y262607*
X355500Y262562*
Y262553*
X355334Y261644*
X355330Y261631*
X354999Y260969*
X354979Y260948*
X354401Y260618*
X354388Y260613*
X353727Y260447*
X353707*
X353211Y260529*
X353207Y260530*
X352938Y260597*
Y259956*
X353225Y259885*
X353546*
X354201Y259966*
X354766Y260128*
X355169Y260451*
X355575Y260856*
X355818Y261343*
X356064Y261916*
X356227Y262650*
Y264126*
X355500Y264132D02*
Y263140D01*
X355473Y263096*
X354977Y262848*
X354962Y262843*
X354383Y262760*
X354376*
X353963*
X353933Y262770*
X353602Y263018*
X353593Y263027*
X353263Y263440*
X353252Y263465*
X353169Y264126*
Y264132*
X353170Y264139*
X353252Y264718*
X353259Y264736*
X353507Y265150*
X353514Y265159*
X353845Y265490*
X353870Y265504*
X354284Y265586*
X354303*
X354716Y265504*
X354737Y265495*
X355067Y265247*
X355082Y265229*
X355412Y264568*
X355417Y264555*
X355499Y264142*
X355500Y264132*
X351681Y263716D02*
X351600Y264370D01*
X351437Y264939*
X350950Y265751*
X350635Y265987*
X350316Y266067*
X349831Y266148*
X349025Y265986*
X348709Y265749*
X348468Y265428*
X348224Y264939*
X348061Y264452*
X347980Y263799*
Y262235*
X348061Y261581*
X348224Y261094*
X348468Y260605*
X348709Y260284*
X349026Y260046*
X349345Y259966*
X349831Y259885*
X350316Y259966*
X350635Y260046*
X350952Y260284*
X351193Y260605*
X351437Y261094*
X351600Y261581*
X351681Y262235*
Y263716*
X350955Y262975D02*
Y262397D01*
X350954Y262388*
X350872Y261897*
Y261488*
X350867Y261465*
X350704Y261140*
X350623Y260814*
X350610Y260791*
X350444Y260626*
X350437Y260620*
X350189Y260454*
X350161Y260446*
X349500*
X349472Y260454*
X349224Y260620*
X349210Y260633*
X348880Y261129*
X348873Y261146*
X348707Y261890*
X348706Y261901*
Y262975*
Y262979*
X348789Y264053*
Y264055*
X348872Y264881*
X348883Y264908*
X349296Y265404*
X349319Y265419*
X349815Y265585*
X349844*
X350423Y265420*
X350454Y265394*
X350702Y264898*
X350706Y264887*
X350871Y264143*
X350872Y264136*
X350955Y262979*
Y262975*
X355979Y275169D02*
X355189Y275484D01*
X354045Y275648*
X353477Y275567*
X352907Y275404*
X352420Y275160*
X352017Y274838*
X351692Y274351*
X351448Y273863*
X351285Y273210*
X351203Y272557*
X351203D02*
X351285Y271820D01*
X351367Y271166*
X351608Y270603*
X352422Y269789*
X352904Y269548*
X353392Y269467*
X354049Y269385*
X354616*
X355598Y269712*
X355598D02*
X355979Y269864D01*
Y272508*
X353930*
Y271864*
X355202*
X355252Y271814*
Y270161*
X355210Y270112*
X354630Y270029*
X353969Y269946*
X353963*
X353550*
X353531Y269949*
X353118Y270115*
X353114Y270116*
X352783Y270282*
X352766Y270296*
X352518Y270627*
X352513Y270635*
X352100Y271461*
X352097Y271468*
X351932Y271964*
X351929Y271979*
Y272558*
X351930Y272566*
X352095Y273558*
X352100Y273572*
X352513Y274398*
X352522Y274411*
X352770Y274659*
X352776Y274664*
X353106Y274912*
X353127Y274921*
X353953Y275086*
X353969Y275087*
X354630Y275004*
X354644Y275001*
X355222Y274753*
X355228Y274749*
X355641Y274502*
X355646Y274499*
X355963Y274261*
X355979*
Y275169*
X361007Y282050D02*
X358387Y285274D01*
X358403Y285351*
X359016Y285657*
X359521Y286162*
X359824Y286767*
X359924Y287474*
X359924D02*
X359723Y288484D01*
X359121Y289085*
X358309Y289390*
X357801Y289491*
X355273*
Y282050*
X356206*
Y284996*
X356256Y285046*
X357599*
X357638Y285027*
X359999Y282050*
X361007*
X358992Y287475D02*
Y287468D01*
X358888Y286745*
X358882Y286726*
X358572Y286210*
X358551Y286191*
X357931Y285881*
X357916Y285876*
X357193Y285773*
X357186Y285772*
X356256*
X356206Y285822*
Y288715*
X356256Y288765*
X357289*
X357296Y288764*
X358019Y288661*
X358035Y288656*
X358448Y288450*
X358461Y288440*
X358874Y288027*
X358888Y288002*
X358991Y287485*
X358992Y287475*
X347136Y264126D02*
X346973Y264776D01*
X346730Y265263*
X346489Y265584*
X345925Y265986*
X345202Y266147*
X344479Y265986*
X343917Y265585*
X343514Y264940*
X343352Y264049*
X343433Y263563*
X343514Y263161*
X343996Y262519*
X344473Y262280*
X345119Y262199*
X345683Y262280*
X346337Y262607*
X346410Y262562*
X346409Y262553*
X346243Y261644*
X346239Y261631*
X345908Y260969*
X345888Y260948*
X345310Y260618*
X345297Y260613*
X344636Y260447*
X344616*
X344120Y260529*
X344116Y260530*
X343848Y260597*
Y259956*
X344134Y259885*
X344456*
X345110Y259966*
X345675Y260128*
X346078Y260451*
X346484Y260856*
X346727Y261343*
X346973Y261916*
X347136Y262650*
Y264126*
X346410Y264132D02*
Y263140D01*
X346382Y263096*
X345886Y262848*
X345871Y262843*
X345292Y262760*
X345285*
X344872*
X344842Y262770*
X344511Y263018*
X344502Y263027*
X344172Y263440*
X344161Y263465*
X344078Y264126*
Y264132*
X344079Y264139*
X344161Y264718*
X344168Y264736*
X344416Y265150*
X344423Y265159*
X344754Y265490*
X344779Y265504*
X345193Y265586*
X345212*
X345626Y265504*
X345646Y265495*
X345976Y265247*
X345991Y265229*
X346322Y264568*
X346326Y264555*
X346409Y264142*
X346410Y264132*
X350607Y272476D02*
X350525Y273213D01*
X350443Y273865*
X350200Y274351*
X349874Y274840*
X349553Y275161*
X349068Y275404*
X348580Y275567*
X347930Y275648*
X347363Y275567*
X346876Y275405*
X346471Y275161*
X346066Y274838*
X345742Y274351*
X345499Y273865*
X345417Y273213*
X345335Y272476*
X345499Y271166*
X345742Y270600*
X346064Y270197*
X346064D02*
X346876Y269547D01*
X347359Y269467*
X347930Y269385*
X349070Y269548*
X349469Y269788*
X349876Y270195*
X350201Y270600*
X350443Y271166*
X350607Y272476*
X349881Y272475D02*
X349880Y272471D01*
X349798Y271397*
X349792Y271377*
X349378Y270633*
X349367Y270619*
X348789Y270123*
X348775Y270115*
X348362Y269949*
X348343Y269946*
X347599*
X347581Y269949*
X347167Y270115*
X347153Y270123*
X346575Y270619*
X346562Y270637*
X346231Y271381*
X346227Y271393*
X346062Y272468*
Y272475*
Y272483*
X346227Y273557*
X346229Y273565*
X346395Y274061*
X346397Y274068*
X346563Y274398*
X346567Y274406*
X346815Y274737*
X346833Y274751*
X347164Y274917*
X347176Y274921*
X348003Y275086*
X348023*
X348767Y274921*
X348789Y274910*
X349367Y274414*
X349380Y274396*
X349711Y273653*
X349715Y273639*
X349880Y272482*
X349881Y272475*
X354140Y289491D02*
X349488D01*
Y282050*
X354140*
Y282880*
X350471*
X350421Y282930*
Y285616*
X350471Y285666*
X353933*
Y286495*
X350471*
X350421Y286545*
Y288612*
X350471Y288662*
X354140*
Y289491*
X342260Y260529D02*
X341236D01*
X341186Y260579*
Y265983*
X340698*
X340623Y265610*
X340610Y265584*
X340362Y265337*
X340345Y265325*
X339932Y265160*
X339913Y265157*
X339467*
Y264678*
X340492*
X340542Y264628*
Y260579*
X340492Y260529*
X339467*
Y260050*
X342260*
Y260529*
X344987Y270194D02*
X342310D01*
X342260Y270244*
Y275483*
X341533*
Y269550*
X344987*
Y270194*
X348355Y285719D02*
X348252Y286742D01*
X347947Y287659*
X347438Y288371*
X346829Y288878*
X345806Y289287*
X345092Y289491*
X342463*
Y282050*
X344992*
X345706Y282152*
X346215Y282356*
X346828Y282662*
X347438Y283171*
X347947Y283882*
X348253Y284800*
X348355Y285719*
X347422Y285822D02*
Y285816D01*
X347318Y284990*
X347317Y284982*
X347110Y284259*
X347105Y284247*
X346795Y283730*
X346787Y283721*
X346374Y283308*
X346369Y283303*
X345956Y282993*
X345935Y282984*
X345419Y282881*
X345413Y282880*
X344174Y282777*
X344169Y282776*
X343446*
X343396Y282826*
Y288715*
X343446Y288765*
X344893*
X344902Y288764*
X345419Y288661*
X345431Y288656*
X346258Y288243*
X346267Y288237*
X346783Y287824*
X346795Y287811*
X347105Y287294*
X347110Y287282*
X347317Y286559*
X347318Y286553*
X347421Y285829*
X347422Y285822*
X336062Y265983D02*
X331038D01*
Y265339*
X333136*
X333186Y265289*
Y260050*
X333913*
Y265289*
X333963Y265339*
X336062*
Y265983*
X340607Y272476D02*
X340525Y273213D01*
X340443Y273865*
X340200Y274351*
X339874Y274840*
X339553Y275161*
X339068Y275404*
X338580Y275567*
X337930Y275648*
X337363Y275567*
X336876Y275405*
X336471Y275161*
X336066Y274838*
X335742Y274351*
X335499Y273865*
X335417Y273213*
X335335Y272476*
X335499Y271166*
X335742Y270600*
X336064Y270197*
X336064D02*
X336876Y269547D01*
X337359Y269467*
X337930Y269385*
X339070Y269548*
X339469Y269788*
X339876Y270195*
X340201Y270600*
X340443Y271166*
X340607Y272476*
X339881Y272475D02*
X339880Y272471D01*
X339798Y271397*
X339792Y271377*
X339378Y270633*
X339367Y270619*
X338789Y270123*
X338775Y270115*
X338362Y269949*
X338343Y269946*
X337599*
X337581Y269949*
X337167Y270115*
X337153Y270123*
X336575Y270619*
X336562Y270637*
X336231Y271381*
X336227Y271393*
X336062Y272468*
Y272475*
Y272483*
X336227Y273557*
X336229Y273565*
X336395Y274061*
X336397Y274068*
X336563Y274398*
X336567Y274406*
X336815Y274737*
X336833Y274751*
X337164Y274917*
X337176Y274921*
X338003Y275086*
X338023*
X338767Y274921*
X338789Y274910*
X339367Y274414*
X339380Y274396*
X339711Y273653*
X339715Y273639*
X339880Y272482*
X339881Y272475*
X341640Y282880D02*
X338281D01*
X338231Y282930*
Y289491*
X337298*
Y282050*
X341640*
Y282880*
X330772Y265983D02*
X328558D01*
Y265505*
X329252*
X329302Y265455*
Y260579*
X329252Y260529*
X328558*
Y260050*
X330772*
Y260529*
X330079*
X330029Y260579*
Y265455*
X330079Y265505*
X330772*
Y265983*
X334409Y275483D02*
X333765D01*
Y270740*
X333670Y270717*
X331205Y275483*
X330129*
Y269550*
X330772*
Y274707*
X330867Y274730*
X333580Y269550*
X334409*
Y275483*
X336165Y285719D02*
X336062Y286643D01*
X335960Y287461*
X335655Y288070*
X335246Y288683*
X334842Y289087*
X334233Y289392*
X333621Y289596*
X332806Y289697*
X332094Y289596*
X331484Y289392*
X330975Y289087*
X330467Y288681*
X330060Y288070*
X329755Y287461*
X329653Y286643*
X329550Y285719*
X329755Y284079*
X330060Y283369*
X330465Y282862*
X331484Y282047*
X332090Y281946*
X332806Y281844*
X334235Y282048*
X334738Y282350*
X335248Y282860*
X335655Y283369*
X335960Y284079*
X336165Y285719*
X335232D02*
Y285715D01*
X335128Y284372*
X335122Y284352*
X334606Y283422*
X334595Y283408*
X333871Y282788*
X333857Y282780*
X333341Y282573*
X333322Y282570*
X332393*
X332374Y282573*
X331857Y282780*
X331843Y282788*
X331120Y283408*
X331107Y283426*
X330694Y284356*
X330690Y284368*
X330484Y285711*
X330483Y285719*
X330484Y285727*
X330690Y287070*
X330692Y287078*
X330899Y287698*
X330902Y287704*
X331108Y288117*
X331113Y288125*
X331423Y288538*
X331440Y288553*
X331854Y288760*
X331866Y288764*
X332899Y288971*
X332920Y288970*
X333850Y288764*
X333871Y288753*
X334595Y288133*
X334608Y288115*
X335021Y287186*
X335025Y287172*
X335231Y285726*
X335232Y285719*
X328871Y275483D02*
X328145D01*
Y273136*
X328095Y273086*
X325285*
X325235Y273136*
Y275483*
X324509*
Y269550*
X325235*
Y272393*
X325285Y272443*
X328095*
X328145Y272393*
Y269550*
X328871*
Y275483*
X327549Y265983D02*
X326823D01*
Y262231*
X326822Y262226*
X326740Y261482*
X326738Y261472*
X326572Y260976*
X326557Y260953*
X326061Y260540*
X326035Y260529*
X325374Y260446*
X325362*
X324700Y260529*
X324671Y260543*
X324258Y260956*
X324246Y260976*
X324081Y261472*
X324078Y261482*
X323996Y262226*
X323995Y262231*
Y265983*
X323269*
Y261661*
X323431Y261174*
X323594Y260769*
X323832Y260451*
X324477Y260047*
X325372Y259885*
X325937*
X326339Y260046*
X326664Y260208*
X326985Y260449*
X327225Y260769*
X327387Y261174*
X327549Y261661*
Y265983*
X328933Y284063D02*
X328832Y284772D01*
X328531Y285275*
X328128Y285677*
X327417Y285982*
X326698Y286187*
X325872Y286394*
X325862Y286397*
X325449Y286604*
X325443Y286607*
X325133Y286814*
X325116Y286833*
X324910Y287246*
X324906Y287256*
X324803Y287670*
X324802Y287692*
X324906Y288208*
X324915Y288228*
X325224Y288642*
X325246Y288658*
X325762Y288865*
X325773Y288868*
X325773D02*
X326393Y288971D01*
X326409*
X327649Y288764*
X327666Y288758*
X328183Y288448*
X328187Y288445*
X328587Y288145*
X328624*
Y289198*
X327629Y289595*
X326404Y289698*
X325384Y289494*
X324575Y289089*
X324071Y288384*
X323869Y287575*
X323970Y286770*
X324372Y286166*
X324875Y285764*
X327034Y285147*
X327043Y285144*
X327456Y284937*
X327462Y284934*
X327772Y284728*
X327791Y284702*
X327895Y284392*
X327896Y284388*
X327999Y283975*
X328000Y283963*
Y283955*
X327896Y283335*
X327887Y283313*
X327577Y282900*
X327553Y282882*
X326933Y282676*
X326924Y282674*
X326201Y282570*
X326186Y282571*
X325566Y282674*
X325559Y282676*
X324939Y282882*
X324932Y282885*
X324312Y283195*
X324303Y283201*
X323801Y283603*
X323765*
Y282448*
X324868Y282047*
X325479Y281843*
X326908*
X327411Y282045*
X328225Y282554*
X328734Y283266*
X328933Y283665*
Y284063*
X322425Y265669D02*
X321635Y265985D01*
X320656Y266148*
X320089Y266067*
X319520Y265904*
X319115Y265661*
X318711Y265338*
X318386Y264851*
X318144Y264365*
X318062Y263713*
X317980Y262975*
X318062Y262238*
X318144Y261667*
X318386Y261100*
X318711Y260695*
X319118Y260288*
X319517Y260048*
X320086Y259967*
X320087*
X320579Y259885*
X321226*
X321630Y260046*
X321633Y260047*
X322125Y260212*
X322425Y260361*
Y261272*
X322413*
X322180Y261039*
X322175Y261034*
X321844Y260786*
X321834Y260780*
X321255Y260533*
X321243Y260529*
X320664Y260446*
X320657*
X320244*
X320221Y260451*
X319560Y260782*
X319543Y260796*
X319295Y261127*
X319291Y261133*
X318878Y261877*
X318874Y261885*
X318709Y262381*
X318706Y262397*
Y262975*
X318707Y262983*
X318872Y264057*
X318875Y264068*
X319206Y264895*
X319222Y264916*
X319883Y265412*
X319902Y265421*
X320646Y265586*
X320664Y265587*
X321243Y265504*
X321258Y265499*
X321754Y265251*
X321757Y265249*
X322170Y265002*
X322180Y264994*
X322413Y264761*
X322425*
Y265669*
X323665Y275169D02*
X322875Y275485D01*
X321896Y275648*
X321329Y275567*
X320760Y275404*
X320355Y275161*
X319951Y274838*
X319626Y274351*
X319383Y273865*
X319302Y273213*
X319220Y272475*
X319302Y271738*
X319383Y271167*
X319626Y270600*
X319951Y270195*
X320357Y269788*
X320757Y269548*
X321325Y269467*
X321326*
X321818Y269385*
X322466*
X322870Y269546*
X322873Y269547*
X323365Y269712*
X323665Y269861*
Y270772*
X323653*
X323420Y270539*
X323414Y270534*
X323084Y270286*
X323073Y270280*
X322495Y270033*
X322482Y270029*
X321904Y269946*
X321897*
X321483*
X321461Y269951*
X320800Y270282*
X320782Y270296*
X320534Y270627*
X320531Y270633*
X320117Y271377*
X320114Y271385*
X319948Y271881*
X319946Y271897*
Y272475*
Y272483*
X320112Y273557*
X320115Y273568*
X320445Y274395*
X320462Y274416*
X321123Y274912*
X321142Y274921*
X321886Y275086*
X321904Y275087*
X322482Y275004*
X322498Y274999*
X322993Y274751*
X322997Y274749*
X323410Y274502*
X323420Y274494*
X323653Y274261*
X323665*
Y275169*
X317742Y260050D02*
X315660Y262613D01*
X315676Y262689*
X316165Y262934*
X316566Y263335*
X316807Y263817*
X316887Y264379*
X316727Y265182*
X316249Y265659*
X315602Y265902*
X315198Y265983*
X313186*
Y260050*
X313913*
Y262397*
X313963Y262447*
X315037*
X315076Y262428*
X316962Y260050*
X317742*
X316162Y264380D02*
X316161Y264373D01*
X316078Y263795*
X316072Y263776*
X315824Y263363*
X315803Y263344*
X315307Y263096*
X315292Y263091*
X314714Y263008*
X314707*
X313963*
X313913Y263058*
Y265372*
X313963Y265422*
X314789*
X314796Y265421*
X315375Y265339*
X315390Y265334*
X315721Y265169*
X315734Y265159*
X316064Y264829*
X316078Y264803*
X316161Y264390*
X316162Y264380*
X318624Y275483D02*
X314922D01*
Y269550*
X318624*
Y270194*
X315698*
X315648Y270244*
Y272393*
X315698Y272443*
X318458*
Y273086*
X315698*
X315648Y273136*
Y274789*
X315698Y274839*
X318624*
Y275483*
X319429Y289491D02*
X318066D01*
X316323Y285287*
X316231Y285285*
X314282Y289491*
X313021*
Y282050*
X313851*
Y288508*
X313947Y288528*
X315896Y284116*
X316451*
X318401Y288528*
X318496Y288508*
Y282050*
X319429*
Y289491*
X312177Y265983D02*
X309963D01*
Y265505*
X310657*
X310707Y265455*
Y260579*
X310657Y260529*
X309963*
Y260050*
X312177*
Y260529*
X311483*
X311433Y260579*
Y265455*
X311483Y265505*
X312177*
Y265983*
X314409Y275483D02*
X309385D01*
Y274839*
X311483*
X311533Y274789*
Y269550*
X312260*
Y274789*
X312310Y274839*
X314409*
Y275483*
X309285Y265669D02*
X308495Y265985D01*
X307516Y266148*
X306948Y266067*
X306380Y265904*
X305975Y265661*
X305570Y265338*
X305246Y264851*
X305003Y264365*
X304922Y263713*
X304840Y262975*
X304921Y262238*
X304921D02*
X305003Y261667D01*
X305246Y261100*
X305570Y260695*
X305977Y260288*
X306377Y260048*
X306945Y259967*
X306946*
X307438Y259885*
X308085*
X308490Y260046*
X308492Y260047*
X308985Y260212*
X309285Y260361*
Y261272*
X309273*
X309039Y261039*
X309034Y261034*
X308704Y260786*
X308693Y260780*
X308115Y260533*
X308102Y260529*
X307524Y260446*
X307517*
X307103*
X307081Y260451*
X306420Y260782*
X306402Y260796*
X306154Y261127*
X306151Y261133*
X305737Y261877*
X305734Y261885*
X305568Y262381*
X305566Y262397*
Y262975*
Y262983*
X305732Y264057*
X305735Y264068*
X306065Y264895*
X306082Y264916*
X306743Y265412*
X306762Y265421*
X307506Y265586*
X307524Y265587*
X308102Y265504*
X308117Y265499*
X308613Y265251*
X308617Y265249*
X309030Y265002*
X309039Y264994*
X309273Y264761*
X309285*
Y265669*
X306998Y269550D02*
X304916Y272113D01*
X304932Y272189*
X305421Y272434*
X305823Y272835*
X306063Y273317*
X306144Y273879*
X305983Y274682*
X305505Y275159*
X304858Y275402*
X304454Y275483*
X302443*
Y269550*
X303169*
Y271897*
X303219Y271947*
X304293*
X304333Y271928*
X306218Y269550*
X306998*
X305418Y273880D02*
X305417Y273873D01*
X305335Y273295*
X305328Y273276*
X305080Y272863*
X305060Y272844*
X304564Y272596*
X304548Y272591*
X303970Y272508*
X303963*
X303219*
X303169Y272558*
Y274872*
X303219Y274922*
X304045*
X304053Y274921*
X304631Y274839*
X304646Y274834*
X304977Y274669*
X304990Y274659*
X305320Y274329*
X305334Y274303*
X305417Y273890*
X305418Y273880*
X311888Y285719D02*
X311785Y286643D01*
X311683Y287461*
X311378Y288070*
X310969Y288683*
X310565Y289087*
X309956Y289392*
X309344Y289596*
X308529Y289697*
X307817Y289596*
X307207Y289392*
X306698Y289087*
X306190Y288681*
X305783Y288070*
X305478Y287461*
X305376Y286643*
X305273Y285719*
X305478Y284079*
X305783Y283369*
X306188Y282862*
X307207Y282047*
X307813Y281946*
X308529Y281844*
X309958Y282048*
X310461Y282350*
X310971Y282860*
X311378Y283369*
X311683Y284079*
X311888Y285719*
X310955D02*
Y285715D01*
X310852Y284372*
X310845Y284352*
X310329Y283422*
X310318Y283408*
X309595Y282788*
X309581Y282780*
X309064Y282573*
X309045Y282570*
X308116*
X308097Y282573*
X307581Y282780*
X307567Y282788*
X306843Y283408*
X306830Y283426*
X306417Y284356*
X306413Y284368*
X306207Y285711*
X306206Y285719*
X306207Y285727*
X306413Y287070*
X306415Y287078*
X306622Y287698*
X306625Y287704*
X306831Y288117*
X306836Y288125*
X307146Y288538*
X307164Y288553*
X307577Y288760*
X307589Y288764*
X308622Y288971*
X308643Y288970*
X309573Y288764*
X309595Y288753*
X310318Y288133*
X310331Y288115*
X310744Y287186*
X310748Y287172*
X310954Y285726*
X310955Y285719*
X301681Y262976D02*
X301599Y263713D01*
X301518Y264365*
X301275Y264851*
X300949Y265340*
X300627Y265661*
X300142Y265904*
X299654Y266067*
X299005Y266148*
X298437Y266067*
X297951Y265905*
X297545Y265661*
X297141Y265338*
X296816Y264851*
X296573Y264365*
X296492Y263713*
X296410Y262976*
X296574Y261666*
X296816Y261100*
X297139Y260697*
X297951Y260047*
X298433Y259967*
X299004Y259885*
X300144Y260048*
X300543Y260288*
X300950Y260695*
X301275Y261100*
X301517Y261666*
X301681Y262976*
X300955Y262975D02*
Y262971D01*
X300872Y261897*
X300866Y261877*
X300453Y261133*
X300442Y261119*
X299863Y260623*
X299849Y260615*
X299436Y260449*
X299417Y260446*
X298674*
X298655Y260449*
X298242Y260615*
X298228Y260623*
X297649Y261119*
X297636Y261137*
X297306Y261881*
X297302Y261893*
X297137Y262968*
X297136Y262975*
X297137Y262983*
X297302Y264057*
X297304Y264065*
X297469Y264561*
X297472Y264568*
X297637Y264898*
X297642Y264906*
X297890Y265237*
X297907Y265251*
X298238Y265417*
X298251Y265421*
X299077Y265586*
X299098*
X299841Y265421*
X299863Y265410*
X300442Y264914*
X300455Y264896*
X300785Y264153*
X300789Y264139*
X300954Y262982*
X300955Y262975*
X301745Y269550D02*
X299794Y275483D01*
X298875*
X296924Y269550*
X297727*
X298212Y271249*
X298260Y271286*
X300409*
X300457Y271249*
X300943Y269550*
X301745*
X300161Y271847D02*
X298508D01*
X298461Y271912*
X299287Y274556*
X299382*
X300209Y271912*
X300161Y271847*
X305070Y289491D02*
X292773D01*
Y288662*
X295409*
X295459Y288612*
Y282050*
X296392*
Y288612*
X296442Y288662*
X301401*
X301451Y288612*
Y282050*
X302384*
Y288612*
X302434Y288662*
X305070*
Y289491*
X295483Y265983D02*
X294409D01*
X293017Y262625*
X292926Y262624*
X291369Y265983*
X290376*
Y260050*
X291020*
Y265207*
X291116Y265227*
X292673Y261703*
X293104*
X294661Y265227*
X294757Y265207*
Y260050*
X295483*
Y265983*
X296557Y275483D02*
X292856D01*
Y269550*
X296557*
Y270194*
X293632*
X293582Y270244*
Y272393*
X293632Y272443*
X296392*
Y273086*
X293632*
X293582Y273136*
Y274789*
X293632Y274839*
X296557*
Y275483*
X289450Y265983D02*
X285748D01*
Y260050*
X289450*
Y260694*
X286525*
X286475Y260744*
Y262893*
X286525Y262943*
X289285*
Y263586*
X286525*
X286475Y263636*
Y265289*
X286525Y265339*
X289450*
Y265983*
X291599Y275483D02*
X290955D01*
Y270740*
X290861Y270717*
X288395Y275483*
X287319*
Y269550*
X287962*
Y274707*
X288057Y274730*
X290770Y269550*
X291599*
Y275483*
X284822Y262975D02*
X284740Y263791D01*
X284496Y264523*
X284496D02*
X284091Y265090D01*
X283606Y265494*
X282790Y265820*
X282220Y265983*
X280129*
Y260050*
X282141*
X282710Y260131*
X283116Y260294*
X283605Y260538*
X284091Y260943*
X284496Y261511*
X284740Y262242*
X284822Y262975*
X284095Y263058D02*
Y263052D01*
X284012Y262390*
X284011Y262383*
X283846Y261804*
X283840Y261792*
X283592Y261379*
X283585Y261370*
X283254Y261039*
X283249Y261034*
X282918Y260786*
X282898Y260777*
X282485Y260695*
X282479Y260694*
X281488Y260611*
X281483*
X280905*
X280855Y260661*
Y265372*
X280905Y265422*
X282062*
X282072Y265421*
X282485Y265338*
X282498Y265334*
X283159Y265003*
X283168Y264998*
X283581Y264667*
X283592Y264654*
X283840Y264241*
X283846Y264229*
X284011Y263650*
X284012Y263643*
X284095Y263065*
Y263058*
X286310Y275483D02*
X284095D01*
Y275005*
X284789*
X284839Y274955*
Y270079*
X284789Y270029*
X284095*
Y269550*
X286310*
Y270029*
X285616*
X285566Y270079*
Y274955*
X285616Y275005*
X286310*
Y275483*
X292569Y285719D02*
X292467Y286643D01*
X292365Y287461*
X292060Y288070*
X291651Y288683*
X291247Y289087*
X290638Y289392*
X290026Y289596*
X289211Y289697*
X288499Y289596*
X287889Y289392*
X287380Y289087*
X286872Y288681*
X286465Y288070*
X286160Y287461*
X286058Y286643*
X285955Y285719*
X286160Y284079*
X286465Y283369*
X286870Y282862*
X287889Y282047*
X288495Y281946*
X289211Y281844*
X290640Y282048*
X291143Y282350*
X291653Y282860*
X292060Y283369*
X292364Y284079*
X292569Y285719*
X291637D02*
Y285715D01*
X291533Y284372*
X291527Y284352*
X291011Y283422*
X290999Y283408*
X290276Y282788*
X290262Y282780*
X289746Y282573*
X289727Y282570*
X288798*
X288779Y282573*
X288262Y282780*
X288248Y282788*
X287525Y283408*
X287512Y283426*
X287099Y284356*
X287095Y284368*
X286889Y285711*
X286888Y285719*
X286889Y285727*
X287095Y287070*
X287097Y287078*
X287304Y287698*
X287307Y287704*
X287513Y288117*
X287518Y288125*
X287828Y288538*
X287845Y288553*
X288259Y288760*
X288271Y288764*
X289304Y288971*
X289325Y288970*
X290255Y288764*
X290276Y288753*
X290999Y288133*
X291013Y288115*
X291426Y287186*
X291430Y287172*
X291636Y285726*
X291637Y285719*
X283582Y270194D02*
X280905D01*
X280855Y270244*
Y275483*
X280129*
Y269550*
X283582*
Y270194*
X285338Y284269D02*
X285236Y284880D01*
X285036Y285483*
X284537Y285882*
X284027Y286086*
X283995Y286132*
Y286236*
X284023Y286280*
X284426Y286482*
X284726Y286882*
X284927Y287285*
X285027Y287784*
X284825Y288591*
X284628Y288887*
X284229Y289186*
X283517Y289389*
X283007Y289491*
X280273*
Y282050*
X283111*
X283618Y282151*
X284124Y282354*
X284528Y282657*
X285140Y283371*
X285338Y283768*
Y284269*
X284405Y284273D02*
Y284266D01*
X284302Y283543*
X284287Y283514*
X283874Y283101*
X283859Y283090*
X283135Y282780*
X283116Y282776*
X281256*
X281206Y282826*
Y285616*
X281256Y285666*
X283219*
X283238Y285662*
X283754Y285456*
X283763Y285451*
X284073Y285244*
X284087Y285230*
X284294Y284920*
X284301Y284901*
X284405Y284281*
Y284273*
X284095Y287682D02*
Y287674D01*
X283991Y287054*
X283982Y287032*
X283672Y286619*
X283651Y286602*
X283134Y286396*
X283116Y286392*
X281256*
X281206Y286442*
Y288715*
X281256Y288765*
X283116*
X283134Y288761*
X283651Y288555*
X283668Y288544*
X283978Y288234*
X283991Y288208*
X284094Y287692*
X284095Y287682*
X280200Y260050D02*
Y265983D01*
Y269550D02*
Y275483D01*
X280300Y260050D02*
Y265983D01*
Y269550D02*
Y275483D01*
Y282050D02*
Y289491D01*
X280400Y260050D02*
Y265983D01*
Y269550D02*
Y275483D01*
Y282050D02*
Y289491D01*
X280500Y260050D02*
Y265983D01*
Y269550D02*
Y275483D01*
Y282050D02*
Y289491D01*
X280600Y260050D02*
Y265983D01*
Y269550D02*
Y275483D01*
Y282050D02*
Y289491D01*
X280700Y260050D02*
Y265983D01*
Y269550D02*
Y275483D01*
Y282050D02*
Y289491D01*
X280800Y260050D02*
Y265983D01*
Y269550D02*
Y275483D01*
Y282050D02*
Y289491D01*
X280900Y260050D02*
Y260611D01*
Y265422D02*
Y265983D01*
Y269550D02*
Y270194D01*
Y282050D02*
Y289491D01*
X281000Y260050D02*
Y260611D01*
Y265422D02*
Y265983D01*
Y269550D02*
Y270194D01*
Y282050D02*
Y289491D01*
X281100Y260050D02*
Y260611D01*
Y265422D02*
Y265983D01*
Y269550D02*
Y270194D01*
Y282050D02*
Y289491D01*
X281200Y260050D02*
Y260611D01*
Y265422D02*
Y265983D01*
Y269550D02*
Y270194D01*
Y282050D02*
Y289491D01*
X281300Y260050D02*
Y260611D01*
Y265422D02*
Y265983D01*
Y269550D02*
Y270194D01*
Y282050D02*
Y282776D01*
Y285666D02*
Y286392D01*
Y288765D02*
Y289491D01*
X281400Y260050D02*
Y260611D01*
Y265422D02*
Y265983D01*
Y269550D02*
Y270194D01*
Y282050D02*
Y282776D01*
Y285666D02*
Y286392D01*
Y288765D02*
Y289491D01*
X281500Y260050D02*
Y260612D01*
Y265422D02*
Y265983D01*
Y269550D02*
Y270194D01*
Y282050D02*
Y282776D01*
Y285666D02*
Y286392D01*
Y288765D02*
Y289491D01*
X281600Y260050D02*
Y260621D01*
Y265422D02*
Y265983D01*
Y269550D02*
Y270194D01*
Y282050D02*
Y282776D01*
Y285666D02*
Y286392D01*
Y288765D02*
Y289491D01*
X281700Y260050D02*
Y260629D01*
Y265422D02*
Y265983D01*
Y269550D02*
Y270194D01*
Y282050D02*
Y282776D01*
Y285666D02*
Y286392D01*
Y288765D02*
Y289491D01*
X281800Y260050D02*
Y260637D01*
Y265422D02*
Y265983D01*
Y269550D02*
Y270194D01*
Y282050D02*
Y282776D01*
Y285666D02*
Y286392D01*
Y288765D02*
Y289491D01*
X281900Y260050D02*
Y260646D01*
Y265422D02*
Y265983D01*
Y269550D02*
Y270194D01*
Y282050D02*
Y282776D01*
Y285666D02*
Y286392D01*
Y288765D02*
Y289491D01*
X282000Y260050D02*
Y260654D01*
Y265422D02*
Y265983D01*
Y269550D02*
Y270194D01*
Y282050D02*
Y282776D01*
Y285666D02*
Y286392D01*
Y288765D02*
Y289491D01*
X282100Y260050D02*
Y260662D01*
Y265415D02*
Y265983D01*
Y269550D02*
Y270194D01*
Y282050D02*
Y282776D01*
Y285666D02*
Y286392D01*
Y288765D02*
Y289491D01*
X282200Y260058D02*
Y260671D01*
Y265395D02*
Y265983D01*
Y269550D02*
Y270194D01*
Y282050D02*
Y282776D01*
Y285666D02*
Y286392D01*
Y288765D02*
Y289491D01*
X282300Y260073D02*
Y260679D01*
Y265375D02*
Y265960D01*
Y269550D02*
Y270194D01*
Y282050D02*
Y282776D01*
Y285666D02*
Y286392D01*
Y288765D02*
Y289491D01*
X282400Y260087D02*
Y260687D01*
Y265355D02*
Y265932D01*
Y269550D02*
Y270194D01*
Y282050D02*
Y282776D01*
Y285666D02*
Y286392D01*
Y288765D02*
Y289491D01*
X282500Y260101D02*
Y260698D01*
Y265333D02*
Y265903D01*
Y269550D02*
Y270194D01*
Y282050D02*
Y282776D01*
Y285666D02*
Y286392D01*
Y288765D02*
Y289491D01*
X282600Y260116D02*
Y260718D01*
Y265283D02*
Y265875D01*
Y269550D02*
Y270194D01*
Y282050D02*
Y282776D01*
Y285666D02*
Y286392D01*
Y288765D02*
Y289491D01*
X282700Y260130D02*
Y260738D01*
Y265233D02*
Y265846D01*
Y269550D02*
Y270194D01*
Y282050D02*
Y282776D01*
Y285666D02*
Y286392D01*
Y288765D02*
Y289491D01*
X282800Y260167D02*
Y260758D01*
Y265183D02*
Y265816D01*
Y269550D02*
Y270194D01*
Y282050D02*
Y282776D01*
Y285666D02*
Y286392D01*
Y288765D02*
Y289491D01*
X282900Y260207D02*
Y260778D01*
Y265133D02*
Y265776D01*
Y269550D02*
Y270194D01*
Y282050D02*
Y282776D01*
Y285666D02*
Y286392D01*
Y288765D02*
Y289491D01*
X283000Y260247D02*
Y260848D01*
Y265083D02*
Y265736D01*
Y269550D02*
Y270194D01*
Y282050D02*
Y282776D01*
Y285666D02*
Y286392D01*
Y288765D02*
Y289491D01*
X283100Y260287D02*
Y260923D01*
Y265033D02*
Y265696D01*
Y269550D02*
Y270194D01*
Y282050D02*
Y282776D01*
Y285666D02*
Y286392D01*
Y288765D02*
Y289473D01*
X283200Y260336D02*
Y260998D01*
Y264972D02*
Y265656D01*
Y269550D02*
Y270194D01*
Y282068D02*
Y282808D01*
Y285666D02*
Y286422D01*
Y288735D02*
Y289453D01*
X283300Y260386D02*
Y261085D01*
Y264892D02*
Y265616D01*
Y269550D02*
Y270194D01*
Y282088D02*
Y282851D01*
Y285637D02*
Y286462D01*
Y288695D02*
Y289433D01*
X283400Y260436D02*
Y261185D01*
Y264812D02*
Y265576D01*
Y269550D02*
Y270194D01*
Y282108D02*
Y282894D01*
Y285597D02*
Y286502D01*
Y288655D02*
Y289413D01*
X283500Y260486D02*
Y261285D01*
Y264732D02*
Y265536D01*
Y269550D02*
Y270194D01*
Y282128D02*
Y282937D01*
Y285557D02*
Y286542D01*
Y288615D02*
Y289393D01*
X283600Y260536D02*
Y261392D01*
Y264641D02*
Y265496D01*
Y282148D02*
Y282980D01*
Y285517D02*
Y286582D01*
Y288575D02*
Y289366D01*
X283700Y260617D02*
Y261558D01*
Y264475D02*
Y265416D01*
Y282184D02*
Y283022D01*
Y285477D02*
Y286656D01*
Y288511D02*
Y289337D01*
X283800Y260701D02*
Y261725D01*
Y264308D02*
Y265332D01*
Y282224D02*
Y283065D01*
Y285426D02*
Y286789D01*
Y288411D02*
Y289309D01*
X283900Y260784D02*
Y261995D01*
Y264038D02*
Y265249D01*
Y282264D02*
Y283127D01*
Y285360D02*
Y286922D01*
Y288311D02*
Y289280D01*
X284000Y260867D02*
Y262345D01*
Y263688D02*
Y265166D01*
Y282304D02*
Y283227D01*
Y285293D02*
Y286111D01*
Y286256D02*
Y287105D01*
Y288164D02*
Y289251D01*
X284100Y260956D02*
Y265077D01*
Y269550D02*
Y270029D01*
Y275005D02*
Y275483D01*
Y282344D02*
Y283327D01*
Y285211D02*
Y286057D01*
Y286319D02*
Y289223D01*
X284200Y261096D02*
Y264937D01*
Y269550D02*
Y270029D01*
Y275005D02*
Y275483D01*
Y282411D02*
Y283427D01*
Y285061D02*
Y286017D01*
Y286369D02*
Y289194D01*
X284300Y261236D02*
Y264797D01*
Y269550D02*
Y270029D01*
Y275005D02*
Y275483D01*
Y282486D02*
Y283535D01*
Y284907D02*
Y285977D01*
Y286419D02*
Y289133D01*
X284400Y261376D02*
Y264657D01*
Y269550D02*
Y270029D01*
Y275005D02*
Y275483D01*
Y282561D02*
Y284232D01*
Y284309D02*
Y285937D01*
Y286469D02*
Y289058D01*
X284500Y261522D02*
Y264511D01*
Y269550D02*
Y270029D01*
Y275005D02*
Y275483D01*
Y282636D02*
Y285897D01*
Y286581D02*
Y288983D01*
X284600Y261822D02*
Y264211D01*
Y269550D02*
Y270029D01*
Y275005D02*
Y275483D01*
Y282741D02*
Y285831D01*
Y286714D02*
Y288908D01*
X284700Y262122D02*
Y263911D01*
Y269550D02*
Y270029D01*
Y275005D02*
Y275483D01*
Y282858D02*
Y285751D01*
Y286847D02*
Y288779D01*
X284800Y262781D02*
Y263192D01*
Y269550D02*
Y270030D01*
Y275003D02*
Y275483D01*
Y282974D02*
Y285671D01*
Y287030D02*
Y288629D01*
X284900Y269550D02*
Y275483D01*
Y283091D02*
Y285591D01*
Y287230D02*
Y288293D01*
X285000Y269550D02*
Y275483D01*
Y283208D02*
Y285511D01*
Y287648D02*
Y287893D01*
X285100Y269550D02*
Y275483D01*
Y283324D02*
Y285290D01*
X285200Y269550D02*
Y275483D01*
Y283491D02*
Y284990D01*
X285300Y269550D02*
Y275483D01*
Y283691D02*
Y284499D01*
X285400Y269550D02*
Y275483D01*
X285500Y269550D02*
Y275483D01*
X285600Y269550D02*
Y270031D01*
Y275002D02*
Y275483D01*
X285700Y269550D02*
Y270029D01*
Y275005D02*
Y275483D01*
X285800Y260050D02*
Y265983D01*
Y269550D02*
Y270029D01*
Y275005D02*
Y275483D01*
X285900Y260050D02*
Y265983D01*
Y269550D02*
Y270029D01*
Y275005D02*
Y275483D01*
X286000Y260050D02*
Y265983D01*
Y269550D02*
Y270029D01*
Y275005D02*
Y275483D01*
Y285362D02*
Y286122D01*
X286100Y260050D02*
Y265983D01*
Y269550D02*
Y270029D01*
Y275005D02*
Y275483D01*
Y284562D02*
Y286980D01*
X286200Y260050D02*
Y265983D01*
Y269550D02*
Y270029D01*
Y275005D02*
Y275483D01*
Y283987D02*
Y287540D01*
X286300Y260050D02*
Y265983D01*
Y269550D02*
Y270029D01*
Y275005D02*
Y275483D01*
Y283753D02*
Y287740D01*
X286400Y260050D02*
Y265983D01*
Y283520D02*
Y287940D01*
X286500Y260050D02*
Y260700D01*
Y262936D02*
Y263593D01*
Y265333D02*
Y265983D01*
Y283325D02*
Y288123D01*
X286600Y260050D02*
Y260694D01*
Y262943D02*
Y263586D01*
Y265339D02*
Y265983D01*
Y283200D02*
Y288273D01*
X286700Y260050D02*
Y260694D01*
Y262943D02*
Y263586D01*
Y265339D02*
Y265983D01*
Y283075D02*
Y288423D01*
X286800Y260050D02*
Y260694D01*
Y262943D02*
Y263586D01*
Y265339D02*
Y265983D01*
Y282950D02*
Y288573D01*
X286900Y260050D02*
Y260694D01*
Y262943D02*
Y263586D01*
Y265339D02*
Y265983D01*
Y282838D02*
Y285637D01*
Y285801D02*
Y288703D01*
X287000Y260050D02*
Y260694D01*
Y262943D02*
Y263586D01*
Y265339D02*
Y265983D01*
Y282758D02*
Y284987D01*
Y286451D02*
Y288783D01*
X287100Y260050D02*
Y260694D01*
Y262943D02*
Y263586D01*
Y265339D02*
Y265983D01*
Y282678D02*
Y284353D01*
Y287086D02*
Y288863D01*
X287200Y260050D02*
Y260694D01*
Y262943D02*
Y263586D01*
Y265339D02*
Y265983D01*
Y282598D02*
Y284128D01*
Y287386D02*
Y288943D01*
X287300Y260050D02*
Y260694D01*
Y262943D02*
Y263586D01*
Y265339D02*
Y265983D01*
Y282518D02*
Y283903D01*
Y287686D02*
Y289023D01*
X287400Y260050D02*
Y260694D01*
Y262943D02*
Y263586D01*
Y265339D02*
Y265983D01*
Y269550D02*
Y275483D01*
Y282438D02*
Y283678D01*
Y287891D02*
Y289099D01*
X287500Y260050D02*
Y260694D01*
Y262943D02*
Y263586D01*
Y265339D02*
Y265983D01*
Y269550D02*
Y275483D01*
Y282358D02*
Y283453D01*
Y288091D02*
Y289159D01*
X287600Y260050D02*
Y260694D01*
Y262943D02*
Y263586D01*
Y265339D02*
Y265983D01*
Y269550D02*
Y275483D01*
Y282278D02*
Y283344D01*
Y288235D02*
Y289219D01*
X287700Y260050D02*
Y260694D01*
Y262943D02*
Y263586D01*
Y265339D02*
Y265983D01*
Y269550D02*
Y275483D01*
Y282198D02*
Y283259D01*
Y288368D02*
Y289279D01*
X287800Y260050D02*
Y260694D01*
Y262943D02*
Y263586D01*
Y265339D02*
Y265983D01*
Y269550D02*
Y275483D01*
Y282118D02*
Y283173D01*
Y288501D02*
Y289339D01*
X287900Y260050D02*
Y260694D01*
Y262943D02*
Y263586D01*
Y265339D02*
Y265983D01*
Y269550D02*
Y275483D01*
Y282045D02*
Y283087D01*
Y288580D02*
Y289396D01*
X288000Y260050D02*
Y260694D01*
Y262943D02*
Y263586D01*
Y265339D02*
Y265983D01*
Y274755D02*
Y275483D01*
Y282029D02*
Y283001D01*
Y288630D02*
Y289429D01*
X288100Y260050D02*
Y260694D01*
Y262943D02*
Y263586D01*
Y265339D02*
Y265983D01*
Y274647D02*
Y275483D01*
Y282012D02*
Y282916D01*
Y288680D02*
Y289463D01*
X288200Y260050D02*
Y260694D01*
Y262943D02*
Y263586D01*
Y265339D02*
Y265983D01*
Y274456D02*
Y275483D01*
Y281995D02*
Y282830D01*
Y288730D02*
Y289496D01*
X288300Y260050D02*
Y260694D01*
Y262943D02*
Y263586D01*
Y265339D02*
Y265983D01*
Y274265D02*
Y275483D01*
Y281979D02*
Y282765D01*
Y288770D02*
Y289529D01*
X288400Y260050D02*
Y260694D01*
Y262943D02*
Y263586D01*
Y265339D02*
Y265983D01*
Y274074D02*
Y275474D01*
Y281962D02*
Y282725D01*
Y288790D02*
Y289563D01*
X288500Y260050D02*
Y260694D01*
Y262943D02*
Y263586D01*
Y265339D02*
Y265983D01*
Y273883D02*
Y275280D01*
Y281945D02*
Y282685D01*
Y288810D02*
Y289596D01*
X288600Y260050D02*
Y260694D01*
Y262943D02*
Y263586D01*
Y265339D02*
Y265983D01*
Y273693D02*
Y275087D01*
Y281931D02*
Y282645D01*
Y288830D02*
Y289610D01*
X288700Y260050D02*
Y260694D01*
Y262943D02*
Y263586D01*
Y265339D02*
Y265983D01*
Y273502D02*
Y274894D01*
Y281917D02*
Y282605D01*
Y288850D02*
Y289624D01*
X288800Y260050D02*
Y260694D01*
Y262943D02*
Y263586D01*
Y265339D02*
Y265983D01*
Y273311D02*
Y274700D01*
Y281903D02*
Y282570D01*
Y288870D02*
Y289639D01*
X288900Y260050D02*
Y260694D01*
Y262943D02*
Y263586D01*
Y265339D02*
Y265983D01*
Y273120D02*
Y274507D01*
Y281888D02*
Y282570D01*
Y288890D02*
Y289653D01*
X289000Y260050D02*
Y260694D01*
Y262943D02*
Y263586D01*
Y265339D02*
Y265983D01*
Y272929D02*
Y274314D01*
Y281874D02*
Y282570D01*
Y288910D02*
Y289667D01*
X289100Y260050D02*
Y260694D01*
Y262943D02*
Y263586D01*
Y265339D02*
Y265983D01*
Y272738D02*
Y274120D01*
Y281860D02*
Y282570D01*
Y288930D02*
Y289682D01*
X289200Y260050D02*
Y260694D01*
Y262943D02*
Y263586D01*
Y265339D02*
Y265983D01*
Y272547D02*
Y273927D01*
Y281845D02*
Y282570D01*
Y288950D02*
Y289696D01*
X289300Y260050D02*
Y260694D01*
Y265339D02*
Y265983D01*
Y272356D02*
Y273734D01*
Y281857D02*
Y282570D01*
Y288970D02*
Y289686D01*
X289400Y260050D02*
Y260694D01*
Y265339D02*
Y265983D01*
Y272165D02*
Y273540D01*
Y281871D02*
Y282570D01*
Y288954D02*
Y289674D01*
X289500Y271974D02*
Y273347D01*
Y281885D02*
Y282570D01*
Y288931D02*
Y289661D01*
X289600Y271783D02*
Y273154D01*
Y281900D02*
Y282570D01*
Y288909D02*
Y289649D01*
X289700Y271593D02*
Y272960D01*
Y281914D02*
Y282570D01*
Y288887D02*
Y289636D01*
X289800Y271402D02*
Y272767D01*
Y281928D02*
Y282595D01*
Y288865D02*
Y289624D01*
X289900Y271211D02*
Y272574D01*
Y281942D02*
Y282635D01*
Y288842D02*
Y289611D01*
X290000Y271020D02*
Y272380D01*
Y281957D02*
Y282675D01*
Y288820D02*
Y289599D01*
X290100Y270829D02*
Y272187D01*
Y281971D02*
Y282715D01*
Y288798D02*
Y289571D01*
X290200Y270638D02*
Y271994D01*
Y281985D02*
Y282755D01*
Y288776D02*
Y289538D01*
X290300Y270447D02*
Y271800D01*
Y282000D02*
Y282809D01*
Y288733D02*
Y289504D01*
X290400Y260050D02*
Y265983D01*
Y270256D02*
Y271607D01*
Y282014D02*
Y282894D01*
Y288647D02*
Y289471D01*
X290500Y260050D02*
Y265983D01*
Y270065D02*
Y271414D01*
Y282028D02*
Y282980D01*
Y288561D02*
Y289438D01*
X290600Y260050D02*
Y265983D01*
Y269874D02*
Y271220D01*
Y282042D02*
Y283066D01*
Y288475D02*
Y289404D01*
X290700Y260050D02*
Y265983D01*
Y269683D02*
Y271027D01*
Y282084D02*
Y283152D01*
Y288390D02*
Y289361D01*
X290800Y260050D02*
Y265983D01*
Y269550D02*
Y270834D01*
Y282144D02*
Y283237D01*
Y288304D02*
Y289311D01*
X290900Y260050D02*
Y265983D01*
Y269550D02*
Y270690D01*
Y282204D02*
Y283323D01*
Y288218D02*
Y289261D01*
X291000Y260050D02*
Y265983D01*
Y269550D02*
Y275483D01*
Y282264D02*
Y283409D01*
Y288133D02*
Y289211D01*
X291100Y265247D02*
Y265983D01*
Y269550D02*
Y275483D01*
Y282324D02*
Y283583D01*
Y287919D02*
Y289161D01*
X291200Y265037D02*
Y265983D01*
Y269550D02*
Y275483D01*
Y282407D02*
Y283763D01*
Y287694D02*
Y289111D01*
X291300Y264810D02*
Y265983D01*
Y269550D02*
Y275483D01*
Y282507D02*
Y283943D01*
Y287469D02*
Y289034D01*
X291400Y264584D02*
Y265916D01*
Y269550D02*
Y275483D01*
Y282607D02*
Y284123D01*
Y287244D02*
Y288934D01*
X291500Y264358D02*
Y265700D01*
Y269550D02*
Y275483D01*
Y282707D02*
Y284303D01*
Y286680D02*
Y288834D01*
X291600Y264131D02*
Y265484D01*
Y282807D02*
Y285239D01*
Y285980D02*
Y288734D01*
X291700Y263905D02*
Y265269D01*
Y282919D02*
Y288610D01*
X291800Y263679D02*
Y265053D01*
Y283044D02*
Y288460D01*
X291900Y263452D02*
Y264837D01*
Y283169D02*
Y288310D01*
X292000Y263226D02*
Y264621D01*
Y283294D02*
Y288160D01*
X292100Y263000D02*
Y264405D01*
Y283462D02*
Y287990D01*
X292200Y262774D02*
Y264190D01*
Y283696D02*
Y287790D01*
X292300Y262547D02*
Y263974D01*
Y283929D02*
Y287590D01*
X292400Y262321D02*
Y263758D01*
Y284363D02*
Y287178D01*
X292500Y262095D02*
Y263542D01*
Y285163D02*
Y286345D01*
X292600Y261868D02*
Y263326D01*
X292700Y261703D02*
Y263111D01*
X292800Y261703D02*
Y262895D01*
Y288662D02*
Y289491D01*
X292900Y261703D02*
Y262679D01*
Y269550D02*
Y275483D01*
Y288662D02*
Y289491D01*
X293000Y261703D02*
Y262604D01*
Y269550D02*
Y275483D01*
Y288662D02*
Y289491D01*
X293100Y261703D02*
Y262825D01*
Y269550D02*
Y275483D01*
Y288662D02*
Y289491D01*
X293200Y261921D02*
Y263066D01*
Y269550D02*
Y275483D01*
Y288662D02*
Y289491D01*
X293300Y262147D02*
Y263307D01*
Y269550D02*
Y275483D01*
Y288662D02*
Y289491D01*
X293400Y262373D02*
Y263549D01*
Y269550D02*
Y275483D01*
Y288662D02*
Y289491D01*
X293500Y262600D02*
Y263790D01*
Y269550D02*
Y275483D01*
Y288662D02*
Y289491D01*
X293600Y262826D02*
Y264031D01*
Y269550D02*
Y270206D01*
Y272431D02*
Y273098D01*
Y274827D02*
Y275483D01*
Y288662D02*
Y289491D01*
X293700Y263052D02*
Y264272D01*
Y269550D02*
Y270194D01*
Y272443D02*
Y273086D01*
Y274839D02*
Y275483D01*
Y288662D02*
Y289491D01*
X293800Y263279D02*
Y264513D01*
Y269550D02*
Y270194D01*
Y272443D02*
Y273086D01*
Y274839D02*
Y275483D01*
Y288662D02*
Y289491D01*
X293900Y263505D02*
Y264754D01*
Y269550D02*
Y270194D01*
Y272443D02*
Y273086D01*
Y274839D02*
Y275483D01*
Y288662D02*
Y289491D01*
X294000Y263731D02*
Y264996D01*
Y269550D02*
Y270194D01*
Y272443D02*
Y273086D01*
Y274839D02*
Y275483D01*
Y288662D02*
Y289491D01*
X294100Y263957D02*
Y265237D01*
Y269550D02*
Y270194D01*
Y272443D02*
Y273086D01*
Y274839D02*
Y275483D01*
Y288662D02*
Y289491D01*
X294200Y264184D02*
Y265478D01*
Y269550D02*
Y270194D01*
Y272443D02*
Y273086D01*
Y274839D02*
Y275483D01*
Y288662D02*
Y289491D01*
X294300Y264410D02*
Y265719D01*
Y269550D02*
Y270194D01*
Y272443D02*
Y273086D01*
Y274839D02*
Y275483D01*
Y288662D02*
Y289491D01*
X294400Y264636D02*
Y265960D01*
Y269550D02*
Y270194D01*
Y272443D02*
Y273086D01*
Y274839D02*
Y275483D01*
Y288662D02*
Y289491D01*
X294500Y264863D02*
Y265983D01*
Y269550D02*
Y270194D01*
Y272443D02*
Y273086D01*
Y274839D02*
Y275483D01*
Y288662D02*
Y289491D01*
X294600Y265089D02*
Y265983D01*
Y269550D02*
Y270194D01*
Y272443D02*
Y273086D01*
Y274839D02*
Y275483D01*
Y288662D02*
Y289491D01*
X294700Y265256D02*
Y265983D01*
Y269550D02*
Y270194D01*
Y272443D02*
Y273086D01*
Y274839D02*
Y275483D01*
Y288662D02*
Y289491D01*
X294800Y260050D02*
Y265983D01*
Y269550D02*
Y270194D01*
Y272443D02*
Y273086D01*
Y274839D02*
Y275483D01*
Y288662D02*
Y289491D01*
X294900Y260050D02*
Y265983D01*
Y269550D02*
Y270194D01*
Y272443D02*
Y273086D01*
Y274839D02*
Y275483D01*
Y288662D02*
Y289491D01*
X295000Y260050D02*
Y265983D01*
Y269550D02*
Y270194D01*
Y272443D02*
Y273086D01*
Y274839D02*
Y275483D01*
Y288662D02*
Y289491D01*
X295100Y260050D02*
Y265983D01*
Y269550D02*
Y270194D01*
Y272443D02*
Y273086D01*
Y274839D02*
Y275483D01*
Y288662D02*
Y289491D01*
X295200Y260050D02*
Y265983D01*
Y269550D02*
Y270194D01*
Y272443D02*
Y273086D01*
Y274839D02*
Y275483D01*
Y288662D02*
Y289491D01*
X295300Y260050D02*
Y265983D01*
Y269550D02*
Y270194D01*
Y272443D02*
Y273086D01*
Y274839D02*
Y275483D01*
Y288662D02*
Y289491D01*
X295400Y260050D02*
Y265983D01*
Y269550D02*
Y270194D01*
Y272443D02*
Y273086D01*
Y274839D02*
Y275483D01*
Y288662D02*
Y289491D01*
X295500Y269550D02*
Y270194D01*
Y272443D02*
Y273086D01*
Y274839D02*
Y275483D01*
Y282050D02*
Y289491D01*
X295600Y269550D02*
Y270194D01*
Y272443D02*
Y273086D01*
Y274839D02*
Y275483D01*
Y282050D02*
Y289491D01*
X295700Y269550D02*
Y270194D01*
Y272443D02*
Y273086D01*
Y274839D02*
Y275483D01*
Y282050D02*
Y289491D01*
X295800Y269550D02*
Y270194D01*
Y272443D02*
Y273086D01*
Y274839D02*
Y275483D01*
Y282050D02*
Y289491D01*
X295900Y269550D02*
Y270194D01*
Y272443D02*
Y273086D01*
Y274839D02*
Y275483D01*
Y282050D02*
Y289491D01*
X296000Y269550D02*
Y270194D01*
Y272443D02*
Y273086D01*
Y274839D02*
Y275483D01*
Y282050D02*
Y289491D01*
X296100Y269550D02*
Y270194D01*
Y272443D02*
Y273086D01*
Y274839D02*
Y275483D01*
Y282050D02*
Y289491D01*
X296200Y269550D02*
Y270194D01*
Y272443D02*
Y273086D01*
Y274839D02*
Y275483D01*
Y282050D02*
Y289491D01*
X296300Y269550D02*
Y270194D01*
Y272443D02*
Y273086D01*
Y274839D02*
Y275483D01*
Y282050D02*
Y289491D01*
X296400Y269550D02*
Y270194D01*
Y274839D02*
Y275483D01*
Y288638D02*
Y289491D01*
X296500Y262254D02*
Y263779D01*
Y269550D02*
Y270194D01*
Y274839D02*
Y275483D01*
Y288662D02*
Y289491D01*
X296600Y261604D02*
Y264419D01*
Y288662D02*
Y289491D01*
X296700Y261371D02*
Y264619D01*
Y288662D02*
Y289491D01*
X296800Y261138D02*
Y264819D01*
Y288662D02*
Y289491D01*
X296900Y260995D02*
Y264977D01*
Y288662D02*
Y289491D01*
X297000Y260870D02*
Y265127D01*
Y269550D02*
Y269780D01*
Y288662D02*
Y289491D01*
X297100Y260745D02*
Y265277D01*
Y269550D02*
Y270084D01*
Y288662D02*
Y289491D01*
X297200Y260648D02*
Y262555D01*
Y263395D02*
Y265385D01*
Y269550D02*
Y270388D01*
Y288662D02*
Y289491D01*
X297300Y260568D02*
Y261905D01*
Y264045D02*
Y265465D01*
Y269550D02*
Y270692D01*
Y288662D02*
Y289491D01*
X297400Y260488D02*
Y261668D01*
Y264354D02*
Y265545D01*
Y269550D02*
Y270996D01*
Y288662D02*
Y289491D01*
X297500Y260408D02*
Y261443D01*
Y264624D02*
Y265625D01*
Y269550D02*
Y271301D01*
Y288662D02*
Y289491D01*
X297600Y260328D02*
Y261218D01*
Y264824D02*
Y265694D01*
Y269550D02*
Y271605D01*
Y288662D02*
Y289491D01*
X297700Y260248D02*
Y261076D01*
Y264984D02*
Y265754D01*
Y269550D02*
Y271909D01*
Y288662D02*
Y289491D01*
X297800Y260168D02*
Y260990D01*
Y265117D02*
Y265814D01*
Y269806D02*
Y272213D01*
Y288662D02*
Y289491D01*
X297900Y260088D02*
Y260904D01*
Y265247D02*
Y265874D01*
Y270156D02*
Y272517D01*
Y288662D02*
Y289491D01*
X298000Y260039D02*
Y260818D01*
Y265298D02*
Y265921D01*
Y270506D02*
Y272821D01*
Y288662D02*
Y289491D01*
X298100Y260022D02*
Y260733D01*
Y265348D02*
Y265954D01*
Y270856D02*
Y273126D01*
Y288662D02*
Y289491D01*
X298200Y260006D02*
Y260647D01*
Y265398D02*
Y265988D01*
Y271206D02*
Y273430D01*
Y288662D02*
Y289491D01*
X298300Y259989D02*
Y260591D01*
Y265431D02*
Y266021D01*
Y271286D02*
Y273734D01*
Y288662D02*
Y289491D01*
X298400Y259972D02*
Y260551D01*
Y265451D02*
Y266054D01*
Y271286D02*
Y274038D01*
Y288662D02*
Y289491D01*
X298500Y259957D02*
Y260511D01*
Y265471D02*
Y266076D01*
Y271286D02*
Y271847D01*
Y272038D02*
Y274342D01*
Y288662D02*
Y289491D01*
X298600Y259943D02*
Y260471D01*
Y265491D02*
Y266090D01*
Y271286D02*
Y271847D01*
Y272358D02*
Y274646D01*
Y288662D02*
Y289491D01*
X298700Y259929D02*
Y260446D01*
Y265511D02*
Y266104D01*
Y271286D02*
Y271847D01*
Y272678D02*
Y274951D01*
Y288662D02*
Y289491D01*
X298800Y259914D02*
Y260446D01*
Y265531D02*
Y266119D01*
Y271286D02*
Y271847D01*
Y272998D02*
Y275255D01*
Y288662D02*
Y289491D01*
X298900Y259900D02*
Y260446D01*
Y265551D02*
Y266133D01*
Y271286D02*
Y271847D01*
Y273318D02*
Y275483D01*
Y288662D02*
Y289491D01*
X299000Y259886D02*
Y260446D01*
Y265571D02*
Y266147D01*
Y271286D02*
Y271847D01*
Y273638D02*
Y275483D01*
Y288662D02*
Y289491D01*
X299100Y259899D02*
Y260446D01*
Y265585D02*
Y266136D01*
Y271286D02*
Y271847D01*
Y273958D02*
Y275483D01*
Y288662D02*
Y289491D01*
X299200Y259913D02*
Y260446D01*
Y265563D02*
Y266123D01*
Y271286D02*
Y271847D01*
Y274278D02*
Y275483D01*
Y288662D02*
Y289491D01*
X299300Y259927D02*
Y260446D01*
Y265541D02*
Y266111D01*
Y271286D02*
Y271847D01*
Y274577D02*
Y275483D01*
Y288662D02*
Y289491D01*
X299400Y259942D02*
Y260446D01*
Y265519D02*
Y266098D01*
Y271286D02*
Y271847D01*
Y274500D02*
Y275483D01*
Y288662D02*
Y289491D01*
X299500Y259956D02*
Y260475D01*
Y265497D02*
Y266086D01*
Y271286D02*
Y271847D01*
Y274180D02*
Y275483D01*
Y288662D02*
Y289491D01*
X299600Y259970D02*
Y260515D01*
Y265474D02*
Y266073D01*
Y271286D02*
Y271847D01*
Y273860D02*
Y275483D01*
Y288662D02*
Y289491D01*
X299700Y259985D02*
Y260555D01*
Y265452D02*
Y266051D01*
Y271286D02*
Y271847D01*
Y273540D02*
Y275483D01*
Y288662D02*
Y289491D01*
X299800Y259999D02*
Y260595D01*
Y265430D02*
Y266018D01*
Y271286D02*
Y271847D01*
Y273220D02*
Y275466D01*
Y288662D02*
Y289491D01*
X299900Y260013D02*
Y260655D01*
Y265378D02*
Y265985D01*
Y271286D02*
Y271847D01*
Y272900D02*
Y275162D01*
Y288662D02*
Y289491D01*
X300000Y260027D02*
Y260741D01*
Y265293D02*
Y265951D01*
Y271286D02*
Y271847D01*
Y272580D02*
Y274858D01*
Y288662D02*
Y289491D01*
X300100Y260042D02*
Y260826D01*
Y265207D02*
Y265918D01*
Y271286D02*
Y271847D01*
Y272260D02*
Y274553D01*
Y288662D02*
Y289491D01*
X300200Y260082D02*
Y260912D01*
Y265121D02*
Y265875D01*
Y271286D02*
Y271865D01*
Y271940D02*
Y274249D01*
Y288662D02*
Y289491D01*
X300300Y260142D02*
Y260998D01*
Y265035D02*
Y265825D01*
Y271286D02*
Y273945D01*
Y288662D02*
Y289491D01*
X300400Y260202D02*
Y261083D01*
Y264950D02*
Y265775D01*
Y271286D02*
Y273641D01*
Y288662D02*
Y289491D01*
X300500Y260262D02*
Y261218D01*
Y264795D02*
Y265725D01*
Y271099D02*
Y273337D01*
Y288662D02*
Y289491D01*
X300600Y260344D02*
Y261398D01*
Y264570D02*
Y265675D01*
Y270749D02*
Y273033D01*
Y288662D02*
Y289491D01*
X300700Y260444D02*
Y261578D01*
Y264345D02*
Y265589D01*
Y270399D02*
Y272728D01*
Y288662D02*
Y289491D01*
X300800Y260544D02*
Y261758D01*
Y264063D02*
Y265489D01*
Y270049D02*
Y272424D01*
Y288662D02*
Y289491D01*
X300900Y260644D02*
Y262259D01*
Y263363D02*
Y265389D01*
Y269699D02*
Y272120D01*
Y288662D02*
Y289491D01*
X301000Y260757D02*
Y265263D01*
Y269550D02*
Y271816D01*
Y288662D02*
Y289491D01*
X301100Y260882D02*
Y265113D01*
Y269550D02*
Y271512D01*
Y288662D02*
Y289491D01*
X301200Y261007D02*
Y264963D01*
Y269550D02*
Y271208D01*
Y288662D02*
Y289491D01*
X301300Y261159D02*
Y264801D01*
Y269550D02*
Y270903D01*
Y288662D02*
Y289491D01*
X301400Y261392D02*
Y264601D01*
Y269550D02*
Y270599D01*
Y288662D02*
Y289491D01*
X301500Y261626D02*
Y264401D01*
Y269550D02*
Y270295D01*
Y282050D02*
Y289491D01*
X301600Y262327D02*
Y263705D01*
Y269550D02*
Y269991D01*
Y282050D02*
Y289491D01*
X301700Y269550D02*
Y269687D01*
Y282050D02*
Y289491D01*
X301800Y282050D02*
Y289491D01*
X301900Y282050D02*
Y289491D01*
X302000Y282050D02*
Y289491D01*
X302100Y282050D02*
Y289491D01*
X302200Y282050D02*
Y289491D01*
X302300Y282050D02*
Y289491D01*
X302400Y288648D02*
Y289491D01*
X302500Y269550D02*
Y275483D01*
Y288662D02*
Y289491D01*
X302600Y269550D02*
Y275483D01*
Y288662D02*
Y289491D01*
X302700Y269550D02*
Y275483D01*
Y288662D02*
Y289491D01*
X302800Y269550D02*
Y275483D01*
Y288662D02*
Y289491D01*
X302900Y269550D02*
Y275483D01*
Y288662D02*
Y289491D01*
X303000Y269550D02*
Y275483D01*
Y288662D02*
Y289491D01*
X303100Y269550D02*
Y275483D01*
Y288662D02*
Y289491D01*
X303200Y271943D02*
Y272512D01*
Y274918D02*
Y275483D01*
Y288662D02*
Y289491D01*
X303300Y271947D02*
Y272508D01*
Y274922D02*
Y275483D01*
Y288662D02*
Y289491D01*
X303400Y271947D02*
Y272508D01*
Y274922D02*
Y275483D01*
Y288662D02*
Y289491D01*
X303500Y271947D02*
Y272508D01*
Y274922D02*
Y275483D01*
Y288662D02*
Y289491D01*
X303600Y271947D02*
Y272508D01*
Y274922D02*
Y275483D01*
Y288662D02*
Y289491D01*
X303700Y271947D02*
Y272508D01*
Y274922D02*
Y275483D01*
Y288662D02*
Y289491D01*
X303800Y271947D02*
Y272508D01*
Y274922D02*
Y275483D01*
Y288662D02*
Y289491D01*
X303900Y271947D02*
Y272508D01*
Y274922D02*
Y275483D01*
Y288662D02*
Y289491D01*
X304000Y271947D02*
Y272513D01*
Y274922D02*
Y275483D01*
Y288662D02*
Y289491D01*
X304100Y271947D02*
Y272527D01*
Y274915D02*
Y275483D01*
Y288662D02*
Y289491D01*
X304200Y271947D02*
Y272541D01*
Y274900D02*
Y275483D01*
Y288662D02*
Y289491D01*
X304300Y271946D02*
Y272556D01*
Y274886D02*
Y275483D01*
Y288662D02*
Y289491D01*
X304400Y271843D02*
Y272570D01*
Y274872D02*
Y275483D01*
Y288662D02*
Y289491D01*
X304500Y271717D02*
Y272584D01*
Y274857D02*
Y275474D01*
Y288662D02*
Y289491D01*
X304600Y271591D02*
Y272614D01*
Y274843D02*
Y275454D01*
Y288662D02*
Y289491D01*
X304700Y271464D02*
Y272664D01*
Y274807D02*
Y275434D01*
Y288662D02*
Y289491D01*
X304800Y271338D02*
Y272714D01*
Y274757D02*
Y275414D01*
Y288662D02*
Y289491D01*
X304900Y262431D02*
Y263519D01*
Y271212D02*
Y272764D01*
Y274707D02*
Y275386D01*
Y288662D02*
Y289491D01*
X305000Y261688D02*
Y264341D01*
Y271086D02*
Y272009D01*
Y272223D02*
Y272814D01*
Y274649D02*
Y275349D01*
Y288662D02*
Y289491D01*
X305100Y261440D02*
Y264559D01*
Y270960D02*
Y271886D01*
Y272273D02*
Y272896D01*
Y274549D02*
Y275311D01*
X305200Y261207D02*
Y264759D01*
Y270834D02*
Y271763D01*
Y272323D02*
Y273063D01*
Y274449D02*
Y275274D01*
X305300Y261033D02*
Y264932D01*
Y270708D02*
Y271640D01*
Y272373D02*
Y273229D01*
Y274349D02*
Y275236D01*
Y285507D02*
Y285958D01*
X305400Y260908D02*
Y265082D01*
Y270582D02*
Y271517D01*
Y272423D02*
Y273752D01*
Y273974D02*
Y275199D01*
Y284707D02*
Y286834D01*
X305500Y260783D02*
Y265232D01*
Y270456D02*
Y271394D01*
Y272513D02*
Y275161D01*
Y284029D02*
Y287504D01*
X305600Y260665D02*
Y262286D01*
Y263202D02*
Y265361D01*
Y270330D02*
Y271271D01*
Y272613D02*
Y275065D01*
Y283796D02*
Y287704D01*
X305700Y260565D02*
Y261986D01*
Y263852D02*
Y265441D01*
Y270204D02*
Y271148D01*
Y272713D02*
Y274965D01*
Y283562D02*
Y287904D01*
X305800Y260465D02*
Y261764D01*
Y264232D02*
Y265521D01*
Y270078D02*
Y271025D01*
Y272813D02*
Y274865D01*
Y283348D02*
Y288095D01*
X305900Y260365D02*
Y261584D01*
Y264482D02*
Y265601D01*
Y269951D02*
Y270902D01*
Y272990D02*
Y274765D01*
Y283223D02*
Y288245D01*
X306000Y260274D02*
Y261404D01*
Y264732D02*
Y265676D01*
Y269825D02*
Y270779D01*
Y273190D02*
Y274596D01*
Y283098D02*
Y288395D01*
X306100Y260214D02*
Y261224D01*
Y264930D02*
Y265736D01*
Y269699D02*
Y270656D01*
Y273574D02*
Y274096D01*
Y282973D02*
Y288545D01*
X306200Y260154D02*
Y261066D01*
Y265005D02*
Y265796D01*
Y269573D02*
Y270532D01*
Y282853D02*
Y288689D01*
X306300Y260094D02*
Y260933D01*
Y265080D02*
Y265856D01*
Y269550D02*
Y270409D01*
Y282773D02*
Y285105D01*
Y286333D02*
Y288769D01*
X306400Y260045D02*
Y260799D01*
Y265155D02*
Y265910D01*
Y269550D02*
Y270286D01*
Y282693D02*
Y284455D01*
Y286983D02*
Y288849D01*
X306500Y260030D02*
Y260742D01*
Y265230D02*
Y265939D01*
Y269550D02*
Y270163D01*
Y282613D02*
Y284169D01*
Y287332D02*
Y288929D01*
X306600Y260016D02*
Y260692D01*
Y265305D02*
Y265967D01*
Y269550D02*
Y270040D01*
Y282533D02*
Y283944D01*
Y287632D02*
Y289009D01*
X306700Y260002D02*
Y260642D01*
Y265380D02*
Y265996D01*
Y269550D02*
Y269917D01*
Y282453D02*
Y283719D01*
Y287855D02*
Y289088D01*
X306800Y259988D02*
Y260592D01*
Y265429D02*
Y266024D01*
Y269550D02*
Y269794D01*
Y282373D02*
Y283494D01*
Y288055D02*
Y289148D01*
X306900Y259973D02*
Y260542D01*
Y265451D02*
Y266053D01*
Y269550D02*
Y269671D01*
Y282293D02*
Y283360D01*
Y288210D02*
Y289208D01*
X307000Y259958D02*
Y260492D01*
Y265474D02*
Y266074D01*
Y282213D02*
Y283274D01*
Y288344D02*
Y289268D01*
X307100Y259941D02*
Y260446D01*
Y265496D02*
Y266088D01*
Y282133D02*
Y283188D01*
Y288477D02*
Y289328D01*
X307200Y259924D02*
Y260446D01*
Y265518D02*
Y266103D01*
Y282053D02*
Y283103D01*
Y288571D02*
Y289388D01*
X307300Y259908D02*
Y260446D01*
Y265540D02*
Y266117D01*
Y282032D02*
Y283017D01*
Y288621D02*
Y289423D01*
X307400Y259891D02*
Y260446D01*
Y265563D02*
Y266131D01*
Y282015D02*
Y282931D01*
Y288671D02*
Y289457D01*
X307500Y259885D02*
Y260446D01*
Y265585D02*
Y266145D01*
Y281998D02*
Y282846D01*
Y288721D02*
Y289490D01*
X307600Y259885D02*
Y260457D01*
Y265576D02*
Y266134D01*
Y281982D02*
Y282772D01*
Y288766D02*
Y289523D01*
X307700Y259885D02*
Y260472D01*
Y265561D02*
Y266117D01*
Y281965D02*
Y282732D01*
Y288786D02*
Y289557D01*
X307800Y259885D02*
Y260486D01*
Y265547D02*
Y266100D01*
Y281948D02*
Y282692D01*
Y288806D02*
Y289590D01*
X307900Y259885D02*
Y260500D01*
Y265533D02*
Y266084D01*
Y281934D02*
Y282652D01*
Y288826D02*
Y289608D01*
X308000Y259885D02*
Y260514D01*
Y265519D02*
Y266067D01*
Y281919D02*
Y282612D01*
Y288846D02*
Y289622D01*
X308100Y259891D02*
Y260529D01*
Y265504D02*
Y266050D01*
Y281905D02*
Y282572D01*
Y288866D02*
Y289636D01*
X308200Y259931D02*
Y260569D01*
Y265458D02*
Y266034D01*
Y281891D02*
Y282570D01*
Y288886D02*
Y289650D01*
X308300Y259971D02*
Y260612D01*
Y265408D02*
Y266017D01*
Y281877D02*
Y282570D01*
Y288906D02*
Y289665D01*
X308400Y260011D02*
Y260655D01*
Y265358D02*
Y266000D01*
Y281862D02*
Y282570D01*
Y288926D02*
Y289679D01*
X308500Y260050D02*
Y260698D01*
Y265308D02*
Y265983D01*
Y281848D02*
Y282570D01*
Y288946D02*
Y289693D01*
X308600Y260083D02*
Y260741D01*
Y265258D02*
Y265943D01*
Y281854D02*
Y282570D01*
Y288966D02*
Y289689D01*
X308700Y260117D02*
Y260784D01*
Y265199D02*
Y265903D01*
Y281868D02*
Y282570D01*
Y288958D02*
Y289676D01*
X308800Y260150D02*
Y260859D01*
Y265139D02*
Y265863D01*
Y281883D02*
Y282570D01*
Y288935D02*
Y289664D01*
X308900Y260183D02*
Y260934D01*
Y265079D02*
Y265823D01*
Y281897D02*
Y282570D01*
Y288913D02*
Y289651D01*
X309000Y260219D02*
Y261009D01*
Y265019D02*
Y265783D01*
Y281911D02*
Y282570D01*
Y288891D02*
Y289639D01*
X309100Y260269D02*
Y261100D01*
Y264934D02*
Y265743D01*
Y281925D02*
Y282588D01*
Y288869D02*
Y289626D01*
X309200Y260319D02*
Y261200D01*
Y264834D02*
Y265703D01*
Y281940D02*
Y282628D01*
Y288847D02*
Y289614D01*
X309300Y281954D02*
Y282668D01*
Y288824D02*
Y289601D01*
X309400Y274839D02*
Y275483D01*
Y281968D02*
Y282708D01*
Y288802D02*
Y289577D01*
X309500Y274839D02*
Y275483D01*
Y281983D02*
Y282748D01*
Y288780D02*
Y289544D01*
X309600Y274839D02*
Y275483D01*
Y281997D02*
Y282793D01*
Y288748D02*
Y289510D01*
X309700Y274839D02*
Y275483D01*
Y282011D02*
Y282879D01*
Y288662D02*
Y289477D01*
X309800Y274839D02*
Y275483D01*
Y282025D02*
Y282965D01*
Y288577D02*
Y289444D01*
X309900Y274839D02*
Y275483D01*
Y282040D02*
Y283050D01*
Y288491D02*
Y289410D01*
X310000Y260050D02*
Y260529D01*
Y265505D02*
Y265983D01*
Y274839D02*
Y275483D01*
Y282073D02*
Y283136D01*
Y288405D02*
Y289370D01*
X310100Y260050D02*
Y260529D01*
Y265505D02*
Y265983D01*
Y274839D02*
Y275483D01*
Y282133D02*
Y283222D01*
Y288320D02*
Y289320D01*
X310200Y260050D02*
Y260529D01*
Y265505D02*
Y265983D01*
Y274839D02*
Y275483D01*
Y282193D02*
Y283307D01*
Y288234D02*
Y289270D01*
X310300Y260050D02*
Y260529D01*
Y265505D02*
Y265983D01*
Y274839D02*
Y275483D01*
Y282253D02*
Y283393D01*
Y288148D02*
Y289220D01*
X310400Y260050D02*
Y260529D01*
Y265505D02*
Y265983D01*
Y274839D02*
Y275483D01*
Y282313D02*
Y283550D01*
Y287960D02*
Y289170D01*
X310500Y260050D02*
Y260529D01*
Y265505D02*
Y265983D01*
Y274839D02*
Y275483D01*
Y282389D02*
Y283730D01*
Y287735D02*
Y289120D01*
X310600Y260050D02*
Y260529D01*
Y265505D02*
Y265983D01*
Y274839D02*
Y275483D01*
Y282489D02*
Y283910D01*
Y287510D02*
Y289052D01*
X310700Y260050D02*
Y260553D01*
Y265480D02*
Y265983D01*
Y274839D02*
Y275483D01*
Y282589D02*
Y284090D01*
Y287285D02*
Y288952D01*
X310800Y260050D02*
Y265983D01*
Y274839D02*
Y275483D01*
Y282689D02*
Y284270D01*
Y286807D02*
Y288852D01*
X310900Y260050D02*
Y265983D01*
Y274839D02*
Y275483D01*
Y282789D02*
Y285003D01*
Y286107D02*
Y288752D01*
X311000Y260050D02*
Y265983D01*
Y274839D02*
Y275483D01*
Y282896D02*
Y288637D01*
X311100Y260050D02*
Y265983D01*
Y274839D02*
Y275483D01*
Y283021D02*
Y288487D01*
X311200Y260050D02*
Y265983D01*
Y274839D02*
Y275483D01*
Y283146D02*
Y288337D01*
X311300Y260050D02*
Y265983D01*
Y274839D02*
Y275483D01*
Y283271D02*
Y288187D01*
X311400Y260050D02*
Y265983D01*
Y274839D02*
Y275483D01*
Y283420D02*
Y288026D01*
X311500Y260050D02*
Y260529D01*
Y265505D02*
Y265983D01*
Y274836D02*
Y275483D01*
Y283653D02*
Y287826D01*
X311600Y260050D02*
Y260529D01*
Y265505D02*
Y265983D01*
Y269550D02*
Y275483D01*
Y283886D02*
Y287626D01*
X311700Y260050D02*
Y260529D01*
Y265505D02*
Y265983D01*
Y269550D02*
Y275483D01*
Y284218D02*
Y287323D01*
X311800Y260050D02*
Y260529D01*
Y265505D02*
Y265983D01*
Y269550D02*
Y275483D01*
Y285018D02*
Y286508D01*
X311900Y260050D02*
Y260529D01*
Y265505D02*
Y265983D01*
Y269550D02*
Y275483D01*
X312000Y260050D02*
Y260529D01*
Y265505D02*
Y265983D01*
Y269550D02*
Y275483D01*
X312100Y260050D02*
Y260529D01*
Y265505D02*
Y265983D01*
Y269550D02*
Y275483D01*
X312200Y269550D02*
Y275483D01*
X312300Y274838D02*
Y275483D01*
X312400Y274839D02*
Y275483D01*
X312500Y274839D02*
Y275483D01*
X312600Y274839D02*
Y275483D01*
X312700Y274839D02*
Y275483D01*
X312800Y274839D02*
Y275483D01*
X312900Y274839D02*
Y275483D01*
X313000Y274839D02*
Y275483D01*
X313100Y274839D02*
Y275483D01*
Y282050D02*
Y289491D01*
X313200Y260050D02*
Y265983D01*
Y274839D02*
Y275483D01*
Y282050D02*
Y289491D01*
X313300Y260050D02*
Y265983D01*
Y274839D02*
Y275483D01*
Y282050D02*
Y289491D01*
X313400Y260050D02*
Y265983D01*
Y274839D02*
Y275483D01*
Y282050D02*
Y289491D01*
X313500Y260050D02*
Y265983D01*
Y274839D02*
Y275483D01*
Y282050D02*
Y289491D01*
X313600Y260050D02*
Y265983D01*
Y274839D02*
Y275483D01*
Y282050D02*
Y289491D01*
X313700Y260050D02*
Y265983D01*
Y274839D02*
Y275483D01*
Y282050D02*
Y289491D01*
X313800Y260050D02*
Y265983D01*
Y274839D02*
Y275483D01*
Y282050D02*
Y289491D01*
X313900Y260050D02*
Y265983D01*
Y274839D02*
Y275483D01*
Y288558D02*
Y289491D01*
X314000Y262447D02*
Y263008D01*
Y265422D02*
Y265983D01*
Y274839D02*
Y275483D01*
Y288408D02*
Y289491D01*
X314100Y262447D02*
Y263008D01*
Y265422D02*
Y265983D01*
Y274839D02*
Y275483D01*
Y288181D02*
Y289491D01*
X314200Y262447D02*
Y263008D01*
Y265422D02*
Y265983D01*
Y274839D02*
Y275483D01*
Y287955D02*
Y289491D01*
X314300Y262447D02*
Y263008D01*
Y265422D02*
Y265983D01*
Y274839D02*
Y275483D01*
Y287729D02*
Y289453D01*
X314400Y262447D02*
Y263008D01*
Y265422D02*
Y265983D01*
Y274839D02*
Y275483D01*
Y287502D02*
Y289237D01*
X314500Y262447D02*
Y263008D01*
Y265422D02*
Y265983D01*
Y287276D02*
Y289021D01*
X314600Y262447D02*
Y263008D01*
Y265422D02*
Y265983D01*
Y287050D02*
Y288805D01*
X314700Y262447D02*
Y263008D01*
Y265422D02*
Y265983D01*
Y286823D02*
Y288590D01*
X314800Y262447D02*
Y263021D01*
Y265421D02*
Y265983D01*
Y286597D02*
Y288374D01*
X314900Y262447D02*
Y263035D01*
Y265407D02*
Y265983D01*
Y286371D02*
Y288158D01*
X315000Y262447D02*
Y263049D01*
Y265392D02*
Y265983D01*
Y269550D02*
Y275483D01*
Y286144D02*
Y287942D01*
X315100Y262398D02*
Y263064D01*
Y265378D02*
Y265983D01*
Y269550D02*
Y275483D01*
Y285918D02*
Y287726D01*
X315200Y262272D02*
Y263078D01*
Y265364D02*
Y265983D01*
Y269550D02*
Y275483D01*
Y285692D02*
Y287511D01*
X315300Y262146D02*
Y263093D01*
Y265349D02*
Y265963D01*
Y269550D02*
Y275483D01*
Y285465D02*
Y287295D01*
X315400Y262020D02*
Y263142D01*
Y265329D02*
Y265943D01*
Y269550D02*
Y275483D01*
Y285239D02*
Y287079D01*
X315500Y261894D02*
Y263192D01*
Y265279D02*
Y265923D01*
Y269550D02*
Y275483D01*
Y285013D02*
Y286863D01*
X315600Y261768D02*
Y263242D01*
Y265229D02*
Y265903D01*
Y269550D02*
Y275483D01*
Y284786D02*
Y286647D01*
X315700Y261641D02*
Y262563D01*
Y262701D02*
Y263292D01*
Y265179D02*
Y265865D01*
Y269550D02*
Y270194D01*
Y272443D02*
Y273086D01*
Y274839D02*
Y275483D01*
Y284560D02*
Y286432D01*
X315800Y261515D02*
Y262440D01*
Y262751D02*
Y263342D01*
Y265093D02*
Y265828D01*
Y269550D02*
Y270194D01*
Y272443D02*
Y273086D01*
Y274839D02*
Y275483D01*
Y284334D02*
Y286216D01*
X315900Y261389D02*
Y262317D01*
Y262801D02*
Y263490D01*
Y264993D02*
Y265790D01*
Y269550D02*
Y270194D01*
Y272443D02*
Y273086D01*
Y274839D02*
Y275483D01*
Y284116D02*
Y286000D01*
X316000Y261263D02*
Y262194D01*
Y262851D02*
Y263656D01*
Y264893D02*
Y265753D01*
Y269550D02*
Y270194D01*
Y272443D02*
Y273086D01*
Y274839D02*
Y275483D01*
Y284116D02*
Y285784D01*
X316100Y261137D02*
Y262071D01*
Y262901D02*
Y263946D01*
Y264693D02*
Y265715D01*
Y269550D02*
Y270194D01*
Y272443D02*
Y273086D01*
Y274839D02*
Y275483D01*
Y284116D02*
Y285569D01*
X316200Y261011D02*
Y261948D01*
Y262969D02*
Y265678D01*
Y269550D02*
Y270194D01*
Y272443D02*
Y273086D01*
Y274839D02*
Y275483D01*
Y284116D02*
Y285353D01*
X316300Y260885D02*
Y261825D01*
Y263069D02*
Y265609D01*
Y269550D02*
Y270194D01*
Y272443D02*
Y273086D01*
Y274839D02*
Y275483D01*
Y284116D02*
Y285261D01*
X316400Y260759D02*
Y261702D01*
Y263169D02*
Y265509D01*
Y269550D02*
Y270194D01*
Y272443D02*
Y273086D01*
Y274839D02*
Y275483D01*
Y284116D02*
Y285472D01*
X316500Y260633D02*
Y261579D01*
Y263269D02*
Y265409D01*
Y269550D02*
Y270194D01*
Y272443D02*
Y273086D01*
Y274839D02*
Y275483D01*
Y284227D02*
Y285713D01*
X316600Y260507D02*
Y261456D01*
Y263403D02*
Y265309D01*
Y269550D02*
Y270194D01*
Y272443D02*
Y273086D01*
Y274839D02*
Y275483D01*
Y284454D02*
Y285955D01*
X316700Y260381D02*
Y261333D01*
Y263603D02*
Y265209D01*
Y269550D02*
Y270194D01*
Y272443D02*
Y273086D01*
Y274839D02*
Y275483D01*
Y284680D02*
Y286196D01*
X316800Y260254D02*
Y261209D01*
Y263803D02*
Y264815D01*
Y269550D02*
Y270194D01*
Y272443D02*
Y273086D01*
Y274839D02*
Y275483D01*
Y284906D02*
Y286437D01*
X316900Y260128D02*
Y261086D01*
Y269550D02*
Y270194D01*
Y272443D02*
Y273086D01*
Y274839D02*
Y275483D01*
Y285132D02*
Y286678D01*
X317000Y260050D02*
Y260963D01*
Y269550D02*
Y270194D01*
Y272443D02*
Y273086D01*
Y274839D02*
Y275483D01*
Y285359D02*
Y286919D01*
X317100Y260050D02*
Y260840D01*
Y269550D02*
Y270194D01*
Y272443D02*
Y273086D01*
Y274839D02*
Y275483D01*
Y285585D02*
Y287160D01*
X317200Y260050D02*
Y260717D01*
Y269550D02*
Y270194D01*
Y272443D02*
Y273086D01*
Y274839D02*
Y275483D01*
Y285811D02*
Y287402D01*
X317300Y260050D02*
Y260594D01*
Y269550D02*
Y270194D01*
Y272443D02*
Y273086D01*
Y274839D02*
Y275483D01*
Y286038D02*
Y287643D01*
X317400Y260050D02*
Y260471D01*
Y269550D02*
Y270194D01*
Y272443D02*
Y273086D01*
Y274839D02*
Y275483D01*
Y286264D02*
Y287884D01*
X317500Y260050D02*
Y260348D01*
Y269550D02*
Y270194D01*
Y272443D02*
Y273086D01*
Y274839D02*
Y275483D01*
Y286490D02*
Y288125D01*
X317600Y260050D02*
Y260225D01*
Y269550D02*
Y270194D01*
Y272443D02*
Y273086D01*
Y274839D02*
Y275483D01*
Y286717D02*
Y288366D01*
X317700Y260050D02*
Y260102D01*
Y269550D02*
Y270194D01*
Y272443D02*
Y273086D01*
Y274839D02*
Y275483D01*
Y286943D02*
Y288608D01*
X317800Y269550D02*
Y270194D01*
Y272443D02*
Y273086D01*
Y274839D02*
Y275483D01*
Y287169D02*
Y288849D01*
X317900Y269550D02*
Y270194D01*
Y272443D02*
Y273086D01*
Y274839D02*
Y275483D01*
Y287396D02*
Y289090D01*
X318000Y262796D02*
Y263155D01*
Y269550D02*
Y270194D01*
Y272443D02*
Y273086D01*
Y274839D02*
Y275483D01*
Y287622D02*
Y289331D01*
X318100Y261972D02*
Y264017D01*
Y269550D02*
Y270194D01*
Y272443D02*
Y273086D01*
Y274839D02*
Y275483D01*
Y287848D02*
Y289491D01*
X318200Y261535D02*
Y264478D01*
Y269550D02*
Y270194D01*
Y272443D02*
Y273086D01*
Y274839D02*
Y275483D01*
Y288075D02*
Y289491D01*
X318300Y261302D02*
Y264678D01*
Y269550D02*
Y270194D01*
Y272443D02*
Y273086D01*
Y274839D02*
Y275483D01*
Y288301D02*
Y289491D01*
X318400Y261083D02*
Y264871D01*
Y269550D02*
Y270194D01*
Y272443D02*
Y273086D01*
Y274839D02*
Y275483D01*
Y288527D02*
Y289491D01*
X318500Y260958D02*
Y265021D01*
Y269550D02*
Y270194D01*
Y274839D02*
Y275483D01*
Y282050D02*
Y289491D01*
X318600Y260833D02*
Y265171D01*
Y269550D02*
Y270194D01*
Y274839D02*
Y275483D01*
Y282050D02*
Y289491D01*
X318700Y260708D02*
Y265321D01*
Y282050D02*
Y289491D01*
X318800Y260605D02*
Y262107D01*
Y263589D02*
Y265409D01*
Y282050D02*
Y289491D01*
X318900Y260505D02*
Y261837D01*
Y264130D02*
Y265489D01*
Y282050D02*
Y289491D01*
X319000Y260405D02*
Y261657D01*
Y264380D02*
Y265569D01*
Y282050D02*
Y289491D01*
X319100Y260305D02*
Y261477D01*
Y264630D02*
Y265649D01*
Y282050D02*
Y289491D01*
X319200Y260238D02*
Y261297D01*
Y264880D02*
Y265712D01*
Y282050D02*
Y289491D01*
X319300Y260178D02*
Y261120D01*
Y264974D02*
Y265772D01*
Y271753D02*
Y273198D01*
Y282050D02*
Y289491D01*
X319400Y260118D02*
Y260987D01*
Y265049D02*
Y265832D01*
Y271127D02*
Y273899D01*
Y282050D02*
Y289491D01*
X319500Y260058D02*
Y260853D01*
Y265124D02*
Y265892D01*
Y270894D02*
Y274099D01*
X319600Y260036D02*
Y260762D01*
Y265199D02*
Y265927D01*
Y270661D02*
Y274299D01*
X319700Y260022D02*
Y260712D01*
Y265274D02*
Y265956D01*
Y270508D02*
Y274462D01*
X319800Y260008D02*
Y260662D01*
Y265349D02*
Y265984D01*
Y270383D02*
Y274612D01*
X319900Y259993D02*
Y260612D01*
Y265420D02*
Y266013D01*
Y270258D02*
Y274762D01*
X320000Y259979D02*
Y260562D01*
Y265442D02*
Y266041D01*
Y270145D02*
Y271726D01*
Y272831D02*
Y274877D01*
X320100Y259964D02*
Y260512D01*
Y265465D02*
Y266068D01*
Y270045D02*
Y271426D01*
Y273481D02*
Y274957D01*
X320200Y259948D02*
Y260462D01*
Y265487D02*
Y266083D01*
Y269945D02*
Y271228D01*
Y273781D02*
Y275037D01*
X320300Y259931D02*
Y260446D01*
Y265509D02*
Y266097D01*
Y269845D02*
Y271048D01*
Y274031D02*
Y275117D01*
X320400Y259914D02*
Y260446D01*
Y265531D02*
Y266111D01*
Y269762D02*
Y270868D01*
Y274281D02*
Y275188D01*
X320500Y259898D02*
Y260446D01*
Y265554D02*
Y266125D01*
Y269702D02*
Y270688D01*
Y274445D02*
Y275248D01*
X320600Y259885D02*
Y260446D01*
Y265576D02*
Y266140D01*
Y269642D02*
Y270540D01*
Y274520D02*
Y275308D01*
X320700Y259885D02*
Y260451D01*
Y265582D02*
Y266140D01*
Y269582D02*
Y270406D01*
Y274595D02*
Y275368D01*
X320800Y259885D02*
Y260466D01*
Y265567D02*
Y266124D01*
Y269542D02*
Y270282D01*
Y274670D02*
Y275416D01*
X320900Y259885D02*
Y260480D01*
Y265553D02*
Y266107D01*
Y269528D02*
Y270232D01*
Y274745D02*
Y275444D01*
X321000Y259885D02*
Y260494D01*
Y265539D02*
Y266090D01*
Y269513D02*
Y270182D01*
Y274820D02*
Y275473D01*
X321100Y259885D02*
Y260509D01*
Y265524D02*
Y266074D01*
Y269499D02*
Y270132D01*
Y274895D02*
Y275501D01*
X321200Y259885D02*
Y260523D01*
Y265510D02*
Y266057D01*
Y269485D02*
Y270082D01*
Y274934D02*
Y275530D01*
X321300Y259914D02*
Y260552D01*
Y265478D02*
Y266040D01*
Y269470D02*
Y270032D01*
Y274956D02*
Y275559D01*
X321400Y259954D02*
Y260595D01*
Y265428D02*
Y266024D01*
Y269454D02*
Y269982D01*
Y274978D02*
Y275577D01*
X321500Y259994D02*
Y260637D01*
Y265378D02*
Y266007D01*
Y269438D02*
Y269946D01*
Y275000D02*
Y275591D01*
X321600Y260034D02*
Y260680D01*
Y265328D02*
Y265990D01*
Y269421D02*
Y269946D01*
Y275022D02*
Y275605D01*
X321700Y260070D02*
Y260723D01*
Y265278D02*
Y265959D01*
Y269404D02*
Y269946D01*
Y275045D02*
Y275620D01*
X321800Y260103D02*
Y260766D01*
Y265224D02*
Y265919D01*
Y269388D02*
Y269946D01*
Y275067D02*
Y275634D01*
X321900Y260136D02*
Y260828D01*
Y265164D02*
Y265879D01*
Y269385D02*
Y269946D01*
Y275087D02*
Y275647D01*
X322000Y260170D02*
Y260903D01*
Y265104D02*
Y265839D01*
Y269385D02*
Y269960D01*
Y275073D02*
Y275630D01*
X322100Y260203D02*
Y260978D01*
Y265044D02*
Y265799D01*
Y269385D02*
Y269974D01*
Y275059D02*
Y275614D01*
X322200Y260249D02*
Y261059D01*
Y264974D02*
Y265759D01*
Y269385D02*
Y269989D01*
Y275044D02*
Y275597D01*
X322300Y260299D02*
Y261159D01*
Y264874D02*
Y265719D01*
Y269385D02*
Y270003D01*
Y275030D02*
Y275580D01*
X322400Y260349D02*
Y261259D01*
Y264774D02*
Y265679D01*
Y269385D02*
Y270017D01*
Y275016D02*
Y275564D01*
X322500Y269398D02*
Y270035D01*
Y274998D02*
Y275547D01*
X322600Y269438D02*
Y270078D01*
Y274948D02*
Y275530D01*
X322700Y269478D02*
Y270120D01*
Y274898D02*
Y275514D01*
X322800Y269518D02*
Y270163D01*
Y274848D02*
Y275497D01*
X322900Y269557D02*
Y270206D01*
Y274798D02*
Y275475D01*
X323000Y269590D02*
Y270249D01*
Y274748D02*
Y275435D01*
X323100Y269623D02*
Y270299D01*
Y274688D02*
Y275395D01*
X323200Y269657D02*
Y270374D01*
Y274628D02*
Y275355D01*
X323300Y261568D02*
Y265983D01*
Y269690D02*
Y270449D01*
Y274568D02*
Y275315D01*
X323400Y261268D02*
Y265983D01*
Y269729D02*
Y270524D01*
Y274508D02*
Y275275D01*
X323500Y261002D02*
Y265983D01*
Y269779D02*
Y270619D01*
Y274414D02*
Y275235D01*
X323600Y260760D02*
Y265983D01*
Y269829D02*
Y270719D01*
Y274314D02*
Y275195D01*
X323700Y260627D02*
Y265983D01*
X323800Y260493D02*
Y265983D01*
Y282435D02*
Y283603D01*
X323900Y260408D02*
Y265983D01*
Y282399D02*
Y283523D01*
Y287327D02*
Y287700D01*
X324000Y260346D02*
Y262188D01*
Y282363D02*
Y283443D01*
Y286724D02*
Y288100D01*
X324100Y260283D02*
Y261414D01*
Y282326D02*
Y283363D01*
Y286574D02*
Y288424D01*
X324200Y260221D02*
Y261114D01*
Y282290D02*
Y283283D01*
Y286424D02*
Y288564D01*
X324300Y260158D02*
Y260914D01*
Y282254D02*
Y283203D01*
Y286274D02*
Y288704D01*
X324400Y260096D02*
Y260814D01*
Y282217D02*
Y283151D01*
Y286144D02*
Y288844D01*
X324500Y260043D02*
Y260714D01*
Y282181D02*
Y283101D01*
Y286064D02*
Y288984D01*
X324600Y260025D02*
Y260614D01*
Y269550D02*
Y275483D01*
Y282145D02*
Y283051D01*
Y285984D02*
Y289102D01*
X324700Y260007D02*
Y260529D01*
Y269550D02*
Y275483D01*
Y282108D02*
Y283001D01*
Y285904D02*
Y289152D01*
X324800Y259989D02*
Y260516D01*
Y269550D02*
Y275483D01*
Y282072D02*
Y282951D01*
Y285824D02*
Y289202D01*
X324900Y259971D02*
Y260504D01*
Y269550D02*
Y275483D01*
Y282036D02*
Y282901D01*
Y285757D02*
Y287281D01*
Y288181D02*
Y289252D01*
X325000Y259952D02*
Y260491D01*
Y269550D02*
Y275483D01*
Y282003D02*
Y282862D01*
Y285729D02*
Y287066D01*
Y288342D02*
Y289302D01*
X325100Y259934D02*
Y260479D01*
Y269550D02*
Y275483D01*
Y281970D02*
Y282829D01*
Y285700D02*
Y286866D01*
Y288476D02*
Y289352D01*
X325200Y259916D02*
Y260466D01*
Y269550D02*
Y275483D01*
Y281936D02*
Y282795D01*
Y285671D02*
Y286769D01*
Y288609D02*
Y289402D01*
X325300Y259898D02*
Y260454D01*
Y272443D02*
Y273086D01*
Y281903D02*
Y282762D01*
Y285643D02*
Y286703D01*
Y288680D02*
Y289452D01*
X325400Y259885D02*
Y260450D01*
Y272443D02*
Y273086D01*
Y281870D02*
Y282729D01*
Y285614D02*
Y286636D01*
Y288720D02*
Y289497D01*
X325500Y259885D02*
Y260462D01*
Y272443D02*
Y273086D01*
Y281843D02*
Y282695D01*
Y285586D02*
Y286578D01*
Y288760D02*
Y289517D01*
X325600Y259885D02*
Y260475D01*
Y272443D02*
Y273086D01*
Y281843D02*
Y282668D01*
Y285557D02*
Y286528D01*
Y288800D02*
Y289537D01*
X325700Y259885D02*
Y260487D01*
Y272443D02*
Y273086D01*
Y281843D02*
Y282652D01*
Y285529D02*
Y286478D01*
Y288840D02*
Y289557D01*
X325800Y259885D02*
Y260500D01*
Y272443D02*
Y273086D01*
Y281843D02*
Y282635D01*
Y285500D02*
Y286428D01*
Y288872D02*
Y289577D01*
X325900Y259885D02*
Y260512D01*
Y272443D02*
Y273086D01*
Y281843D02*
Y282618D01*
Y285471D02*
Y286387D01*
Y288889D02*
Y289597D01*
X326000Y259910D02*
Y260525D01*
Y272443D02*
Y273086D01*
Y281843D02*
Y282602D01*
Y285443D02*
Y286362D01*
Y288905D02*
Y289617D01*
X326100Y259950D02*
Y260573D01*
Y272443D02*
Y273086D01*
Y281843D02*
Y282585D01*
Y285414D02*
Y286337D01*
Y288922D02*
Y289637D01*
X326200Y259990D02*
Y260656D01*
Y272443D02*
Y273086D01*
Y281843D02*
Y282570D01*
Y285386D02*
Y286312D01*
Y288939D02*
Y289657D01*
X326300Y260030D02*
Y260739D01*
Y272443D02*
Y273086D01*
Y281843D02*
Y282584D01*
Y285357D02*
Y286287D01*
Y288955D02*
Y289677D01*
X326400Y260076D02*
Y260823D01*
Y272443D02*
Y273086D01*
Y281843D02*
Y282599D01*
Y285329D02*
Y286262D01*
Y288971D02*
Y289697D01*
X326500Y260126D02*
Y260906D01*
Y272443D02*
Y273086D01*
Y281843D02*
Y282613D01*
Y285300D02*
Y286237D01*
Y288956D02*
Y289689D01*
X326600Y260176D02*
Y261059D01*
Y272443D02*
Y273086D01*
Y281843D02*
Y282627D01*
Y285271D02*
Y286212D01*
Y288939D02*
Y289681D01*
X326700Y260235D02*
Y261359D01*
Y272443D02*
Y273086D01*
Y281843D02*
Y282642D01*
Y285243D02*
Y286187D01*
Y288922D02*
Y289673D01*
X326800Y260310D02*
Y262024D01*
Y272443D02*
Y273086D01*
Y281843D02*
Y282656D01*
Y285214D02*
Y286158D01*
Y288906D02*
Y289664D01*
X326900Y260385D02*
Y265983D01*
Y272443D02*
Y273086D01*
Y281843D02*
Y282670D01*
Y285186D02*
Y286129D01*
Y288889D02*
Y289656D01*
X327000Y260469D02*
Y265983D01*
Y272443D02*
Y273086D01*
Y281880D02*
Y282698D01*
Y285157D02*
Y286101D01*
Y288872D02*
Y289648D01*
X327100Y260602D02*
Y265983D01*
Y272443D02*
Y273086D01*
Y281920D02*
Y282731D01*
Y285115D02*
Y286072D01*
Y288856D02*
Y289639D01*
X327200Y260736D02*
Y265983D01*
Y272443D02*
Y273086D01*
Y281960D02*
Y282765D01*
Y285065D02*
Y286044D01*
Y288839D02*
Y289631D01*
X327300Y260957D02*
Y265983D01*
Y272443D02*
Y273086D01*
Y282000D02*
Y282798D01*
Y285015D02*
Y286015D01*
Y288822D02*
Y289623D01*
X327400Y261213D02*
Y265983D01*
Y272443D02*
Y273086D01*
Y282040D02*
Y282831D01*
Y284965D02*
Y285987D01*
Y288806D02*
Y289614D01*
X327500Y261513D02*
Y265983D01*
Y272443D02*
Y273086D01*
Y282100D02*
Y282865D01*
Y284909D02*
Y285946D01*
Y288789D02*
Y289606D01*
X327600Y272443D02*
Y273086D01*
Y282163D02*
Y282930D01*
Y284842D02*
Y285903D01*
Y288772D02*
Y289598D01*
X327700Y272443D02*
Y273086D01*
Y282225D02*
Y283064D01*
Y284775D02*
Y285860D01*
Y288737D02*
Y289567D01*
X327800Y272443D02*
Y273086D01*
Y282288D02*
Y283197D01*
Y284675D02*
Y285818D01*
Y288677D02*
Y289527D01*
X327900Y272443D02*
Y273086D01*
Y282350D02*
Y283356D01*
Y284371D02*
Y285775D01*
Y288617D02*
Y289487D01*
X328000Y272443D02*
Y273086D01*
Y282413D02*
Y283956D01*
Y283969D02*
Y285732D01*
Y288557D02*
Y289447D01*
X328100Y272442D02*
Y273087D01*
Y282475D02*
Y285689D01*
Y288497D02*
Y289407D01*
X328200Y269550D02*
Y275483D01*
Y282538D02*
Y285605D01*
Y288435D02*
Y289367D01*
X328300Y269550D02*
Y275483D01*
Y282658D02*
Y285505D01*
Y288360D02*
Y289327D01*
X328400Y269550D02*
Y275483D01*
Y282798D02*
Y285405D01*
Y288285D02*
Y289287D01*
X328500Y269550D02*
Y275483D01*
Y282938D02*
Y285305D01*
Y288210D02*
Y289247D01*
X328600Y260050D02*
Y260529D01*
Y265505D02*
Y265983D01*
Y269550D02*
Y275483D01*
Y283078D02*
Y285159D01*
Y288145D02*
Y289207D01*
X328700Y260050D02*
Y260529D01*
Y265505D02*
Y265983D01*
Y269550D02*
Y275483D01*
Y283218D02*
Y284992D01*
X328800Y260050D02*
Y260529D01*
Y265505D02*
Y265983D01*
Y269550D02*
Y275483D01*
Y283398D02*
Y284826D01*
X328900Y260050D02*
Y260529D01*
Y265505D02*
Y265983D01*
Y283598D02*
Y284297D01*
X329000Y260050D02*
Y260529D01*
Y265505D02*
Y265983D01*
X329100Y260050D02*
Y260529D01*
Y265505D02*
Y265983D01*
X329200Y260050D02*
Y260529D01*
Y265505D02*
Y265983D01*
X329300Y260050D02*
Y260564D01*
Y265469D02*
Y265983D01*
X329400Y260050D02*
Y265983D01*
X329500Y260050D02*
Y265983D01*
X329600Y260050D02*
Y265983D01*
Y285322D02*
Y286166D01*
X329700Y260050D02*
Y265983D01*
Y284522D02*
Y287019D01*
X329800Y260050D02*
Y265983D01*
Y283975D02*
Y287550D01*
X329900Y260050D02*
Y265983D01*
Y283742D02*
Y287750D01*
X330000Y260050D02*
Y265983D01*
Y283508D02*
Y287950D01*
X330100Y260050D02*
Y260529D01*
Y265505D02*
Y265983D01*
Y283319D02*
Y288130D01*
X330200Y260050D02*
Y260529D01*
Y265505D02*
Y265983D01*
Y269550D02*
Y275483D01*
Y283194D02*
Y288280D01*
X330300Y260050D02*
Y260529D01*
Y265505D02*
Y265983D01*
Y269550D02*
Y275483D01*
Y283069D02*
Y288430D01*
X330400Y260050D02*
Y260529D01*
Y265505D02*
Y265983D01*
Y269550D02*
Y275483D01*
Y282944D02*
Y288580D01*
X330500Y260050D02*
Y260529D01*
Y265505D02*
Y265983D01*
Y269550D02*
Y275483D01*
Y282834D02*
Y285605D01*
Y285833D02*
Y288707D01*
X330600Y260050D02*
Y260529D01*
Y265505D02*
Y265983D01*
Y269550D02*
Y275483D01*
Y282754D02*
Y284955D01*
Y286483D02*
Y288787D01*
X330700Y260050D02*
Y260529D01*
Y265505D02*
Y265983D01*
Y269550D02*
Y275483D01*
Y282674D02*
Y284342D01*
Y287101D02*
Y288867D01*
X330800Y274751D02*
Y275483D01*
Y282594D02*
Y284117D01*
Y287401D02*
Y288947D01*
X330900Y274666D02*
Y275483D01*
Y282514D02*
Y283892D01*
Y287701D02*
Y289027D01*
X331000Y274475D02*
Y275483D01*
Y282434D02*
Y283667D01*
Y287901D02*
Y289102D01*
X331100Y265339D02*
Y265983D01*
Y274284D02*
Y275483D01*
Y282354D02*
Y283442D01*
Y288101D02*
Y289162D01*
X331200Y265339D02*
Y265983D01*
Y274093D02*
Y275483D01*
Y282274D02*
Y283340D01*
Y288241D02*
Y289222D01*
X331300Y265339D02*
Y265983D01*
Y273902D02*
Y275300D01*
Y282194D02*
Y283254D01*
Y288375D02*
Y289282D01*
X331400Y265339D02*
Y265983D01*
Y273712D02*
Y275106D01*
Y282114D02*
Y283169D01*
Y288508D02*
Y289342D01*
X331500Y265339D02*
Y265983D01*
Y273521D02*
Y274913D01*
Y282044D02*
Y283083D01*
Y288583D02*
Y289398D01*
X331600Y265339D02*
Y265983D01*
Y273330D02*
Y274720D01*
Y282028D02*
Y282997D01*
Y288633D02*
Y289431D01*
X331700Y265339D02*
Y265983D01*
Y273139D02*
Y274526D01*
Y282011D02*
Y282911D01*
Y288683D02*
Y289464D01*
X331800Y265339D02*
Y265983D01*
Y272948D02*
Y274333D01*
Y281994D02*
Y282826D01*
Y288733D02*
Y289498D01*
X331900Y265339D02*
Y265983D01*
Y272757D02*
Y274140D01*
Y281978D02*
Y282763D01*
Y288771D02*
Y289531D01*
X332000Y265339D02*
Y265983D01*
Y272566D02*
Y273946D01*
Y281961D02*
Y282723D01*
Y288791D02*
Y289564D01*
X332100Y265339D02*
Y265983D01*
Y272375D02*
Y273753D01*
Y281945D02*
Y282683D01*
Y288811D02*
Y289597D01*
X332200Y265339D02*
Y265983D01*
Y272184D02*
Y273560D01*
Y281930D02*
Y282643D01*
Y288831D02*
Y289611D01*
X332300Y265339D02*
Y265983D01*
Y271993D02*
Y273366D01*
Y281916D02*
Y282603D01*
Y288851D02*
Y289625D01*
X332400Y265339D02*
Y265983D01*
Y271802D02*
Y273173D01*
Y281902D02*
Y282570D01*
Y288871D02*
Y289639D01*
X332500Y265339D02*
Y265983D01*
Y271612D02*
Y272980D01*
Y281888D02*
Y282570D01*
Y288891D02*
Y289654D01*
X332600Y265339D02*
Y265983D01*
Y271421D02*
Y272786D01*
Y281873D02*
Y282570D01*
Y288911D02*
Y289668D01*
X332700Y265339D02*
Y265983D01*
Y271230D02*
Y272593D01*
Y281859D02*
Y282570D01*
Y288931D02*
Y289682D01*
X332800Y265339D02*
Y265983D01*
Y271039D02*
Y272400D01*
Y281845D02*
Y282570D01*
Y288951D02*
Y289697D01*
X332900Y265339D02*
Y265983D01*
Y270848D02*
Y272206D01*
Y281857D02*
Y282570D01*
Y288971D02*
Y289686D01*
X333000Y265339D02*
Y265983D01*
Y270657D02*
Y272013D01*
Y281872D02*
Y282570D01*
Y288953D02*
Y289673D01*
X333100Y265339D02*
Y265983D01*
Y270466D02*
Y271820D01*
Y281886D02*
Y282570D01*
Y288930D02*
Y289661D01*
X333200Y260050D02*
Y265983D01*
Y270275D02*
Y271626D01*
Y281900D02*
Y282570D01*
Y288908D02*
Y289648D01*
X333300Y260050D02*
Y265983D01*
Y270084D02*
Y271433D01*
Y281914D02*
Y282570D01*
Y288886D02*
Y289636D01*
X333400Y260050D02*
Y265983D01*
Y269893D02*
Y271240D01*
Y281929D02*
Y282597D01*
Y288864D02*
Y289623D01*
X333500Y260050D02*
Y265983D01*
Y269702D02*
Y271046D01*
Y281943D02*
Y282637D01*
Y288841D02*
Y289611D01*
X333600Y260050D02*
Y265983D01*
Y269550D02*
Y270853D01*
Y281957D02*
Y282677D01*
Y288819D02*
Y289598D01*
X333700Y260050D02*
Y265983D01*
Y269550D02*
Y270692D01*
Y281972D02*
Y282717D01*
Y288797D02*
Y289569D01*
X333800Y260050D02*
Y265983D01*
Y269550D02*
Y275483D01*
Y281986D02*
Y282757D01*
Y288775D02*
Y289536D01*
X333900Y260050D02*
Y265983D01*
Y269550D02*
Y275483D01*
Y282000D02*
Y282813D01*
Y288728D02*
Y289503D01*
X334000Y265339D02*
Y265983D01*
Y269550D02*
Y275483D01*
Y282014D02*
Y282899D01*
Y288643D02*
Y289469D01*
X334100Y265339D02*
Y265983D01*
Y269550D02*
Y275483D01*
Y282029D02*
Y282984D01*
Y288557D02*
Y289436D01*
X334200Y265339D02*
Y265983D01*
Y269550D02*
Y275483D01*
Y282043D02*
Y283070D01*
Y288471D02*
Y289403D01*
X334300Y265339D02*
Y265983D01*
Y269550D02*
Y275483D01*
Y282087D02*
Y283156D01*
Y288385D02*
Y289358D01*
X334400Y265339D02*
Y265983D01*
Y269550D02*
Y275483D01*
Y282147D02*
Y283242D01*
Y288300D02*
Y289308D01*
X334500Y265339D02*
Y265983D01*
Y282207D02*
Y283327D01*
Y288214D02*
Y289258D01*
X334600Y265339D02*
Y265983D01*
Y282267D02*
Y283414D01*
Y288128D02*
Y289208D01*
X334700Y265339D02*
Y265983D01*
Y282327D02*
Y283592D01*
Y287908D02*
Y289158D01*
X334800Y265339D02*
Y265983D01*
Y282412D02*
Y283772D01*
Y287683D02*
Y289108D01*
X334900Y265339D02*
Y265983D01*
Y282512D02*
Y283952D01*
Y287458D02*
Y289029D01*
X335000Y265339D02*
Y265983D01*
Y282612D02*
Y284132D01*
Y287233D02*
Y288929D01*
X335100Y265339D02*
Y265983D01*
Y282712D02*
Y284312D01*
Y286645D02*
Y288829D01*
X335200Y265339D02*
Y265983D01*
Y282812D02*
Y285303D01*
Y285945D02*
Y288729D01*
X335300Y265339D02*
Y265983D01*
Y282925D02*
Y288602D01*
X335400Y265339D02*
Y265983D01*
Y271959D02*
Y273056D01*
Y283050D02*
Y288452D01*
X335500Y265339D02*
Y265983D01*
Y271164D02*
Y273868D01*
Y283175D02*
Y288302D01*
X335600Y265339D02*
Y265983D01*
Y270931D02*
Y274068D01*
Y283300D02*
Y288152D01*
X335700Y265339D02*
Y265983D01*
Y270697D02*
Y274268D01*
Y283474D02*
Y287980D01*
X335800Y265339D02*
Y265983D01*
Y270527D02*
Y274438D01*
Y283707D02*
Y287780D01*
X335900Y265339D02*
Y265983D01*
Y270402D02*
Y274588D01*
Y283940D02*
Y287580D01*
X336000Y265339D02*
Y265983D01*
Y270277D02*
Y274738D01*
Y284403D02*
Y287138D01*
X336100Y270168D02*
Y272222D01*
Y272729D02*
Y274865D01*
Y285203D02*
Y286300D01*
X336200Y270088D02*
Y271572D01*
Y273379D02*
Y274945D01*
X336300Y270008D02*
Y271226D01*
Y273777D02*
Y275025D01*
X336400Y269928D02*
Y271001D01*
Y274073D02*
Y275105D01*
X336500Y269848D02*
Y270776D01*
Y274273D02*
Y275179D01*
X336600Y269768D02*
Y270598D01*
Y274449D02*
Y275239D01*
X336700Y269688D02*
Y270512D01*
Y274583D02*
Y275299D01*
X336800Y269608D02*
Y270426D01*
Y274716D02*
Y275359D01*
X336900Y269543D02*
Y270340D01*
Y274785D02*
Y275413D01*
X337000Y269527D02*
Y270255D01*
Y274835D02*
Y275446D01*
X337100Y269510D02*
Y270169D01*
Y274885D02*
Y275479D01*
X337200Y269493D02*
Y270102D01*
Y274926D02*
Y275513D01*
X337300Y269477D02*
Y270062D01*
Y274946D02*
Y275546D01*
Y282050D02*
Y289491D01*
X337400Y269461D02*
Y270022D01*
Y274966D02*
Y275572D01*
Y282050D02*
Y289491D01*
X337500Y269447D02*
Y269982D01*
Y274986D02*
Y275586D01*
Y282050D02*
Y289491D01*
X337600Y269432D02*
Y269946D01*
Y275006D02*
Y275601D01*
Y282050D02*
Y289491D01*
X337700Y269418D02*
Y269946D01*
Y275026D02*
Y275615D01*
Y282050D02*
Y289491D01*
X337800Y269404D02*
Y269946D01*
Y275046D02*
Y275629D01*
Y282050D02*
Y289491D01*
X337900Y269389D02*
Y269946D01*
Y275066D02*
Y275644D01*
Y282050D02*
Y289491D01*
X338000Y269395D02*
Y269946D01*
Y275086D02*
Y275639D01*
Y282050D02*
Y289491D01*
X338100Y269410D02*
Y269946D01*
Y275069D02*
Y275627D01*
Y282050D02*
Y289491D01*
X338200Y269424D02*
Y269946D01*
Y275047D02*
Y275614D01*
Y282050D02*
Y289491D01*
X338300Y269438D02*
Y269946D01*
Y275024D02*
Y275602D01*
Y282050D02*
Y282880D01*
X338400Y269452D02*
Y269965D01*
Y275002D02*
Y275589D01*
Y282050D02*
Y282880D01*
X338500Y269467D02*
Y270005D01*
Y274980D02*
Y275577D01*
Y282050D02*
Y282880D01*
X338600Y269481D02*
Y270045D01*
Y274958D02*
Y275560D01*
Y282050D02*
Y282880D01*
X338700Y269495D02*
Y270085D01*
Y274936D02*
Y275527D01*
Y282050D02*
Y282880D01*
X338800Y269510D02*
Y270133D01*
Y274900D02*
Y275493D01*
Y282050D02*
Y282880D01*
X338900Y269524D02*
Y270219D01*
Y274814D02*
Y275460D01*
Y282050D02*
Y282880D01*
X339000Y269538D02*
Y270304D01*
Y274729D02*
Y275427D01*
Y282050D02*
Y282880D01*
X339100Y269566D02*
Y270390D01*
Y274643D02*
Y275388D01*
Y282050D02*
Y282880D01*
X339200Y269626D02*
Y270476D01*
Y274557D02*
Y275338D01*
Y282050D02*
Y282880D01*
X339300Y269686D02*
Y270561D01*
Y274472D02*
Y275288D01*
Y282050D02*
Y282880D01*
X339400Y269746D02*
Y270672D01*
Y274352D02*
Y275238D01*
Y282050D02*
Y282880D01*
X339500Y260050D02*
Y260529D01*
Y264678D02*
Y265157D01*
Y269819D02*
Y270852D01*
Y274127D02*
Y275188D01*
Y282050D02*
Y282880D01*
X339600Y260050D02*
Y260529D01*
Y264678D02*
Y265157D01*
Y269919D02*
Y271032D01*
Y273902D02*
Y275114D01*
Y282050D02*
Y282880D01*
X339700Y260050D02*
Y260529D01*
Y264678D02*
Y265157D01*
Y270019D02*
Y271212D01*
Y273677D02*
Y275014D01*
Y282050D02*
Y282880D01*
X339800Y260050D02*
Y260529D01*
Y264678D02*
Y265157D01*
Y270119D02*
Y271426D01*
Y273043D02*
Y274914D01*
Y282050D02*
Y282880D01*
X339900Y260050D02*
Y260529D01*
Y264678D02*
Y265157D01*
Y270225D02*
Y274802D01*
Y282050D02*
Y282880D01*
X340000Y260050D02*
Y260529D01*
Y264678D02*
Y265187D01*
Y270350D02*
Y274652D01*
Y282050D02*
Y282880D01*
X340100Y260050D02*
Y260529D01*
Y264678D02*
Y265227D01*
Y270475D02*
Y274502D01*
Y282050D02*
Y282880D01*
X340200Y260050D02*
Y260529D01*
Y264678D02*
Y265267D01*
Y270600D02*
Y274352D01*
Y282050D02*
Y282880D01*
X340300Y260050D02*
Y260529D01*
Y264678D02*
Y265307D01*
Y270832D02*
Y274152D01*
Y282050D02*
Y282880D01*
X340400Y260050D02*
Y260529D01*
Y264678D02*
Y265375D01*
Y271066D02*
Y273952D01*
Y282050D02*
Y282880D01*
X340500Y260050D02*
Y260529D01*
Y264677D02*
Y265475D01*
Y271622D02*
Y273411D01*
Y282050D02*
Y282880D01*
X340600Y260050D02*
Y265575D01*
Y272422D02*
Y272536D01*
Y282050D02*
Y282880D01*
X340700Y260050D02*
Y265983D01*
Y282050D02*
Y282880D01*
X340800Y260050D02*
Y265983D01*
Y282050D02*
Y282880D01*
X340900Y260050D02*
Y265983D01*
Y282050D02*
Y282880D01*
X341000Y260050D02*
Y265983D01*
Y282050D02*
Y282880D01*
X341100Y260050D02*
Y265983D01*
Y282050D02*
Y282880D01*
X341200Y260050D02*
Y260543D01*
Y282050D02*
Y282880D01*
X341300Y260050D02*
Y260529D01*
Y282050D02*
Y282880D01*
X341400Y260050D02*
Y260529D01*
Y282050D02*
Y282880D01*
X341500Y260050D02*
Y260529D01*
Y282050D02*
Y282880D01*
X341600Y260050D02*
Y260529D01*
Y269550D02*
Y275483D01*
Y282050D02*
Y282880D01*
X341700Y260050D02*
Y260529D01*
Y269550D02*
Y275483D01*
X341800Y260050D02*
Y260529D01*
Y269550D02*
Y275483D01*
X341900Y260050D02*
Y260529D01*
Y269550D02*
Y275483D01*
X342000Y260050D02*
Y260529D01*
Y269550D02*
Y275483D01*
X342100Y260050D02*
Y260529D01*
Y269550D02*
Y275483D01*
X342200Y260050D02*
Y260529D01*
Y269550D02*
Y275483D01*
X342300Y269550D02*
Y270195D01*
X342400Y269550D02*
Y270194D01*
X342500Y269550D02*
Y270194D01*
Y282050D02*
Y289491D01*
X342600Y269550D02*
Y270194D01*
Y282050D02*
Y289491D01*
X342700Y269550D02*
Y270194D01*
Y282050D02*
Y289491D01*
X342800Y269550D02*
Y270194D01*
Y282050D02*
Y289491D01*
X342900Y269550D02*
Y270194D01*
Y282050D02*
Y289491D01*
X343000Y269550D02*
Y270194D01*
Y282050D02*
Y289491D01*
X343100Y269550D02*
Y270194D01*
Y282050D02*
Y289491D01*
X343200Y269550D02*
Y270194D01*
Y282050D02*
Y289491D01*
X343300Y269550D02*
Y270194D01*
Y282050D02*
Y289491D01*
X343400Y263764D02*
Y264311D01*
Y269550D02*
Y270194D01*
Y282050D02*
Y282808D01*
Y288734D02*
Y289491D01*
X343500Y263230D02*
Y264861D01*
Y269550D02*
Y270194D01*
Y282050D02*
Y282776D01*
Y288765D02*
Y289491D01*
X343600Y263046D02*
Y265077D01*
Y269550D02*
Y270194D01*
Y282050D02*
Y282776D01*
Y288765D02*
Y289491D01*
X343700Y262913D02*
Y265237D01*
Y269550D02*
Y270194D01*
Y282050D02*
Y282776D01*
Y288765D02*
Y289491D01*
X343800Y262780D02*
Y265397D01*
Y269550D02*
Y270194D01*
Y282050D02*
Y282776D01*
Y288765D02*
Y289491D01*
X343900Y259943D02*
Y260584D01*
Y262646D02*
Y265557D01*
Y269550D02*
Y270194D01*
Y282050D02*
Y282776D01*
Y288765D02*
Y289491D01*
X344000Y259918D02*
Y260559D01*
Y262517D02*
Y265644D01*
Y269550D02*
Y270194D01*
Y282050D02*
Y282776D01*
Y288765D02*
Y289491D01*
X344100Y259893D02*
Y260534D01*
Y262467D02*
Y263954D01*
Y264289D02*
Y265715D01*
Y269550D02*
Y270194D01*
Y282050D02*
Y282776D01*
Y288765D02*
Y289491D01*
X344200Y259885D02*
Y260516D01*
Y262417D02*
Y263404D01*
Y264790D02*
Y265787D01*
Y269550D02*
Y270194D01*
Y282050D02*
Y282779D01*
Y288765D02*
Y289491D01*
X344300Y259885D02*
Y260499D01*
Y262367D02*
Y263279D01*
Y264957D02*
Y265858D01*
Y269550D02*
Y270194D01*
Y282050D02*
Y282787D01*
Y288765D02*
Y289491D01*
X344400Y259885D02*
Y260483D01*
Y262317D02*
Y263154D01*
Y265123D02*
Y265930D01*
Y269550D02*
Y270194D01*
Y282050D02*
Y282795D01*
Y288765D02*
Y289491D01*
X344500Y259890D02*
Y260466D01*
Y262277D02*
Y263029D01*
Y265236D02*
Y265991D01*
Y269550D02*
Y270194D01*
Y282050D02*
Y282804D01*
Y288765D02*
Y289491D01*
X344600Y259903D02*
Y260449D01*
Y262264D02*
Y262951D01*
Y265336D02*
Y266013D01*
Y269550D02*
Y270194D01*
Y282050D02*
Y282812D01*
Y288765D02*
Y289491D01*
X344700Y259915D02*
Y260463D01*
Y262252D02*
Y262876D01*
Y265436D02*
Y266035D01*
Y269550D02*
Y270194D01*
Y282050D02*
Y282820D01*
Y288765D02*
Y289491D01*
X344800Y259928D02*
Y260488D01*
Y262239D02*
Y262801D01*
Y265508D02*
Y266058D01*
Y269550D02*
Y270194D01*
Y282050D02*
Y282829D01*
Y288765D02*
Y289491D01*
X344900Y259940D02*
Y260513D01*
Y262227D02*
Y262760D01*
Y265528D02*
Y266080D01*
Y269550D02*
Y270194D01*
Y282050D02*
Y282837D01*
Y288764D02*
Y289491D01*
X345000Y259953D02*
Y260538D01*
Y262214D02*
Y262760D01*
Y265548D02*
Y266102D01*
Y282051D02*
Y282845D01*
Y288744D02*
Y289491D01*
X345100Y259965D02*
Y260563D01*
Y262202D02*
Y262760D01*
Y265568D02*
Y266124D01*
Y282065D02*
Y282854D01*
Y288724D02*
Y289489D01*
X345200Y259992D02*
Y260588D01*
Y262211D02*
Y262760D01*
Y265587D02*
Y266147D01*
Y282080D02*
Y282862D01*
Y288704D02*
Y289461D01*
X345300Y260021D02*
Y260613D01*
Y262225D02*
Y262762D01*
Y265569D02*
Y266125D01*
Y282094D02*
Y282870D01*
Y288684D02*
Y289432D01*
X345400Y260049D02*
Y260669D01*
Y262239D02*
Y262776D01*
Y265549D02*
Y266103D01*
Y271959D02*
Y273056D01*
Y282108D02*
Y282879D01*
Y288664D02*
Y289403D01*
X345500Y260078D02*
Y260726D01*
Y262254D02*
Y262790D01*
Y265529D02*
Y266081D01*
Y271164D02*
Y273868D01*
Y282123D02*
Y282897D01*
Y288622D02*
Y289375D01*
X345600Y260107D02*
Y260783D01*
Y262268D02*
Y262804D01*
Y265509D02*
Y266059D01*
Y270931D02*
Y274068D01*
Y282137D02*
Y282917D01*
Y288572D02*
Y289346D01*
X345700Y260148D02*
Y260841D01*
Y262288D02*
Y262819D01*
Y265454D02*
Y266037D01*
Y270697D02*
Y274268D01*
Y282151D02*
Y282937D01*
Y288522D02*
Y289318D01*
X345800Y260228D02*
Y260898D01*
Y262338D02*
Y262833D01*
Y265379D02*
Y266014D01*
Y270527D02*
Y274438D01*
Y282190D02*
Y282957D01*
Y288472D02*
Y289289D01*
X345900Y260308D02*
Y260957D01*
Y262388D02*
Y262855D01*
Y265304D02*
Y265992D01*
Y270402D02*
Y274588D01*
Y282230D02*
Y282977D01*
Y288422D02*
Y289250D01*
X346000Y260388D02*
Y261153D01*
Y262438D02*
Y262905D01*
Y265211D02*
Y265933D01*
Y270277D02*
Y274738D01*
Y282270D02*
Y283026D01*
Y288372D02*
Y289210D01*
X346100Y260472D02*
Y261353D01*
Y262488D02*
Y262955D01*
Y265011D02*
Y265862D01*
Y270168D02*
Y272222D01*
Y272729D02*
Y274865D01*
Y282310D02*
Y283101D01*
Y288322D02*
Y289170D01*
X346200Y260572D02*
Y261553D01*
Y262538D02*
Y263005D01*
Y264811D02*
Y265790D01*
Y270088D02*
Y271572D01*
Y273379D02*
Y274945D01*
Y282350D02*
Y283176D01*
Y288272D02*
Y289130D01*
X346300Y260672D02*
Y261955D01*
Y262588D02*
Y263055D01*
Y264611D02*
Y265719D01*
Y270008D02*
Y271226D01*
Y273777D02*
Y275025D01*
Y282398D02*
Y283251D01*
Y288211D02*
Y289090D01*
X346400Y260772D02*
Y262505D01*
Y262591D02*
Y263111D01*
Y264185D02*
Y265648D01*
Y269928D02*
Y271001D01*
Y274073D02*
Y275105D01*
Y282448D02*
Y283333D01*
Y288131D02*
Y289050D01*
X346500Y260889D02*
Y265570D01*
Y269848D02*
Y270776D01*
Y274273D02*
Y275179D01*
Y282498D02*
Y283433D01*
Y288051D02*
Y289010D01*
X346600Y261089D02*
Y265436D01*
Y269768D02*
Y270598D01*
Y274449D02*
Y275239D01*
Y282548D02*
Y283533D01*
Y287971D02*
Y288970D01*
X346700Y261289D02*
Y265303D01*
Y269688D02*
Y270512D01*
Y274583D02*
Y275299D01*
Y282598D02*
Y283633D01*
Y287891D02*
Y288930D01*
X346800Y261513D02*
Y265123D01*
Y269608D02*
Y270426D01*
Y274716D02*
Y275359D01*
Y282648D02*
Y283739D01*
Y287802D02*
Y288890D01*
X346900Y261746D02*
Y264923D01*
Y269543D02*
Y270340D01*
Y274785D02*
Y275413D01*
Y282722D02*
Y283906D01*
Y287636D02*
Y288819D01*
X347000Y262038D02*
Y264670D01*
Y269527D02*
Y270255D01*
Y274835D02*
Y275446D01*
Y282805D02*
Y284072D01*
Y287469D02*
Y288736D01*
X347100Y262488D02*
Y264270D01*
Y269510D02*
Y270169D01*
Y274885D02*
Y275479D01*
Y282889D02*
Y284239D01*
Y287302D02*
Y288653D01*
X347200Y269493D02*
Y270102D01*
Y274926D02*
Y275513D01*
Y282972D02*
Y284574D01*
Y286968D02*
Y288569D01*
X347300Y269477D02*
Y270062D01*
Y274946D02*
Y275546D01*
Y283055D02*
Y284924D01*
Y286618D02*
Y288486D01*
X347400Y269461D02*
Y270022D01*
Y274966D02*
Y275572D01*
Y283139D02*
Y285644D01*
Y285979D02*
Y288403D01*
X347500Y269447D02*
Y269982D01*
Y274986D02*
Y275586D01*
Y283257D02*
Y288284D01*
X347600Y269432D02*
Y269946D01*
Y275006D02*
Y275601D01*
Y283397D02*
Y288144D01*
X347700Y269418D02*
Y269946D01*
Y275026D02*
Y275615D01*
Y283537D02*
Y288004D01*
X347800Y269404D02*
Y269946D01*
Y275046D02*
Y275629D01*
Y283677D02*
Y287864D01*
X347900Y269389D02*
Y269946D01*
Y275066D02*
Y275644D01*
Y283817D02*
Y287724D01*
X348000Y262073D02*
Y263961D01*
Y269395D02*
Y269946D01*
Y275086D02*
Y275639D01*
Y284042D02*
Y287499D01*
X348100Y261466D02*
Y264568D01*
Y269410D02*
Y269946D01*
Y275069D02*
Y275627D01*
Y284342D02*
Y287199D01*
X348200Y261166D02*
Y264868D01*
Y269424D02*
Y269946D01*
Y275047D02*
Y275614D01*
Y284642D02*
Y286899D01*
X348300Y260942D02*
Y265092D01*
Y269438D02*
Y269946D01*
Y275024D02*
Y275602D01*
Y285227D02*
Y286266D01*
X348400Y260742D02*
Y265292D01*
Y269452D02*
Y269965D01*
Y275002D02*
Y275589D01*
X348500Y260563D02*
Y265470D01*
Y269467D02*
Y270005D01*
Y274980D02*
Y275577D01*
X348600Y260429D02*
Y265604D01*
Y269481D02*
Y270045D01*
Y274958D02*
Y275560D01*
X348700Y260296D02*
Y265737D01*
Y269495D02*
Y270085D01*
Y274936D02*
Y275527D01*
X348800Y260216D02*
Y261473D01*
Y264164D02*
Y265817D01*
Y269510D02*
Y270133D01*
Y274900D02*
Y275493D01*
X348900Y260141D02*
Y261099D01*
Y264928D02*
Y265892D01*
Y269524D02*
Y270219D01*
Y274814D02*
Y275460D01*
X349000Y260066D02*
Y260949D01*
Y265048D02*
Y265967D01*
Y269538D02*
Y270304D01*
Y274729D02*
Y275427D01*
X349100Y260028D02*
Y260799D01*
Y265168D02*
Y266001D01*
Y269566D02*
Y270390D01*
Y274643D02*
Y275388D01*
X349200Y260003D02*
Y260649D01*
Y265288D02*
Y266021D01*
Y269626D02*
Y270476D01*
Y274557D02*
Y275338D01*
X349300Y259978D02*
Y260569D01*
Y265408D02*
Y266041D01*
Y269686D02*
Y270561D01*
Y274472D02*
Y275288D01*
X349400Y259957D02*
Y260502D01*
Y265446D02*
Y266061D01*
Y269746D02*
Y270672D01*
Y274352D02*
Y275238D01*
X349500Y259940D02*
Y260446D01*
Y265480D02*
Y266081D01*
Y269819D02*
Y270852D01*
Y274127D02*
Y275188D01*
Y282050D02*
Y289491D01*
X349600Y259924D02*
Y260446D01*
Y265513D02*
Y266101D01*
Y269919D02*
Y271032D01*
Y273902D02*
Y275114D01*
Y282050D02*
Y289491D01*
X349700Y259907D02*
Y260446D01*
Y265546D02*
Y266121D01*
Y270019D02*
Y271212D01*
Y273677D02*
Y275014D01*
Y282050D02*
Y289491D01*
X349800Y259890D02*
Y260446D01*
Y265580D02*
Y266141D01*
Y270119D02*
Y271426D01*
Y273043D02*
Y274914D01*
Y282050D02*
Y289491D01*
X349900Y259897D02*
Y260446D01*
Y265569D02*
Y266136D01*
Y270225D02*
Y274802D01*
Y282050D02*
Y289491D01*
X350000Y259914D02*
Y260446D01*
Y265541D02*
Y266119D01*
Y270350D02*
Y274652D01*
Y282050D02*
Y289491D01*
X350100Y259930D02*
Y260446D01*
Y265512D02*
Y266103D01*
Y270475D02*
Y274502D01*
Y282050D02*
Y289491D01*
X350200Y259947D02*
Y260462D01*
Y265484D02*
Y266086D01*
Y270600D02*
Y274352D01*
Y282050D02*
Y289491D01*
X350300Y259964D02*
Y260528D01*
Y265455D02*
Y266069D01*
Y270832D02*
Y274152D01*
Y282050D02*
Y289491D01*
X350400Y259987D02*
Y260595D01*
Y265426D02*
Y266046D01*
Y271066D02*
Y273952D01*
Y282050D02*
Y289491D01*
X350500Y260012D02*
Y260681D01*
Y265302D02*
Y266021D01*
Y271622D02*
Y273411D01*
Y282050D02*
Y282880D01*
Y285666D02*
Y286495D01*
Y288662D02*
Y289491D01*
X350600Y260037D02*
Y260781D01*
Y265102D02*
Y265996D01*
Y272422D02*
Y272536D01*
Y282050D02*
Y282880D01*
Y285666D02*
Y286495D01*
Y288662D02*
Y289491D01*
X350700Y260095D02*
Y261123D01*
Y264902D02*
Y265938D01*
Y282050D02*
Y282880D01*
Y285666D02*
Y286495D01*
Y288662D02*
Y289491D01*
X350800Y260170D02*
Y261331D01*
Y264463D02*
Y265863D01*
Y282050D02*
Y282880D01*
Y285666D02*
Y286495D01*
Y288662D02*
Y289491D01*
X350900Y260245D02*
Y262063D01*
Y263746D02*
Y265788D01*
Y282050D02*
Y282880D01*
Y285666D02*
Y286495D01*
Y288662D02*
Y289491D01*
X351000Y260348D02*
Y265667D01*
Y282050D02*
Y282880D01*
Y285666D02*
Y286495D01*
Y288662D02*
Y289491D01*
X351100Y260481D02*
Y265501D01*
Y282050D02*
Y282880D01*
Y285666D02*
Y286495D01*
Y288662D02*
Y289491D01*
X351200Y260619D02*
Y265334D01*
Y282050D02*
Y282880D01*
Y285666D02*
Y286495D01*
Y288662D02*
Y289491D01*
X351300Y260819D02*
Y265167D01*
Y271701D02*
Y273271D01*
Y282050D02*
Y282880D01*
Y285666D02*
Y286495D01*
Y288662D02*
Y289491D01*
X351400Y261019D02*
Y265001D01*
Y271089D02*
Y273671D01*
Y282050D02*
Y282880D01*
Y285666D02*
Y286495D01*
Y288662D02*
Y289491D01*
X351500Y261282D02*
Y264719D01*
Y270856D02*
Y273967D01*
Y282050D02*
Y282880D01*
Y285666D02*
Y286495D01*
Y288662D02*
Y289491D01*
X351600Y261583D02*
Y264367D01*
Y270622D02*
Y274167D01*
Y282050D02*
Y282880D01*
Y285666D02*
Y286495D01*
Y288662D02*
Y289491D01*
X351700Y270511D02*
Y274363D01*
Y282050D02*
Y282880D01*
Y285666D02*
Y286495D01*
Y288662D02*
Y289491D01*
X351800Y270411D02*
Y274513D01*
Y282050D02*
Y282880D01*
Y285666D02*
Y286495D01*
Y288662D02*
Y289491D01*
X351900Y270311D02*
Y274663D01*
Y282050D02*
Y282880D01*
Y285666D02*
Y286495D01*
Y288662D02*
Y289491D01*
X352000Y270211D02*
Y271759D01*
Y272986D02*
Y274813D01*
Y282050D02*
Y282880D01*
Y285666D02*
Y286495D01*
Y288662D02*
Y289491D01*
X352100Y270111D02*
Y271461D01*
Y273572D02*
Y274904D01*
Y282050D02*
Y282880D01*
Y285666D02*
Y286495D01*
Y288662D02*
Y289491D01*
X352200Y270011D02*
Y271261D01*
Y273772D02*
Y274984D01*
Y282050D02*
Y282880D01*
Y285666D02*
Y286495D01*
Y288662D02*
Y289491D01*
X352300Y269911D02*
Y271061D01*
Y273972D02*
Y275064D01*
Y282050D02*
Y282880D01*
Y285666D02*
Y286495D01*
Y288662D02*
Y289491D01*
X352400Y269811D02*
Y270861D01*
Y274172D02*
Y275144D01*
Y282050D02*
Y282880D01*
Y285666D02*
Y286495D01*
Y288662D02*
Y289491D01*
X352500Y263709D02*
Y264361D01*
Y269750D02*
Y270661D01*
Y274372D02*
Y275200D01*
Y282050D02*
Y282880D01*
Y285666D02*
Y286495D01*
Y288662D02*
Y289491D01*
X352600Y263185D02*
Y264911D01*
Y269700D02*
Y270517D01*
Y274489D02*
Y275250D01*
Y282050D02*
Y282880D01*
Y285666D02*
Y286495D01*
Y288662D02*
Y289491D01*
X352700Y263034D02*
Y265092D01*
Y269650D02*
Y270384D01*
Y274589D02*
Y275300D01*
Y282050D02*
Y282880D01*
Y285666D02*
Y286495D01*
Y288662D02*
Y289491D01*
X352800Y262901D02*
Y265252D01*
Y269600D02*
Y270273D01*
Y274682D02*
Y275350D01*
Y282050D02*
Y282880D01*
Y285666D02*
Y286495D01*
Y288662D02*
Y289491D01*
X352900Y262768D02*
Y265412D01*
Y269550D02*
Y270223D01*
Y274757D02*
Y275400D01*
Y282050D02*
Y282880D01*
Y285666D02*
Y286495D01*
Y288662D02*
Y289491D01*
X353000Y259941D02*
Y260582D01*
Y262634D02*
Y265572D01*
Y269532D02*
Y270173D01*
Y274832D02*
Y275430D01*
Y282050D02*
Y282880D01*
Y285666D02*
Y286495D01*
Y288662D02*
Y289491D01*
X353100Y259916D02*
Y260557D01*
Y262512D02*
Y265650D01*
Y269515D02*
Y270123D01*
Y274907D02*
Y275459D01*
Y282050D02*
Y282880D01*
Y285666D02*
Y286495D01*
Y288662D02*
Y289491D01*
X353200Y259891D02*
Y260532D01*
Y262462D02*
Y263881D01*
Y264353D02*
Y265722D01*
Y269499D02*
Y270082D01*
Y274936D02*
Y275487D01*
Y282050D02*
Y282880D01*
Y285666D02*
Y286495D01*
Y288662D02*
Y289491D01*
X353300Y259885D02*
Y260514D01*
Y262412D02*
Y263393D01*
Y264805D02*
Y265793D01*
Y269482D02*
Y270042D01*
Y274956D02*
Y275516D01*
Y282050D02*
Y282880D01*
Y285666D02*
Y286495D01*
Y288662D02*
Y289491D01*
X353400Y259885D02*
Y260498D01*
Y262362D02*
Y263268D01*
Y264972D02*
Y265865D01*
Y269466D02*
Y270002D01*
Y274976D02*
Y275545D01*
Y282050D02*
Y282880D01*
Y285666D02*
Y286495D01*
Y288662D02*
Y289491D01*
X353500Y259885D02*
Y260481D01*
Y262312D02*
Y263143D01*
Y265139D02*
Y265936D01*
Y269453D02*
Y269962D01*
Y274996D02*
Y275570D01*
Y282050D02*
Y282880D01*
Y285666D02*
Y286495D01*
Y288662D02*
Y289491D01*
X353600Y259891D02*
Y260464D01*
Y262275D02*
Y263020D01*
Y265245D02*
Y265993D01*
Y269441D02*
Y269946D01*
Y275016D02*
Y275584D01*
Y282050D02*
Y282880D01*
Y285666D02*
Y286495D01*
Y288662D02*
Y289491D01*
X353700Y259904D02*
Y260448D01*
Y262263D02*
Y262945D01*
Y265345D02*
Y266015D01*
Y269428D02*
Y269946D01*
Y275036D02*
Y275598D01*
Y282050D02*
Y282880D01*
Y285666D02*
Y286495D01*
Y288662D02*
Y289491D01*
X353800Y259916D02*
Y260466D01*
Y262250D02*
Y262870D01*
Y265445D02*
Y266037D01*
Y269416D02*
Y269946D01*
Y275056D02*
Y275613D01*
Y282050D02*
Y282880D01*
Y285666D02*
Y286495D01*
Y288662D02*
Y289491D01*
X353900Y259929D02*
Y260491D01*
Y262238D02*
Y262795D01*
Y265510D02*
Y266060D01*
Y269403D02*
Y269946D01*
Y275076D02*
Y275627D01*
Y282050D02*
Y282880D01*
Y285666D02*
Y286495D01*
Y288662D02*
Y289491D01*
X354000Y259941D02*
Y260516D01*
Y262225D02*
Y262760D01*
Y265530D02*
Y266082D01*
Y269391D02*
Y269950D01*
Y271864D02*
Y272508D01*
Y275083D02*
Y275641D01*
Y282050D02*
Y282880D01*
Y288662D02*
Y289491D01*
X354100Y259954D02*
Y260541D01*
Y262213D02*
Y262760D01*
Y265550D02*
Y266104D01*
Y269385D02*
Y269963D01*
Y271864D02*
Y272508D01*
Y275070D02*
Y275640D01*
Y282050D02*
Y282880D01*
Y288662D02*
Y289491D01*
X354200Y259966D02*
Y260566D01*
Y262200D02*
Y262760D01*
Y265570D02*
Y266126D01*
Y269385D02*
Y269975D01*
Y271864D02*
Y272508D01*
Y275058D02*
Y275626D01*
X354300Y259995D02*
Y260591D01*
Y262212D02*
Y262760D01*
Y265587D02*
Y266146D01*
Y269385D02*
Y269988D01*
Y271864D02*
Y272508D01*
Y275045D02*
Y275611D01*
X354400Y260023D02*
Y260617D01*
Y262226D02*
Y262763D01*
Y265567D02*
Y266123D01*
Y269385D02*
Y270000D01*
Y271864D02*
Y272508D01*
Y275033D02*
Y275597D01*
X354500Y260052D02*
Y260674D01*
Y262241D02*
Y262777D01*
Y265547D02*
Y266101D01*
Y269385D02*
Y270013D01*
Y271864D02*
Y272508D01*
Y275020D02*
Y275583D01*
X354600Y260081D02*
Y260732D01*
Y262255D02*
Y262791D01*
Y265527D02*
Y266079D01*
Y269385D02*
Y270025D01*
Y271864D02*
Y272508D01*
Y275008D02*
Y275569D01*
X354700Y260109D02*
Y260789D01*
Y262269D02*
Y262806D01*
Y265507D02*
Y266057D01*
Y269413D02*
Y270039D01*
Y271864D02*
Y272508D01*
Y274976D02*
Y275554D01*
X354800Y260155D02*
Y260846D01*
Y262293D02*
Y262820D01*
Y265447D02*
Y266035D01*
Y269446D02*
Y270053D01*
Y271864D02*
Y272508D01*
Y274934D02*
Y275540D01*
X354900Y260235D02*
Y260903D01*
Y262343D02*
Y262834D01*
Y265372D02*
Y266012D01*
Y269479D02*
Y270067D01*
Y271864D02*
Y272508D01*
Y274891D02*
Y275526D01*
X355000Y260315D02*
Y260971D01*
Y262393D02*
Y262859D01*
Y265297D02*
Y265990D01*
Y269513D02*
Y270082D01*
Y271864D02*
Y272508D01*
Y274848D02*
Y275511D01*
X355100Y260395D02*
Y261171D01*
Y262443D02*
Y262909D01*
Y265193D02*
Y265927D01*
Y269546D02*
Y270096D01*
Y271864D02*
Y272508D01*
Y274805D02*
Y275497D01*
X355200Y260481D02*
Y261371D01*
Y262493D02*
Y262959D01*
Y264993D02*
Y265855D01*
Y269579D02*
Y270110D01*
Y271864D02*
Y272508D01*
Y274762D02*
Y275480D01*
X355300Y260581D02*
Y261571D01*
Y262543D02*
Y263009D01*
Y264793D02*
Y265784D01*
Y269613D02*
Y272508D01*
Y274706D02*
Y275440D01*
Y282050D02*
Y289491D01*
X355400Y260681D02*
Y262005D01*
Y262593D02*
Y263059D01*
Y264593D02*
Y265712D01*
Y269646D02*
Y272508D01*
Y274646D02*
Y275400D01*
Y282050D02*
Y289491D01*
X355500Y260781D02*
Y262556D01*
Y262568D02*
Y263134D01*
Y264139D02*
Y265641D01*
Y269679D02*
Y272508D01*
Y274586D02*
Y275360D01*
Y282050D02*
Y289491D01*
X355600Y260907D02*
Y265557D01*
Y269713D02*
Y272508D01*
Y274526D02*
Y275320D01*
Y282050D02*
Y289491D01*
X355700Y261107D02*
Y265424D01*
Y269753D02*
Y272508D01*
Y274458D02*
Y275280D01*
Y282050D02*
Y289491D01*
X355800Y261307D02*
Y265291D01*
Y269793D02*
Y272508D01*
Y274383D02*
Y275240D01*
Y282050D02*
Y289491D01*
X355900Y261534D02*
Y265105D01*
Y269833D02*
Y272508D01*
Y274308D02*
Y275200D01*
Y282050D02*
Y289491D01*
X356000Y261767D02*
Y264905D01*
Y282050D02*
Y289491D01*
X356100Y262079D02*
Y264634D01*
Y282050D02*
Y289491D01*
X356200Y262529D02*
Y264234D01*
Y282050D02*
Y289491D01*
X356300Y285046D02*
Y285772D01*
Y288765D02*
Y289491D01*
X356400Y285046D02*
Y285772D01*
Y288765D02*
Y289491D01*
X356500Y275395D02*
Y275483D01*
Y285046D02*
Y285772D01*
Y288765D02*
Y289491D01*
X356600Y275227D02*
Y275483D01*
Y285046D02*
Y285772D01*
Y288765D02*
Y289491D01*
X356700Y275059D02*
Y275483D01*
Y285046D02*
Y285772D01*
Y288765D02*
Y289491D01*
X356800Y260050D02*
Y260174D01*
Y274891D02*
Y275483D01*
Y285046D02*
Y285772D01*
Y288765D02*
Y289491D01*
X356900Y260050D02*
Y260478D01*
Y274723D02*
Y275483D01*
Y285046D02*
Y285772D01*
Y288765D02*
Y289491D01*
X357000Y260050D02*
Y260783D01*
Y274555D02*
Y275483D01*
Y285046D02*
Y285772D01*
Y288765D02*
Y289491D01*
X357100Y260050D02*
Y261087D01*
Y274387D02*
Y275483D01*
Y285046D02*
Y285772D01*
Y288765D02*
Y289491D01*
X357200Y260050D02*
Y261391D01*
Y274219D02*
Y275483D01*
Y285046D02*
Y285774D01*
Y288765D02*
Y289491D01*
X357300Y260050D02*
Y261695D01*
Y274051D02*
Y275483D01*
Y285046D02*
Y285788D01*
Y288764D02*
Y289491D01*
X357400Y260050D02*
Y261999D01*
Y273883D02*
Y275344D01*
Y285046D02*
Y285802D01*
Y288750D02*
Y289491D01*
X357500Y260050D02*
Y262303D01*
Y273715D02*
Y275167D01*
Y285046D02*
Y285817D01*
Y288735D02*
Y289491D01*
X357600Y260185D02*
Y262608D01*
Y273547D02*
Y274989D01*
Y285046D02*
Y285831D01*
Y288721D02*
Y289491D01*
X357700Y260535D02*
Y262912D01*
Y273379D02*
Y274811D01*
Y284949D02*
Y285845D01*
Y288707D02*
Y289491D01*
X357800Y260885D02*
Y263216D01*
Y273211D02*
Y274633D01*
Y284823D02*
Y285860D01*
Y288692D02*
Y289491D01*
X357900Y261235D02*
Y263520D01*
Y273043D02*
Y274455D01*
Y284697D02*
Y285874D01*
Y288678D02*
Y289471D01*
X358000Y261585D02*
Y263824D01*
Y272875D02*
Y274278D01*
Y284571D02*
Y285915D01*
Y288664D02*
Y289451D01*
X358100Y261786D02*
Y264128D01*
Y272707D02*
Y274100D01*
Y284445D02*
Y285965D01*
Y288624D02*
Y289431D01*
X358200Y261786D02*
Y264433D01*
Y272539D02*
Y273922D01*
Y284319D02*
Y286015D01*
Y288574D02*
Y289411D01*
X358300Y261786D02*
Y262371D01*
Y262427D02*
Y264737D01*
Y272371D02*
Y273744D01*
Y284193D02*
Y286065D01*
Y288524D02*
Y289391D01*
X358400Y261786D02*
Y262347D01*
Y262747D02*
Y265041D01*
Y272203D02*
Y273567D01*
Y284067D02*
Y285258D01*
Y285349D02*
Y286115D01*
Y288474D02*
Y289355D01*
X358500Y261786D02*
Y262347D01*
Y263067D02*
Y265345D01*
Y269550D02*
Y273389D01*
Y283941D02*
Y285135D01*
Y285399D02*
Y286165D01*
Y288401D02*
Y289318D01*
X358600Y261786D02*
Y262347D01*
Y263387D02*
Y265649D01*
Y269550D02*
Y273211D01*
Y283814D02*
Y285012D01*
Y285449D02*
Y286257D01*
Y288301D02*
Y289280D01*
X358700Y261786D02*
Y262347D01*
Y263707D02*
Y265953D01*
Y269550D02*
Y273033D01*
Y283688D02*
Y284889D01*
Y285499D02*
Y286423D01*
Y288201D02*
Y289243D01*
X358800Y261786D02*
Y262347D01*
Y264027D02*
Y265983D01*
Y269550D02*
Y272857D01*
Y283562D02*
Y284766D01*
Y285549D02*
Y286590D01*
Y288101D02*
Y289205D01*
X358900Y261786D02*
Y262347D01*
Y264347D02*
Y265983D01*
Y269550D02*
Y272893D01*
Y283436D02*
Y284643D01*
Y285599D02*
Y286827D01*
Y287941D02*
Y289168D01*
X359000Y261786D02*
Y262347D01*
Y264667D02*
Y265983D01*
Y269550D02*
Y273062D01*
Y283310D02*
Y284520D01*
Y285649D02*
Y289130D01*
X359100Y261786D02*
Y262347D01*
Y264987D02*
Y265983D01*
Y269550D02*
Y273230D01*
Y283184D02*
Y284396D01*
Y285741D02*
Y289093D01*
X359200Y261786D02*
Y262347D01*
Y265081D02*
Y265983D01*
Y269550D02*
Y273399D01*
Y283058D02*
Y284273D01*
Y285841D02*
Y289006D01*
X359300Y261786D02*
Y262347D01*
Y264791D02*
Y265983D01*
Y272319D02*
Y273567D01*
Y282932D02*
Y284150D01*
Y285941D02*
Y288906D01*
X359400Y261786D02*
Y262347D01*
Y264471D02*
Y265983D01*
Y272483D02*
Y273736D01*
Y282806D02*
Y284027D01*
Y286041D02*
Y288806D01*
X359500Y261786D02*
Y262347D01*
Y264151D02*
Y265983D01*
Y272647D02*
Y273904D01*
Y282680D02*
Y283904D01*
Y286141D02*
Y288706D01*
X359600Y261786D02*
Y262347D01*
Y263831D02*
Y265983D01*
Y272811D02*
Y274072D01*
Y282554D02*
Y283781D01*
Y286320D02*
Y288606D01*
X359700Y261786D02*
Y262347D01*
Y263511D02*
Y265767D01*
Y272975D02*
Y274241D01*
Y282427D02*
Y283658D01*
Y286520D02*
Y288506D01*
X359800Y261786D02*
Y262347D01*
Y263191D02*
Y265463D01*
Y273139D02*
Y274409D01*
Y282301D02*
Y283535D01*
Y286720D02*
Y288096D01*
X359900Y261786D02*
Y262347D01*
Y262871D02*
Y265159D01*
Y273303D02*
Y274578D01*
Y282175D02*
Y283412D01*
Y287302D02*
Y287596D01*
X360000Y261786D02*
Y262347D01*
Y262551D02*
Y264855D01*
Y273467D02*
Y274746D01*
Y282050D02*
Y283289D01*
X360100Y261786D02*
Y264551D01*
Y273631D02*
Y274915D01*
Y282050D02*
Y283166D01*
X360200Y261786D02*
Y264247D01*
Y273795D02*
Y275083D01*
Y282050D02*
Y283043D01*
X360300Y261721D02*
Y263942D01*
Y273959D02*
Y275251D01*
Y282050D02*
Y282920D01*
X360400Y261371D02*
Y263638D01*
Y274123D02*
Y275420D01*
Y282050D02*
Y282796D01*
X360500Y261021D02*
Y263334D01*
Y274287D02*
Y275483D01*
Y282050D02*
Y282673D01*
X360600Y260671D02*
Y263030D01*
Y274451D02*
Y275483D01*
Y282050D02*
Y282550D01*
X360700Y260321D02*
Y262726D01*
Y274615D02*
Y275483D01*
Y282050D02*
Y282427D01*
X360800Y260050D02*
Y262422D01*
Y274779D02*
Y275483D01*
Y282050D02*
Y282304D01*
X360900Y260050D02*
Y262117D01*
Y274943D02*
Y275483D01*
Y282050D02*
Y282181D01*
X361000Y260050D02*
Y261813D01*
Y275107D02*
Y275483D01*
Y282050D02*
Y282058D01*
X361100Y260050D02*
Y261509D01*
Y275271D02*
Y275483D01*
X361200Y260050D02*
Y261205D01*
Y275435D02*
Y275483D01*
X361300Y260050D02*
Y260901D01*
X361400Y260050D02*
Y260597D01*
X361500Y260050D02*
Y260292D01*
X364100Y272437D02*
Y272513D01*
X364200Y271582D02*
Y273391D01*
X364300Y271072D02*
Y273947D01*
X364400Y270838D02*
Y274147D01*
X364500Y270605D02*
Y274347D01*
X364600Y270478D02*
Y274498D01*
X364700Y270353D02*
Y274648D01*
X364800Y270228D02*
Y274798D01*
X364900Y260050D02*
Y265983D01*
Y270121D02*
Y271654D01*
Y272987D02*
Y274896D01*
Y282050D02*
Y289491D01*
X365000Y260050D02*
Y265983D01*
Y270021D02*
Y271365D01*
Y273591D02*
Y274976D01*
Y282050D02*
Y289491D01*
X365100Y260050D02*
Y265983D01*
Y269921D02*
Y271185D01*
Y273841D02*
Y275056D01*
Y282050D02*
Y289491D01*
X365200Y260050D02*
Y265983D01*
Y269821D02*
Y271005D01*
Y274091D02*
Y275136D01*
Y282050D02*
Y289491D01*
X365300Y260050D02*
Y265983D01*
Y269748D02*
Y270825D01*
Y274341D02*
Y275203D01*
Y282050D02*
Y289491D01*
X365400Y260050D02*
Y265983D01*
Y269688D02*
Y270645D01*
Y274463D02*
Y275263D01*
Y282050D02*
Y289491D01*
X365500Y260050D02*
Y265983D01*
Y269628D02*
Y270508D01*
Y274538D02*
Y275323D01*
Y282050D02*
Y289491D01*
X365600Y262444D02*
Y263010D01*
Y265419D02*
Y265983D01*
Y269568D02*
Y270374D01*
Y274613D02*
Y275383D01*
Y282050D02*
Y289491D01*
X365700Y262447D02*
Y263008D01*
Y265422D02*
Y265983D01*
Y269538D02*
Y270270D01*
Y274688D02*
Y275422D01*
Y282050D02*
Y289491D01*
X365800Y262447D02*
Y263008D01*
Y265422D02*
Y265983D01*
Y269524D02*
Y270220D01*
Y274763D02*
Y275451D01*
Y288539D02*
Y289491D01*
X365900Y262447D02*
Y263008D01*
Y265422D02*
Y265983D01*
Y269510D02*
Y270170D01*
Y274838D02*
Y275480D01*
Y288316D02*
Y289491D01*
X366000Y262447D02*
Y263008D01*
Y265422D02*
Y265983D01*
Y269496D02*
Y270120D01*
Y274913D02*
Y275508D01*
Y288090D02*
Y289491D01*
X366100Y262447D02*
Y263008D01*
Y265422D02*
Y265983D01*
Y269481D02*
Y270070D01*
Y274939D02*
Y275537D01*
Y287863D02*
Y289491D01*
X366200Y262447D02*
Y263008D01*
Y265422D02*
Y265983D01*
Y269467D02*
Y270020D01*
Y274961D02*
Y275565D01*
Y287637D02*
Y289365D01*
X366300Y262447D02*
Y263008D01*
Y265422D02*
Y265983D01*
Y269450D02*
Y269970D01*
Y274983D02*
Y275580D01*
Y287411D02*
Y289150D01*
X366400Y262447D02*
Y263013D01*
Y265422D02*
Y265983D01*
Y269434D02*
Y269946D01*
Y275006D02*
Y275595D01*
Y287184D02*
Y288934D01*
X366500Y262447D02*
Y263027D01*
Y265414D02*
Y265983D01*
Y269417D02*
Y269946D01*
Y275028D02*
Y275609D01*
Y286958D02*
Y288718D01*
X366600Y262447D02*
Y263042D01*
Y265400D02*
Y265983D01*
Y269400D02*
Y269946D01*
Y275050D02*
Y275623D01*
Y286732D02*
Y288502D01*
X366700Y262446D02*
Y263056D01*
Y265386D02*
Y265983D01*
Y269385D02*
Y269946D01*
Y275072D02*
Y275637D01*
Y286505D02*
Y288286D01*
X366800Y262339D02*
Y263070D01*
Y265371D02*
Y265983D01*
Y269385D02*
Y269949D01*
Y275084D02*
Y275643D01*
Y286279D02*
Y288071D01*
X366900Y262212D02*
Y263085D01*
Y265357D02*
Y265973D01*
Y269385D02*
Y269964D01*
Y275070D02*
Y275626D01*
Y286053D02*
Y287855D01*
X367000Y262086D02*
Y263116D01*
Y265343D02*
Y265953D01*
Y269385D02*
Y269978D01*
Y275055D02*
Y275610D01*
Y285826D02*
Y287639D01*
X367100Y261960D02*
Y263166D01*
Y265305D02*
Y265933D01*
Y269385D02*
Y269992D01*
Y275041D02*
Y275593D01*
Y285600D02*
Y287423D01*
X367200Y261834D02*
Y263216D01*
Y265255D02*
Y265913D01*
Y269385D02*
Y270006D01*
Y275027D02*
Y275576D01*
Y285374D02*
Y287207D01*
X367300Y261708D02*
Y263266D01*
Y265205D02*
Y265885D01*
Y269385D02*
Y270021D01*
Y275012D02*
Y275560D01*
Y285147D02*
Y286992D01*
X367400Y261582D02*
Y262505D01*
Y262725D02*
Y263316D01*
Y265146D02*
Y265848D01*
Y269408D02*
Y270045D01*
Y274986D02*
Y275543D01*
Y284921D02*
Y286776D01*
X367500Y261456D02*
Y262382D01*
Y262775D02*
Y263401D01*
Y265046D02*
Y265810D01*
Y269448D02*
Y270088D01*
Y274936D02*
Y275526D01*
Y284695D02*
Y286560D01*
X367600Y261330D02*
Y262259D01*
Y262825D02*
Y263568D01*
Y264946D02*
Y265773D01*
Y269488D02*
Y270131D01*
Y274886D02*
Y275510D01*
Y284469D02*
Y286344D01*
X367700Y261204D02*
Y262136D01*
Y262875D02*
Y263735D01*
Y264846D02*
Y265735D01*
Y269528D02*
Y270174D01*
Y274836D02*
Y275493D01*
Y284242D02*
Y286128D01*
X367800Y261078D02*
Y262013D01*
Y262925D02*
Y264275D01*
Y264457D02*
Y265698D01*
Y269565D02*
Y270216D01*
Y274786D02*
Y275465D01*
Y284116D02*
Y285913D01*
X367900Y260952D02*
Y261890D01*
Y263016D02*
Y265660D01*
Y269598D02*
Y270259D01*
Y274733D02*
Y275425D01*
Y284116D02*
Y285697D01*
X368000Y260826D02*
Y261767D01*
Y263116D02*
Y265562D01*
Y269631D02*
Y270317D01*
Y274673D02*
Y275385D01*
Y284116D02*
Y285481D01*
X368100Y260699D02*
Y261644D01*
Y263216D02*
Y265462D01*
Y269665D02*
Y270392D01*
Y274613D02*
Y275345D01*
Y284116D02*
Y285271D01*
X368200Y260573D02*
Y261521D01*
Y263316D02*
Y265362D01*
Y269698D02*
Y270467D01*
Y274553D02*
Y275305D01*
Y284116D02*
Y285329D01*
X368300Y260447D02*
Y261398D01*
Y263497D02*
Y265262D01*
Y269741D02*
Y270543D01*
Y274490D02*
Y275265D01*
Y284116D02*
Y285570D01*
X368400Y260321D02*
Y261275D01*
Y263697D02*
Y265080D01*
Y269791D02*
Y270643D01*
Y274390D02*
Y275225D01*
Y284319D02*
Y285811D01*
X368500Y260195D02*
Y261151D01*
Y264097D02*
Y264580D01*
Y269841D02*
Y270743D01*
Y274290D02*
Y275185D01*
Y284545D02*
Y286052D01*
X368600Y260069D02*
Y261028D01*
Y284772D02*
Y286293D01*
X368700Y260050D02*
Y260905D01*
Y284998D02*
Y286535D01*
X368800Y260050D02*
Y260782D01*
Y285224D02*
Y286776D01*
X368900Y260050D02*
Y260659D01*
Y285450D02*
Y287017D01*
X369000Y260050D02*
Y260536D01*
Y285677D02*
Y287258D01*
X369100Y260050D02*
Y260413D01*
Y272111D02*
Y272885D01*
Y285903D02*
Y287499D01*
X369200Y260050D02*
Y260290D01*
Y271311D02*
Y273722D01*
Y286129D02*
Y287740D01*
X369300Y260050D02*
Y260167D01*
Y270975D02*
Y274030D01*
Y286356D02*
Y287982D01*
X369400Y270742D02*
Y274230D01*
Y286582D02*
Y288223D01*
X369500Y270551D02*
Y274410D01*
Y286808D02*
Y288464D01*
X369600Y270426D02*
Y274560D01*
Y287035D02*
Y288705D01*
X369700Y261880D02*
Y262714D01*
Y270301D02*
Y274710D01*
Y287261D02*
Y288946D01*
X369800Y261249D02*
Y263297D01*
Y270184D02*
Y272345D01*
Y272605D02*
Y274850D01*
Y287487D02*
Y289188D01*
X369900Y261069D02*
Y263477D01*
Y270104D02*
Y271695D01*
Y273255D02*
Y274930D01*
Y287714D02*
Y289429D01*
X370000Y260889D02*
Y263657D01*
Y270024D02*
Y271268D01*
Y273720D02*
Y275010D01*
Y287940D02*
Y289491D01*
X370100Y260709D02*
Y263837D01*
Y269944D02*
Y271043D01*
Y274020D02*
Y275090D01*
Y288166D02*
Y289491D01*
X370200Y260531D02*
Y264016D01*
Y269864D02*
Y270818D01*
Y274235D02*
Y275167D01*
Y288393D02*
Y289491D01*
X370300Y260476D02*
Y262017D01*
Y262274D02*
Y262767D01*
Y262955D02*
Y264091D01*
Y269784D02*
Y270614D01*
Y274424D02*
Y275227D01*
Y288558D02*
Y289491D01*
X370400Y260420D02*
Y261411D01*
Y262281D02*
Y262760D01*
Y263374D02*
Y264166D01*
Y269704D02*
Y270528D01*
Y274557D02*
Y275287D01*
Y282050D02*
Y289491D01*
X370500Y260365D02*
Y261261D01*
Y262281D02*
Y262760D01*
Y263499D02*
Y264241D01*
Y269624D02*
Y270442D01*
Y274691D02*
Y275347D01*
Y282050D02*
Y289491D01*
X370600Y260309D02*
Y261111D01*
Y262281D02*
Y262760D01*
Y263624D02*
Y264316D01*
Y269546D02*
Y270357D01*
Y274775D02*
Y275406D01*
Y282050D02*
Y289491D01*
X370700Y260254D02*
Y260961D01*
Y262281D02*
Y262760D01*
Y263749D02*
Y264391D01*
Y269530D02*
Y270271D01*
Y274825D02*
Y275440D01*
Y282050D02*
Y289491D01*
X370800Y260198D02*
Y260891D01*
Y262281D02*
Y262760D01*
Y263850D02*
Y264466D01*
Y269513D02*
Y270185D01*
Y274875D02*
Y275473D01*
Y282050D02*
Y289491D01*
X370900Y260143D02*
Y260825D01*
Y262281D02*
Y262760D01*
Y263950D02*
Y264510D01*
Y269496D02*
Y270109D01*
Y274922D02*
Y275506D01*
Y282050D02*
Y289491D01*
X371000Y260116D02*
Y260758D01*
Y262281D02*
Y262760D01*
Y264050D02*
Y264530D01*
Y269480D02*
Y270069D01*
Y274942D02*
Y275540D01*
Y282050D02*
Y289491D01*
X371100Y260098D02*
Y260691D01*
Y262281D02*
Y262760D01*
Y264105D02*
Y264550D01*
Y269464D02*
Y270029D01*
Y274962D02*
Y275569D01*
Y282050D02*
Y289491D01*
X371200Y260080D02*
Y260625D01*
Y262281D02*
Y262760D01*
Y264122D02*
Y264570D01*
Y269449D02*
Y269989D01*
Y274982D02*
Y275584D01*
Y282050D02*
Y289491D01*
X371300Y260062D02*
Y260601D01*
Y262281D02*
Y262760D01*
Y264139D02*
Y264590D01*
Y269435D02*
Y269949D01*
Y275002D02*
Y275598D01*
X371400Y260043D02*
Y260587D01*
Y262281D02*
Y262760D01*
Y264155D02*
Y264610D01*
Y269421D02*
Y269946D01*
Y275022D02*
Y275612D01*
X371500Y260025D02*
Y260573D01*
Y262281D02*
Y262760D01*
Y264172D02*
Y264630D01*
Y269406D02*
Y269946D01*
Y275042D02*
Y275627D01*
X371600Y260007D02*
Y260559D01*
Y262281D02*
Y262760D01*
Y264178D02*
Y264650D01*
Y269392D02*
Y269946D01*
Y275062D02*
Y275641D01*
X371700Y259989D02*
Y260544D01*
Y262281D02*
Y262760D01*
Y264164D02*
Y264648D01*
Y269393D02*
Y269946D01*
Y275082D02*
Y275642D01*
X371800Y259971D02*
Y260530D01*
Y262281D02*
Y262760D01*
Y264149D02*
Y264626D01*
Y269407D02*
Y269946D01*
Y275073D02*
Y275629D01*
X371900Y259967D02*
Y260542D01*
Y262281D02*
Y262760D01*
Y264135D02*
Y264604D01*
Y269421D02*
Y269946D01*
Y275051D02*
Y275617D01*
X372000Y259967D02*
Y260559D01*
Y262281D02*
Y262760D01*
Y264121D02*
Y264581D01*
Y269435D02*
Y269946D01*
Y275029D02*
Y275604D01*
X372100Y259967D02*
Y260575D01*
Y262281D02*
Y262760D01*
Y264106D02*
Y264559D01*
Y269450D02*
Y269957D01*
Y275006D02*
Y275592D01*
X372200Y259967D02*
Y260592D01*
Y262281D02*
Y262760D01*
Y264071D02*
Y264537D01*
Y269464D02*
Y269997D01*
Y274984D02*
Y275579D01*
Y282050D02*
Y282260D01*
X372300Y259967D02*
Y260609D01*
Y262281D02*
Y262760D01*
Y263996D02*
Y264515D01*
Y269478D02*
Y270037D01*
Y274962D02*
Y275566D01*
Y282050D02*
Y282564D01*
X372400Y259986D02*
Y260643D01*
Y262281D02*
Y262760D01*
Y263921D02*
Y264484D01*
Y269493D02*
Y270077D01*
Y274940D02*
Y275533D01*
Y282050D02*
Y282868D01*
X372500Y260006D02*
Y260683D01*
Y262281D02*
Y262760D01*
Y263846D02*
Y264426D01*
Y269507D02*
Y270118D01*
Y274915D02*
Y275500D01*
Y282050D02*
Y283172D01*
X372600Y260026D02*
Y260723D01*
Y262281D02*
Y262760D01*
Y263624D02*
Y264369D01*
Y269521D02*
Y270202D01*
Y274831D02*
Y275466D01*
Y282050D02*
Y283476D01*
X372700Y260046D02*
Y260763D01*
Y262281D02*
Y262760D01*
Y263325D02*
Y264312D01*
Y269535D02*
Y270288D01*
Y274745D02*
Y275433D01*
Y282050D02*
Y283781D01*
X372800Y260094D02*
Y260803D01*
Y262281D02*
Y264255D01*
Y269555D02*
Y270374D01*
Y274659D02*
Y275397D01*
Y282050D02*
Y284085D01*
X372900Y260144D02*
Y260843D01*
Y262281D02*
Y264198D01*
Y269615D02*
Y270459D01*
Y274574D02*
Y275347D01*
Y282050D02*
Y284389D01*
X373000Y260194D02*
Y260883D01*
Y262281D02*
Y264045D01*
Y269675D02*
Y270545D01*
Y274488D02*
Y275297D01*
Y282050D02*
Y284693D01*
X373100Y260244D02*
Y260923D01*
Y262281D02*
Y263845D01*
Y269735D02*
Y270637D01*
Y274395D02*
Y275247D01*
Y282050D02*
Y284997D01*
X373200Y260294D02*
Y260985D01*
Y262281D02*
Y263645D01*
Y269800D02*
Y270817D01*
Y274170D02*
Y275197D01*
Y282188D02*
Y285301D01*
X373300Y260344D02*
Y261085D01*
Y262281D02*
Y263423D01*
Y269900D02*
Y270997D01*
Y273945D02*
Y275133D01*
Y282538D02*
Y285606D01*
X373400Y262281D02*
Y263173D01*
Y270000D02*
Y271177D01*
Y273720D02*
Y275033D01*
Y282888D02*
Y285910D01*
X373500Y270100D02*
Y271357D01*
Y273176D02*
Y274933D01*
Y283238D02*
Y286214D01*
X373600Y270201D02*
Y274830D01*
Y283588D02*
Y286518D01*
X373700Y270326D02*
Y274680D01*
Y283938D02*
Y286822D01*
X373800Y264463D02*
Y264495D01*
Y270451D02*
Y274530D01*
Y284216D02*
Y287126D01*
X373900Y264201D02*
Y264495D01*
Y270576D02*
Y274380D01*
Y284219D02*
Y287431D01*
X374000Y263939D02*
Y264495D01*
Y270788D02*
Y274190D01*
Y284219D02*
Y287735D01*
X374100Y263677D02*
Y264495D01*
Y271021D02*
Y273990D01*
Y284219D02*
Y284955D01*
Y285074D02*
Y288039D01*
X374200Y263415D02*
Y264495D01*
Y271470D02*
Y273563D01*
Y284219D02*
Y284946D01*
Y285394D02*
Y288343D01*
X374300Y263153D02*
Y264495D01*
Y272270D02*
Y272707D01*
Y284219D02*
Y284946D01*
Y285714D02*
Y288647D01*
X374400Y262891D02*
Y264495D01*
Y284219D02*
Y284946D01*
Y286034D02*
Y288951D01*
X374500Y262629D02*
Y264495D01*
Y284219D02*
Y284946D01*
Y286354D02*
Y289256D01*
X374600Y262367D02*
Y264225D01*
Y284219D02*
Y284946D01*
Y286674D02*
Y289491D01*
X374700Y262106D02*
Y263939D01*
Y284219D02*
Y284946D01*
Y286994D02*
Y289491D01*
X374800Y261844D02*
Y263652D01*
Y284219D02*
Y284946D01*
Y287314D02*
Y289491D01*
X374900Y261582D02*
Y263365D01*
Y284219D02*
Y284946D01*
Y287634D02*
Y289491D01*
X375000Y261320D02*
Y263079D01*
Y284219D02*
Y284946D01*
Y287954D02*
Y289491D01*
X375100Y261058D02*
Y262792D01*
Y284219D02*
Y284946D01*
Y288274D02*
Y289491D01*
X375200Y260796D02*
Y262505D01*
Y284219D02*
Y284946D01*
Y288333D02*
Y289491D01*
X375300Y260534D02*
Y262219D01*
Y269550D02*
Y275483D01*
Y284219D02*
Y284946D01*
Y288025D02*
Y289491D01*
X375400Y260272D02*
Y261932D01*
Y269550D02*
Y275483D01*
Y284219D02*
Y284946D01*
Y287705D02*
Y289491D01*
X375500Y260050D02*
Y261645D01*
Y269550D02*
Y275483D01*
Y284219D02*
Y284946D01*
Y287385D02*
Y289491D01*
X375600Y260050D02*
Y261359D01*
Y269550D02*
Y275483D01*
Y284219D02*
Y284946D01*
Y287065D02*
Y289491D01*
X375700Y260050D02*
Y261072D01*
Y269550D02*
Y275483D01*
Y284219D02*
Y284946D01*
Y286745D02*
Y289491D01*
X375800Y260050D02*
Y260945D01*
Y269550D02*
Y275483D01*
Y284219D02*
Y284946D01*
Y286425D02*
Y289323D01*
X375900Y260050D02*
Y261181D01*
Y269550D02*
Y275483D01*
Y284219D02*
Y284946D01*
Y286105D02*
Y289019D01*
X376000Y260050D02*
Y261468D01*
Y271937D02*
Y272517D01*
Y274913D02*
Y275483D01*
Y284219D02*
Y284946D01*
Y285785D02*
Y288715D01*
X376100Y260110D02*
Y261754D01*
Y271947D02*
Y272508D01*
Y274922D02*
Y275483D01*
Y284219D02*
Y284946D01*
Y285465D02*
Y288411D01*
X376200Y260372D02*
Y262041D01*
Y271947D02*
Y272508D01*
Y274922D02*
Y275483D01*
Y284219D02*
Y284946D01*
Y285145D02*
Y288107D01*
X376300Y260634D02*
Y262328D01*
Y271947D02*
Y272508D01*
Y274922D02*
Y275483D01*
Y284219D02*
Y287803D01*
X376400Y260896D02*
Y262614D01*
Y271947D02*
Y272508D01*
Y274922D02*
Y275483D01*
Y284219D02*
Y287498D01*
X376500Y261157D02*
Y262901D01*
Y271947D02*
Y272508D01*
Y274922D02*
Y275483D01*
Y284219D02*
Y287194D01*
X376600Y261419D02*
Y263188D01*
Y271947D02*
Y272508D01*
Y274922D02*
Y275483D01*
Y284016D02*
Y286890D01*
X376700Y261681D02*
Y263474D01*
Y271947D02*
Y272508D01*
Y274922D02*
Y275483D01*
Y283666D02*
Y286586D01*
X376800Y261943D02*
Y263761D01*
Y271947D02*
Y272511D01*
Y274922D02*
Y275483D01*
Y283316D02*
Y286282D01*
X376900Y262205D02*
Y264048D01*
Y271947D02*
Y272526D01*
Y274916D02*
Y275483D01*
Y282966D02*
Y285978D01*
X377000Y262467D02*
Y264334D01*
Y271947D02*
Y272540D01*
Y274902D02*
Y275483D01*
Y282616D02*
Y285673D01*
X377100Y262729D02*
Y264495D01*
Y271947D02*
Y272554D01*
Y274887D02*
Y275483D01*
Y282266D02*
Y285369D01*
X377200Y262991D02*
Y264495D01*
Y271855D02*
Y272568D01*
Y274873D02*
Y275483D01*
Y282050D02*
Y285065D01*
X377300Y263253D02*
Y264495D01*
Y271729D02*
Y272583D01*
Y274859D02*
Y275476D01*
Y282050D02*
Y284761D01*
X377400Y263515D02*
Y264495D01*
Y271603D02*
Y272609D01*
Y274845D02*
Y275456D01*
Y282050D02*
Y284457D01*
X377500Y263777D02*
Y264495D01*
Y271477D02*
Y272659D01*
Y274812D02*
Y275436D01*
Y282050D02*
Y284153D01*
X377600Y264038D02*
Y264495D01*
Y271351D02*
Y272709D01*
Y274762D02*
Y275416D01*
Y282050D02*
Y283848D01*
X377700Y264300D02*
Y264495D01*
Y271225D02*
Y272759D01*
Y274712D02*
Y275390D01*
Y282050D02*
Y283544D01*
X377800Y271099D02*
Y272022D01*
Y272218D02*
Y272809D01*
Y274659D02*
Y275353D01*
Y282050D02*
Y283240D01*
X377900Y270973D02*
Y271899D01*
Y272268D02*
Y272879D01*
Y274559D02*
Y275315D01*
Y282050D02*
Y282936D01*
X378000Y270847D02*
Y271775D01*
Y272318D02*
Y273046D01*
Y274459D02*
Y275278D01*
Y282050D02*
Y282632D01*
X378100Y270720D02*
Y271652D01*
Y272368D02*
Y273213D01*
Y274359D02*
Y275240D01*
Y282050D02*
Y282328D01*
X378200Y270594D02*
Y271529D01*
Y272418D02*
Y273683D01*
Y274024D02*
Y275203D01*
X378300Y270468D02*
Y271406D01*
Y272503D02*
Y275165D01*
X378400Y260050D02*
Y260895D01*
Y270342D02*
Y271283D01*
Y272603D02*
Y275075D01*
X378500Y260050D02*
Y260995D01*
Y265013D02*
Y265766D01*
Y270216D02*
Y271160D01*
Y272703D02*
Y274975D01*
X378600Y260050D02*
Y261095D01*
Y265080D02*
Y265816D01*
Y270090D02*
Y271037D01*
Y272803D02*
Y274875D01*
X378700Y260050D02*
Y261195D01*
Y265147D02*
Y265866D01*
Y269964D02*
Y270914D01*
Y272970D02*
Y274775D01*
Y282419D02*
Y283568D01*
X378800Y260050D02*
Y261295D01*
Y265213D02*
Y265910D01*
Y269838D02*
Y270791D01*
Y273170D02*
Y274646D01*
Y282383D02*
Y283488D01*
Y286970D02*
Y287878D01*
X378900Y260050D02*
Y261395D01*
Y265280D02*
Y265935D01*
Y269712D02*
Y270668D01*
Y273505D02*
Y274146D01*
Y282347D02*
Y283408D01*
Y286657D02*
Y288278D01*
X379000Y260050D02*
Y260611D01*
Y260728D02*
Y261495D01*
Y265341D02*
Y265960D01*
Y269586D02*
Y270545D01*
Y282310D02*
Y283328D01*
Y286507D02*
Y288487D01*
X379100Y260050D02*
Y260611D01*
Y260828D02*
Y261595D01*
Y265374D02*
Y265985D01*
Y269550D02*
Y270422D01*
Y282274D02*
Y283248D01*
Y286357D02*
Y288627D01*
X379200Y260050D02*
Y260611D01*
Y260928D02*
Y261695D01*
Y265407D02*
Y266003D01*
Y269550D02*
Y270299D01*
Y282237D02*
Y283179D01*
Y286207D02*
Y288767D01*
X379300Y260050D02*
Y260611D01*
Y261028D02*
Y261795D01*
Y265441D02*
Y266021D01*
Y269550D02*
Y270175D01*
Y282201D02*
Y283129D01*
Y286108D02*
Y288907D01*
X379400Y260050D02*
Y260611D01*
Y261128D02*
Y261895D01*
Y265474D02*
Y266039D01*
Y269550D02*
Y270052D01*
Y282165D02*
Y283079D01*
Y286028D02*
Y289047D01*
X379500Y260050D02*
Y260611D01*
Y261228D02*
Y261995D01*
Y265506D02*
Y266057D01*
Y269550D02*
Y269929D01*
Y282128D02*
Y283029D01*
Y285948D02*
Y289124D01*
X379600Y260050D02*
Y260611D01*
Y261328D02*
Y262095D01*
Y265526D02*
Y266076D01*
Y269550D02*
Y269806D01*
Y282092D02*
Y282979D01*
Y285868D02*
Y289174D01*
X379700Y260050D02*
Y260611D01*
Y261428D02*
Y262195D01*
Y265546D02*
Y266094D01*
Y269550D02*
Y269683D01*
Y282056D02*
Y282929D01*
Y285788D02*
Y287502D01*
Y287904D02*
Y289224D01*
X379800Y260050D02*
Y260611D01*
Y261528D02*
Y262298D01*
Y265566D02*
Y266112D01*
Y269550D02*
Y269560D01*
Y282022D02*
Y282880D01*
Y285744D02*
Y287177D01*
Y288268D02*
Y289274D01*
X379900Y260050D02*
Y260611D01*
Y261628D02*
Y262412D01*
Y265586D02*
Y266130D01*
Y281988D02*
Y282847D01*
Y285716D02*
Y286977D01*
Y288402D02*
Y289324D01*
X380000Y260050D02*
Y260611D01*
Y261728D02*
Y262526D01*
Y265571D02*
Y266148D01*
Y281955D02*
Y282814D01*
Y285687D02*
Y286806D01*
Y288535D02*
Y289374D01*
X380100Y260050D02*
Y260611D01*
Y261828D02*
Y262640D01*
Y265551D02*
Y266136D01*
Y281922D02*
Y282780D01*
Y285659D02*
Y286740D01*
Y288657D02*
Y289424D01*
X380200Y260050D02*
Y260611D01*
Y261928D02*
Y262755D01*
Y265531D02*
Y266125D01*
Y281888D02*
Y282747D01*
Y285630D02*
Y286673D01*
Y288697D02*
Y289474D01*
X380300Y260050D02*
Y260611D01*
Y262028D02*
Y262869D01*
Y265511D02*
Y266114D01*
Y281855D02*
Y282714D01*
Y285601D02*
Y286606D01*
Y288737D02*
Y289506D01*
X380400Y260050D02*
Y260611D01*
Y262128D02*
Y263003D01*
Y265466D02*
Y266103D01*
Y269550D02*
Y275483D01*
Y281843D02*
Y282680D01*
Y285573D02*
Y286556D01*
Y288777D02*
Y289526D01*
X380500Y260050D02*
Y260611D01*
Y262228D02*
Y263178D01*
Y265399D02*
Y266092D01*
Y269550D02*
Y275483D01*
Y281843D02*
Y282661D01*
Y285544D02*
Y286506D01*
Y288817D02*
Y289546D01*
X380600Y260050D02*
Y260611D01*
Y262328D02*
Y263353D01*
Y265332D02*
Y266081D01*
Y269550D02*
Y275483D01*
Y281843D02*
Y282644D01*
Y285516D02*
Y286456D01*
Y288857D02*
Y289566D01*
X380700Y260050D02*
Y260611D01*
Y262428D02*
Y263528D01*
Y265205D02*
Y266070D01*
Y269550D02*
Y275483D01*
Y281843D02*
Y282627D01*
Y285487D02*
Y286406D01*
Y288879D02*
Y289586D01*
X380800Y260050D02*
Y260611D01*
Y262528D02*
Y263825D01*
Y265072D02*
Y266000D01*
Y269550D02*
Y275483D01*
Y281843D02*
Y282611D01*
Y285459D02*
Y286376D01*
Y288896D02*
Y289606D01*
X380900Y260050D02*
Y260611D01*
Y262628D02*
Y264212D01*
Y264825D02*
Y265917D01*
Y269550D02*
Y275483D01*
Y281843D02*
Y282594D01*
Y285430D02*
Y286351D01*
Y288913D02*
Y289626D01*
X381000Y260050D02*
Y260611D01*
Y262728D02*
Y265834D01*
Y269550D02*
Y275483D01*
Y281843D02*
Y282577D01*
Y285401D02*
Y286326D01*
Y288929D02*
Y289646D01*
X381100Y260050D02*
Y260611D01*
Y262880D02*
Y265750D01*
Y269550D02*
Y275483D01*
Y281843D02*
Y282577D01*
Y285373D02*
Y286301D01*
Y288946D02*
Y289666D01*
X381200Y260050D02*
Y260611D01*
Y263055D02*
Y265667D01*
Y271781D02*
Y272343D01*
Y274922D02*
Y275483D01*
Y281843D02*
Y282591D01*
Y285344D02*
Y286276D01*
Y288963D02*
Y289686D01*
X381300Y260050D02*
Y260611D01*
Y263230D02*
Y265547D01*
Y271781D02*
Y272343D01*
Y274922D02*
Y275483D01*
Y281843D02*
Y282605D01*
Y285316D02*
Y286251D01*
Y288965D02*
Y289694D01*
X381400Y260050D02*
Y260611D01*
Y263431D02*
Y265427D01*
Y271781D02*
Y272343D01*
Y274922D02*
Y275483D01*
Y281843D02*
Y282619D01*
Y285287D02*
Y286226D01*
Y288948D02*
Y289686D01*
X381500Y260050D02*
Y260611D01*
Y263664D02*
Y265307D01*
Y271781D02*
Y272343D01*
Y274922D02*
Y275483D01*
Y281843D02*
Y282634D01*
Y285259D02*
Y286201D01*
Y288932D02*
Y289677D01*
X381600Y260050D02*
Y260611D01*
Y263897D02*
Y265187D01*
Y271781D02*
Y272343D01*
Y274922D02*
Y275483D01*
Y281843D02*
Y282648D01*
Y285230D02*
Y286174D01*
Y288915D02*
Y289669D01*
X381700Y260050D02*
Y260611D01*
Y271781D02*
Y272343D01*
Y274922D02*
Y275483D01*
Y281843D02*
Y282662D01*
Y285201D02*
Y286145D01*
Y288898D02*
Y289661D01*
X381800Y260050D02*
Y260611D01*
Y271781D02*
Y272343D01*
Y274922D02*
Y275483D01*
Y281858D02*
Y282680D01*
Y285173D02*
Y286117D01*
Y288882D02*
Y289652D01*
X381900Y260050D02*
Y260611D01*
Y271781D02*
Y272343D01*
Y274912D02*
Y275483D01*
Y281898D02*
Y282713D01*
Y285143D02*
Y286088D01*
Y288865D02*
Y289644D01*
X382000Y271781D02*
Y272343D01*
Y274899D02*
Y275483D01*
Y281938D02*
Y282746D01*
Y285093D02*
Y286060D01*
Y288848D02*
Y289636D01*
X382100Y271781D02*
Y272343D01*
Y274887D02*
Y275483D01*
Y281978D02*
Y282780D01*
Y285043D02*
Y286031D01*
Y288832D02*
Y289627D01*
X382200Y271781D02*
Y272355D01*
Y274874D02*
Y275483D01*
Y282018D02*
Y282813D01*
Y284993D02*
Y286002D01*
Y288815D02*
Y289619D01*
X382300Y271781D02*
Y272380D01*
Y274862D02*
Y275483D01*
Y282066D02*
Y282846D01*
Y284943D02*
Y285970D01*
Y288798D02*
Y289611D01*
X382400Y271787D02*
Y272405D01*
Y274849D02*
Y275464D01*
Y282128D02*
Y282880D01*
Y284879D02*
Y285927D01*
Y288782D02*
Y289602D01*
X382500Y271820D02*
Y272432D01*
Y274833D02*
Y275444D01*
Y282191D02*
Y282990D01*
Y284812D02*
Y285884D01*
Y288765D02*
Y289589D01*
X382600Y271853D02*
Y272482D01*
Y274793D02*
Y275424D01*
Y282253D02*
Y283123D01*
Y284745D02*
Y285841D01*
Y288711D02*
Y289549D01*
X382700Y271887D02*
Y272532D01*
Y274753D02*
Y275404D01*
Y282316D02*
Y283256D01*
Y284542D02*
Y285798D01*
Y288651D02*
Y289509D01*
X382800Y271920D02*
Y272582D01*
Y274713D02*
Y275356D01*
Y282378D02*
Y283624D01*
Y284192D02*
Y285756D01*
Y288591D02*
Y289469D01*
X382900Y271955D02*
Y272632D01*
Y274673D02*
Y275306D01*
Y282441D02*
Y285713D01*
Y288531D02*
Y289429D01*
X383000Y271995D02*
Y272682D01*
Y274565D02*
Y275256D01*
Y282503D02*
Y285661D01*
Y288471D02*
Y289389D01*
X383100Y272035D02*
Y272841D01*
Y274440D02*
Y275206D01*
Y282581D02*
Y285561D01*
Y288402D02*
Y289349D01*
X383200Y272075D02*
Y273008D01*
Y274315D02*
Y275156D01*
Y282721D02*
Y285461D01*
Y288327D02*
Y289309D01*
X383300Y272131D02*
Y273350D01*
Y274029D02*
Y275106D01*
Y282861D02*
Y285361D01*
Y288252D02*
Y289269D01*
X383400Y272231D02*
Y275033D01*
Y283001D02*
Y285251D01*
Y288177D02*
Y289229D01*
X383500Y272331D02*
Y274933D01*
Y283141D02*
Y285085D01*
X383600Y272437D02*
Y274833D01*
Y283287D02*
Y284918D01*
X383700Y272612D02*
Y274733D01*
Y283487D02*
Y284684D01*
X383800Y272787D02*
Y274633D01*
X383900Y272962D02*
Y274533D01*
X384000Y273369D02*
Y274100D01*
X384600Y272409D02*
Y272551D01*
X384700Y271609D02*
Y273424D01*
X384800Y271062D02*
Y273955D01*
X384900Y270829D02*
Y274155D01*
Y282050D02*
Y289491D01*
X385000Y270598D02*
Y274354D01*
Y282050D02*
Y289491D01*
X385100Y270473D02*
Y274504D01*
Y282050D02*
Y289491D01*
X385200Y270348D02*
Y274654D01*
Y282050D02*
Y289491D01*
X385300Y270223D02*
Y274804D01*
Y282050D02*
Y289491D01*
X385400Y270133D02*
Y271937D01*
Y273014D02*
Y274900D01*
Y282050D02*
Y289491D01*
X385500Y270053D02*
Y271352D01*
Y273609D02*
Y274980D01*
Y282050D02*
Y289491D01*
X385600Y269973D02*
Y271127D01*
Y273909D02*
Y275060D01*
Y282050D02*
Y289491D01*
X385700Y269893D02*
Y270902D01*
Y274161D02*
Y275140D01*
Y282050D02*
Y289491D01*
X385800Y269813D02*
Y270677D01*
Y274361D02*
Y275205D01*
Y285072D02*
Y285979D01*
X385900Y269733D02*
Y270560D01*
Y274508D02*
Y275265D01*
Y285192D02*
Y286065D01*
X386000Y269653D02*
Y270474D01*
Y274641D02*
Y275325D01*
Y285312D02*
Y286178D01*
X386100Y269573D02*
Y270389D01*
Y274757D02*
Y275385D01*
Y285432D02*
Y286291D01*
X386200Y269536D02*
Y270303D01*
Y274807D02*
Y275427D01*
Y285552D02*
Y286405D01*
X386300Y269519D02*
Y270217D01*
Y274857D02*
Y275461D01*
Y285662D02*
Y286518D01*
X386400Y269503D02*
Y270131D01*
Y274907D02*
Y275494D01*
Y285593D02*
Y286631D01*
X386500Y269486D02*
Y270084D01*
Y274934D02*
Y275527D01*
Y285468D02*
Y286745D01*
X386600Y269469D02*
Y270044D01*
Y274954D02*
Y275561D01*
Y285343D02*
Y286858D01*
X386700Y269455D02*
Y270004D01*
Y274974D02*
Y275578D01*
Y285218D02*
Y286971D01*
X386800Y269440D02*
Y269964D01*
Y274994D02*
Y275593D01*
Y285093D02*
Y287085D01*
X386900Y269426D02*
Y269946D01*
Y275014D02*
Y275607D01*
Y284968D02*
Y287198D01*
X387000Y269412D02*
Y269946D01*
Y275034D02*
Y275621D01*
Y284843D02*
Y286104D01*
Y286160D02*
Y287311D01*
X387100Y269397D02*
Y269946D01*
Y275054D02*
Y275636D01*
Y284718D02*
Y285979D01*
Y286271D02*
Y287425D01*
X387200Y269387D02*
Y269946D01*
Y275074D02*
Y275646D01*
Y284593D02*
Y285854D01*
Y286381D02*
Y287538D01*
X387300Y269402D02*
Y269946D01*
Y275081D02*
Y275634D01*
Y284468D02*
Y285729D01*
Y286491D02*
Y287651D01*
X387400Y269416D02*
Y269946D01*
Y275059D02*
Y275621D01*
Y284343D02*
Y285604D01*
Y286601D02*
Y287765D01*
X387500Y269430D02*
Y269946D01*
Y275037D02*
Y275609D01*
Y284218D02*
Y285479D01*
Y286711D02*
Y287878D01*
X387600Y269444D02*
Y269946D01*
Y275015D02*
Y275596D01*
Y284093D02*
Y285354D01*
Y286821D02*
Y287991D01*
X387700Y269459D02*
Y269982D01*
Y274993D02*
Y275584D01*
Y283968D02*
Y285229D01*
Y286931D02*
Y288105D01*
X387800Y269473D02*
Y270022D01*
Y274970D02*
Y275571D01*
Y283843D02*
Y285104D01*
Y287041D02*
Y288218D01*
X387900Y269487D02*
Y270062D01*
Y274948D02*
Y275545D01*
Y283718D02*
Y284979D01*
Y287151D02*
Y288331D01*
X388000Y269502D02*
Y270102D01*
Y274926D02*
Y275512D01*
Y283593D02*
Y284854D01*
Y287261D02*
Y288445D01*
X388100Y269516D02*
Y270170D01*
Y274863D02*
Y275479D01*
Y283468D02*
Y284729D01*
Y287371D02*
Y288558D01*
X388200Y269530D02*
Y270256D01*
Y274777D02*
Y275445D01*
Y283343D02*
Y284604D01*
Y287481D02*
Y288671D01*
X388300Y269544D02*
Y270342D01*
Y274691D02*
Y275412D01*
Y283218D02*
Y284479D01*
Y287591D02*
Y288785D01*
X388400Y269593D02*
Y270428D01*
Y274606D02*
Y275366D01*
Y283093D02*
Y284354D01*
Y287701D02*
Y288898D01*
X388500Y269653D02*
Y270513D01*
Y274520D02*
Y275316D01*
Y282968D02*
Y284229D01*
Y287811D02*
Y289011D01*
X388600Y269713D02*
Y270599D01*
Y274434D02*
Y275266D01*
Y282843D02*
Y284104D01*
Y287921D02*
Y289125D01*
X388700Y269773D02*
Y270750D01*
Y274254D02*
Y275216D01*
Y282718D02*
Y283979D01*
Y288031D02*
Y289238D01*
X388800Y269862D02*
Y270930D01*
Y274029D02*
Y275166D01*
Y282593D02*
Y283854D01*
Y288141D02*
Y289351D01*
X388900Y269962D02*
Y271110D01*
Y273804D02*
Y275071D01*
Y282468D02*
Y283729D01*
Y288251D02*
Y289465D01*
X389000Y270062D02*
Y271290D01*
Y273436D02*
Y274971D01*
Y282343D02*
Y283604D01*
Y288361D02*
Y289491D01*
X389100Y270162D02*
Y271995D01*
Y272736D02*
Y274871D01*
Y282218D02*
Y283479D01*
Y288471D02*
Y289491D01*
X389200Y270279D02*
Y274736D01*
Y282093D02*
Y283354D01*
Y288581D02*
Y289491D01*
X389300Y270404D02*
Y274586D01*
Y282050D02*
Y283229D01*
Y288691D02*
Y289491D01*
X389400Y270529D02*
Y274436D01*
Y282050D02*
Y283104D01*
Y288801D02*
Y289491D01*
X389500Y270701D02*
Y274264D01*
Y282050D02*
Y282979D01*
Y288911D02*
Y289491D01*
X389600Y270935D02*
Y274064D01*
Y282050D02*
Y282854D01*
Y289021D02*
Y289491D01*
X389700Y271173D02*
Y273861D01*
Y282050D02*
Y282729D01*
Y289131D02*
Y289491D01*
X389800Y271973D02*
Y273041D01*
Y282050D02*
Y282604D01*
Y289241D02*
Y289491D01*
X389900Y282050D02*
Y282479D01*
Y289351D02*
Y289491D01*
X390000Y282050D02*
Y282354D01*
Y289461D02*
Y289491D01*
X390100Y282050D02*
Y282229D01*
X390200Y282050D02*
Y282104D01*
X390800Y269550D02*
Y275483D01*
X390900Y269550D02*
Y275483D01*
X391000Y269550D02*
Y275483D01*
X391100Y269550D02*
Y275483D01*
X391200Y269550D02*
Y275483D01*
X391300Y269550D02*
Y275483D01*
X391400Y269550D02*
Y275483D01*
X391500Y269550D02*
Y275483D01*
X391600Y271947D02*
Y272508D01*
Y274922D02*
Y275483D01*
X391700Y271947D02*
Y272508D01*
Y274922D02*
Y275483D01*
X391800Y271947D02*
Y272508D01*
Y274922D02*
Y275483D01*
X391900Y271947D02*
Y272508D01*
Y274922D02*
Y275483D01*
X392000Y271947D02*
Y272508D01*
Y274922D02*
Y275483D01*
X392100Y271947D02*
Y272508D01*
Y274922D02*
Y275483D01*
X392200Y271947D02*
Y272508D01*
Y274922D02*
Y275483D01*
X392300Y271947D02*
Y272508D01*
Y274922D02*
Y275483D01*
X392400Y271947D02*
Y272520D01*
Y274921D02*
Y275483D01*
X392500Y271947D02*
Y272534D01*
Y274907D02*
Y275483D01*
X392600Y271947D02*
Y272549D01*
Y274893D02*
Y275483D01*
X392700Y271902D02*
Y272563D01*
Y274878D02*
Y275483D01*
X392800Y271776D02*
Y272577D01*
Y274864D02*
Y275483D01*
X392900Y271650D02*
Y272592D01*
Y274850D02*
Y275463D01*
X393000Y271524D02*
Y272640D01*
Y274831D02*
Y275443D01*
X393100Y271398D02*
Y272690D01*
Y274781D02*
Y275423D01*
X393200Y271272D02*
Y272740D01*
Y274731D02*
Y275403D01*
X393300Y271146D02*
Y272067D01*
Y272200D02*
Y272790D01*
Y274681D02*
Y275367D01*
X393400Y271020D02*
Y271944D01*
Y272250D02*
Y272840D01*
Y274596D02*
Y275329D01*
X393500Y270893D02*
Y271821D01*
Y272300D02*
Y272984D01*
Y274496D02*
Y275292D01*
X393600Y270767D02*
Y271698D01*
Y272350D02*
Y273151D01*
Y274396D02*
Y275254D01*
X393700Y270641D02*
Y271575D01*
Y272400D02*
Y273422D01*
Y274209D02*
Y275217D01*
X393800Y270515D02*
Y271452D01*
Y272466D02*
Y275179D01*
X393900Y270389D02*
Y271329D01*
Y272566D02*
Y275112D01*
X394000Y270263D02*
Y271206D01*
Y272666D02*
Y275012D01*
X394100Y270137D02*
Y271083D01*
Y272766D02*
Y274912D01*
X394200Y270011D02*
Y270960D01*
Y272896D02*
Y274812D01*
X394300Y269885D02*
Y270837D01*
Y273096D02*
Y274712D01*
X394400Y269759D02*
Y270714D01*
Y273296D02*
Y274332D01*
X394500Y269633D02*
Y270590D01*
X394600Y269550D02*
Y270467D01*
X394700Y269550D02*
Y270344D01*
X394800Y269550D02*
Y270221D01*
X394900Y269550D02*
Y270098D01*
X395000Y269550D02*
Y269975D01*
X395100Y269550D02*
Y269852D01*
X395200Y269550D02*
Y269729D01*
X395300Y269550D02*
Y269606D01*
X395400Y269550D02*
Y269689D01*
X395500Y269550D02*
Y269993D01*
X395600Y269550D02*
Y270298D01*
X395700Y269550D02*
Y270602D01*
X395800Y269550D02*
Y270906D01*
X395900Y269550D02*
Y271210D01*
X396000Y269550D02*
Y271514D01*
X396100Y269550D02*
Y271818D01*
X396200Y269702D02*
Y272123D01*
X396300Y270052D02*
Y272427D01*
X396400Y270402D02*
Y272731D01*
X396500Y270752D02*
Y273035D01*
X396600Y271102D02*
Y273339D01*
X396700Y271286D02*
Y273643D01*
X396800Y271286D02*
Y273948D01*
X396900Y271286D02*
Y271864D01*
Y271943D02*
Y274252D01*
X397000Y271286D02*
Y271847D01*
Y272263D02*
Y274556D01*
X397100Y271286D02*
Y271847D01*
Y272583D02*
Y274860D01*
X397200Y271286D02*
Y271847D01*
Y272903D02*
Y275164D01*
X397300Y271286D02*
Y271847D01*
Y273223D02*
Y275468D01*
X397400Y271286D02*
Y271847D01*
Y273543D02*
Y275483D01*
X397500Y271286D02*
Y271847D01*
Y273863D02*
Y275483D01*
X397600Y271286D02*
Y271847D01*
Y274183D02*
Y275483D01*
X397700Y271286D02*
Y271847D01*
Y274503D02*
Y275483D01*
X397800Y271286D02*
Y271847D01*
Y274576D02*
Y275483D01*
X397900Y271286D02*
Y271847D01*
Y274275D02*
Y275483D01*
X398000Y271286D02*
Y271847D01*
Y273955D02*
Y275483D01*
X398100Y271286D02*
Y271847D01*
Y273635D02*
Y275483D01*
X398200Y271286D02*
Y271847D01*
Y273315D02*
Y275483D01*
X398300Y271286D02*
Y271847D01*
Y272995D02*
Y275252D01*
X398400Y271286D02*
Y271847D01*
Y272675D02*
Y274948D01*
X398500Y271286D02*
Y271847D01*
Y272355D02*
Y274644D01*
X398600Y271286D02*
Y271848D01*
Y272035D02*
Y274340D01*
X398700Y271286D02*
Y274036D01*
X398800Y271286D02*
Y273731D01*
X398900Y271203D02*
Y273427D01*
X399000Y270853D02*
Y273123D01*
X399100Y270503D02*
Y272819D01*
X399200Y270153D02*
Y272515D01*
X399300Y269803D02*
Y272211D01*
X399400Y269550D02*
Y271906D01*
X399500Y269550D02*
Y271602D01*
X399600Y269550D02*
Y271298D01*
X399700Y269550D02*
Y270994D01*
X399800Y269550D02*
Y270690D01*
X399900Y269550D02*
Y270386D01*
X400000Y269550D02*
Y270081D01*
X400100Y269550D02*
Y269777D01*
X400200Y274839D02*
Y275483D01*
X400300Y274839D02*
Y275483D01*
X400400Y274839D02*
Y275483D01*
X400500Y274839D02*
Y275483D01*
X400600Y274839D02*
Y275483D01*
X400700Y274839D02*
Y275483D01*
X400800Y274839D02*
Y275483D01*
X400900Y274839D02*
Y275483D01*
X401000Y274839D02*
Y275483D01*
X401100Y274839D02*
Y275483D01*
X401200Y274839D02*
Y275483D01*
X401300Y274839D02*
Y275483D01*
X401400Y274839D02*
Y275483D01*
X401500Y274839D02*
Y275483D01*
X401600Y274839D02*
Y275483D01*
X401700Y274839D02*
Y275483D01*
X401800Y274839D02*
Y275483D01*
X401900Y274839D02*
Y275483D01*
X402000Y274839D02*
Y275483D01*
X402100Y274839D02*
Y275483D01*
X402200Y274839D02*
Y275483D01*
X402300Y269550D02*
Y275483D01*
X402400Y269550D02*
Y275483D01*
X402500Y269550D02*
Y275483D01*
X402600Y269550D02*
Y275483D01*
X402700Y269550D02*
Y275483D01*
X402800Y269550D02*
Y275483D01*
X402900Y269550D02*
Y275483D01*
X403000Y269550D02*
Y275483D01*
X403100Y274839D02*
Y275483D01*
X403200Y274839D02*
Y275483D01*
X403300Y274839D02*
Y275483D01*
X403400Y274839D02*
Y275483D01*
X403500Y274839D02*
Y275483D01*
X403600Y274839D02*
Y275483D01*
X403700Y274839D02*
Y275483D01*
X403800Y274839D02*
Y275483D01*
X403900Y274839D02*
Y275483D01*
X404000Y274839D02*
Y275483D01*
X404100Y274839D02*
Y275483D01*
X404200Y274839D02*
Y275483D01*
X404300Y274839D02*
Y275483D01*
X404400Y274839D02*
Y275483D01*
X404500Y274839D02*
Y275483D01*
X404600Y274839D02*
Y275483D01*
X404700Y274839D02*
Y275483D01*
X404800Y274839D02*
Y275483D01*
X404900Y274839D02*
Y275483D01*
X405000Y274839D02*
Y275483D01*
X405100Y274839D02*
Y275483D01*
X405600Y269550D02*
Y270029D01*
Y275005D02*
Y275483D01*
X405700Y269550D02*
Y270029D01*
Y275005D02*
Y275483D01*
X405800Y269550D02*
Y270029D01*
Y275005D02*
Y275483D01*
X405900Y269550D02*
Y270029D01*
Y275005D02*
Y275483D01*
X406000Y269550D02*
Y270029D01*
Y275005D02*
Y275483D01*
X406100Y269550D02*
Y270029D01*
Y275005D02*
Y275483D01*
X406200Y269550D02*
Y270029D01*
Y275004D02*
Y275483D01*
X406300Y269550D02*
Y275483D01*
X406400Y269550D02*
Y275483D01*
X406500Y269550D02*
Y275483D01*
X406600Y269550D02*
Y275483D01*
X406700Y269550D02*
Y275483D01*
X406800Y269550D02*
Y275483D01*
X406900Y269550D02*
Y275483D01*
X407000Y269550D02*
Y270033D01*
Y275000D02*
Y275483D01*
X407100Y269550D02*
Y270029D01*
Y275005D02*
Y275483D01*
X407200Y269550D02*
Y270029D01*
Y275005D02*
Y275483D01*
X407300Y269550D02*
Y270029D01*
Y275005D02*
Y275483D01*
X407400Y269550D02*
Y270029D01*
Y275005D02*
Y275483D01*
X407500Y269550D02*
Y270029D01*
Y275005D02*
Y275483D01*
X407600Y269550D02*
Y270029D01*
Y275005D02*
Y275483D01*
X407700Y269550D02*
Y270029D01*
Y275005D02*
Y275483D01*
X408400Y272422D02*
Y272536D01*
X408500Y271622D02*
Y273411D01*
X408600Y271066D02*
Y273952D01*
X408700Y270832D02*
Y274152D01*
X408800Y270600D02*
Y274352D01*
X408900Y270475D02*
Y274502D01*
X409000Y270350D02*
Y274652D01*
X409100Y270225D02*
Y274802D01*
X409200Y270135D02*
Y271948D01*
Y273003D02*
Y274898D01*
X409300Y270055D02*
Y271356D01*
Y273604D02*
Y274978D01*
X409400Y269975D02*
Y271131D01*
Y273904D02*
Y275058D01*
X409500Y269895D02*
Y270906D01*
Y274157D02*
Y275138D01*
X409600Y269815D02*
Y270681D01*
Y274357D02*
Y275204D01*
X409700Y269735D02*
Y270561D01*
Y274506D02*
Y275264D01*
X409800Y269655D02*
Y270476D01*
Y274639D02*
Y275324D01*
X409900Y269575D02*
Y270390D01*
Y274756D02*
Y275384D01*
X410000Y269536D02*
Y270304D01*
Y274806D02*
Y275427D01*
X410100Y269520D02*
Y270219D01*
Y274856D02*
Y275460D01*
X410200Y269503D02*
Y270133D01*
Y274906D02*
Y275493D01*
X410300Y269486D02*
Y270085D01*
Y274934D02*
Y275527D01*
X410400Y269470D02*
Y270045D01*
Y274954D02*
Y275560D01*
X410500Y269455D02*
Y270005D01*
Y274974D02*
Y275578D01*
X410600Y269441D02*
Y269965D01*
Y274994D02*
Y275592D01*
X410700Y269426D02*
Y269946D01*
Y275014D02*
Y275607D01*
X410800Y269412D02*
Y269946D01*
Y275034D02*
Y275621D01*
X410900Y269398D02*
Y269946D01*
Y275054D02*
Y275635D01*
X411000Y269387D02*
Y269946D01*
Y275074D02*
Y275646D01*
X411100Y269401D02*
Y269946D01*
Y275082D02*
Y275634D01*
X411200Y269416D02*
Y269946D01*
Y275060D02*
Y275621D01*
X411300Y269430D02*
Y269946D01*
Y275037D02*
Y275609D01*
X411400Y269444D02*
Y269946D01*
Y275015D02*
Y275596D01*
X411500Y269458D02*
Y269982D01*
Y274993D02*
Y275584D01*
X411600Y269473D02*
Y270022D01*
Y274971D02*
Y275571D01*
X411700Y269487D02*
Y270062D01*
Y274948D02*
Y275546D01*
X411800Y269501D02*
Y270102D01*
Y274926D02*
Y275513D01*
X411900Y269516D02*
Y270169D01*
Y274864D02*
Y275479D01*
X412000Y269530D02*
Y270255D01*
Y274778D02*
Y275446D01*
X412100Y269544D02*
Y270340D01*
Y274693D02*
Y275413D01*
X412200Y269592D02*
Y270426D01*
Y274607D02*
Y275367D01*
X412300Y269652D02*
Y270512D01*
Y274521D02*
Y275317D01*
X412400Y269712D02*
Y270598D01*
Y274436D02*
Y275267D01*
X412500Y269772D02*
Y270747D01*
Y274257D02*
Y275217D01*
X412600Y269861D02*
Y270927D01*
Y274032D02*
Y275167D01*
X412700Y269961D02*
Y271107D01*
Y273807D02*
Y275072D01*
X412800Y270061D02*
Y271287D01*
Y273448D02*
Y274972D01*
X412900Y270161D02*
Y271974D01*
Y272748D02*
Y274872D01*
X413000Y270277D02*
Y274738D01*
X413100Y270402D02*
Y274588D01*
X413200Y270527D02*
Y274438D01*
X413300Y270697D02*
Y274268D01*
X413400Y270931D02*
Y274068D01*
X413500Y271164D02*
Y273868D01*
X413600Y271959D02*
Y273056D01*
X414600Y269550D02*
Y275483D01*
X414700Y269550D02*
Y275483D01*
X414800Y269550D02*
Y275483D01*
X414900Y269550D02*
Y275483D01*
X415000Y269550D02*
Y275483D01*
X415100Y269550D02*
Y275483D01*
X415200Y269550D02*
Y275483D01*
X415300Y274754D02*
Y275483D01*
X415400Y274595D02*
Y275483D01*
X415500Y274404D02*
Y275483D01*
X415600Y274213D02*
Y275483D01*
X415700Y274022D02*
Y275421D01*
X415800Y273831D02*
Y275228D01*
X415900Y273641D02*
Y275034D01*
X416000Y273450D02*
Y274841D01*
X416100Y273259D02*
Y274648D01*
X416200Y273068D02*
Y274454D01*
X416300Y272877D02*
Y274261D01*
X416400Y272686D02*
Y274068D01*
X416500Y272495D02*
Y273874D01*
X416600Y272304D02*
Y273681D01*
X416700Y272113D02*
Y273488D01*
X416800Y271922D02*
Y273294D01*
X416900Y271731D02*
Y273101D01*
X417000Y271541D02*
Y272908D01*
X417100Y271350D02*
Y272714D01*
X417200Y271159D02*
Y272521D01*
X417300Y270968D02*
Y272328D01*
X417400Y270777D02*
Y272134D01*
X417500Y270586D02*
Y271941D01*
X417600Y270395D02*
Y271748D01*
X417700Y270204D02*
Y271554D01*
X417800Y270013D02*
Y271361D01*
X417900Y269822D02*
Y271168D01*
X418000Y269631D02*
Y270974D01*
X418100Y269550D02*
Y270781D01*
X418200Y269550D02*
Y270695D01*
X418300Y269550D02*
Y275483D01*
X418400Y269550D02*
Y275483D01*
X418500Y269550D02*
Y275483D01*
X418600Y269550D02*
Y275483D01*
X418700Y269550D02*
Y275483D01*
X418800Y269550D02*
Y275483D01*
X427900Y269550D02*
Y275483D01*
X428000Y269550D02*
Y275483D01*
X428100Y269550D02*
Y275483D01*
X428200Y269550D02*
Y275483D01*
X428300Y269550D02*
Y275483D01*
X428400Y269550D02*
Y275483D01*
X428500Y269550D02*
Y275483D01*
X428600Y269550D02*
Y270111D01*
Y274922D02*
Y275483D01*
X428700Y269550D02*
Y270111D01*
Y274922D02*
Y275483D01*
X428800Y269550D02*
Y270111D01*
Y274922D02*
Y275483D01*
X428900Y269550D02*
Y270111D01*
Y274922D02*
Y275483D01*
X429000Y269550D02*
Y270111D01*
Y274922D02*
Y275483D01*
X429100Y269550D02*
Y270111D01*
Y274922D02*
Y275483D01*
X429200Y269550D02*
Y270114D01*
Y274922D02*
Y275483D01*
X429300Y269550D02*
Y270122D01*
Y274922D02*
Y275483D01*
X429400Y269550D02*
Y270130D01*
Y274922D02*
Y275483D01*
X429500Y269550D02*
Y270139D01*
Y274922D02*
Y275483D01*
X429600Y269550D02*
Y270147D01*
Y274922D02*
Y275483D01*
X429700Y269550D02*
Y270155D01*
Y274922D02*
Y275483D01*
X429800Y269550D02*
Y270164D01*
Y274912D02*
Y275483D01*
X429900Y269560D02*
Y270172D01*
Y274892D02*
Y275483D01*
X430000Y269575D02*
Y270180D01*
Y274872D02*
Y275456D01*
X430100Y269589D02*
Y270189D01*
Y274852D02*
Y275428D01*
X430200Y269603D02*
Y270201D01*
Y274826D02*
Y275399D01*
X430300Y269618D02*
Y270221D01*
Y274776D02*
Y275371D01*
X430400Y269633D02*
Y270241D01*
Y274726D02*
Y275342D01*
X430500Y269673D02*
Y270261D01*
Y274676D02*
Y275311D01*
X430600Y269713D02*
Y270284D01*
Y274626D02*
Y275271D01*
X430700Y269753D02*
Y270358D01*
Y274576D02*
Y275231D01*
X430800Y269793D02*
Y270433D01*
Y274526D02*
Y275191D01*
X430900Y269843D02*
Y270508D01*
Y274461D02*
Y275151D01*
X431000Y269893D02*
Y270599D01*
Y274381D02*
Y275111D01*
X431100Y269943D02*
Y270699D01*
Y274301D02*
Y275071D01*
X431200Y269993D02*
Y270799D01*
Y274221D02*
Y275031D01*
X431300Y270046D02*
Y270915D01*
Y274118D02*
Y274987D01*
X431400Y270129D02*
Y271082D01*
Y273951D02*
Y274904D01*
X431500Y270212D02*
Y271249D01*
Y273785D02*
Y274821D01*
X431600Y270296D02*
Y271544D01*
Y273489D02*
Y274737D01*
X431700Y270379D02*
Y271903D01*
Y273131D02*
Y274654D01*
X431800Y270475D02*
Y274558D01*
X431900Y270615D02*
Y274418D01*
X432000Y270755D02*
Y274278D01*
X432100Y270895D02*
Y274138D01*
X432200Y271064D02*
Y273969D01*
X432300Y271364D02*
Y273669D01*
X432400Y271664D02*
Y273369D01*
X432500Y272407D02*
Y272551D01*
X432900Y269550D02*
Y269626D01*
X433000Y269550D02*
Y269931D01*
X433100Y269550D02*
Y270235D01*
X433200Y269550D02*
Y270539D01*
X433300Y269550D02*
Y270843D01*
X433400Y269550D02*
Y271147D01*
X433500Y269550D02*
Y271451D01*
X433600Y269550D02*
Y271756D01*
X433700Y269630D02*
Y272060D01*
X433800Y269980D02*
Y272364D01*
X433900Y270330D02*
Y272668D01*
X434000Y270680D02*
Y272972D01*
X434100Y271030D02*
Y273276D01*
X434200Y271284D02*
Y273581D01*
X434300Y271286D02*
Y273885D01*
X434400Y271286D02*
Y274189D01*
X434500Y271286D02*
Y271847D01*
Y272197D02*
Y274493D01*
X434600Y271286D02*
Y271847D01*
Y272517D02*
Y274797D01*
X434700Y271286D02*
Y271847D01*
Y272837D02*
Y275101D01*
X434800Y271286D02*
Y271847D01*
Y273157D02*
Y275406D01*
X434900Y271286D02*
Y271847D01*
Y273477D02*
Y275483D01*
X435000Y271286D02*
Y271847D01*
Y273797D02*
Y275483D01*
X435100Y271286D02*
Y271847D01*
Y274117D02*
Y275483D01*
X435200Y271286D02*
Y271847D01*
Y274437D02*
Y275483D01*
X435300Y271286D02*
Y271847D01*
Y274589D02*
Y275483D01*
X435400Y271286D02*
Y271847D01*
Y274341D02*
Y275483D01*
X435500Y271286D02*
Y271847D01*
Y274021D02*
Y275483D01*
X435600Y271286D02*
Y271847D01*
Y273701D02*
Y275483D01*
X435700Y271286D02*
Y271847D01*
Y273381D02*
Y275483D01*
X435800Y271286D02*
Y271847D01*
Y273061D02*
Y275315D01*
X435900Y271286D02*
Y271847D01*
Y272741D02*
Y275011D01*
X436000Y271286D02*
Y271847D01*
Y272421D02*
Y274707D01*
X436100Y271286D02*
Y271847D01*
Y272101D02*
Y274403D01*
X436200Y271286D02*
Y274098D01*
X436300Y271286D02*
Y273794D01*
X436400Y271265D02*
Y273490D01*
X436500Y270926D02*
Y273186D01*
X436600Y270576D02*
Y272882D01*
X436700Y270226D02*
Y272578D01*
X436800Y269876D02*
Y272273D01*
X436900Y269550D02*
Y271969D01*
X437000Y269550D02*
Y271665D01*
X437100Y269550D02*
Y271361D01*
X437200Y269550D02*
Y271057D01*
X437300Y269550D02*
Y270753D01*
X437400Y269550D02*
Y270448D01*
X437500Y269550D02*
Y270144D01*
X437600Y269550D02*
Y269840D01*
X437700Y274839D02*
Y275483D01*
X437800Y274839D02*
Y275483D01*
X437900Y274839D02*
Y275483D01*
X438000Y274839D02*
Y275483D01*
X438100Y274839D02*
Y275483D01*
X438200Y274839D02*
Y275483D01*
X438300Y274839D02*
Y275483D01*
X438400Y274839D02*
Y275483D01*
X438500Y274839D02*
Y275483D01*
X438600Y274839D02*
Y275483D01*
X438700Y274839D02*
Y275483D01*
X438800Y274839D02*
Y275483D01*
X438900Y274839D02*
Y275483D01*
X439000Y274839D02*
Y275483D01*
X439100Y274839D02*
Y275483D01*
X439200Y274839D02*
Y275483D01*
X439300Y274839D02*
Y275483D01*
X439400Y274839D02*
Y275483D01*
X439500Y274839D02*
Y275483D01*
X439600Y274839D02*
Y275483D01*
X439700Y274839D02*
Y275483D01*
X439800Y269550D02*
Y275483D01*
X439900Y269550D02*
Y275483D01*
X440000Y269550D02*
Y275483D01*
X440100Y269550D02*
Y275483D01*
X440200Y269550D02*
Y275483D01*
X440300Y269550D02*
Y275483D01*
X440400Y269550D02*
Y275483D01*
X440500Y269550D02*
Y275483D01*
X440600Y274839D02*
Y275483D01*
X440700Y274839D02*
Y275483D01*
X440800Y274839D02*
Y275483D01*
X440900Y274839D02*
Y275483D01*
X441000Y274839D02*
Y275483D01*
X441100Y274839D02*
Y275483D01*
X441200Y274839D02*
Y275483D01*
X441300Y274839D02*
Y275483D01*
X441400Y274839D02*
Y275483D01*
X441500Y274839D02*
Y275483D01*
X441600Y274839D02*
Y275483D01*
X441700Y274839D02*
Y275483D01*
X441800Y274839D02*
Y275483D01*
X441900Y274839D02*
Y275483D01*
X442000Y274839D02*
Y275483D01*
X442100Y274839D02*
Y275483D01*
X442200Y274839D02*
Y275483D01*
X442300Y274839D02*
Y275483D01*
X442400Y274839D02*
Y275483D01*
X442500Y274839D02*
Y275483D01*
X442600Y274839D02*
Y275483D01*
X443200Y269550D02*
Y275483D01*
X443300Y269550D02*
Y275483D01*
X443400Y269550D02*
Y275483D01*
X443500Y269550D02*
Y275483D01*
X443600Y269550D02*
Y275483D01*
X443700Y269550D02*
Y275483D01*
X443800Y269550D02*
Y275483D01*
X443900Y269550D02*
Y275483D01*
X444000Y269550D02*
Y270194D01*
Y272443D02*
Y273086D01*
Y274839D02*
Y275483D01*
X444100Y269550D02*
Y270194D01*
Y272443D02*
Y273086D01*
Y274839D02*
Y275483D01*
X444200Y269550D02*
Y270194D01*
Y272443D02*
Y273086D01*
Y274839D02*
Y275483D01*
X444300Y269550D02*
Y270194D01*
Y272443D02*
Y273086D01*
Y274839D02*
Y275483D01*
X444400Y269550D02*
Y270194D01*
Y272443D02*
Y273086D01*
Y274839D02*
Y275483D01*
X444500Y269550D02*
Y270194D01*
Y272443D02*
Y273086D01*
Y274839D02*
Y275483D01*
X444600Y269550D02*
Y270194D01*
Y272443D02*
Y273086D01*
Y274839D02*
Y275483D01*
X444700Y269550D02*
Y270194D01*
Y272443D02*
Y273086D01*
Y274839D02*
Y275483D01*
X444800Y269550D02*
Y270194D01*
Y272443D02*
Y273086D01*
Y274839D02*
Y275483D01*
X444900Y269550D02*
Y270194D01*
Y272443D02*
Y273086D01*
Y274839D02*
Y275483D01*
X445000Y269550D02*
Y270194D01*
Y272443D02*
Y273086D01*
Y274839D02*
Y275483D01*
X445100Y269550D02*
Y270194D01*
Y272443D02*
Y273086D01*
Y274839D02*
Y275483D01*
X445200Y269550D02*
Y270194D01*
Y272443D02*
Y273086D01*
Y274839D02*
Y275483D01*
X445300Y269550D02*
Y270194D01*
Y272443D02*
Y273086D01*
Y274839D02*
Y275483D01*
X445400Y269550D02*
Y270194D01*
Y272443D02*
Y273086D01*
Y274839D02*
Y275483D01*
X445500Y269550D02*
Y270194D01*
Y272443D02*
Y273086D01*
Y274839D02*
Y275483D01*
X445600Y269550D02*
Y270194D01*
Y272443D02*
Y273086D01*
Y274839D02*
Y275483D01*
X445700Y269550D02*
Y270194D01*
Y272443D02*
Y273086D01*
Y274839D02*
Y275483D01*
X445800Y269550D02*
Y270194D01*
Y272443D02*
Y273086D01*
Y274839D02*
Y275483D01*
X445900Y269550D02*
Y270194D01*
Y272443D02*
Y273086D01*
Y274839D02*
Y275483D01*
X446000Y269550D02*
Y270194D01*
Y272443D02*
Y273086D01*
Y274839D02*
Y275483D01*
X446100Y269550D02*
Y270194D01*
Y272443D02*
Y273086D01*
Y274839D02*
Y275483D01*
X446200Y269550D02*
Y270194D01*
Y272443D02*
Y273086D01*
Y274839D02*
Y275483D01*
X446300Y269550D02*
Y270194D01*
Y272443D02*
Y273086D01*
Y274839D02*
Y275483D01*
X446400Y269550D02*
Y270194D01*
Y272443D02*
Y273086D01*
Y274839D02*
Y275483D01*
X446500Y269550D02*
Y270194D01*
Y272443D02*
Y273086D01*
Y274839D02*
Y275483D01*
X446600Y269550D02*
Y270194D01*
Y272443D02*
Y273086D01*
Y274839D02*
Y275483D01*
X446700Y269550D02*
Y270194D01*
Y272443D02*
Y273086D01*
Y274839D02*
Y275483D01*
X446800Y269550D02*
Y270194D01*
Y274839D02*
Y275483D01*
X448300Y269550D02*
Y270607D01*
Y272938D02*
Y273995D01*
X448400Y269550D02*
Y270607D01*
Y272938D02*
Y273995D01*
X448500Y269550D02*
Y270607D01*
Y272938D02*
Y273995D01*
X448600Y269550D02*
Y270607D01*
Y272938D02*
Y273995D01*
X448700Y269550D02*
Y270607D01*
Y272938D02*
Y273995D01*
X448800Y269550D02*
Y270607D01*
Y272938D02*
Y273995D01*
X448900Y269550D02*
Y270607D01*
Y272938D02*
Y273995D01*
X449000Y269550D02*
Y270607D01*
Y272938D02*
Y273995D01*
X449100Y269550D02*
Y270607D01*
Y272938D02*
Y273995D01*
X453300Y269550D02*
Y275483D01*
X453400Y269550D02*
Y275483D01*
X453500Y269550D02*
Y275483D01*
X453600Y269550D02*
Y275483D01*
X453700Y269550D02*
Y275483D01*
X453800Y269550D02*
Y275483D01*
X453900Y269550D02*
Y275483D01*
X454000Y274740D02*
Y275483D01*
X454100Y274520D02*
Y275483D01*
X454200Y274294D02*
Y275483D01*
X454300Y274067D02*
Y275400D01*
X454400Y273841D02*
Y275184D01*
X454500Y273615D02*
Y274968D01*
X454600Y273388D02*
Y274753D01*
X454700Y273162D02*
Y274537D01*
X454800Y272936D02*
Y274321D01*
X454900Y272709D02*
Y274105D01*
X455000Y272483D02*
Y273889D01*
X455100Y272257D02*
Y273674D01*
X455200Y272030D02*
Y273458D01*
X455300Y271804D02*
Y273242D01*
X455400Y271578D02*
Y273026D01*
X455500Y271351D02*
Y272810D01*
X455600Y271203D02*
Y272595D01*
X455700Y271203D02*
Y272379D01*
X455800Y271203D02*
Y272163D01*
X455900Y271203D02*
Y272110D01*
X456000Y271211D02*
Y272343D01*
X456100Y271437D02*
Y272584D01*
X456200Y271664D02*
Y272825D01*
X456300Y271890D02*
Y273066D01*
X456400Y272116D02*
Y273308D01*
X456500Y272343D02*
Y273549D01*
X456600Y272569D02*
Y273790D01*
X456700Y272795D02*
Y274031D01*
X456800Y273022D02*
Y274272D01*
X456900Y273248D02*
Y274514D01*
X457000Y273474D02*
Y274755D01*
X457100Y273701D02*
Y274996D01*
X457200Y273927D02*
Y275237D01*
X457300Y274153D02*
Y275478D01*
X457400Y274380D02*
Y275483D01*
X457500Y274606D02*
Y275483D01*
X457600Y274757D02*
Y275483D01*
X457700Y269550D02*
Y275483D01*
X457800Y269550D02*
Y275483D01*
X457900Y269550D02*
Y275483D01*
X458000Y269550D02*
Y275483D01*
X458100Y269550D02*
Y275483D01*
X458200Y269550D02*
Y275483D01*
X458300Y269550D02*
Y275483D01*
X459400Y270160D02*
Y271291D01*
X459500Y270035D02*
Y271578D01*
X459600Y269910D02*
Y271678D01*
X459700Y269785D02*
Y271778D01*
Y273285D02*
Y273949D01*
X459800Y269704D02*
Y271873D01*
Y273323D02*
Y273983D01*
X459900Y269624D02*
Y271948D01*
Y273360D02*
Y274011D01*
X460000Y269544D02*
Y270629D01*
Y271075D02*
Y272023D01*
Y273398D02*
Y274036D01*
X460100Y269464D02*
Y270369D01*
Y271375D02*
Y272098D01*
Y273435D02*
Y274061D01*
X460200Y269448D02*
Y270219D01*
Y271481D02*
Y272126D01*
Y273473D02*
Y274082D01*
X460300Y269431D02*
Y270172D01*
Y271538D02*
Y272153D01*
Y273510D02*
Y274092D01*
X460400Y269414D02*
Y270139D01*
Y271595D02*
Y272180D01*
Y273527D02*
Y274102D01*
X460500Y269398D02*
Y270108D01*
Y271652D02*
Y272208D01*
Y273539D02*
Y274112D01*
X460600Y269385D02*
Y270083D01*
Y271709D02*
Y272235D01*
Y273552D02*
Y274122D01*
X460700Y269385D02*
Y270058D01*
Y271766D02*
Y272262D01*
Y273564D02*
Y274132D01*
X460800Y269385D02*
Y270033D01*
Y271781D02*
Y272290D01*
Y273577D02*
Y274142D01*
X460900Y269386D02*
Y270046D01*
Y271781D02*
Y272317D01*
Y273589D02*
Y274152D01*
X461000Y269419D02*
Y270071D01*
Y271785D02*
Y272343D01*
Y273600D02*
Y274159D01*
X461100Y269452D02*
Y270096D01*
Y271805D02*
Y272351D01*
Y273600D02*
Y274148D01*
X461200Y269497D02*
Y270121D01*
Y271825D02*
Y272359D01*
Y273600D02*
Y274137D01*
X461300Y269547D02*
Y270146D01*
Y271845D02*
Y272366D01*
Y273600D02*
Y274126D01*
X461400Y269597D02*
Y270171D01*
Y271864D02*
Y272374D01*
Y273600D02*
Y274115D01*
X461500Y269647D02*
Y270197D01*
Y271877D02*
Y272382D01*
Y273556D02*
Y274104D01*
X461600Y269697D02*
Y270253D01*
Y271889D02*
Y272390D01*
Y273506D02*
Y274092D01*
X461700Y269747D02*
Y270310D01*
Y271902D02*
Y272397D01*
Y273456D02*
Y274081D01*
X461800Y269799D02*
Y270367D01*
Y271914D02*
Y272405D01*
Y273386D02*
Y274044D01*
X461900Y269865D02*
Y270424D01*
Y271927D02*
Y272413D01*
Y273286D02*
Y274001D01*
X462000Y269932D02*
Y270481D01*
Y271939D02*
Y272420D01*
Y273186D02*
Y273959D01*
X462100Y269946D02*
Y270542D01*
Y271929D02*
Y272443D01*
Y272717D02*
Y273916D01*
X462200Y269550D02*
Y273873D01*
X462300Y269550D02*
Y273814D01*
X462400Y269550D02*
Y273694D01*
X462500Y269550D02*
Y273574D01*
X462600Y269550D02*
Y273454D01*
X462700Y269550D02*
Y273140D01*
X464000Y269550D02*
Y273995D01*
X464100Y269550D02*
Y273995D01*
X464200Y269550D02*
Y273995D01*
X464300Y269550D02*
Y273995D01*
X464400Y269550D02*
Y273995D01*
X464500Y269550D02*
Y273995D01*
X464600Y272767D02*
Y273340D01*
X464700Y272824D02*
Y273381D01*
X464800Y272881D02*
Y273461D01*
X464900Y272938D02*
Y273541D01*
X465000Y272996D02*
Y273621D01*
X465100Y273053D02*
Y273690D01*
X465200Y273105D02*
Y273740D01*
X465300Y273130D02*
Y273790D01*
X465400Y273155D02*
Y273837D01*
X465500Y273180D02*
Y273866D01*
X465600Y273205D02*
Y273895D01*
X465700Y273230D02*
Y273923D01*
X465800Y273255D02*
Y273952D01*
X465900Y273269D02*
Y273980D01*
X466000Y273269D02*
Y273995D01*
X466100Y273269D02*
Y273995D01*
X466200Y273269D02*
Y273995D01*
X469400Y269550D02*
Y270404D01*
X469500Y269550D02*
Y270504D01*
Y274519D02*
Y275271D01*
X469600Y269550D02*
Y270604D01*
Y274585D02*
Y275321D01*
X469700Y269550D02*
Y270704D01*
Y274652D02*
Y275371D01*
X469800Y269550D02*
Y270804D01*
Y274719D02*
Y275412D01*
X469900Y269550D02*
Y270904D01*
Y274785D02*
Y275437D01*
X470000Y269550D02*
Y270111D01*
Y270236D02*
Y271004D01*
Y274843D02*
Y275462D01*
X470100Y269550D02*
Y270111D01*
Y270336D02*
Y271104D01*
Y274877D02*
Y275486D01*
X470200Y269550D02*
Y270111D01*
Y270436D02*
Y271204D01*
Y274910D02*
Y275504D01*
X470300Y269550D02*
Y270111D01*
Y270536D02*
Y271304D01*
Y274943D02*
Y275523D01*
X470400Y269550D02*
Y270111D01*
Y270636D02*
Y271404D01*
Y274977D02*
Y275541D01*
X470500Y269550D02*
Y270111D01*
Y270736D02*
Y271504D01*
Y275007D02*
Y275559D01*
X470600Y269550D02*
Y270111D01*
Y270836D02*
Y271604D01*
Y275027D02*
Y275577D01*
X470700Y269550D02*
Y270111D01*
Y270936D02*
Y271704D01*
Y275047D02*
Y275595D01*
X470800Y269550D02*
Y270111D01*
Y271036D02*
Y271807D01*
Y275067D02*
Y275613D01*
X470900Y269550D02*
Y270111D01*
Y271136D02*
Y271921D01*
Y275087D02*
Y275632D01*
X471000Y269550D02*
Y270111D01*
Y271236D02*
Y272036D01*
Y275069D02*
Y275647D01*
X471100Y269550D02*
Y270111D01*
Y271336D02*
Y272150D01*
Y275049D02*
Y275636D01*
X471200Y269550D02*
Y270111D01*
Y271436D02*
Y272264D01*
Y275029D02*
Y275624D01*
X471300Y269550D02*
Y270111D01*
Y271536D02*
Y272378D01*
Y275009D02*
Y275613D01*
X471400Y269550D02*
Y270111D01*
Y271636D02*
Y272518D01*
Y274960D02*
Y275602D01*
X471500Y269550D02*
Y270111D01*
Y271736D02*
Y272693D01*
Y274893D02*
Y275591D01*
X471600Y269550D02*
Y270111D01*
Y271836D02*
Y272868D01*
Y274826D02*
Y275580D01*
X471700Y269550D02*
Y270111D01*
Y271936D02*
Y273049D01*
Y274694D02*
Y275569D01*
X471800Y269550D02*
Y270111D01*
Y272036D02*
Y273349D01*
Y274561D02*
Y275493D01*
X471900Y269550D02*
Y270111D01*
Y272136D02*
Y273761D01*
Y274284D02*
Y275410D01*
X472000Y269550D02*
Y270111D01*
Y272236D02*
Y275327D01*
X472100Y269550D02*
Y270111D01*
Y272395D02*
Y275243D01*
X472200Y269550D02*
Y270111D01*
Y272570D02*
Y275157D01*
X472300Y269550D02*
Y270111D01*
Y272745D02*
Y275037D01*
X472400Y269550D02*
Y270111D01*
Y272950D02*
Y274917D01*
X472500Y269550D02*
Y270111D01*
Y273183D02*
Y274797D01*
X472600Y269550D02*
Y270111D01*
Y273463D02*
Y274627D01*
X472700Y269550D02*
Y270111D01*
X472800Y269550D02*
Y270111D01*
X472900Y269550D02*
Y270111D01*
X474000Y269678D02*
Y270407D01*
X474100Y269645D02*
Y270340D01*
X474200Y269611D02*
Y270276D01*
Y272455D02*
Y275483D01*
X474300Y269578D02*
Y270226D01*
Y272472D02*
Y275483D01*
X474400Y269545D02*
Y270176D01*
Y272489D02*
Y275483D01*
X474500Y269511D02*
Y270126D01*
Y272505D02*
Y275483D01*
X474600Y269478D02*
Y270089D01*
Y272522D02*
Y275483D01*
X474700Y269460D02*
Y270056D01*
Y272535D02*
Y275483D01*
X474800Y269450D02*
Y270022D01*
Y272548D02*
Y275483D01*
X474900Y269440D02*
Y269989D01*
Y272560D02*
Y273169D01*
Y274922D02*
Y275483D01*
X475000Y269430D02*
Y269956D01*
Y272573D02*
Y273169D01*
Y274922D02*
Y275483D01*
X475100Y269420D02*
Y269946D01*
Y272585D02*
Y273169D01*
Y274922D02*
Y275483D01*
X475200Y269410D02*
Y269946D01*
Y272598D02*
Y273169D01*
Y274922D02*
Y275483D01*
X475300Y269400D02*
Y269946D01*
Y272606D02*
Y273169D01*
Y274922D02*
Y275483D01*
X475400Y269390D02*
Y269946D01*
Y272592D02*
Y273169D01*
Y274922D02*
Y275483D01*
X475500Y269396D02*
Y269953D01*
Y272578D02*
Y273163D01*
Y274922D02*
Y275483D01*
X475600Y269416D02*
Y269970D01*
Y272563D02*
Y273152D01*
Y274922D02*
Y275483D01*
X475700Y269436D02*
Y269987D01*
Y272549D02*
Y273141D01*
Y274922D02*
Y275483D01*
X475800Y269456D02*
Y270003D01*
Y272535D02*
Y273130D01*
Y274922D02*
Y275483D01*
X475900Y269476D02*
Y270020D01*
Y272512D02*
Y273119D01*
Y274922D02*
Y275483D01*
X476000Y269496D02*
Y270062D01*
Y272452D02*
Y273108D01*
Y274922D02*
Y275483D01*
X476100Y269516D02*
Y270162D01*
Y272392D02*
Y273097D01*
Y274922D02*
Y275483D01*
X476200Y269536D02*
Y270262D01*
Y272332D02*
Y273078D01*
Y274922D02*
Y275483D01*
X476300Y269573D02*
Y270362D01*
Y272272D02*
Y273028D01*
Y274922D02*
Y275483D01*
X476400Y269636D02*
Y270517D01*
Y272146D02*
Y272978D01*
Y274922D02*
Y275483D01*
X476500Y269698D02*
Y270684D01*
Y272013D02*
Y272928D01*
Y274922D02*
Y275483D01*
X476600Y269761D02*
Y270995D01*
Y271750D02*
Y272878D01*
Y274922D02*
Y275483D01*
X476700Y269823D02*
Y272828D01*
Y274922D02*
Y275483D01*
X476800Y269886D02*
Y272778D01*
Y274922D02*
Y275483D01*
X476900Y269949D02*
Y272657D01*
Y274922D02*
Y275483D01*
X477000Y270149D02*
Y272517D01*
Y274922D02*
Y275483D01*
X477100Y270349D02*
Y272377D01*
Y274922D02*
Y275483D01*
X477200Y270549D02*
Y272237D01*
Y274922D02*
Y275483D01*
X477300Y270986D02*
Y272053D01*
Y274922D02*
Y275483D01*
X478400Y268062D02*
Y268324D01*
X478500Y268062D02*
Y268680D01*
X478600Y268062D02*
Y269035D01*
X478700Y268062D02*
Y269391D01*
X478800Y268062D02*
Y269747D01*
X478900Y268277D02*
Y270102D01*
X479000Y268506D02*
Y270458D01*
X479100Y268734D02*
Y270607D01*
X479200Y268963D02*
Y270607D01*
X479300Y269191D02*
Y270607D01*
X479400Y269420D02*
Y270607D01*
X479500Y269648D02*
Y270607D01*
X479600Y269877D02*
Y270607D01*
X479700Y270105D02*
Y270607D01*
X479800Y270334D02*
Y270607D01*
X479900Y270563D02*
Y270607D01*
X483500Y269550D02*
Y270371D01*
X483600Y269550D02*
Y270471D01*
Y274509D02*
Y275254D01*
X483700Y269550D02*
Y270571D01*
Y274564D02*
Y275304D01*
X483800Y269550D02*
Y270671D01*
Y274631D02*
Y275354D01*
X483900Y269550D02*
Y270771D01*
Y274697D02*
Y275404D01*
X484000Y269550D02*
Y270871D01*
Y274764D02*
Y275429D01*
X484100Y269550D02*
Y270120D01*
Y270204D02*
Y270971D01*
Y274831D02*
Y275454D01*
X484200Y269550D02*
Y270111D01*
Y270304D02*
Y271071D01*
Y274866D02*
Y275479D01*
X484300Y269550D02*
Y270111D01*
Y270404D02*
Y271171D01*
Y274899D02*
Y275498D01*
X484400Y269550D02*
Y270111D01*
Y270504D02*
Y271271D01*
Y274933D02*
Y275517D01*
X484500Y269550D02*
Y270111D01*
Y270604D02*
Y271371D01*
Y274966D02*
Y275535D01*
X484600Y269550D02*
Y270111D01*
Y270704D02*
Y271471D01*
Y274999D02*
Y275553D01*
X484700Y269550D02*
Y270111D01*
Y270804D02*
Y271571D01*
Y275021D02*
Y275571D01*
X484800Y269550D02*
Y270111D01*
Y270904D02*
Y271671D01*
Y275041D02*
Y275589D01*
X484900Y269550D02*
Y270111D01*
Y271004D02*
Y271771D01*
Y275061D02*
Y275608D01*
X485000Y269550D02*
Y270111D01*
Y271104D02*
Y271885D01*
Y275081D02*
Y275626D01*
X485100Y269550D02*
Y270111D01*
Y271204D02*
Y271999D01*
Y275076D02*
Y275644D01*
X485200Y269550D02*
Y270111D01*
Y271304D02*
Y272113D01*
Y275056D02*
Y275639D01*
X485300Y269550D02*
Y270111D01*
Y271404D02*
Y272227D01*
Y275036D02*
Y275628D01*
X485400Y269550D02*
Y270111D01*
Y271504D02*
Y272342D01*
Y275016D02*
Y275617D01*
X485500Y269550D02*
Y270111D01*
Y271604D02*
Y272461D01*
Y274982D02*
Y275606D01*
X485600Y269550D02*
Y270111D01*
Y271704D02*
Y272636D01*
Y274915D02*
Y275595D01*
X485700Y269550D02*
Y270111D01*
Y271804D02*
Y272811D01*
Y274848D02*
Y275584D01*
X485800Y269550D02*
Y270111D01*
Y271904D02*
Y272986D01*
Y274737D02*
Y275572D01*
X485900Y269550D02*
Y270111D01*
Y272004D02*
Y273253D01*
Y274604D02*
Y275520D01*
X486000Y269550D02*
Y270111D01*
Y272104D02*
Y273568D01*
Y274445D02*
Y275437D01*
X486100Y269550D02*
Y270111D01*
Y272204D02*
Y275354D01*
X486200Y269550D02*
Y270111D01*
Y272338D02*
Y275270D01*
X486300Y269550D02*
Y270111D01*
Y272513D02*
Y275187D01*
X486400Y269550D02*
Y270111D01*
Y272688D02*
Y275076D01*
X486500Y269550D02*
Y270111D01*
Y272875D02*
Y274956D01*
X486600Y269550D02*
Y270111D01*
Y273108D02*
Y274836D01*
X486700Y269550D02*
Y270111D01*
Y273342D02*
Y274716D01*
X486800Y269550D02*
Y270111D01*
Y274006D02*
Y274085D01*
X486900Y269550D02*
Y270111D01*
X487000Y269550D02*
Y270111D01*
X487900Y271711D02*
Y273322D01*
X488000Y271018D02*
Y274015D01*
X488100Y270718D02*
Y274315D01*
X488200Y270476D02*
Y274557D01*
X488300Y270276D02*
Y274757D01*
X488400Y270086D02*
Y274947D01*
X488500Y269952D02*
Y275081D01*
X488600Y269819D02*
Y275214D01*
X488700Y269729D02*
Y271051D01*
Y273471D02*
Y275304D01*
X488800Y269654D02*
Y270625D01*
Y274408D02*
Y275379D01*
X488900Y269579D02*
Y270475D01*
Y274528D02*
Y275454D01*
X489000Y269532D02*
Y270325D01*
Y274648D02*
Y275498D01*
X489100Y269507D02*
Y270175D01*
Y274768D02*
Y275518D01*
X489200Y269482D02*
Y270081D01*
Y274888D02*
Y275538D01*
X489300Y269460D02*
Y270014D01*
Y274941D02*
Y275558D01*
X489400Y269443D02*
Y269949D01*
Y274974D02*
Y275578D01*
X489500Y269427D02*
Y269946D01*
Y275007D02*
Y275598D01*
X489600Y269410D02*
Y269946D01*
Y275041D02*
Y275618D01*
X489700Y269393D02*
Y269946D01*
Y275074D02*
Y275638D01*
X489800Y269394D02*
Y269946D01*
Y275074D02*
Y275639D01*
X489900Y269411D02*
Y269946D01*
Y275046D02*
Y275622D01*
X490000Y269427D02*
Y269946D01*
Y275017D02*
Y275606D01*
X490100Y269444D02*
Y269951D01*
Y274989D02*
Y275589D01*
X490200Y269461D02*
Y270017D01*
Y274960D02*
Y275572D01*
X490300Y269483D02*
Y270083D01*
Y274931D02*
Y275550D01*
X490400Y269508D02*
Y270164D01*
Y274837D02*
Y275525D01*
X490500Y269533D02*
Y270264D01*
Y274637D02*
Y275500D01*
X490600Y269582D02*
Y270553D01*
Y274437D02*
Y275451D01*
X490700Y269657D02*
Y270796D01*
Y274041D02*
Y275376D01*
X490800Y269732D02*
Y271459D01*
Y273489D02*
Y275301D01*
X490900Y269825D02*
Y275196D01*
X491000Y269958D02*
Y275030D01*
X491100Y270091D02*
Y274863D01*
X491200Y270285D02*
Y274696D01*
X491300Y270485D02*
Y274530D01*
X491400Y270730D02*
Y274280D01*
X491500Y271030D02*
Y273930D01*
X493100Y269550D02*
Y270029D01*
Y274178D02*
Y274657D01*
X493200Y269550D02*
Y270029D01*
Y274178D02*
Y274657D01*
X493300Y269550D02*
Y270029D01*
Y274178D02*
Y274657D01*
X493400Y269550D02*
Y270029D01*
Y274178D02*
Y274657D01*
X493500Y269550D02*
Y270029D01*
Y274178D02*
Y274666D01*
X493600Y269550D02*
Y270029D01*
Y274178D02*
Y274706D01*
X493700Y269550D02*
Y270029D01*
Y274178D02*
Y274746D01*
X493800Y269550D02*
Y270029D01*
Y274178D02*
Y274786D01*
X493900Y269550D02*
Y270029D01*
Y274178D02*
Y274826D01*
X494000Y269550D02*
Y270029D01*
Y274178D02*
Y274921D01*
X494100Y269550D02*
Y275021D01*
X494200Y269550D02*
Y275224D01*
X494300Y269550D02*
Y275483D01*
X494400Y269550D02*
Y275483D01*
X494500Y269550D02*
Y275483D01*
X494600Y269550D02*
Y275483D01*
X494700Y269550D02*
Y275483D01*
X494800Y269550D02*
Y270029D01*
X494900Y269550D02*
Y270029D01*
X495000Y269550D02*
Y270029D01*
X495100Y269550D02*
Y270029D01*
X495200Y269550D02*
Y270029D01*
X495300Y269550D02*
Y270029D01*
X495400Y269550D02*
Y270029D01*
X495500Y269550D02*
Y270029D01*
X495600Y269550D02*
Y270029D01*
X495700Y269550D02*
Y270029D01*
X495800Y269550D02*
Y270029D01*
X496900Y271616D02*
Y272463D01*
X497000Y271616D02*
Y272578D01*
X497100Y271616D02*
Y272693D01*
X497200Y271616D02*
Y272808D01*
X497300Y271616D02*
Y272923D01*
X497400Y271616D02*
Y272177D01*
Y272357D02*
Y273039D01*
X497500Y271616D02*
Y272177D01*
Y272468D02*
Y273154D01*
X497600Y271616D02*
Y272177D01*
Y272580D02*
Y273269D01*
X497700Y271616D02*
Y272177D01*
Y272691D02*
Y273384D01*
X497800Y271616D02*
Y272177D01*
Y272803D02*
Y273499D01*
X497900Y271616D02*
Y272177D01*
Y272914D02*
Y273614D01*
X498000Y271616D02*
Y272177D01*
Y273026D02*
Y273730D01*
X498100Y271616D02*
Y272177D01*
Y273137D02*
Y273845D01*
X498200Y271616D02*
Y272177D01*
Y273249D02*
Y273960D01*
X498300Y271616D02*
Y272177D01*
Y273360D02*
Y274075D01*
X498400Y271616D02*
Y272177D01*
Y273472D02*
Y274190D01*
X498500Y271616D02*
Y272177D01*
Y273583D02*
Y274305D01*
X498600Y271616D02*
Y272177D01*
Y273695D02*
Y274420D01*
X498700Y271616D02*
Y272177D01*
Y273807D02*
Y274536D01*
X498800Y271616D02*
Y272177D01*
Y273918D02*
Y274651D01*
X498900Y271616D02*
Y272177D01*
Y274030D02*
Y274766D01*
X499000Y271616D02*
Y272177D01*
Y274141D02*
Y274881D01*
X499100Y271616D02*
Y272177D01*
Y274253D02*
Y274996D01*
X499200Y271616D02*
Y272177D01*
Y274364D02*
Y275111D01*
X499300Y271616D02*
Y272177D01*
Y274476D02*
Y275226D01*
X499400Y271616D02*
Y272177D01*
Y274587D02*
Y275342D01*
X499500Y271616D02*
Y272177D01*
Y274674D02*
Y275457D01*
X499600Y269550D02*
Y275483D01*
X499700Y269550D02*
Y275483D01*
X499800Y269550D02*
Y275483D01*
X499900Y269550D02*
Y275483D01*
X500000Y269550D02*
Y275483D01*
X500100Y269550D02*
Y275483D01*
X500200Y271590D02*
Y272203D01*
X500300Y271616D02*
Y272177D01*
X500400Y271616D02*
Y272177D01*
X500500Y271616D02*
Y272177D01*
X500600Y271616D02*
Y272177D01*
X500700Y271616D02*
Y272177D01*
X500800Y271616D02*
Y272177D01*
X500900Y271616D02*
Y272177D01*
*
G04 PC Custom Flashes*
G04 Layer Name 1909A_Rev2.pcb - flashes*
%LPD*%
*
*
G04 PC Circuitry*
G04 Layer Name 1909A_Rev2.pcb - circuitry*
%LPD*%
*
G54D24*
X440000Y660000D03*
X417000Y340000D03*
X605000Y660000D03*
X560000Y659500D03*
X650000Y660000D03*
X348000Y340000D03*
X297500Y390500D03*
X335500Y660000D03*
X297500Y582500D03*
X486000Y340000D03*
X555000D03*
G54D30*
G54D35*
G54D39*
X502900Y662000D03*
X495000Y654100D03*
X502900D03*
X495000Y646200D03*
X502900D03*
G54D85*
X444000Y403500D03*
Y395500D03*
G54D96*
X275000Y315000D02*
X800000D01*
Y685000*
X275000*
Y315000*
G54D123*
X417000Y404000D03*
Y398000D03*
Y392000D03*
X423000D03*
Y404000D03*
Y398000D03*
G54D124*
X745000Y340000D03*
X777500Y640000D03*
G54D125*
X387500Y662000D03*
X495000D03*
G54D161*
X297500Y542500D03*
Y428500D03*
X777500Y595000D03*
Y520000D03*
Y440000D03*
Y365000D03*
G54D169*
X485000Y544500D03*
Y540500D03*
X504500Y487500D03*
X508500D03*
X502000Y541000D03*
X506000D03*
G54D174*
X387500Y654100D03*
Y646200D03*
G54D179*
X560500Y480500D03*
Y468500D03*
Y499500D03*
Y487500D03*
G54D180*
X441000Y488000D03*
Y476000D03*
X454000Y488000D03*
Y476000D03*
X467000Y488000D03*
Y476000D03*
G54D189*
X436543Y404953D03*
Y402984D03*
Y401016D03*
Y399047D03*
X429457D03*
Y401016D03*
Y402984D03*
Y404953D03*
X0Y0D02*
M02*
