%
T1C.008F0S0
X-0069Y00545
X-00765Y00565
X-00615Y00565
X-00765Y00615
X-00615Y00615
X-00765Y00665
X-00615Y00665
X-00765Y00715
X-00615Y00715
X-00615Y00925
X-00765Y00925
X-00615Y00975
X-00765Y00975
X-00765Y01025
X-00615Y01025
X-00765Y0107
X-00615Y01075
X-0069Y01095
X-0031Y0262
X-00255Y01095
X-0019Y0108
X-0034Y01075
X-0019Y0103
X-0034Y0103
X-0019Y0098
X-0034Y0098
X-0034Y0093
X-0019Y0093
X-0034Y00715
X-0019Y00715
X-0034Y00665
X-0019Y00665
X-0019Y00615
X-0034Y00615
X-0019Y00565
X-0034Y00565
X-0026Y00545
X0017Y-0005
X004Y0005
X0011Y0065
X0018Y0065
X00315Y0065
X00375Y0065
X-0002Y0065
X0005Y0065
X00245Y0065
X0011Y007
X0018Y007
X00245Y007
X00375Y007
X00315Y007
X-0002Y007
X0005Y007
X0025Y00925
X0032Y00925
X00185Y00925
X00375Y00925
X00115Y00925
X-0002Y00925
X0005Y00925
X-0002Y00955
X00375Y00955
X00185Y00955
X0005Y00955
X0032Y00955
X0025Y00955
X00115Y00955
X0055Y0245
X0049Y0127
X0059Y0127
X0054Y0127
X0049Y0122
X0059Y0122
X0054Y0122
X0049Y0117
X0059Y0117
X0054Y0117
X0064Y01135
X0049Y011
X0054Y011
X0059Y011
X0059Y0105
X0049Y0105
X0054Y0105
X0054Y01
X0059Y01
X0049Y01
X00445Y00955
X0054Y0095
X0059Y0095
X005Y00925
X0057Y00925
X00445Y00925
X0064Y0092
X00575Y007
X00445Y007
X00635Y007
X00505Y007
X00575Y0065
X00445Y0065
X00505Y0065
X00635Y0065
X00775Y0065
X00705Y0065
X00775Y007
X00705Y007
X0079Y0088
X0076Y0088
X0071Y0092
X00835Y0113
X0086Y0113
X0069Y01135
X0074Y01135
X00835Y01355
X0086Y01355
X0084Y01515
X0088Y01515
X00885Y01655
X0087Y0176
X0084Y0176
X0114Y0195
X0106Y0187
X0102Y0187
X011Y0187
X01045Y0173
X010716Y01705
X00965Y01705
X0104Y016
X0111Y016
X00975Y016
X0104Y01555
X0111Y01555
X00975Y01555
X0104Y0151
X0111Y0151
X00975Y0151
X011225Y014775
X0092Y01415
X00995Y0141
X011228Y0141
X0096Y01315
X0104Y0126
X0108Y01235
X01025Y0122
X00975Y0122
X00975Y0117
X01075Y0117
X01115Y0117
X01025Y0117
X00975Y01135
X01115Y01135
X01025Y01135
X01075Y01135
X0104Y00825
X01145Y00825
X01085Y00825
X0094Y00825
X0099Y00825
X01085Y008
X0094Y00775
X0104Y00775
X01145Y00775
X0099Y00775
X0136Y00775
X01245Y00775
X01195Y00775
X01295Y008
X0136Y00825
X01245Y00825
X01195Y00825
X01295Y00825
X01165Y01135
X01385Y01135
X01335Y01135
X0127Y01135
X01215Y01135
X01335Y0117
X0127Y0117
X01165Y0117
X01215Y0117
X01385Y0117
X01225Y01325
X012Y01335
X01315Y01365
X01175Y014075
X012Y014075
X01175Y0151
X01245Y0151
X01175Y01555
X01245Y01555
X01175Y016
X01245Y016
X01285Y01715
X01265Y01715
X012075Y017775
X0132Y01795
X0136Y01795
X0139Y01815
X0118Y0182
X0139Y01845
X0136Y0187
X0132Y0187
X0126Y0187
X0129Y0187
X0122Y0187
X0116Y0188
X0118Y0195
X01525Y0117
X01435Y0117
X0149Y0117
X01525Y01135
X01435Y01135
X0149Y01135
X01525Y01095
X01525Y0106
X01525Y01025
X01525Y0099
X01525Y00955
X0146Y00825
X0141Y00825
X0146Y00775
X0141Y00775
X0182Y00955
X0182Y0099
X0182Y01025
X0182Y0106
X0182Y01095
X0182Y01135
X0182Y0117
X0255Y016
X025Y016
X026Y016
X026Y0155
X0222Y01545
X0233Y01545
X0233Y015
X0222Y015
X026Y015
X0247Y015
X0222Y0146
X0233Y01455
X026Y0145
X0255Y014
X025Y014
X026Y014
X02625Y0103
X0245Y0088
X02525Y0088
X0249Y0088
X02565Y0088
X0249Y007
X02525Y007
X02565Y007
X0245Y007
X02615Y0065
X02655Y0065
X0278Y0065
X02895Y0065
X0282Y0065
X02855Y0065
X0269Y0065
X0273Y0065
X0307Y007
X02995Y007
X0303Y007
X02955Y007
X02955Y0088
X02995Y0088
X0307Y0088
X0303Y0088
X02715Y0103
X0284Y0103
X02885Y0103
X02795Y0103
X0267Y0103
T2C.031F197S55
X-00125Y02462
X-00125Y02541
X-00125Y0262
T3C.034F197S55
X0095Y02462
X01029Y02462
X0095Y02541
X01029Y02541
X0095Y0262
X01029Y0262
T4C.065F089S55
X0345Y-006
X03775Y024
T5C.07F081S55
X-0109Y-00415
X036Y027
T6C.095F066S55
X-0052Y-006
X-01025Y-00095
X-01025Y01825
X-00645Y026
X004Y026
X0017Y-006
X0086Y-006
X0155Y-006
X016Y02595
X0205Y026
X025Y026
T7C.187F035S1033
X-0109Y-0069
X-0109Y0269
X0384Y0269
X0384Y-0069
T8C.206F0S0
X-01025Y00285
X-01025Y01425
X03775Y0195
X03775Y012
X03775Y004
X03775Y-0035
M30
