G04 DipTrace 3.3.0.1*
G04 Bottom.gbr*
%MOIN*%
G04 #@! TF.FileFunction,Copper,L2,Bot*
G04 #@! TF.Part,Single*
G04 #@! TA.AperFunction,ViaPad*
%ADD14C,0.019685*%
G04 #@! TA.AperFunction,Conductor*
%ADD15C,0.011811*%
%ADD17C,0.007874*%
G04 #@! TA.AperFunction,CopperBalancing*
%ADD20C,0.003937*%
G04 #@! TA.AperFunction,ComponentPad*
%ADD54O,0.102362X0.051181*%
%ADD55O,0.090551X0.047244*%
%ADD56O,0.043307X0.064961*%
%FSLAX26Y26*%
G04*
G70*
G90*
G75*
G01*
G04 Bottom*
%LPD*%
X2756299Y1358612D2*
D14*
X2754331D1*
Y1214911D1*
X2899213Y1527903D2*
D15*
X2918898D1*
X2899213D2*
D14*
X2862992D1*
X2849213Y1514123D1*
Y1423966D1*
X2783858Y1358612D1*
X2756299D1*
X2899213Y1527903D2*
D15*
D3*
X2939370Y1037745D2*
Y1092617D1*
D14*
Y1018060D1*
X2976772Y1459793D2*
D15*
Y1441289D1*
D14*
X2903937D1*
X2803543Y1340895D1*
Y1151919D1*
X2858661Y1096801D1*
X2935186D1*
D15*
X2939370Y1092617D1*
D14*
X3080856D1*
D15*
X3085039Y1096801D1*
D14*
Y1018060D1*
X3033563Y1884202D2*
D15*
X2805807D1*
X2721063Y1799458D1*
Y1793207D1*
X2714812D1*
X2502312Y1580707D1*
Y1318701D1*
Y1293701D1*
Y1268701D1*
Y1180707D1*
X2721063Y1762155D2*
Y1793207D1*
X2499951Y1268701D2*
X2502312D1*
X2499951Y1293701D2*
X2502312D1*
X2499951Y1318701D2*
X2502312D1*
X2774016Y1386171D2*
X2813386Y1425541D1*
Y1688386D1*
X2956201Y1831201D1*
X3667717D1*
X2756299Y1409793D2*
Y1668798D1*
X2949951Y1862450D1*
X3632283D1*
X781890Y1010186D2*
D17*
Y992470D1*
X852756Y921604D1*
X856693Y862549D2*
X833071D1*
X732677Y962942D1*
X648031D1*
X894094Y1037745D2*
Y964911D1*
X911811Y947194D1*
X1055512D1*
X1382283Y783808D2*
X1307480D1*
X1090945Y1000344D1*
X988583D1*
D14*
X2754331Y1214911D3*
X3033563Y1884202D3*
X2502312Y1180707D3*
X2721063Y1762155D3*
X2774016Y1386171D3*
X3667717Y1831201D3*
X2756299Y1409793D3*
X3632283Y1862450D3*
X1055512Y947194D3*
X2939370Y1018060D3*
X3085039D3*
X2939370Y1037745D3*
X3085039D3*
X2976772Y1459793D3*
Y1441289D3*
X2774016Y1214911D3*
X2775984Y1358612D3*
X2756299D3*
X2899213Y1527903D3*
X2918898D3*
X2896063Y1624458D3*
X2746063Y1761958D3*
X2696063Y1743209D3*
Y1711958D3*
X2499951Y1268701D3*
Y1293701D3*
Y1318701D3*
X2927312Y1624458D3*
X2958563D3*
X2989814D3*
X3021063D3*
X2896063Y1593207D3*
X2927314D3*
X2958563D3*
X2989814D3*
X3021063D3*
X781890Y1010186D3*
X648031Y962942D3*
X870472Y978690D3*
X894094Y1037745D3*
X856693Y862549D3*
X852756Y921604D3*
X988583Y1000344D3*
X1382283Y783808D3*
X955118Y1126328D3*
Y1104675D3*
X929528Y923572D3*
X955118Y892076D3*
X978740Y860580D3*
X2922638Y785777D3*
X2947638D3*
X2972638D3*
X2997638D3*
X3022638D3*
X3097638D3*
X3047638D3*
X3072638D3*
X2922638Y760778D3*
X2947638D3*
X2972638D3*
X3072638D3*
X2997638D3*
X3022638D3*
X3047638D3*
X3097638Y760776D3*
X2924606Y870423D3*
X2949606D3*
X2974606D3*
X2876920Y1263387D3*
X2901920D3*
X2926920D3*
X2951920D3*
X2976920D3*
X3051919D3*
X3001920D3*
X3026920D3*
X2876920Y1238387D3*
X2901920D3*
X2926920D3*
X3026920D3*
X2951920D3*
X2976920D3*
X3001920D3*
X3051919Y1238386D3*
X2928543Y962942D3*
X2953543D3*
X2978543D3*
X3003543D3*
X3028543D3*
X3103542D3*
X3053543D3*
X3078543D3*
X2928543Y937942D3*
X2953543D3*
X2978543D3*
X3078543D3*
X3003543D3*
X3028543D3*
X3053543D3*
X3103542Y937941D3*
X3443701Y1549950D3*
Y1574950D3*
Y1599950D3*
Y1624950D3*
Y1649950D3*
Y1724950D3*
Y1674950D3*
Y1699950D3*
X3468701Y1549950D3*
Y1574950D3*
Y1599950D3*
Y1699950D3*
Y1624950D3*
Y1649950D3*
Y1674950D3*
X3468702Y1724950D3*
X2518701Y799950D3*
X2543701D3*
X2568701D3*
X2593701Y799949D3*
X2618701Y799950D3*
X2693701D3*
X2643701D3*
X2668701D3*
X2518701Y774950D3*
X2543701D3*
X2568701D3*
X2668701D3*
X2593701D3*
X2618701D3*
X2643701D3*
X2693701Y774949D3*
X3490748Y742470D3*
X3515748D3*
X3540748D3*
X3565748D3*
X3590748D3*
X3665748D3*
X3615748D3*
X3640748D3*
X3490748Y717471D3*
X3515748D3*
X3540748D3*
X3640748D3*
X3565748D3*
X3590748D3*
X3615748D3*
X3665748Y717469D3*
X2568701Y1112451D3*
Y1137451D3*
Y1162450D3*
Y1187450D3*
Y1212450D3*
Y1287450D3*
Y1237450D3*
Y1262450D3*
X2593701Y1112451D3*
Y1137451D3*
Y1162450D3*
Y1262450D3*
Y1187450D3*
Y1212450D3*
Y1237450D3*
X2593702Y1287450D3*
X2381201Y1093699D3*
Y1118698D3*
Y1143698D3*
Y1168698D3*
Y1193698D3*
Y1268698D3*
Y1218698D3*
Y1243698D3*
X2406201Y1093699D3*
Y1118698D3*
Y1143698D3*
Y1243698D3*
Y1168698D3*
Y1193698D3*
Y1218698D3*
X2406202Y1268698D3*
X2999606Y870423D3*
X3024606D3*
X3099606D3*
X3049606D3*
X3074606D3*
X2924606Y845424D3*
X2949606D3*
X2974606D3*
X3074606D3*
X2999606D3*
X3024606D3*
X3049606D3*
X3099606Y845421D3*
X2744886Y1362680D2*
D20*
X2758908D1*
X2744886Y1358874D2*
X2768812D1*
X2779219D2*
X2783461D1*
X2744886Y1355068D2*
X2783461D1*
X2744886Y1351262D2*
X2783461D1*
X2744886Y1347457D2*
X2783461D1*
X2744886Y1343651D2*
X2783461D1*
X2744886Y1339845D2*
X2783461D1*
X2744886Y1336039D2*
X2783461D1*
X2744886Y1332234D2*
X2783461D1*
X2744886Y1328428D2*
X2783461D1*
X2744886Y1324622D2*
X2783461D1*
X2744886Y1320816D2*
X2783461D1*
X2744886Y1317010D2*
X2783461D1*
X2744886Y1313205D2*
X2783461D1*
X2744886Y1309399D2*
X2783461D1*
X2744886Y1305593D2*
X2783461D1*
X2744886Y1301787D2*
X2783461D1*
X2744886Y1297982D2*
X2783461D1*
X2744886Y1294176D2*
X2783461D1*
X2744886Y1290370D2*
X2783461D1*
X2744886Y1286564D2*
X2783461D1*
X2744886Y1282759D2*
X2783461D1*
X2744886Y1278953D2*
X2783461D1*
X2744886Y1275147D2*
X2783461D1*
X2744886Y1271341D2*
X2783461D1*
X2744886Y1267535D2*
X2783461D1*
X2744886Y1263730D2*
X2783461D1*
X2744886Y1259924D2*
X2783461D1*
X2744886Y1256118D2*
X2783461D1*
X2744886Y1252312D2*
X2783461D1*
X2744886Y1248507D2*
X2783461D1*
X2744886Y1244701D2*
X2783461D1*
X2744886Y1240895D2*
X2783461D1*
X2744886Y1237089D2*
X2783461D1*
X2744886Y1233283D2*
X2783461D1*
X2744886Y1229478D2*
X2783461D1*
X2744886Y1225672D2*
X2783461D1*
X2744886Y1221866D2*
X2783461D1*
X2744886Y1218060D2*
X2783461D1*
X2744886Y1214255D2*
X2783461D1*
X2744886Y1210449D2*
X2783461D1*
X2744886Y1206643D2*
X2783461D1*
X2744886Y1202837D2*
X2783461D1*
X2744886Y1199031D2*
X2783461D1*
X2744886Y1195226D2*
X2783461D1*
X2744886Y1191420D2*
X2783461D1*
X2744886Y1187614D2*
X2783461D1*
X2783861Y1360261D2*
X2782005Y1359630D1*
X2780101Y1359130D1*
X2778167Y1358766D1*
X2776211Y1358541D1*
X2774245Y1358455D1*
X2772278Y1358509D1*
X2770320Y1358702D1*
X2768379Y1359033D1*
X2766469Y1359501D1*
X2764594Y1360104D1*
X2762769Y1360839D1*
X2761000Y1361701D1*
X2759295Y1362686D1*
X2757667Y1363790D1*
X2756119Y1365007D1*
X2754509Y1366491D1*
X2744496Y1366486D1*
X2744488Y1185391D1*
X2783850Y1185383D1*
X2783858Y1360265D1*
X2712220Y1793684D2*
X2774948D1*
X2708413Y1789878D2*
X2774948D1*
X2704608Y1786072D2*
X2774948D1*
X2700802Y1782266D2*
X2774948D1*
X2696995Y1778461D2*
X2774948D1*
X2693189Y1774655D2*
X2774948D1*
X2689382Y1770849D2*
X2774948D1*
X2685576Y1767043D2*
X2774948D1*
X2681770Y1763238D2*
X2774948D1*
X2679678Y1759432D2*
X2774948D1*
X2679678Y1755626D2*
X2774948D1*
X2679678Y1751820D2*
X2774948D1*
X2679678Y1748014D2*
X2774948D1*
X2679678Y1744209D2*
X2774948D1*
X2679678Y1740403D2*
X2774948D1*
X2679678Y1736597D2*
X2774948D1*
X2679678Y1732791D2*
X2774948D1*
X2679678Y1728986D2*
X2774948D1*
X2679678Y1725180D2*
X2774948D1*
X2679678Y1721374D2*
X2774948D1*
X2679678Y1717568D2*
X2774948D1*
X2679678Y1713762D2*
X2774948D1*
X2679678Y1709957D2*
X2774948D1*
X2679678Y1706151D2*
X2773441D1*
X2679678Y1702345D2*
X2769634D1*
X2769112Y1701430D2*
X2775343Y1707661D1*
X2775344Y1797491D1*
X2715626Y1797490D1*
X2679282Y1761144D1*
X2679281Y1701434D1*
X2769101Y1701427D1*
X2852289Y1363861D2*
X3337060D1*
X2848483Y1360055D2*
X3337060D1*
X2844677Y1356249D2*
X3337060D1*
X2840878Y1352444D2*
X3337060D1*
X2837072Y1348638D2*
X3337060D1*
X2833265Y1344832D2*
X3337060D1*
X2829459Y1341026D2*
X3337060D1*
X2825652Y1337220D2*
X3337060D1*
X2821892Y1333415D2*
X3337060D1*
X2821892Y1329609D2*
X3337060D1*
X2821892Y1325803D2*
X3337060D1*
X2821892Y1321997D2*
X3337060D1*
X2821892Y1318192D2*
X3337060D1*
X2821892Y1314386D2*
X3337060D1*
X2821892Y1310580D2*
X3337060D1*
X2821892Y1306774D2*
X3337060D1*
X2821892Y1302969D2*
X3337060D1*
X2821892Y1299163D2*
X3337060D1*
X2821892Y1295357D2*
X3337060D1*
X2821892Y1291551D2*
X3337060D1*
X2821892Y1287745D2*
X3337060D1*
X2821892Y1283940D2*
X3337060D1*
X2821892Y1280134D2*
X3337060D1*
X2821892Y1276328D2*
X3337060D1*
X2821892Y1272522D2*
X3337060D1*
X2821892Y1268717D2*
X3337060D1*
X2821892Y1264911D2*
X3337060D1*
X2821892Y1261105D2*
X3337060D1*
X2821892Y1257299D2*
X3337060D1*
X2821892Y1253493D2*
X3337060D1*
X2821892Y1249688D2*
X3337060D1*
X2821892Y1245882D2*
X3337060D1*
X2821892Y1242076D2*
X3337060D1*
X2821892Y1238270D2*
X3337060D1*
X2821892Y1234465D2*
X3337060D1*
X2821892Y1230659D2*
X3337060D1*
X2821892Y1226853D2*
X3337060D1*
X2821892Y1223047D2*
X3337060D1*
X2821892Y1219241D2*
X3337060D1*
X2821892Y1215436D2*
X3337060D1*
X2821892Y1211630D2*
X3337060D1*
X2821892Y1207824D2*
X3337060D1*
X2821892Y1204018D2*
X3337060D1*
X2821892Y1200213D2*
X3337060D1*
X2821892Y1196407D2*
X3337060D1*
X2821892Y1192601D2*
X3337060D1*
X2821892Y1188795D2*
X3337060D1*
X2821892Y1184990D2*
X3337060D1*
X2821892Y1181184D2*
X3337060D1*
X2821892Y1177378D2*
X3337060D1*
X2821892Y1173572D2*
X3337060D1*
X2821892Y1169766D2*
X3337060D1*
X2821892Y1165961D2*
X3337060D1*
X2821892Y1162155D2*
X3337060D1*
X2822892Y1158349D2*
X3337060D1*
X2826698Y1154543D2*
X3337060D1*
X2830505Y1150738D2*
X3337060D1*
X2834311Y1146932D2*
X3337060D1*
X2838118Y1143126D2*
X3337060D1*
X2841924Y1139320D2*
X3337060D1*
X2845730Y1135514D2*
X3337060D1*
X2849537Y1131709D2*
X3337060D1*
X2853343Y1127903D2*
X3337060D1*
X2857148Y1124097D2*
X3337060D1*
X2860955Y1120291D2*
X3337060D1*
X2811028Y1116486D2*
X2813190D1*
X2864761D2*
X3337060D1*
X2810942Y1112680D2*
X2816999D1*
X2943955D2*
X3076273D1*
X3093807D2*
X3337060D1*
X2810858Y1108874D2*
X2820806D1*
X3098722D2*
X3337060D1*
X2810766Y1105068D2*
X2824612D1*
X3101366D2*
X3337060D1*
X2810681Y1101262D2*
X2828417D1*
X3102820D2*
X3337060D1*
X2810597Y1097457D2*
X2832224D1*
X3103374D2*
X3337060D1*
X2855707Y1367669D2*
X2821496Y1333458D1*
Y1159354D1*
X2866104Y1114748D1*
X2935186Y1114753D1*
X2936594Y1114698D1*
X2937995Y1114533D1*
X2939378Y1114257D1*
X2940734Y1113874D1*
X2942056Y1113387D1*
X2943337Y1112797D1*
X2944567Y1112108D1*
X2945739Y1111324D1*
X2946694Y1110571D1*
X3073513Y1110570D1*
X3075659Y1112108D1*
X3076888Y1112797D1*
X3078169Y1113387D1*
X3079492Y1113875D1*
X3080848Y1114257D1*
X3082231Y1114533D1*
X3083631Y1114698D1*
X3085039Y1114753D1*
X3086448Y1114698D1*
X3087848Y1114533D1*
X3089231Y1114257D1*
X3090587Y1113875D1*
X3091909Y1113387D1*
X3093190Y1112797D1*
X3094420Y1112108D1*
X3095592Y1111324D1*
X3096698Y1110451D1*
X3097734Y1109495D1*
X3098690Y1108459D1*
X3099563Y1107353D1*
X3100346Y1106181D1*
X3101035Y1104951D1*
X3101626Y1103671D1*
X3102114Y1102348D1*
X3102496Y1100992D1*
X3102772Y1099609D1*
X3102937Y1098209D1*
X3102992Y1096609D1*
X3337458Y1096604D1*
X3337451Y1367665D1*
X2855698Y1367667D1*
X2833467Y1096606D2*
X2810696Y1119378D1*
X2810184Y1096600D1*
X2833475Y1096604D1*
X415752Y4305249D2*
X4308657D1*
X415752Y4301444D2*
X4308657D1*
X415752Y4297638D2*
X4308657D1*
X415752Y4293832D2*
X4308657D1*
X415752Y4290026D2*
X4308657D1*
X415752Y4286220D2*
X4308657D1*
X415752Y4282415D2*
X4308657D1*
X415752Y4278609D2*
X4308657D1*
X415752Y4274803D2*
X4308657D1*
X415752Y4270997D2*
X4308657D1*
X415752Y4267192D2*
X4308657D1*
X415752Y4263386D2*
X4308657D1*
X415752Y4259580D2*
X4308657D1*
X415752Y4255774D2*
X4308657D1*
X415752Y4251969D2*
X4308657D1*
X415752Y4248163D2*
X4308657D1*
X415752Y4244357D2*
X4308657D1*
X415752Y4240551D2*
X4308657D1*
X415752Y4236745D2*
X4308657D1*
X415752Y4232940D2*
X4308657D1*
X415752Y4229134D2*
X4308657D1*
X415752Y4225328D2*
X4308657D1*
X415752Y4221522D2*
X4308657D1*
X415752Y4217717D2*
X4308657D1*
X415752Y4213911D2*
X4308657D1*
X415752Y4210105D2*
X4308657D1*
X415752Y4206299D2*
X4308657D1*
X415752Y4202493D2*
X4308657D1*
X415752Y4198688D2*
X4308657D1*
X415752Y4194882D2*
X4308657D1*
X415752Y4191076D2*
X4308657D1*
X415752Y4187270D2*
X4308657D1*
X415752Y4183465D2*
X4308657D1*
X415752Y4179659D2*
X4308657D1*
X415752Y4175853D2*
X4308657D1*
X415752Y4172047D2*
X4308657D1*
X415752Y4168241D2*
X4308657D1*
X415752Y4164436D2*
X4308657D1*
X415752Y4160630D2*
X4308657D1*
X415752Y4156824D2*
X4308657D1*
X415752Y4153018D2*
X4308657D1*
X415752Y4149213D2*
X4308657D1*
X415752Y4145407D2*
X4308657D1*
X415752Y4141601D2*
X4308657D1*
X415752Y4137795D2*
X4308657D1*
X415752Y4133990D2*
X4308657D1*
X415752Y4130184D2*
X4308657D1*
X415752Y4126378D2*
X4308657D1*
X415752Y4122572D2*
X4308657D1*
X415752Y4118766D2*
X4308657D1*
X415752Y4114961D2*
X4308657D1*
X415752Y4111155D2*
X4308657D1*
X415752Y4107349D2*
X4308657D1*
X415752Y4103543D2*
X4308657D1*
X415752Y4099738D2*
X4308657D1*
X415752Y4095932D2*
X4308657D1*
X415752Y4092126D2*
X4308657D1*
X415752Y4088320D2*
X4308657D1*
X415752Y4084514D2*
X4308657D1*
X415752Y4080709D2*
X4308657D1*
X415752Y4076903D2*
X4308657D1*
X415752Y4073097D2*
X4308657D1*
X415752Y4069291D2*
X4308657D1*
X415752Y4065486D2*
X4308657D1*
X415752Y4061680D2*
X4308657D1*
X415752Y4057874D2*
X4308657D1*
X415752Y4054068D2*
X4308657D1*
X415752Y4050262D2*
X4308657D1*
X415752Y4046457D2*
X4308657D1*
X415752Y4042651D2*
X4308657D1*
X415752Y4038845D2*
X4308657D1*
X415752Y4035039D2*
X4308657D1*
X415752Y4031234D2*
X4308657D1*
X415752Y4027428D2*
X4308657D1*
X415752Y4023622D2*
X4308657D1*
X415752Y4019816D2*
X4308657D1*
X415752Y4016010D2*
X4308657D1*
X415752Y4012205D2*
X4308657D1*
X415752Y4008399D2*
X4308657D1*
X415752Y4004593D2*
X4308657D1*
X415752Y4000787D2*
X4308657D1*
X415752Y3996982D2*
X4308657D1*
X415752Y3993176D2*
X4308657D1*
X415752Y3989370D2*
X4308657D1*
X415752Y3985564D2*
X4308657D1*
X415752Y3981759D2*
X4308657D1*
X415752Y3977953D2*
X4308657D1*
X415752Y3974147D2*
X4308657D1*
X415752Y3970341D2*
X4308657D1*
X415752Y3966535D2*
X4308657D1*
X415752Y3962730D2*
X4308657D1*
X415752Y3958924D2*
X4308657D1*
X415752Y3955118D2*
X4308657D1*
X415752Y3951312D2*
X4308657D1*
X415752Y3947507D2*
X4308657D1*
X415752Y3943701D2*
X4308657D1*
X415752Y3939895D2*
X4308657D1*
X415752Y3936089D2*
X4308657D1*
X415752Y3932283D2*
X4308657D1*
X415752Y3928478D2*
X4308657D1*
X415752Y3924672D2*
X4308657D1*
X415752Y3920866D2*
X4308657D1*
X415752Y3917060D2*
X4308657D1*
X415752Y3913255D2*
X4308657D1*
X415752Y3909449D2*
X4308657D1*
X415752Y3905643D2*
X4308657D1*
X415752Y3901837D2*
X4308657D1*
X415752Y3898031D2*
X4308657D1*
X415752Y3894226D2*
X4308657D1*
X415752Y3890420D2*
X4308657D1*
X415752Y3886614D2*
X4308657D1*
X415752Y3882808D2*
X4308657D1*
X415752Y3879003D2*
X4308657D1*
X415752Y3875197D2*
X4308657D1*
X415752Y3871391D2*
X4308657D1*
X415752Y3867585D2*
X4308657D1*
X415752Y3863780D2*
X4308657D1*
X415752Y3859974D2*
X4308657D1*
X415752Y3856168D2*
X4308657D1*
X415752Y3852362D2*
X4308657D1*
X415752Y3848556D2*
X4308657D1*
X415752Y3844751D2*
X4308657D1*
X415752Y3840945D2*
X4308657D1*
X415752Y3837139D2*
X4308657D1*
X415752Y3833333D2*
X4308657D1*
X415752Y3829528D2*
X4308657D1*
X415752Y3825722D2*
X4308657D1*
X415752Y3821916D2*
X4308657D1*
X415752Y3818110D2*
X4308657D1*
X415752Y3814304D2*
X4308657D1*
X415752Y3810499D2*
X4308657D1*
X415752Y3806693D2*
X4308657D1*
X415752Y3802887D2*
X4308657D1*
X415752Y3799081D2*
X4308657D1*
X415752Y3795276D2*
X4308657D1*
X415752Y3791470D2*
X4308657D1*
X415752Y3787664D2*
X4308657D1*
X415752Y3783858D2*
X4308657D1*
X415752Y3780052D2*
X4308657D1*
X415752Y3776247D2*
X4308657D1*
X415752Y3772441D2*
X4308657D1*
X415752Y3768635D2*
X4308657D1*
X415752Y3764829D2*
X4308657D1*
X415752Y3761024D2*
X4308657D1*
X415752Y3757218D2*
X4308657D1*
X415752Y3753412D2*
X4308657D1*
X415752Y3749606D2*
X4308657D1*
X415752Y3745801D2*
X4308657D1*
X415752Y3741995D2*
X4308657D1*
X415752Y3738189D2*
X4308657D1*
X415752Y3734383D2*
X4308657D1*
X415752Y3730577D2*
X4308657D1*
X415752Y3726772D2*
X4308657D1*
X415752Y3722966D2*
X4308657D1*
X415752Y3719160D2*
X4308657D1*
X415752Y3715354D2*
X4308657D1*
X415752Y3711549D2*
X4308657D1*
X415752Y3707743D2*
X4308657D1*
X415752Y3703937D2*
X4308657D1*
X415752Y3700131D2*
X4308657D1*
X415752Y3696325D2*
X4308657D1*
X415752Y3692520D2*
X4308657D1*
X415752Y3688714D2*
X4308657D1*
X415752Y3684908D2*
X4308657D1*
X415752Y3681102D2*
X4308657D1*
X415752Y3677297D2*
X4308657D1*
X415752Y3673491D2*
X4308657D1*
X415752Y3669685D2*
X4308657D1*
X415752Y3665879D2*
X4308657D1*
X415752Y3662073D2*
X4308657D1*
X415752Y3658268D2*
X4308657D1*
X415752Y3654462D2*
X4308657D1*
X415752Y3650656D2*
X4308657D1*
X415752Y3646850D2*
X4308657D1*
X415752Y3643045D2*
X4308657D1*
X415752Y3639239D2*
X4308657D1*
X415752Y3635433D2*
X4308657D1*
X415752Y3631627D2*
X4308657D1*
X415752Y3627822D2*
X4308657D1*
X415752Y3624016D2*
X4308657D1*
X415752Y3620210D2*
X4308657D1*
X415752Y3616404D2*
X4308657D1*
X415752Y3612598D2*
X4308657D1*
X415752Y3608793D2*
X4308657D1*
X415752Y3604987D2*
X4308657D1*
X415752Y3601181D2*
X4308657D1*
X415752Y3597375D2*
X4308657D1*
X415752Y3593570D2*
X4308657D1*
X415752Y3589764D2*
X4308657D1*
X415752Y3585958D2*
X4308657D1*
X415752Y3582152D2*
X4308657D1*
X415752Y3578346D2*
X4308657D1*
X415752Y3574541D2*
X4308657D1*
X415752Y3570735D2*
X4308657D1*
X415752Y3566929D2*
X4308657D1*
X415752Y3563123D2*
X4308657D1*
X415752Y3559318D2*
X4308657D1*
X415752Y3555512D2*
X4308657D1*
X415752Y3551706D2*
X4308657D1*
X415752Y3547900D2*
X4308657D1*
X415752Y3544094D2*
X4308657D1*
X415752Y3540289D2*
X4308657D1*
X415752Y3536483D2*
X4308657D1*
X415752Y3532677D2*
X4308657D1*
X415752Y3528871D2*
X4308657D1*
X415752Y3525066D2*
X4308657D1*
X415752Y3521260D2*
X4308657D1*
X415752Y3517454D2*
X4308657D1*
X415752Y3513648D2*
X4308657D1*
X415752Y3509843D2*
X4308657D1*
X415752Y3506037D2*
X4308657D1*
X415752Y3502231D2*
X4308657D1*
X415752Y3498425D2*
X4308657D1*
X415752Y3494619D2*
X4308657D1*
X415752Y3490814D2*
X4308657D1*
X415752Y3487008D2*
X4308657D1*
X415752Y3483202D2*
X4308657D1*
X415752Y3479396D2*
X4308657D1*
X415752Y3475591D2*
X4308657D1*
X415752Y3471785D2*
X4308657D1*
X415752Y3467979D2*
X4308657D1*
X415752Y3464173D2*
X4308657D1*
X415752Y3460367D2*
X4308657D1*
X415752Y3456562D2*
X4308657D1*
X415752Y3452756D2*
X4308657D1*
X415752Y3448950D2*
X4308657D1*
X415752Y3445144D2*
X4308657D1*
X415752Y3441339D2*
X4308657D1*
X415752Y3437533D2*
X4308657D1*
X415752Y3433727D2*
X4308657D1*
X415752Y3429921D2*
X4308657D1*
X415752Y3426115D2*
X4308657D1*
X415752Y3422310D2*
X4308657D1*
X415752Y3418504D2*
X4308657D1*
X415752Y3414698D2*
X4308657D1*
X415752Y3410892D2*
X4308657D1*
X415752Y3407087D2*
X4308657D1*
X415752Y3403281D2*
X4308657D1*
X415752Y3399475D2*
X4308657D1*
X415752Y3395669D2*
X4308657D1*
X415752Y3391864D2*
X4308657D1*
X415752Y3388058D2*
X4308657D1*
X415752Y3384252D2*
X4308657D1*
X415752Y3380446D2*
X4308657D1*
X415752Y3376640D2*
X4308657D1*
X415752Y3372835D2*
X4308657D1*
X415752Y3369029D2*
X4308657D1*
X415752Y3365223D2*
X4308657D1*
X415752Y3361417D2*
X4308657D1*
X415752Y3357612D2*
X4308657D1*
X415752Y3353806D2*
X4308657D1*
X415752Y3350000D2*
X4308657D1*
X415752Y3346194D2*
X4308657D1*
X415752Y3342388D2*
X4308657D1*
X415752Y3338583D2*
X4308657D1*
X415752Y3334777D2*
X4308657D1*
X415752Y3330971D2*
X4308657D1*
X415752Y3327165D2*
X4308657D1*
X415752Y3323360D2*
X4308657D1*
X415752Y3319554D2*
X4308657D1*
X415752Y3315748D2*
X4308657D1*
X415752Y3311942D2*
X4308657D1*
X415752Y3308136D2*
X4308657D1*
X415752Y3304331D2*
X4308657D1*
X415752Y3300525D2*
X4308657D1*
X415752Y3296719D2*
X4308657D1*
X415752Y3292913D2*
X4308657D1*
X415752Y3289108D2*
X4308657D1*
X415752Y3285302D2*
X4308657D1*
X415752Y3281496D2*
X4308657D1*
X415752Y3277690D2*
X4308657D1*
X415752Y3273885D2*
X4308657D1*
X415752Y3270079D2*
X4308657D1*
X415752Y3266273D2*
X4308657D1*
X415752Y3262467D2*
X4308657D1*
X415752Y3258661D2*
X4308657D1*
X415752Y3254856D2*
X4308657D1*
X415752Y3251050D2*
X4308657D1*
X415752Y3247244D2*
X4308657D1*
X415752Y3243438D2*
X4308657D1*
X415752Y3239633D2*
X4308657D1*
X415752Y3235827D2*
X4308657D1*
X415752Y3232021D2*
X4308657D1*
X415752Y3228215D2*
X4308657D1*
X415752Y3224409D2*
X4308657D1*
X415752Y3220604D2*
X4308657D1*
X415752Y3216798D2*
X4308657D1*
X415752Y3212992D2*
X4308657D1*
X415752Y3209186D2*
X4308657D1*
X415752Y3205381D2*
X4308657D1*
X415752Y3201575D2*
X4308657D1*
X415752Y3197769D2*
X4308657D1*
X415752Y3193963D2*
X4308657D1*
X415752Y3190157D2*
X4308657D1*
X415752Y3186352D2*
X4308657D1*
X415752Y3182546D2*
X4308657D1*
X415752Y3178740D2*
X4308657D1*
X415752Y3174934D2*
X4308657D1*
X415752Y3171129D2*
X4308657D1*
X415752Y3167323D2*
X4308657D1*
X415752Y3163517D2*
X4308657D1*
X415752Y3159711D2*
X4308657D1*
X415752Y3155906D2*
X4308657D1*
X415752Y3152100D2*
X4308657D1*
X415752Y3148294D2*
X4308657D1*
X415752Y3144488D2*
X4308657D1*
X415752Y3140682D2*
X4308657D1*
X415752Y3136877D2*
X4308657D1*
X415752Y3133071D2*
X4308657D1*
X415752Y3129265D2*
X4308657D1*
X415752Y3125459D2*
X4308657D1*
X415752Y3121654D2*
X4308657D1*
X415752Y3117848D2*
X4308657D1*
X415752Y3114042D2*
X4308657D1*
X415752Y3110236D2*
X4308657D1*
X415752Y3106430D2*
X4308657D1*
X415752Y3102625D2*
X4308657D1*
X415752Y3098819D2*
X4308657D1*
X415752Y3095013D2*
X4308657D1*
X415752Y3091207D2*
X4308657D1*
X415752Y3087402D2*
X4308657D1*
X415752Y3083596D2*
X4308657D1*
X415752Y3079790D2*
X4308657D1*
X415752Y3075984D2*
X4308657D1*
X415752Y3072178D2*
X4308657D1*
X415752Y3068373D2*
X4308657D1*
X415752Y3064567D2*
X4308657D1*
X415752Y3060761D2*
X4308657D1*
X415752Y3056955D2*
X4308657D1*
X415752Y3053150D2*
X4308657D1*
X415752Y3049344D2*
X4308657D1*
X415752Y3045538D2*
X4308657D1*
X415752Y3041732D2*
X4308657D1*
X415752Y3037927D2*
X4308657D1*
X415752Y3034121D2*
X4308657D1*
X415752Y3030315D2*
X4308657D1*
X415752Y3026509D2*
X4308657D1*
X415752Y3022703D2*
X4308657D1*
X415752Y3018898D2*
X4308657D1*
X415752Y3015092D2*
X4308657D1*
X415752Y3011286D2*
X4308657D1*
X415752Y3007480D2*
X4308657D1*
X415752Y3003675D2*
X4308657D1*
X415752Y2999869D2*
X4308657D1*
X415752Y2996063D2*
X4308657D1*
X415752Y2992257D2*
X4308657D1*
X415752Y2988451D2*
X4308657D1*
X415752Y2984646D2*
X4308657D1*
X415752Y2980840D2*
X4308657D1*
X415752Y2977034D2*
X4308657D1*
X415752Y2973228D2*
X4308657D1*
X415752Y2969423D2*
X4308657D1*
X415752Y2965617D2*
X4308657D1*
X415752Y2961811D2*
X4308657D1*
X415752Y2958005D2*
X4308657D1*
X415752Y2954199D2*
X4308657D1*
X415752Y2950394D2*
X4308657D1*
X415752Y2946588D2*
X4308657D1*
X415752Y2942782D2*
X4308657D1*
X415752Y2938976D2*
X4308657D1*
X415752Y2935171D2*
X4308657D1*
X415752Y2931365D2*
X4308657D1*
X415752Y2927559D2*
X4308657D1*
X415752Y2923753D2*
X4308657D1*
X415752Y2919948D2*
X4308657D1*
X415752Y2916142D2*
X4308657D1*
X415752Y2912336D2*
X4308657D1*
X415752Y2908530D2*
X4308657D1*
X415752Y2904724D2*
X4308657D1*
X415752Y2900919D2*
X4308657D1*
X415752Y2897113D2*
X4308657D1*
X415752Y2893307D2*
X4308657D1*
X415752Y2889501D2*
X4308657D1*
X415752Y2885696D2*
X4308657D1*
X415752Y2881890D2*
X4308657D1*
X415752Y2878084D2*
X4308657D1*
X415752Y2874278D2*
X4308657D1*
X415752Y2870472D2*
X4308657D1*
X415752Y2866667D2*
X4308657D1*
X415752Y2862861D2*
X4308657D1*
X415752Y2859055D2*
X4308657D1*
X415752Y2855249D2*
X4308657D1*
X415752Y2851444D2*
X4308657D1*
X415752Y2847638D2*
X4308657D1*
X415752Y2843832D2*
X4308657D1*
X415752Y2840026D2*
X4308657D1*
X415752Y2836220D2*
X4308657D1*
X415752Y2832415D2*
X4308657D1*
X415752Y2828609D2*
X4308657D1*
X415752Y2824803D2*
X4308657D1*
X415752Y2820997D2*
X4308657D1*
X415752Y2817192D2*
X4308657D1*
X415752Y2813386D2*
X4308657D1*
X415752Y2809580D2*
X4308657D1*
X415752Y2805774D2*
X4308657D1*
X415752Y2801969D2*
X4308657D1*
X415752Y2798163D2*
X4308657D1*
X415752Y2794357D2*
X4308657D1*
X415752Y2790551D2*
X4308657D1*
X415752Y2786745D2*
X4308657D1*
X415752Y2782940D2*
X4308657D1*
X415752Y2779134D2*
X4308657D1*
X415752Y2775328D2*
X4308657D1*
X415752Y2771522D2*
X4308657D1*
X415752Y2767717D2*
X4308657D1*
X415752Y2763911D2*
X4308657D1*
X415752Y2760105D2*
X4308657D1*
X415752Y2756299D2*
X4308657D1*
X415752Y2752493D2*
X4308657D1*
X415752Y2748688D2*
X4308657D1*
X415752Y2744882D2*
X4308657D1*
X415752Y2741076D2*
X4308657D1*
X415752Y2737270D2*
X4308657D1*
X415752Y2733465D2*
X4308657D1*
X415752Y2729659D2*
X4308657D1*
X415752Y2725853D2*
X4308657D1*
X415752Y2722047D2*
X4308657D1*
X415752Y2718241D2*
X4308657D1*
X415752Y2714436D2*
X4308657D1*
X415752Y2710630D2*
X4308657D1*
X415752Y2706824D2*
X4308657D1*
X415752Y2703018D2*
X4308657D1*
X415752Y2699213D2*
X4308657D1*
X415752Y2695407D2*
X4308657D1*
X415752Y2691601D2*
X4308657D1*
X415752Y2687795D2*
X4308657D1*
X415752Y2683990D2*
X4308657D1*
X415752Y2680184D2*
X4308657D1*
X415752Y2676378D2*
X4308657D1*
X415752Y2672572D2*
X4308657D1*
X415752Y2668766D2*
X4308657D1*
X415752Y2664961D2*
X4308657D1*
X415752Y2661155D2*
X4308657D1*
X415752Y2657349D2*
X4308657D1*
X415752Y2653543D2*
X4308657D1*
X415752Y2649738D2*
X4308657D1*
X415752Y2645932D2*
X4308657D1*
X415752Y2642126D2*
X4308657D1*
X415752Y2638320D2*
X4308657D1*
X415752Y2634514D2*
X4308657D1*
X415752Y2630709D2*
X4308657D1*
X415752Y2626903D2*
X4308657D1*
X415752Y2623097D2*
X4308657D1*
X415752Y2619291D2*
X4308657D1*
X415752Y2615486D2*
X4308657D1*
X415752Y2611680D2*
X4308657D1*
X415752Y2607874D2*
X4308657D1*
X415752Y2604068D2*
X4308657D1*
X415752Y2600262D2*
X4308657D1*
X415752Y2596457D2*
X4308657D1*
X415752Y2592651D2*
X4308657D1*
X415752Y2588845D2*
X4308657D1*
X415752Y2585039D2*
X4308657D1*
X415752Y2581234D2*
X4308657D1*
X415752Y2577428D2*
X4308657D1*
X415752Y2573622D2*
X4308657D1*
X415752Y2569816D2*
X4308657D1*
X415752Y2566010D2*
X4308657D1*
X415752Y2562205D2*
X4308657D1*
X415752Y2558399D2*
X4308657D1*
X415752Y2554593D2*
X4308657D1*
X415752Y2550787D2*
X4308657D1*
X415752Y2546982D2*
X4308657D1*
X415752Y2543176D2*
X4308657D1*
X415752Y2539370D2*
X4308657D1*
X415752Y2535564D2*
X4308657D1*
X415752Y2531759D2*
X4308657D1*
X415752Y2527953D2*
X4308657D1*
X415752Y2524147D2*
X4308657D1*
X415752Y2520341D2*
X4308657D1*
X415752Y2516535D2*
X4308657D1*
X415752Y2512730D2*
X4308657D1*
X415752Y2508924D2*
X4308657D1*
X415752Y2505118D2*
X4308657D1*
X415752Y2501312D2*
X4308657D1*
X415752Y2497507D2*
X4308657D1*
X415752Y2493701D2*
X4308657D1*
X415752Y2489895D2*
X4308657D1*
X415752Y2486089D2*
X4308657D1*
X415752Y2482283D2*
X4308657D1*
X415752Y2478478D2*
X4308657D1*
X415752Y2474672D2*
X4308657D1*
X415752Y2470866D2*
X4308657D1*
X415752Y2467060D2*
X4308657D1*
X415752Y2463255D2*
X4308657D1*
X415752Y2459449D2*
X4308657D1*
X415752Y2455643D2*
X4308657D1*
X415752Y2451837D2*
X4308657D1*
X415752Y2448031D2*
X4308657D1*
X415752Y2444226D2*
X4308657D1*
X415752Y2440420D2*
X4308657D1*
X415752Y2436614D2*
X4308657D1*
X415752Y2432808D2*
X4308657D1*
X415752Y2429003D2*
X4308657D1*
X415752Y2425197D2*
X4308657D1*
X415752Y2421391D2*
X4308657D1*
X415752Y2417585D2*
X4308657D1*
X415752Y2413780D2*
X4308657D1*
X415752Y2409974D2*
X4308657D1*
X415752Y2406168D2*
X4308657D1*
X415752Y2402362D2*
X4308657D1*
X415752Y2398556D2*
X4308657D1*
X415752Y2394751D2*
X4308657D1*
X415752Y2390945D2*
X4308657D1*
X415752Y2387139D2*
X4308657D1*
X415752Y2383333D2*
X4308657D1*
X415752Y2379528D2*
X4308657D1*
X415752Y2375722D2*
X4308657D1*
X415752Y2371916D2*
X4308657D1*
X415752Y2368110D2*
X4308657D1*
X415752Y2364304D2*
X4308657D1*
X415752Y2360499D2*
X4308657D1*
X415752Y2356693D2*
X4308657D1*
X415752Y2352887D2*
X4308657D1*
X415752Y2349081D2*
X4308657D1*
X415752Y2345276D2*
X4308657D1*
X415752Y2341470D2*
X4308657D1*
X415752Y2337664D2*
X4308657D1*
X415752Y2333858D2*
X4308657D1*
X415752Y2330052D2*
X4308657D1*
X415752Y2326247D2*
X4308657D1*
X415752Y2322441D2*
X4308657D1*
X415752Y2318635D2*
X4308657D1*
X415752Y2314829D2*
X4308657D1*
X415752Y2311024D2*
X4308657D1*
X415752Y2307218D2*
X4308657D1*
X415752Y2303412D2*
X4308657D1*
X415752Y2299606D2*
X4308657D1*
X415752Y2295801D2*
X4308657D1*
X415752Y2291995D2*
X4308657D1*
X415752Y2288189D2*
X4308657D1*
X415752Y2284383D2*
X4308657D1*
X415752Y2280577D2*
X4308657D1*
X415752Y2276772D2*
X4308657D1*
X415752Y2272966D2*
X4308657D1*
X415752Y2269160D2*
X4308657D1*
X415752Y2265354D2*
X4308657D1*
X415752Y2261549D2*
X4308657D1*
X415752Y2257743D2*
X4308657D1*
X415752Y2253937D2*
X4308657D1*
X415752Y2250131D2*
X4308657D1*
X415752Y2246325D2*
X4308657D1*
X415752Y2242520D2*
X4308657D1*
X415752Y2238714D2*
X4308657D1*
X415752Y2234908D2*
X4308657D1*
X415752Y2231102D2*
X4308657D1*
X415752Y2227297D2*
X4308657D1*
X415752Y2223491D2*
X4308657D1*
X415752Y2219685D2*
X4308657D1*
X415752Y2215879D2*
X4308657D1*
X415752Y2212073D2*
X4308657D1*
X415752Y2208268D2*
X4308657D1*
X415752Y2204462D2*
X4308657D1*
X415752Y2200656D2*
X4308657D1*
X415752Y2196850D2*
X4308657D1*
X415752Y2193045D2*
X4308657D1*
X415752Y2189239D2*
X4308657D1*
X415752Y2185433D2*
X4308657D1*
X415752Y2181627D2*
X4308657D1*
X415752Y2177822D2*
X4308657D1*
X415752Y2174016D2*
X4308657D1*
X415752Y2170210D2*
X4308657D1*
X415752Y2166404D2*
X4308657D1*
X415752Y2162598D2*
X4308657D1*
X415752Y2158793D2*
X4308657D1*
X415752Y2154987D2*
X4308657D1*
X415752Y2151181D2*
X4308657D1*
X415752Y2147375D2*
X4308657D1*
X415752Y2143570D2*
X4308657D1*
X415752Y2139764D2*
X4308657D1*
X415752Y2135958D2*
X4308657D1*
X415752Y2132152D2*
X4308657D1*
X415752Y2128346D2*
X4308657D1*
X415752Y2124541D2*
X4308657D1*
X415752Y2120735D2*
X4308657D1*
X415752Y2116929D2*
X4308657D1*
X415752Y2113123D2*
X4308657D1*
X415752Y2109318D2*
X4308657D1*
X415752Y2105512D2*
X4308657D1*
X415752Y2101706D2*
X4308657D1*
X415752Y2097900D2*
X4308657D1*
X415752Y2094094D2*
X4308657D1*
X415752Y2090289D2*
X4308657D1*
X415752Y2086483D2*
X4308657D1*
X415752Y2082677D2*
X4308657D1*
X415752Y2078871D2*
X4308657D1*
X415752Y2075066D2*
X4308657D1*
X415752Y2071260D2*
X4308657D1*
X415752Y2067454D2*
X4308657D1*
X415752Y2063648D2*
X4308657D1*
X415752Y2059843D2*
X4308657D1*
X415752Y2056037D2*
X4308657D1*
X415752Y2052231D2*
X4308657D1*
X415752Y2048425D2*
X4308657D1*
X415752Y2044619D2*
X4308657D1*
X415752Y2040814D2*
X4308657D1*
X415752Y2037008D2*
X4308657D1*
X415752Y2033202D2*
X4308657D1*
X415752Y2029396D2*
X4308657D1*
X415752Y2025591D2*
X4308657D1*
X415752Y2021785D2*
X4308657D1*
X415752Y2017979D2*
X4308657D1*
X415752Y2014173D2*
X4308657D1*
X415752Y2010367D2*
X4308657D1*
X415752Y2006562D2*
X4308657D1*
X415752Y2002756D2*
X4308657D1*
X415752Y1998950D2*
X4308657D1*
X415752Y1995144D2*
X4308657D1*
X415752Y1991339D2*
X4308657D1*
X415752Y1987533D2*
X4308657D1*
X415752Y1983727D2*
X4308657D1*
X415752Y1979921D2*
X4308657D1*
X415752Y1976115D2*
X4308657D1*
X415752Y1972310D2*
X4308657D1*
X415752Y1968504D2*
X4308657D1*
X415752Y1964698D2*
X4308657D1*
X415752Y1960892D2*
X4308657D1*
X415752Y1957087D2*
X4308657D1*
X415752Y1953281D2*
X4308657D1*
X415752Y1949475D2*
X4308657D1*
X415752Y1945669D2*
X4308657D1*
X415752Y1941864D2*
X4308657D1*
X415752Y1938058D2*
X4308657D1*
X415752Y1934252D2*
X4308657D1*
X415752Y1930446D2*
X4308657D1*
X415752Y1926640D2*
X4308657D1*
X415752Y1922835D2*
X4308657D1*
X415752Y1919029D2*
X4308657D1*
X415752Y1915223D2*
X4308657D1*
X415752Y1911417D2*
X3027923D1*
X3039206D2*
X4308657D1*
X415752Y1907612D2*
X3018327D1*
X3048795D2*
X4308657D1*
X415752Y1903806D2*
X3013575D1*
X3053547D2*
X4308657D1*
X415752Y1900000D2*
X3010399D1*
X3056731D2*
X4308657D1*
X415752Y1896194D2*
X2798161D1*
X3058945D2*
X4308657D1*
X415752Y1892388D2*
X2793778D1*
X3060437D2*
X4308657D1*
X415752Y1888583D2*
X2789972D1*
X3061322D2*
X3622657D1*
X3641915D2*
X4308657D1*
X415752Y1884777D2*
X2786165D1*
X3061667D2*
X3615467D1*
X3649104D2*
X4308657D1*
X415752Y1880971D2*
X2782360D1*
X3061483D2*
X3611269D1*
X3653295D2*
X4308657D1*
X415752Y1877165D2*
X2778554D1*
X3060768D2*
X3608400D1*
X3656163D2*
X4308657D1*
X415752Y1873360D2*
X2774747D1*
X3658155D2*
X4308657D1*
X415752Y1869554D2*
X2770941D1*
X2811375D2*
X2936841D1*
X3659470D2*
X4308657D1*
X415752Y1865748D2*
X2767134D1*
X2807568D2*
X2933034D1*
X3660199D2*
X4308657D1*
X415752Y1861942D2*
X2763336D1*
X2803762D2*
X2929228D1*
X3660392D2*
X4308657D1*
X415752Y1858136D2*
X2759530D1*
X2799957D2*
X2925423D1*
X3674640D2*
X4308657D1*
X415752Y1854331D2*
X2755723D1*
X2796150D2*
X2921615D1*
X3683383D2*
X4308657D1*
X415752Y1850525D2*
X2751917D1*
X2792344D2*
X2917810D1*
X3687982D2*
X4308657D1*
X415752Y1846719D2*
X2748110D1*
X2788537D2*
X2914004D1*
X2954437D2*
X3609070D1*
X3691073D2*
X4308657D1*
X415752Y1842913D2*
X2744304D1*
X2784731D2*
X2910197D1*
X3693234D2*
X4308657D1*
X415752Y1839108D2*
X2740499D1*
X2780925D2*
X2906391D1*
X3694672D2*
X4308657D1*
X415752Y1835302D2*
X2736692D1*
X2777118D2*
X2902584D1*
X3695525D2*
X4308657D1*
X415752Y1831496D2*
X2732886D1*
X2773320D2*
X2898786D1*
X3695825D2*
X4308657D1*
X415752Y1827690D2*
X2729079D1*
X2769513D2*
X2894979D1*
X3695602D2*
X4308657D1*
X415752Y1823885D2*
X2725273D1*
X2765707D2*
X2891173D1*
X3694841D2*
X4308657D1*
X415752Y1820079D2*
X2721467D1*
X2761902D2*
X2887367D1*
X3693496D2*
X4308657D1*
X415752Y1816273D2*
X2717660D1*
X2758094D2*
X2883560D1*
X2961488D2*
X3643972D1*
X3691466D2*
X4308657D1*
X415752Y1812467D2*
X2713854D1*
X2754289D2*
X2879755D1*
X2957682D2*
X3646894D1*
X3688535D2*
X4308657D1*
X415752Y1808661D2*
X2710101D1*
X2750482D2*
X2875948D1*
X2953877D2*
X3651193D1*
X3684238D2*
X4308657D1*
X415752Y1804856D2*
X2706626D1*
X2783762D2*
X2872142D1*
X2950070D2*
X3658713D1*
X3676717D2*
X4308657D1*
X415752Y1801050D2*
X2702444D1*
X2785661D2*
X2868336D1*
X2946264D2*
X4308657D1*
X415752Y1797244D2*
X2698636D1*
X2785815D2*
X2864529D1*
X2942458D2*
X4308657D1*
X415752Y1793438D2*
X2694831D1*
X2785815D2*
X2860723D1*
X2938651D2*
X4308657D1*
X415752Y1789633D2*
X2691024D1*
X2785815D2*
X2856917D1*
X2934845D2*
X4308657D1*
X415752Y1785827D2*
X2687218D1*
X2785815D2*
X2853110D1*
X2931038D2*
X4308657D1*
X415752Y1782021D2*
X2683412D1*
X2785815D2*
X2849304D1*
X2927240D2*
X4308657D1*
X415752Y1778215D2*
X2679605D1*
X2785815D2*
X2845497D1*
X2923433D2*
X4308657D1*
X415752Y1774409D2*
X2675799D1*
X2785815D2*
X2841699D1*
X2919627D2*
X4308657D1*
X415752Y1770604D2*
X2671992D1*
X2785815D2*
X2837892D1*
X2915822D2*
X4308657D1*
X415752Y1766798D2*
X2668186D1*
X2785815D2*
X2834087D1*
X2912014D2*
X4308657D1*
X415752Y1762992D2*
X2664381D1*
X2785815D2*
X2830281D1*
X2908209D2*
X4308657D1*
X415752Y1759186D2*
X2660573D1*
X2785815D2*
X2826474D1*
X2904402D2*
X4308657D1*
X415752Y1755381D2*
X2656768D1*
X2785815D2*
X2822668D1*
X2900596D2*
X4308657D1*
X415752Y1751575D2*
X2652961D1*
X2785815D2*
X2818861D1*
X2896790D2*
X4308657D1*
X415752Y1747769D2*
X2649163D1*
X2785815D2*
X2815055D1*
X2892983D2*
X4308657D1*
X415752Y1743963D2*
X2645357D1*
X2785815D2*
X2811249D1*
X2889177D2*
X4308657D1*
X415752Y1740157D2*
X2641550D1*
X2785815D2*
X2807442D1*
X2885371D2*
X4308657D1*
X415752Y1736352D2*
X2637744D1*
X2785815D2*
X2803636D1*
X2881564D2*
X4308657D1*
X415752Y1732546D2*
X2633937D1*
X2785815D2*
X2799831D1*
X2877759D2*
X4308657D1*
X415752Y1728740D2*
X2630131D1*
X2785815D2*
X2796024D1*
X2873951D2*
X4308657D1*
X415752Y1724934D2*
X2626325D1*
X2666752D2*
X2668812D1*
X2785815D2*
X2792218D1*
X2870154D2*
X4308657D1*
X415752Y1721129D2*
X2622518D1*
X2662945D2*
X2668810D1*
X2785815D2*
X2788411D1*
X2866346D2*
X4308657D1*
X415752Y1717323D2*
X2618713D1*
X2659147D2*
X2668810D1*
X2862541D2*
X4308657D1*
X415752Y1713517D2*
X2614906D1*
X2655340D2*
X2668810D1*
X2858735D2*
X4308657D1*
X415752Y1709711D2*
X2611100D1*
X2651534D2*
X2668810D1*
X2854928D2*
X4308657D1*
X415752Y1705906D2*
X2607294D1*
X2647728D2*
X2668810D1*
X2851122D2*
X4308657D1*
X415752Y1702100D2*
X2603487D1*
X2643921D2*
X2668810D1*
X2847315D2*
X4308657D1*
X415752Y1698294D2*
X2599681D1*
X2640115D2*
X2668894D1*
X2843509D2*
X4308657D1*
X415752Y1694488D2*
X2595874D1*
X2636308D2*
X2670509D1*
X2839703D2*
X4308657D1*
X415752Y1690682D2*
X2592076D1*
X2632503D2*
X2757969D1*
X2835896D2*
X4308657D1*
X415752Y1686877D2*
X2588270D1*
X2628697D2*
X2754163D1*
X2794597D2*
X2798976D1*
X2832091D2*
X4308657D1*
X415752Y1683071D2*
X2584463D1*
X2624890D2*
X2750356D1*
X2790790D2*
X2798976D1*
X2828285D2*
X4308657D1*
X415752Y1679265D2*
X2580657D1*
X2621084D2*
X2746550D1*
X2786984D2*
X2798976D1*
X2827793D2*
X4308657D1*
X415752Y1675459D2*
X2576850D1*
X2617277D2*
X2743573D1*
X2783177D2*
X2798976D1*
X2827793D2*
X4308657D1*
X415752Y1671654D2*
X2573045D1*
X2613471D2*
X2742182D1*
X2779371D2*
X2798976D1*
X2827793D2*
X4308657D1*
X415752Y1667848D2*
X2569239D1*
X2609665D2*
X2741890D1*
X2775566D2*
X2798976D1*
X2827793D2*
X4308657D1*
X415752Y1664042D2*
X2565432D1*
X2605858D2*
X2741890D1*
X2771759D2*
X2798976D1*
X2827793D2*
X4308657D1*
X415752Y1660236D2*
X2561626D1*
X2602060D2*
X2741890D1*
X2770706D2*
X2798976D1*
X2827793D2*
X4308657D1*
X415752Y1656430D2*
X2557819D1*
X2598253D2*
X2741890D1*
X2770706D2*
X2798976D1*
X2827793D2*
X4308657D1*
X415752Y1652625D2*
X2554013D1*
X2594448D2*
X2741890D1*
X2770706D2*
X2798976D1*
X2827793D2*
X4308657D1*
X415752Y1648819D2*
X2550207D1*
X2590642D2*
X2741890D1*
X2770706D2*
X2798976D1*
X2827793D2*
X4308657D1*
X415752Y1645013D2*
X2546400D1*
X2586835D2*
X2741890D1*
X2770706D2*
X2798976D1*
X2827793D2*
X4308657D1*
X415752Y1641207D2*
X2542594D1*
X2583029D2*
X2741890D1*
X2770706D2*
X2798976D1*
X2827793D2*
X4308657D1*
X415752Y1637402D2*
X2538787D1*
X2579222D2*
X2741890D1*
X2770706D2*
X2798976D1*
X2827793D2*
X4308657D1*
X415752Y1633596D2*
X2534990D1*
X2575416D2*
X2741890D1*
X2770706D2*
X2798976D1*
X2827793D2*
X4308657D1*
X415752Y1629790D2*
X2531184D1*
X2571610D2*
X2741890D1*
X2770706D2*
X2798976D1*
X2827793D2*
X4308657D1*
X415752Y1625984D2*
X2527377D1*
X2567803D2*
X2741890D1*
X2770706D2*
X2798976D1*
X2827793D2*
X4308657D1*
X415752Y1622178D2*
X2523571D1*
X2563997D2*
X2741890D1*
X2770706D2*
X2798976D1*
X2827793D2*
X4308657D1*
X415752Y1618373D2*
X2519764D1*
X2560190D2*
X2741890D1*
X2770706D2*
X2798976D1*
X2827793D2*
X4308657D1*
X415752Y1614567D2*
X2515958D1*
X2556385D2*
X2741890D1*
X2770706D2*
X2798976D1*
X2827793D2*
X4308657D1*
X415752Y1610761D2*
X2512152D1*
X2552579D2*
X2741890D1*
X2770706D2*
X2798976D1*
X2827793D2*
X4308657D1*
X415752Y1606955D2*
X2508345D1*
X2548772D2*
X2741890D1*
X2770706D2*
X2798976D1*
X2827793D2*
X4308657D1*
X415752Y1603150D2*
X2504539D1*
X2544974D2*
X2741890D1*
X2770706D2*
X2798976D1*
X2827793D2*
X4308657D1*
X415752Y1599344D2*
X2500732D1*
X2541167D2*
X2741890D1*
X2770706D2*
X2798976D1*
X2827793D2*
X4308657D1*
X415752Y1595538D2*
X2496927D1*
X2537361D2*
X2741890D1*
X2770706D2*
X2798976D1*
X2827793D2*
X4308657D1*
X415752Y1591732D2*
X2493121D1*
X2533555D2*
X2741890D1*
X2770706D2*
X2798976D1*
X2827793D2*
X4308657D1*
X415752Y1587927D2*
X2489906D1*
X2529748D2*
X2741890D1*
X2770706D2*
X2798976D1*
X2827793D2*
X4308657D1*
X415752Y1584121D2*
X2488322D1*
X2525942D2*
X2741890D1*
X2770706D2*
X2798976D1*
X2827793D2*
X4308657D1*
X415752Y1580315D2*
X2487899D1*
X2522135D2*
X2741890D1*
X2770706D2*
X2798976D1*
X2827793D2*
X4308657D1*
X415752Y1576509D2*
X2487899D1*
X2518329D2*
X2741890D1*
X2770706D2*
X2798976D1*
X2827793D2*
X4308657D1*
X415752Y1572703D2*
X2487899D1*
X2516722D2*
X2741890D1*
X2770706D2*
X2798976D1*
X2827793D2*
X4308657D1*
X415752Y1568898D2*
X2487899D1*
X2516722D2*
X2741890D1*
X2770706D2*
X2798976D1*
X2827793D2*
X4308657D1*
X415752Y1565092D2*
X2487899D1*
X2516722D2*
X2741890D1*
X2770706D2*
X2798976D1*
X2827793D2*
X4308657D1*
X415752Y1561286D2*
X2487899D1*
X2516722D2*
X2741890D1*
X2770706D2*
X2798976D1*
X2827793D2*
X4308657D1*
X415752Y1557480D2*
X2487899D1*
X2516722D2*
X2741890D1*
X2770706D2*
X2798976D1*
X2827793D2*
X4308657D1*
X415752Y1553675D2*
X2487899D1*
X2516722D2*
X2741890D1*
X2770706D2*
X2798976D1*
X2827793D2*
X4308657D1*
X415752Y1549869D2*
X2487899D1*
X2516722D2*
X2741890D1*
X2770706D2*
X2798976D1*
X2827793D2*
X4308657D1*
X415752Y1546063D2*
X2487899D1*
X2516722D2*
X2741890D1*
X2770706D2*
X2798976D1*
X2827793D2*
X4308657D1*
X415752Y1542257D2*
X2487899D1*
X2516722D2*
X2741890D1*
X2770706D2*
X2798976D1*
X2827793D2*
X2851819D1*
X2930070D2*
X4308657D1*
X415752Y1538451D2*
X2487899D1*
X2516722D2*
X2741890D1*
X2770706D2*
X2798976D1*
X2827793D2*
X2847759D1*
X2933815D2*
X4308657D1*
X415752Y1534646D2*
X2487899D1*
X2516722D2*
X2741890D1*
X2770706D2*
X2798976D1*
X2827793D2*
X2843953D1*
X2935929D2*
X4308657D1*
X415752Y1530840D2*
X2487899D1*
X2516722D2*
X2741890D1*
X2770706D2*
X2798976D1*
X2827793D2*
X2840146D1*
X2937005D2*
X4308657D1*
X415752Y1527034D2*
X2487899D1*
X2516722D2*
X2741890D1*
X2770706D2*
X2798976D1*
X2827793D2*
X2836340D1*
X2937220D2*
X4308657D1*
X415752Y1523228D2*
X2487899D1*
X2516722D2*
X2741890D1*
X2770706D2*
X2798976D1*
X2827793D2*
X2833349D1*
X2936621D2*
X4308657D1*
X415752Y1519423D2*
X2487899D1*
X2516722D2*
X2741890D1*
X2770706D2*
X2798976D1*
X2827793D2*
X2831664D1*
X2935114D2*
X4308657D1*
X415752Y1515617D2*
X2487899D1*
X2516722D2*
X2741890D1*
X2770706D2*
X2798976D1*
X2827793D2*
X2830927D1*
X2932385D2*
X4308657D1*
X415752Y1511811D2*
X2487899D1*
X2516722D2*
X2741890D1*
X2770706D2*
X2798976D1*
X2827793D2*
X2830865D1*
X2907563D2*
X2910543D1*
X2927248D2*
X4308657D1*
X415752Y1508005D2*
X2487899D1*
X2516722D2*
X2741890D1*
X2770706D2*
X2798976D1*
X2827793D2*
X2830865D1*
X2868877D2*
X4308657D1*
X415752Y1504199D2*
X2487899D1*
X2516722D2*
X2741890D1*
X2770706D2*
X2798976D1*
X2827793D2*
X2830865D1*
X2867562D2*
X4308657D1*
X415752Y1500394D2*
X2487899D1*
X2516722D2*
X2741890D1*
X2770706D2*
X2798976D1*
X2827793D2*
X2830865D1*
X2867562D2*
X4308657D1*
X415752Y1496588D2*
X2487899D1*
X2516722D2*
X2741890D1*
X2770706D2*
X2798976D1*
X2827793D2*
X2830865D1*
X2867562D2*
X4308657D1*
X415752Y1492782D2*
X2487899D1*
X2516722D2*
X2741890D1*
X2770706D2*
X2798976D1*
X2827793D2*
X2830865D1*
X2867562D2*
X4308657D1*
X415752Y1488976D2*
X2487899D1*
X2516722D2*
X2741890D1*
X2770706D2*
X2798976D1*
X2827793D2*
X2830865D1*
X2867562D2*
X4308657D1*
X415752Y1485171D2*
X2487899D1*
X2516722D2*
X2741890D1*
X2770706D2*
X2798976D1*
X2827793D2*
X2830865D1*
X2867562D2*
X4308657D1*
X415752Y1481365D2*
X2487899D1*
X2516722D2*
X2741890D1*
X2770706D2*
X2798976D1*
X2827793D2*
X2830865D1*
X2867562D2*
X4308657D1*
X415752Y1477559D2*
X2487899D1*
X2516722D2*
X2741890D1*
X2770706D2*
X2798976D1*
X2827793D2*
X2830865D1*
X2867562D2*
X2973797D1*
X2979744D2*
X4308657D1*
X415752Y1473753D2*
X2487899D1*
X2516722D2*
X2741890D1*
X2770706D2*
X2798976D1*
X2827793D2*
X2830865D1*
X2867562D2*
X2965092D1*
X2988455D2*
X4308657D1*
X415752Y1469948D2*
X2487899D1*
X2516722D2*
X2741890D1*
X2770706D2*
X2798976D1*
X2827793D2*
X2830865D1*
X2867562D2*
X2961571D1*
X2991970D2*
X4308657D1*
X415752Y1466142D2*
X2487899D1*
X2516722D2*
X2741890D1*
X2770706D2*
X2798976D1*
X2827793D2*
X2830865D1*
X2867562D2*
X2959587D1*
X2993962D2*
X4308657D1*
X415752Y1462336D2*
X2487899D1*
X2516722D2*
X2741890D1*
X2770706D2*
X2798976D1*
X2827793D2*
X2830865D1*
X2867562D2*
X2958610D1*
X2994938D2*
X4308657D1*
X415752Y1458530D2*
X2487899D1*
X2516722D2*
X2741890D1*
X2770706D2*
X2798976D1*
X2827793D2*
X2830865D1*
X2867562D2*
X2898539D1*
X2995076D2*
X4308657D1*
X415752Y1454724D2*
X2487899D1*
X2516722D2*
X2741890D1*
X2770706D2*
X2798976D1*
X2827793D2*
X2830865D1*
X2867562D2*
X2891635D1*
X2994385D2*
X4308657D1*
X415752Y1450919D2*
X2487899D1*
X2516722D2*
X2741890D1*
X2770706D2*
X2798976D1*
X2827793D2*
X2830865D1*
X2867562D2*
X2887782D1*
X2992769D2*
X4308657D1*
X415752Y1447113D2*
X2487899D1*
X2516722D2*
X2741890D1*
X2770706D2*
X2798976D1*
X2827793D2*
X2830865D1*
X2867562D2*
X2883976D1*
X2994146D2*
X4308657D1*
X415752Y1443307D2*
X2487899D1*
X2516722D2*
X2741890D1*
X2770706D2*
X2798976D1*
X2827793D2*
X2830865D1*
X2867562D2*
X2880169D1*
X2995008D2*
X4308657D1*
X415752Y1439501D2*
X2487899D1*
X2516722D2*
X2741890D1*
X2770706D2*
X2798976D1*
X2827793D2*
X2830865D1*
X2867562D2*
X2876364D1*
X2995030D2*
X4308657D1*
X415752Y1435696D2*
X2487899D1*
X2516722D2*
X2741890D1*
X2770706D2*
X2798976D1*
X2827793D2*
X2830865D1*
X2867562D2*
X2872564D1*
X2994223D2*
X4308657D1*
X415752Y1431890D2*
X2487899D1*
X2516722D2*
X2739176D1*
X2773428D2*
X2798976D1*
X2827793D2*
X2830865D1*
X2867562D2*
X2868759D1*
X2992462D2*
X4308657D1*
X415752Y1428084D2*
X2487899D1*
X2516722D2*
X2735085D1*
X2777518D2*
X2795717D1*
X2989324D2*
X4308657D1*
X415752Y1424278D2*
X2487899D1*
X2516722D2*
X2732278D1*
X2780325D2*
X2791909D1*
X2982904D2*
X4308657D1*
X415752Y1420472D2*
X2487899D1*
X2516722D2*
X2730332D1*
X2782270D2*
X2788104D1*
X2908900D2*
X4308657D1*
X415752Y1416667D2*
X2487899D1*
X2516722D2*
X2729056D1*
X2905094D2*
X4308657D1*
X415752Y1412861D2*
X2487899D1*
X2516722D2*
X2728357D1*
X2901295D2*
X4308657D1*
X415752Y1409055D2*
X2487899D1*
X2516722D2*
X2728196D1*
X2897490D2*
X4308657D1*
X415752Y1405249D2*
X2487899D1*
X2516722D2*
X2728564D1*
X2893684D2*
X4308657D1*
X415752Y1401444D2*
X2487899D1*
X2516722D2*
X2729479D1*
X2889877D2*
X4308657D1*
X415752Y1397638D2*
X2487899D1*
X2516722D2*
X2730993D1*
X2886071D2*
X4308657D1*
X415752Y1393832D2*
X2487899D1*
X2516722D2*
X2733247D1*
X2882264D2*
X4308657D1*
X415752Y1390026D2*
X2487899D1*
X2516722D2*
X2736476D1*
X2878458D2*
X4308657D1*
X415752Y1386220D2*
X2487899D1*
X2516722D2*
X2741328D1*
X2874652D2*
X4308657D1*
X415752Y1382415D2*
X1927636D1*
X2714333D2*
X2746157D1*
X2870845D2*
X4308657D1*
X415752Y1378609D2*
X1923570D1*
X2720293D2*
X2746957D1*
X2867039D2*
X4308657D1*
X415752Y1374803D2*
X1922699D1*
X2721486D2*
X2737076D1*
X3346062D2*
X4308657D1*
X415752Y1370997D2*
X1922699D1*
X2721493D2*
X2734424D1*
X3347807D2*
X4308657D1*
X415752Y1367192D2*
X1922699D1*
X2721493D2*
X2734016D1*
X3347923D2*
X4308657D1*
X415752Y1363386D2*
X1922699D1*
X2721493D2*
X2734016D1*
X3347923D2*
X4308657D1*
X415752Y1359580D2*
X1922699D1*
X2721493D2*
X2734016D1*
X3347923D2*
X4308657D1*
X415752Y1355774D2*
X1922699D1*
X2721493D2*
X2734016D1*
X3347923D2*
X4308657D1*
X415752Y1351969D2*
X1922699D1*
X2721493D2*
X2734016D1*
X3347923D2*
X4308657D1*
X415752Y1348163D2*
X1922699D1*
X2721493D2*
X2734016D1*
X3347923D2*
X4308657D1*
X415752Y1344357D2*
X1922699D1*
X2721493D2*
X2734016D1*
X3347923D2*
X4308657D1*
X415752Y1340551D2*
X1922699D1*
X2721493D2*
X2734016D1*
X3347923D2*
X4308657D1*
X415752Y1336745D2*
X1922699D1*
X2721493D2*
X2734016D1*
X3347923D2*
X4308657D1*
X415752Y1332940D2*
X1922699D1*
X2721493D2*
X2734016D1*
X3347923D2*
X4308657D1*
X415752Y1329134D2*
X1922699D1*
X2721493D2*
X2734016D1*
X3347923D2*
X4308657D1*
X415752Y1325328D2*
X1922699D1*
X2721493D2*
X2734016D1*
X3347923D2*
X4308657D1*
X415752Y1321522D2*
X1922699D1*
X2721493D2*
X2734016D1*
X3347923D2*
X4308657D1*
X415752Y1317717D2*
X1922699D1*
X2721493D2*
X2734016D1*
X3347923D2*
X4308657D1*
X415752Y1313911D2*
X1922699D1*
X2721493D2*
X2734016D1*
X3347923D2*
X4308657D1*
X415752Y1310105D2*
X1922699D1*
X2721493D2*
X2734016D1*
X3347923D2*
X4308657D1*
X415752Y1306299D2*
X1922699D1*
X2721493D2*
X2734016D1*
X3347923D2*
X4308657D1*
X415752Y1302493D2*
X1922699D1*
X2721493D2*
X2734016D1*
X3347923D2*
X4308657D1*
X415752Y1298688D2*
X1922699D1*
X2721493D2*
X2734016D1*
X3347923D2*
X4308657D1*
X415752Y1294882D2*
X1922699D1*
X2721493D2*
X2734016D1*
X3347923D2*
X4308657D1*
X415752Y1291076D2*
X1922699D1*
X2721493D2*
X2734016D1*
X3347923D2*
X4308657D1*
X415752Y1287270D2*
X1922699D1*
X2721493D2*
X2734016D1*
X3347923D2*
X4308657D1*
X415752Y1283465D2*
X1922699D1*
X2721493D2*
X2734016D1*
X3347923D2*
X4308657D1*
X415752Y1279659D2*
X1922699D1*
X2721493D2*
X2734016D1*
X3347923D2*
X4308657D1*
X415752Y1275853D2*
X1922699D1*
X2721493D2*
X2734016D1*
X3347923D2*
X4308657D1*
X415752Y1272047D2*
X1922699D1*
X2721493D2*
X2734016D1*
X3347923D2*
X4308657D1*
X415752Y1268241D2*
X1922699D1*
X2721493D2*
X2734016D1*
X3347923D2*
X4308657D1*
X415752Y1264436D2*
X1922699D1*
X2721493D2*
X2734016D1*
X3347923D2*
X4308657D1*
X415752Y1260630D2*
X1922699D1*
X2721493D2*
X2734016D1*
X3347923D2*
X4308657D1*
X415752Y1256824D2*
X1922699D1*
X2721493D2*
X2734016D1*
X3347923D2*
X4308657D1*
X415752Y1253018D2*
X1922699D1*
X2721493D2*
X2734016D1*
X3347923D2*
X4308657D1*
X415752Y1249213D2*
X1922699D1*
X2721493D2*
X2734016D1*
X3347923D2*
X4308657D1*
X415752Y1245407D2*
X1922699D1*
X2721493D2*
X2734016D1*
X3347923D2*
X4308657D1*
X415752Y1241601D2*
X1922699D1*
X2721493D2*
X2734016D1*
X3347923D2*
X4308657D1*
X415752Y1237795D2*
X1922699D1*
X2721493D2*
X2734016D1*
X3347923D2*
X4308657D1*
X415752Y1233990D2*
X1922699D1*
X2721493D2*
X2733831D1*
X3347923D2*
X4308657D1*
X415752Y1230184D2*
X1922699D1*
X2721493D2*
X2730810D1*
X3347923D2*
X4308657D1*
X415752Y1226378D2*
X1922699D1*
X2721493D2*
X2728702D1*
X3347923D2*
X4308657D1*
X415752Y1222572D2*
X1922699D1*
X2721493D2*
X2727303D1*
X3347923D2*
X4308657D1*
X415752Y1218766D2*
X1922699D1*
X2721493D2*
X2726488D1*
X3347923D2*
X4308657D1*
X415752Y1214961D2*
X1922699D1*
X2721493D2*
X2726219D1*
X3347923D2*
X4308657D1*
X415752Y1211155D2*
X1922699D1*
X2721493D2*
X2726472D1*
X3347923D2*
X4308657D1*
X415752Y1207349D2*
X1922699D1*
X2721493D2*
X2727272D1*
X3347923D2*
X4308657D1*
X415752Y1203543D2*
X1922699D1*
X2721493D2*
X2728656D1*
X3347923D2*
X4308657D1*
X415752Y1199738D2*
X1922699D1*
X2721493D2*
X2730740D1*
X3347923D2*
X4308657D1*
X415752Y1195932D2*
X1922699D1*
X2721493D2*
X2733739D1*
X3347923D2*
X4308657D1*
X415752Y1192126D2*
X1922699D1*
X2721493D2*
X2734016D1*
X3347923D2*
X4308657D1*
X415752Y1188320D2*
X1922699D1*
X2721493D2*
X2734016D1*
X3347923D2*
X4308657D1*
X415752Y1184514D2*
X1922699D1*
X2721493D2*
X2734016D1*
X3347923D2*
X4308657D1*
X415752Y1180709D2*
X1922699D1*
X2721493D2*
X2734478D1*
X3347923D2*
X4308657D1*
X415752Y1176903D2*
X1922699D1*
X2721493D2*
X2737291D1*
X3347923D2*
X4308657D1*
X415752Y1173097D2*
X1922699D1*
X2721493D2*
X2785197D1*
X3347923D2*
X4308657D1*
X415752Y1169291D2*
X1922699D1*
X2721493D2*
X2785197D1*
X3347923D2*
X4308657D1*
X415752Y1165486D2*
X1922699D1*
X2721493D2*
X2785197D1*
X3347923D2*
X4308657D1*
X415752Y1161680D2*
X626840D1*
X645598D2*
X1922699D1*
X2721493D2*
X2785197D1*
X3347923D2*
X4308657D1*
X415752Y1157874D2*
X618135D1*
X654302D2*
X1922699D1*
X2721493D2*
X2785197D1*
X3347923D2*
X4308657D1*
X415752Y1154068D2*
X613114D1*
X659331D2*
X1922699D1*
X2721493D2*
X2785197D1*
X3347923D2*
X4308657D1*
X415752Y1150262D2*
X609554D1*
X662883D2*
X1922699D1*
X2721493D2*
X2785274D1*
X3347923D2*
X4308657D1*
X415752Y1146457D2*
X606924D1*
X665521D2*
X1922699D1*
X2721493D2*
X2786051D1*
X3347923D2*
X4308657D1*
X415752Y1142651D2*
X604979D1*
X667467D2*
X1922699D1*
X2721493D2*
X2787773D1*
X3347923D2*
X4308657D1*
X415752Y1138845D2*
X603594D1*
X668850D2*
X1922699D1*
X2721493D2*
X2790833D1*
X3347923D2*
X4308657D1*
X415752Y1135039D2*
X602703D1*
X669743D2*
X1922699D1*
X2721493D2*
X2794639D1*
X3347923D2*
X4308657D1*
X415752Y1131234D2*
X602265D1*
X670181D2*
X1922699D1*
X2721493D2*
X2798446D1*
X3347923D2*
X4308657D1*
X415752Y1127428D2*
X602257D1*
X670189D2*
X1922699D1*
X2721493D2*
X2800407D1*
X3347923D2*
X4308657D1*
X415752Y1123622D2*
X602688D1*
X669759D2*
X1922699D1*
X2721493D2*
X2800323D1*
X3347923D2*
X4308657D1*
X415752Y1119816D2*
X603564D1*
X668874D2*
X1922699D1*
X2721493D2*
X2800238D1*
X3347923D2*
X4308657D1*
X415752Y1116010D2*
X604933D1*
X667505D2*
X1922699D1*
X2721493D2*
X2800146D1*
X3347923D2*
X4308657D1*
X415752Y1112205D2*
X606862D1*
X665575D2*
X1922699D1*
X2721493D2*
X2800060D1*
X3347923D2*
X4308657D1*
X415752Y1108399D2*
X609478D1*
X662969D2*
X1922699D1*
X2721493D2*
X2799976D1*
X3347923D2*
X4308657D1*
X415752Y1104593D2*
X612999D1*
X659438D2*
X1922699D1*
X2721493D2*
X2799891D1*
X3347923D2*
X4308657D1*
X415752Y1100787D2*
X617982D1*
X654463D2*
X1922699D1*
X2721493D2*
X2799799D1*
X3347923D2*
X4308657D1*
X415752Y1096982D2*
X626487D1*
X645951D2*
X1922699D1*
X2721493D2*
X2799715D1*
X3347923D2*
X4308657D1*
X415752Y1093176D2*
X1922699D1*
X2721493D2*
X2799799D1*
X3347793D2*
X4308657D1*
X415752Y1089370D2*
X1922699D1*
X2721493D2*
X2801606D1*
X3345986D2*
X4308657D1*
X415752Y1085564D2*
X1922699D1*
X2721493D2*
X2844114D1*
X3103383D2*
X4308657D1*
X415752Y1081759D2*
X1922699D1*
X2721493D2*
X2848466D1*
X3103383D2*
X4308657D1*
X415752Y1077953D2*
X1922699D1*
X2721493D2*
X2921024D1*
X3103383D2*
X4308657D1*
X415752Y1074147D2*
X1922699D1*
X2721493D2*
X2921024D1*
X2957714D2*
X3066693D1*
X3103383D2*
X4308657D1*
X415752Y1070341D2*
X1922699D1*
X2721493D2*
X2921024D1*
X2957714D2*
X3066693D1*
X3103383D2*
X4308657D1*
X415752Y1066535D2*
X1922699D1*
X2721493D2*
X2921024D1*
X2957714D2*
X3066693D1*
X3103383D2*
X4308657D1*
X415752Y1062730D2*
X1922699D1*
X2721493D2*
X2921024D1*
X2957714D2*
X3066693D1*
X3103383D2*
X4308657D1*
X415752Y1058924D2*
X1922699D1*
X2721493D2*
X2921024D1*
X2957714D2*
X3066693D1*
X3103383D2*
X4308657D1*
X415752Y1055118D2*
X889175D1*
X899012D2*
X1922699D1*
X2721493D2*
X2921024D1*
X2957714D2*
X3066693D1*
X3103383D2*
X4308657D1*
X415752Y1051312D2*
X881946D1*
X906248D2*
X1922699D1*
X2721493D2*
X2921024D1*
X2957714D2*
X3066693D1*
X3103383D2*
X4308657D1*
X415752Y1047507D2*
X878631D1*
X909554D2*
X1922699D1*
X2721493D2*
X2921024D1*
X2957714D2*
X3066693D1*
X3103383D2*
X4308657D1*
X415752Y1043701D2*
X876764D1*
X911423D2*
X1922699D1*
X2721493D2*
X2921024D1*
X2957714D2*
X3066693D1*
X3103383D2*
X4308657D1*
X415752Y1039895D2*
X875879D1*
X912315D2*
X1922699D1*
X2721493D2*
X2921024D1*
X2957714D2*
X3066693D1*
X3103383D2*
X4308657D1*
X415752Y1036089D2*
X875825D1*
X912361D2*
X1922699D1*
X2721493D2*
X2921024D1*
X2957714D2*
X3066693D1*
X3103383D2*
X4308657D1*
X415752Y1032283D2*
X876602D1*
X911592D2*
X1922699D1*
X2721493D2*
X2921024D1*
X2957714D2*
X3066693D1*
X3103383D2*
X4308657D1*
X415752Y1028478D2*
X878324D1*
X909862D2*
X1922699D1*
X2721493D2*
X2921024D1*
X2957714D2*
X3066693D1*
X3103383D2*
X4308657D1*
X415752Y1024672D2*
X770895D1*
X792890D2*
X881400D1*
X906794D2*
X1922699D1*
X2721493D2*
X2921024D1*
X2957714D2*
X3066693D1*
X3103383D2*
X4308657D1*
X415752Y1020866D2*
X767066D1*
X796711D2*
X881654D1*
X906533D2*
X1922699D1*
X2721493D2*
X2921024D1*
X2957714D2*
X3066693D1*
X3103383D2*
X4308657D1*
X415752Y1017060D2*
X764912D1*
X798865D2*
X881654D1*
X906533D2*
X981640D1*
X995522D2*
X1922699D1*
X2721493D2*
X2921055D1*
X2957690D2*
X3066724D1*
X3103360D2*
X4308657D1*
X415752Y1013255D2*
X763804D1*
X799971D2*
X881654D1*
X906533D2*
X975711D1*
X1001451D2*
X1922699D1*
X2721493D2*
X2921677D1*
X2957059D2*
X3067346D1*
X3102728D2*
X4308657D1*
X415752Y1009449D2*
X763559D1*
X800218D2*
X881654D1*
X906533D2*
X972720D1*
X1099230D2*
X1922699D1*
X2721493D2*
X2923223D1*
X2955514D2*
X3068892D1*
X3101184D2*
X4308657D1*
X415752Y1005643D2*
X764127D1*
X799648D2*
X881654D1*
X906533D2*
X971035D1*
X1103075D2*
X1922699D1*
X2721493D2*
X2926007D1*
X2952731D2*
X3071684D1*
X3098400D2*
X4308657D1*
X415752Y1001837D2*
X765604D1*
X798180D2*
X881654D1*
X906533D2*
X970298D1*
X1106882D2*
X1922699D1*
X2721493D2*
X2931289D1*
X2947455D2*
X3076958D1*
X3093125D2*
X4308657D1*
X415752Y998031D2*
X768280D1*
X795496D2*
X881654D1*
X906533D2*
X970382D1*
X1110688D2*
X1922699D1*
X2721493D2*
X4308657D1*
X415752Y994226D2*
X769449D1*
X797564D2*
X881654D1*
X906533D2*
X971312D1*
X1114493D2*
X1922699D1*
X2721493D2*
X4308657D1*
X415752Y990420D2*
X769626D1*
X801371D2*
X881654D1*
X906533D2*
X973227D1*
X1118301D2*
X1922699D1*
X2721493D2*
X4308657D1*
X415752Y986614D2*
X770963D1*
X805177D2*
X881654D1*
X906533D2*
X976618D1*
X1000543D2*
X1087247D1*
X1122106D2*
X1922699D1*
X2721493D2*
X4308657D1*
X415752Y982808D2*
X774117D1*
X808984D2*
X881654D1*
X906533D2*
X984339D1*
X992823D2*
X1091046D1*
X1125913D2*
X1922699D1*
X2721493D2*
X4308657D1*
X415752Y979003D2*
X639613D1*
X656448D2*
X777923D1*
X812790D2*
X881654D1*
X906533D2*
X1094852D1*
X1129719D2*
X1922699D1*
X2721493D2*
X4308657D1*
X415752Y975197D2*
X634522D1*
X661546D2*
X781730D1*
X816596D2*
X881654D1*
X906533D2*
X1098659D1*
X1133525D2*
X1922699D1*
X2721493D2*
X4308657D1*
X415752Y971391D2*
X631799D1*
X741663D2*
X785535D1*
X820403D2*
X881654D1*
X906533D2*
X1041602D1*
X1069427D2*
X1102465D1*
X1137332D2*
X1922699D1*
X2721493D2*
X4308657D1*
X415752Y967585D2*
X630293D1*
X745469D2*
X789341D1*
X824209D2*
X881654D1*
X908854D2*
X1036343D1*
X1074677D2*
X1106270D1*
X1141138D2*
X1922777D1*
X2721493D2*
X4308657D1*
X415752Y963780D2*
X629709D1*
X749274D2*
X793148D1*
X828014D2*
X881707D1*
X912654D2*
X1032913D1*
X1078115D2*
X1110077D1*
X1144937D2*
X1924361D1*
X2720878D2*
X4308657D1*
X415752Y959974D2*
X629932D1*
X753073D2*
X796954D1*
X831814D2*
X882715D1*
X916459D2*
X1030522D1*
X1080499D2*
X1113883D1*
X1148743D2*
X2195476D1*
X2717640D2*
X4308657D1*
X415752Y956168D2*
X631016D1*
X756879D2*
X800760D1*
X835619D2*
X885406D1*
X1082129D2*
X1117689D1*
X1152549D2*
X4308657D1*
X415752Y952362D2*
X633130D1*
X760686D2*
X804567D1*
X839427D2*
X889213D1*
X1083136D2*
X1121496D1*
X1156356D2*
X4308657D1*
X415752Y948556D2*
X636898D1*
X659161D2*
X729633D1*
X764492D2*
X808373D1*
X843232D2*
X893018D1*
X1083591D2*
X1125302D1*
X1160161D2*
X4308657D1*
X415752Y944751D2*
X733440D1*
X768299D2*
X812180D1*
X847039D2*
X896825D1*
X1083513D2*
X1129109D1*
X1163969D2*
X4308657D1*
X415752Y940945D2*
X737245D1*
X772105D2*
X815986D1*
X850845D2*
X900631D1*
X1082906D2*
X1132915D1*
X1167774D2*
X4308657D1*
X415752Y937139D2*
X741051D1*
X775911D2*
X819791D1*
X862148D2*
X904783D1*
X1081736D2*
X1136720D1*
X1171580D2*
X4308657D1*
X415752Y933333D2*
X744858D1*
X779718D2*
X823598D1*
X866739D2*
X1031114D1*
X1079907D2*
X1140528D1*
X1175387D2*
X4308657D1*
X415752Y929528D2*
X748664D1*
X783524D2*
X827404D1*
X869261D2*
X1033759D1*
X1077261D2*
X1144333D1*
X1179193D2*
X4308657D1*
X415752Y925722D2*
X752463D1*
X787331D2*
X831203D1*
X870622D2*
X1037596D1*
X1073432D2*
X1148133D1*
X1183000D2*
X4308657D1*
X415752Y921916D2*
X756269D1*
X791136D2*
X834409D1*
X871100D2*
X1043748D1*
X1067273D2*
X1151938D1*
X1186806D2*
X4308657D1*
X415752Y918110D2*
X760076D1*
X794942D2*
X834756D1*
X870761D2*
X1155745D1*
X1190612D2*
X4308657D1*
X415752Y914304D2*
X763882D1*
X798749D2*
X835963D1*
X869554D2*
X1159551D1*
X1194419D2*
X4308657D1*
X415752Y910499D2*
X767688D1*
X802555D2*
X838255D1*
X867255D2*
X1163357D1*
X1198224D2*
X4308657D1*
X415752Y906693D2*
X771495D1*
X806361D2*
X842361D1*
X863148D2*
X1167164D1*
X1202024D2*
X4308657D1*
X415752Y902887D2*
X775301D1*
X810160D2*
X1170970D1*
X1205829D2*
X4308657D1*
X415752Y899081D2*
X779106D1*
X813966D2*
X1174776D1*
X1209635D2*
X4308657D1*
X415752Y895276D2*
X782913D1*
X817773D2*
X1178583D1*
X1213442D2*
X4308657D1*
X415752Y891470D2*
X786719D1*
X821579D2*
X1182388D1*
X1217248D2*
X4308657D1*
X415752Y887664D2*
X790526D1*
X825386D2*
X1186196D1*
X1221055D2*
X4308657D1*
X415752Y883858D2*
X794332D1*
X829192D2*
X1190001D1*
X1224861D2*
X4308657D1*
X415752Y880052D2*
X798138D1*
X832997D2*
X852311D1*
X861072D2*
X1193807D1*
X1228667D2*
X4308657D1*
X415752Y876247D2*
X621526D1*
X650911D2*
X801945D1*
X836804D2*
X844698D1*
X868693D2*
X1197614D1*
X1232474D2*
X4308657D1*
X415752Y872441D2*
X615298D1*
X657147D2*
X805751D1*
X872068D2*
X1201420D1*
X1236280D2*
X4308657D1*
X415752Y868635D2*
X611130D1*
X661307D2*
X809550D1*
X873975D2*
X1205219D1*
X1240087D2*
X4308657D1*
X415752Y864829D2*
X608093D1*
X664345D2*
X813356D1*
X874898D2*
X1209025D1*
X1243892D2*
X4308657D1*
X415752Y861024D2*
X605840D1*
X666597D2*
X817163D1*
X874975D2*
X1212832D1*
X1247698D2*
X4308657D1*
X415752Y857218D2*
X604194D1*
X668243D2*
X820969D1*
X874228D2*
X1216638D1*
X1251505D2*
X4308657D1*
X415752Y853412D2*
X603072D1*
X669366D2*
X824820D1*
X872537D2*
X1220444D1*
X1255311D2*
X4308657D1*
X415752Y849606D2*
X602419D1*
X670020D2*
X843860D1*
X869530D2*
X1224251D1*
X1259110D2*
X4308657D1*
X415752Y845801D2*
X602203D1*
X670235D2*
X849835D1*
X863555D2*
X1228056D1*
X1262916D2*
X4308657D1*
X415752Y841995D2*
X602427D1*
X670020D2*
X1231862D1*
X1266722D2*
X4308657D1*
X415752Y838189D2*
X603080D1*
X669358D2*
X1235669D1*
X1270529D2*
X4308657D1*
X415752Y834383D2*
X604210D1*
X668236D2*
X1239475D1*
X1274335D2*
X4308657D1*
X415752Y830577D2*
X605856D1*
X666583D2*
X1243282D1*
X1278142D2*
X4308657D1*
X415752Y826772D2*
X608117D1*
X664322D2*
X1247088D1*
X1281948D2*
X4308657D1*
X415752Y822966D2*
X611161D1*
X661277D2*
X1250894D1*
X1285753D2*
X4308657D1*
X415752Y819160D2*
X615337D1*
X657109D2*
X1254701D1*
X1289560D2*
X4308657D1*
X415752Y815354D2*
X621596D1*
X650843D2*
X1258507D1*
X1293366D2*
X4308657D1*
X415752Y811549D2*
X1262306D1*
X1297173D2*
X4308657D1*
X415752Y807743D2*
X1266112D1*
X1300979D2*
X4308657D1*
X415752Y803937D2*
X1269919D1*
X1304785D2*
X4308657D1*
X415752Y800131D2*
X1273724D1*
X1308592D2*
X1374417D1*
X1390154D2*
X4308657D1*
X415752Y796325D2*
X1277530D1*
X1312398D2*
X1369020D1*
X1395543D2*
X4308657D1*
X415752Y792520D2*
X1281337D1*
X1398374D2*
X4308657D1*
X415752Y788714D2*
X1285143D1*
X1399950D2*
X4308657D1*
X415752Y784908D2*
X1288949D1*
X1400596D2*
X4308657D1*
X415752Y781102D2*
X1292756D1*
X1400427D2*
X4308657D1*
X415752Y777297D2*
X1296562D1*
X1399404D2*
X4308657D1*
X415752Y773491D2*
X1300869D1*
X1397366D2*
X4308657D1*
X415752Y769685D2*
X1370804D1*
X1393760D2*
X4308657D1*
X415752Y765879D2*
X1380970D1*
X1383594D2*
X4308657D1*
X415752Y762073D2*
X4308657D1*
X415752Y758268D2*
X4308657D1*
X415752Y754462D2*
X4308657D1*
X415752Y750656D2*
X4308657D1*
X415752Y746850D2*
X4308657D1*
X415752Y743045D2*
X4308657D1*
X415752Y739239D2*
X4308657D1*
X415752Y735433D2*
X4308657D1*
X415752Y731627D2*
X4308657D1*
X415752Y727822D2*
X4308657D1*
X415752Y724016D2*
X4308657D1*
X415752Y720210D2*
X4308657D1*
X415752Y716404D2*
X4308657D1*
X415752Y712598D2*
X4308657D1*
X415752Y708793D2*
X4308657D1*
X415752Y704987D2*
X4308657D1*
X415752Y701181D2*
X4308657D1*
X415752Y697375D2*
X4308657D1*
X415752Y693570D2*
X4308657D1*
X415752Y689764D2*
X4308657D1*
X415752Y685958D2*
X4308657D1*
X415752Y682152D2*
X4308657D1*
X415752Y678346D2*
X4308657D1*
X415752Y674541D2*
X4308657D1*
X415752Y670735D2*
X4308657D1*
X415752Y666929D2*
X4308657D1*
X415752Y663123D2*
X4308657D1*
X415752Y659318D2*
X4308657D1*
X415752Y655512D2*
X4308657D1*
X415752Y651706D2*
X4308657D1*
X415752Y647900D2*
X4308657D1*
X415752Y644094D2*
X4308657D1*
X415752Y640289D2*
X4308657D1*
X415752Y636483D2*
X4308657D1*
X415752Y632677D2*
X4308657D1*
X415752Y628871D2*
X4308657D1*
X415752Y625066D2*
X4308657D1*
X415752Y621260D2*
X4308657D1*
X415752Y617454D2*
X4308657D1*
X415752Y613648D2*
X4308657D1*
X415752Y609843D2*
X4308657D1*
X415752Y606037D2*
X4308657D1*
X415752Y602231D2*
X4308657D1*
X415752Y598425D2*
X4308657D1*
X415752Y594619D2*
X4308657D1*
X415752Y590814D2*
X4308657D1*
X415752Y587008D2*
X4308657D1*
X415752Y583202D2*
X4308657D1*
X415752Y579396D2*
X4308657D1*
X415752Y575591D2*
X4308657D1*
X415752Y571785D2*
X4308657D1*
X415752Y567979D2*
X4308657D1*
X415752Y564173D2*
X4308657D1*
X415752Y560367D2*
X4308657D1*
X415752Y556562D2*
X4308657D1*
X415752Y552756D2*
X4308657D1*
X415752Y548950D2*
X4308657D1*
X415752Y545144D2*
X4308657D1*
X415752Y541339D2*
X4308657D1*
X415752Y537533D2*
X4308657D1*
X415752Y533727D2*
X4308657D1*
X415752Y529921D2*
X4308657D1*
X415752Y526115D2*
X4308657D1*
X415752Y522310D2*
X4308657D1*
X415752Y518504D2*
X4308657D1*
X415752Y514698D2*
X4308657D1*
X415752Y510892D2*
X4308657D1*
X415752Y507087D2*
X4308657D1*
X415752Y503281D2*
X4308657D1*
X415752Y499475D2*
X4308657D1*
X415752Y495669D2*
X4308657D1*
X415752Y491864D2*
X4308657D1*
X415752Y488058D2*
X4308657D1*
X415752Y484252D2*
X4308657D1*
X415752Y480446D2*
X4308657D1*
X415752Y476640D2*
X4308657D1*
X415752Y472835D2*
X4308657D1*
X415752Y469029D2*
X4308657D1*
X415752Y465223D2*
X4308657D1*
X415752Y461417D2*
X4308657D1*
X415752Y457612D2*
X4308657D1*
X415752Y453806D2*
X4308657D1*
X415752Y450000D2*
X4308657D1*
X415752Y446194D2*
X4308657D1*
X415752Y442388D2*
X4308657D1*
X415752Y438583D2*
X4308657D1*
X415752Y434777D2*
X4308657D1*
X415752Y430971D2*
X4308657D1*
X415752Y427165D2*
X4308657D1*
X415752Y423360D2*
X4308657D1*
X415752Y419554D2*
X4308657D1*
X415752Y415748D2*
X4308657D1*
X2994669Y1458385D2*
X2994504Y1456984D1*
X2994228Y1455601D1*
X2993845Y1454245D1*
X2993358Y1452923D1*
X2992768Y1451642D1*
X2992151Y1450542D1*
X2992768Y1449440D1*
X2993358Y1448159D1*
X2993845Y1446836D1*
X2994228Y1445480D1*
X2994504Y1444097D1*
X2994669Y1442697D1*
X2994724Y1441289D1*
X2994669Y1439881D1*
X2994504Y1438480D1*
X2994228Y1437097D1*
X2993845Y1435741D1*
X2993358Y1434419D1*
X2992768Y1433138D1*
X2992079Y1431908D1*
X2991295Y1430736D1*
X2990423Y1429630D1*
X2989466Y1428594D1*
X2988430Y1427638D1*
X2987324Y1426765D1*
X2986152Y1425982D1*
X2984923Y1425293D1*
X2983642Y1424702D1*
X2982319Y1424215D1*
X2980963Y1423832D1*
X2979580Y1423556D1*
X2978180Y1423391D1*
X2974803Y1423336D1*
X2911373D1*
X2865787Y1377751D1*
X3340056Y1377720D1*
X3341314Y1377521D1*
X3342524Y1377129D1*
X3343657Y1376550D1*
X3344688Y1375802D1*
X3345587Y1374903D1*
X3346335Y1373873D1*
X3346913Y1372739D1*
X3347306Y1371529D1*
X3347505Y1370272D1*
X3347530Y1359793D1*
X3347505Y1093999D1*
X3347306Y1092741D1*
X3346913Y1091531D1*
X3346335Y1090398D1*
X3345587Y1089367D1*
X3344688Y1088469D1*
X3343657Y1087720D1*
X3342524Y1087142D1*
X3341314Y1086749D1*
X3340056Y1086550D1*
X3329577Y1086525D1*
X3102992D1*
Y1018060D1*
X3102937Y1016652D1*
X3102772Y1015252D1*
X3102496Y1013869D1*
X3102114Y1012513D1*
X3101626Y1011190D1*
X3101035Y1009909D1*
X3100346Y1008680D1*
X3099563Y1007508D1*
X3098690Y1006402D1*
X3097734Y1005366D1*
X3096698Y1004409D1*
X3095592Y1003537D1*
X3094420Y1002753D1*
X3093190Y1002064D1*
X3091909Y1001474D1*
X3090587Y1000986D1*
X3089231Y1000604D1*
X3087848Y1000328D1*
X3086448Y1000163D1*
X3085039Y1000108D1*
X3083631Y1000163D1*
X3082231Y1000328D1*
X3080848Y1000604D1*
X3079492Y1000986D1*
X3078169Y1001474D1*
X3076888Y1002064D1*
X3075659Y1002753D1*
X3074487Y1003537D1*
X3073381Y1004409D1*
X3072345Y1005366D1*
X3071388Y1006402D1*
X3070516Y1007508D1*
X3069732Y1008680D1*
X3069043Y1009909D1*
X3068453Y1011190D1*
X3067965Y1012513D1*
X3067583Y1013869D1*
X3067307Y1015252D1*
X3067142Y1016652D1*
X3067087Y1020029D1*
X3067076Y1074664D1*
X2957324D1*
X2957323Y1018060D1*
X2957268Y1016652D1*
X2957102Y1015252D1*
X2956827Y1013869D1*
X2956445Y1012513D1*
X2955957Y1011190D1*
X2955366Y1009909D1*
X2954677Y1008680D1*
X2953894Y1007508D1*
X2953021Y1006400D1*
X2952064Y1005366D1*
X2951030Y1004409D1*
X2949923Y1003537D1*
X2948751Y1002753D1*
X2947521Y1002064D1*
X2946240Y1001474D1*
X2944917Y1000986D1*
X2943562Y1000604D1*
X2942178Y1000328D1*
X2940778Y1000163D1*
X2939370Y1000108D1*
X2937962Y1000163D1*
X2936562Y1000328D1*
X2935178Y1000604D1*
X2933823Y1000986D1*
X2932500Y1001474D1*
X2931219Y1002064D1*
X2929990Y1002753D1*
X2928818Y1003537D1*
X2927710Y1004409D1*
X2926676Y1005366D1*
X2925719Y1006400D1*
X2924846Y1007508D1*
X2924063Y1008680D1*
X2923374Y1009909D1*
X2922783Y1011190D1*
X2922295Y1012513D1*
X2921913Y1013869D1*
X2921638Y1015252D1*
X2921472Y1016652D1*
X2921417Y1020029D1*
X2921407Y1078848D1*
X2858661D1*
X2857253Y1078903D1*
X2855853Y1079068D1*
X2854470Y1079344D1*
X2853114Y1079727D1*
X2851791Y1080214D1*
X2850510Y1080804D1*
X2849281Y1081493D1*
X2848109Y1082277D1*
X2847003Y1083150D1*
X2843547Y1086525D1*
X2807533Y1086550D1*
X2806276Y1086749D1*
X2805066Y1087142D1*
X2803932Y1087720D1*
X2802902Y1088469D1*
X2802003Y1089367D1*
X2801255Y1090398D1*
X2800676Y1091531D1*
X2800283Y1092741D1*
X2800084Y1093999D1*
X2800151Y1098756D1*
X2800844Y1129236D1*
X2790849Y1139224D1*
X2789892Y1140260D1*
X2789020Y1141366D1*
X2788236Y1142538D1*
X2787547Y1143768D1*
X2786957Y1145049D1*
X2786470Y1146371D1*
X2786087Y1147727D1*
X2785811Y1149110D1*
X2785646Y1150510D1*
X2785591Y1153887D1*
Y1175302D1*
X2741883Y1175329D1*
X2740626Y1175529D1*
X2739416Y1175921D1*
X2738282Y1176500D1*
X2737252Y1177248D1*
X2736353Y1178147D1*
X2735605Y1179177D1*
X2735026Y1180311D1*
X2734634Y1181521D1*
X2734434Y1182778D1*
X2734409Y1193257D1*
Y1195634D1*
X2732364Y1198009D1*
X2731219Y1199612D1*
X2730192Y1201290D1*
X2729286Y1203037D1*
X2728507Y1204844D1*
X2727858Y1206702D1*
X2727343Y1208601D1*
X2726962Y1210533D1*
X2726720Y1212486D1*
X2726618Y1214451D1*
X2726655Y1216419D1*
X2726832Y1218379D1*
X2727147Y1220322D1*
X2727600Y1222236D1*
X2728188Y1224115D1*
X2728907Y1225948D1*
X2729753Y1227723D1*
X2730724Y1229436D1*
X2731815Y1231073D1*
X2733018Y1232631D1*
X2734412Y1234178D1*
X2734434Y1369091D1*
X2734634Y1370348D1*
X2735026Y1371558D1*
X2735605Y1372692D1*
X2736353Y1373722D1*
X2737252Y1374621D1*
X2738282Y1375369D1*
X2739416Y1375948D1*
X2740626Y1376340D1*
X2741883Y1376539D1*
X2748017Y1376564D1*
X2747543Y1377962D1*
X2747028Y1379861D1*
X2746647Y1381793D1*
X2746398Y1383907D1*
X2745052Y1384461D1*
X2743283Y1385323D1*
X2741579Y1386308D1*
X2739950Y1387412D1*
X2738403Y1388629D1*
X2736946Y1389951D1*
X2735587Y1391375D1*
X2734332Y1392891D1*
X2733188Y1394493D1*
X2732160Y1396172D1*
X2731255Y1397919D1*
X2730475Y1399726D1*
X2729827Y1401584D1*
X2729311Y1403483D1*
X2728930Y1405415D1*
X2728689Y1407367D1*
X2728587Y1409333D1*
X2728623Y1411301D1*
X2728801Y1413261D1*
X2729115Y1415203D1*
X2729568Y1417118D1*
X2730156Y1418997D1*
X2730875Y1420829D1*
X2731722Y1422605D1*
X2732693Y1424318D1*
X2733783Y1425955D1*
X2734987Y1427513D1*
X2736298Y1428980D1*
X2737710Y1430352D1*
X2739217Y1431618D1*
X2740808Y1432776D1*
X2742289Y1433699D1*
X2742283Y1668798D1*
X2742455Y1670991D1*
X2742970Y1673129D1*
X2743811Y1675161D1*
X2744961Y1677037D1*
X2746391Y1678711D1*
X2759030Y1691350D1*
X2676676Y1691373D1*
X2675419Y1691572D1*
X2674209Y1691965D1*
X2673075Y1692543D1*
X2672045Y1693291D1*
X2671146Y1694190D1*
X2670398Y1695220D1*
X2669819Y1696354D1*
X2669427Y1697564D1*
X2669227Y1698822D1*
X2669202Y1709301D1*
Y1727778D1*
X2516328Y1574903D1*
Y1382619D1*
X2713635Y1382445D1*
X2714891Y1382244D1*
X2716101Y1381850D1*
X2717235Y1381272D1*
X2718264Y1380522D1*
X2719163Y1379622D1*
X2719911Y1378592D1*
X2720487Y1377458D1*
X2720879Y1376247D1*
X2721077Y1374990D1*
X2721102Y1364517D1*
X2721076Y966224D1*
X2720874Y964967D1*
X2720478Y963759D1*
X2719898Y962626D1*
X2719147Y961597D1*
X2718245Y960699D1*
X2717214Y959954D1*
X2716079Y959379D1*
X2714867Y958988D1*
X2713610Y958793D1*
X2703131Y958791D1*
X1930564Y960615D1*
X1929307Y960815D1*
X1928097Y961207D1*
X1926963Y961786D1*
X1925933Y962534D1*
X1925034Y963433D1*
X1924286Y964463D1*
X1923707Y965597D1*
X1923315Y966807D1*
X1923115Y968064D1*
X1923091Y978543D1*
X1923115Y1375593D1*
X1923316Y1376849D1*
X1923710Y1378059D1*
X1924289Y1379193D1*
X1925038Y1380222D1*
X1925938Y1381121D1*
X1926969Y1381869D1*
X1928102Y1382445D1*
X1929314Y1382837D1*
X1930571Y1383035D1*
X1941050Y1383052D1*
X2488301Y1382639D1*
X2488297Y1580707D1*
X2488469Y1582900D1*
X2488983Y1585038D1*
X2489824Y1587071D1*
X2490974Y1588946D1*
X2492406Y1590621D1*
X2705710Y1803865D1*
X2707490Y1805157D1*
X2708575Y1805822D1*
X2709724Y1807697D1*
X2711155Y1809371D1*
X2796705Y1894860D1*
X2798484Y1896152D1*
X2800444Y1897151D1*
X2802535Y1897831D1*
X2804707Y1898175D1*
X2809744Y1898218D1*
X3009647D1*
X3011047Y1900365D1*
X3012251Y1901923D1*
X3013562Y1903390D1*
X3014974Y1904761D1*
X3016480Y1906028D1*
X3018072Y1907185D1*
X3019741Y1908227D1*
X3021482Y1909147D1*
X3023282Y1909941D1*
X3025135Y1910606D1*
X3027030Y1911138D1*
X3028958Y1911533D1*
X3030908Y1911791D1*
X3032873Y1911909D1*
X3034841Y1911890D1*
X3036803Y1911728D1*
X3038748Y1911429D1*
X3040667Y1910992D1*
X3042550Y1910421D1*
X3044388Y1909718D1*
X3046172Y1908885D1*
X3047891Y1907928D1*
X3049539Y1906852D1*
X3051106Y1905660D1*
X3052584Y1904361D1*
X3053967Y1902961D1*
X3055247Y1901466D1*
X3056417Y1899883D1*
X3057472Y1898222D1*
X3058407Y1896490D1*
X3059217Y1894696D1*
X3059896Y1892849D1*
X3060444Y1890958D1*
X3060856Y1889034D1*
X3061129Y1887085D1*
X3061280Y1884202D1*
X3061210Y1882235D1*
X3061000Y1880278D1*
X3060652Y1878341D1*
X3060188Y1876466D1*
X3608378D1*
X3609768Y1878613D1*
X3610971Y1880171D1*
X3612282Y1881638D1*
X3613694Y1883009D1*
X3615201Y1884276D1*
X3616793Y1885433D1*
X3618462Y1886475D1*
X3620202Y1887395D1*
X3622003Y1888189D1*
X3623856Y1888854D1*
X3625751Y1889386D1*
X3627678Y1889781D1*
X3629629Y1890039D1*
X3631593Y1890157D1*
X3633562Y1890138D1*
X3635524Y1889976D1*
X3637469Y1889677D1*
X3639387Y1889240D1*
X3641270Y1888669D1*
X3643109Y1887966D1*
X3644892Y1887133D1*
X3646612Y1886176D1*
X3648260Y1885100D1*
X3649827Y1883908D1*
X3651304Y1882609D1*
X3652688Y1881209D1*
X3653967Y1879714D1*
X3655138Y1878131D1*
X3656193Y1876470D1*
X3657127Y1874738D1*
X3657937Y1872944D1*
X3658617Y1871097D1*
X3659164Y1869206D1*
X3659576Y1867282D1*
X3659849Y1865333D1*
X3660000Y1862450D1*
X3659930Y1860483D1*
X3659570Y1857686D1*
X3661184Y1858136D1*
X3663112Y1858531D1*
X3665062Y1858790D1*
X3667026Y1858908D1*
X3668995Y1858888D1*
X3670957Y1858727D1*
X3672902Y1858428D1*
X3674820Y1857991D1*
X3676703Y1857420D1*
X3678542Y1856717D1*
X3680325Y1855883D1*
X3682045Y1854927D1*
X3683693Y1853850D1*
X3685260Y1852659D1*
X3686738Y1851360D1*
X3688121Y1849959D1*
X3689400Y1848465D1*
X3690571Y1846882D1*
X3691626Y1845220D1*
X3692560Y1843488D1*
X3693370Y1841694D1*
X3694050Y1839848D1*
X3694597Y1837957D1*
X3695009Y1836033D1*
X3695282Y1834084D1*
X3695433Y1831201D1*
X3695364Y1829234D1*
X3695154Y1827277D1*
X3694806Y1825340D1*
X3694322Y1823432D1*
X3693703Y1821564D1*
X3692954Y1819744D1*
X3692077Y1817982D1*
X3691079Y1816286D1*
X3689961Y1814667D1*
X3688731Y1813130D1*
X3687396Y1811684D1*
X3685962Y1810336D1*
X3684434Y1809094D1*
X3682824Y1807963D1*
X3681136Y1806950D1*
X3679382Y1806059D1*
X3677568Y1805294D1*
X3675706Y1804660D1*
X3673802Y1804160D1*
X3671867Y1803797D1*
X3669912Y1803571D1*
X3667946Y1803486D1*
X3665979Y1803539D1*
X3664021Y1803732D1*
X3662080Y1804063D1*
X3660169Y1804531D1*
X3658295Y1805134D1*
X3656470Y1805869D1*
X3654701Y1806731D1*
X3652996Y1807717D1*
X3651367Y1808820D1*
X3649820Y1810037D1*
X3648364Y1811360D1*
X3647004Y1812783D1*
X3645749Y1814299D1*
X3644605Y1815902D1*
X3643823Y1817180D1*
X2962000Y1817185D1*
X2827402Y1682580D1*
Y1427551D1*
X2831262Y1431404D1*
X2831260Y1514123D1*
X2831315Y1515531D1*
X2831480Y1516932D1*
X2831756Y1518315D1*
X2832138Y1519671D1*
X2832626Y1520993D1*
X2833217Y1522274D1*
X2833906Y1523504D1*
X2834689Y1524676D1*
X2835562Y1525782D1*
X2837909Y1528210D1*
X2850298Y1540597D1*
X2851333Y1541554D1*
X2852440Y1542427D1*
X2853612Y1543210D1*
X2854841Y1543899D1*
X2856122Y1544490D1*
X2857445Y1544978D1*
X2858801Y1545360D1*
X2860184Y1545635D1*
X2861584Y1545801D1*
X2864961Y1545856D1*
X2899213D1*
X2900621Y1545801D1*
X2902021Y1545635D1*
X2903404Y1545360D1*
X2904760Y1544978D1*
X2906083Y1544490D1*
X2907364Y1543899D1*
X2908597Y1543207D1*
X2909517Y1543210D1*
X2910747Y1543899D1*
X2912028Y1544490D1*
X2913350Y1544976D1*
X2914706Y1545360D1*
X2916089Y1545635D1*
X2917490Y1545801D1*
X2918898Y1545856D1*
X2920306Y1545801D1*
X2921706Y1545635D1*
X2923089Y1545360D1*
X2924445Y1544976D1*
X2925768Y1544490D1*
X2927049Y1543899D1*
X2928278Y1543210D1*
X2929450Y1542427D1*
X2930556Y1541554D1*
X2931592Y1540597D1*
X2932549Y1539562D1*
X2933421Y1538455D1*
X2934205Y1537283D1*
X2934894Y1536054D1*
X2935484Y1534773D1*
X2935971Y1533450D1*
X2936354Y1532094D1*
X2936630Y1530711D1*
X2936795Y1529311D1*
X2936850Y1527903D1*
X2936795Y1526495D1*
X2936630Y1525094D1*
X2936354Y1523711D1*
X2935971Y1522356D1*
X2935484Y1521033D1*
X2934894Y1519752D1*
X2934205Y1518522D1*
X2933421Y1517350D1*
X2932549Y1516244D1*
X2931592Y1515209D1*
X2930556Y1514252D1*
X2929450Y1513379D1*
X2928278Y1512596D1*
X2927049Y1511907D1*
X2925768Y1511316D1*
X2924445Y1510829D1*
X2923089Y1510446D1*
X2921706Y1510171D1*
X2920306Y1510005D1*
X2918898Y1509950D1*
X2917490Y1510005D1*
X2916089Y1510171D1*
X2914706Y1510446D1*
X2913350Y1510829D1*
X2912028Y1511316D1*
X2910747Y1511907D1*
X2909064Y1512899D1*
X2907364Y1511907D1*
X2906083Y1511316D1*
X2904760Y1510828D1*
X2903404Y1510446D1*
X2902021Y1510171D1*
X2900621Y1510005D1*
X2897244Y1509950D1*
X2870430D1*
X2867167Y1506688D1*
X2867165Y1429900D1*
X2891243Y1453983D1*
X2892278Y1454940D1*
X2893385Y1455812D1*
X2894556Y1456596D1*
X2895786Y1457285D1*
X2897067Y1457875D1*
X2898390Y1458362D1*
X2899745Y1458745D1*
X2901129Y1459021D1*
X2902529Y1459186D1*
X2905906Y1459241D1*
X2958832D1*
X2958874Y1461201D1*
X2959039Y1462601D1*
X2959315Y1463984D1*
X2959698Y1465340D1*
X2960185Y1466663D1*
X2960776Y1467944D1*
X2961465Y1469173D1*
X2962248Y1470345D1*
X2963121Y1471451D1*
X2964077Y1472487D1*
X2965113Y1473444D1*
X2966219Y1474316D1*
X2967391Y1475100D1*
X2968621Y1475789D1*
X2969902Y1476379D1*
X2971224Y1476866D1*
X2972580Y1477249D1*
X2973963Y1477525D1*
X2975364Y1477690D1*
X2976772Y1477745D1*
X2978180Y1477690D1*
X2979580Y1477525D1*
X2980963Y1477249D1*
X2982319Y1476866D1*
X2983642Y1476379D1*
X2984923Y1475789D1*
X2986152Y1475100D1*
X2987324Y1474316D1*
X2988430Y1473444D1*
X2989466Y1472487D1*
X2990423Y1471451D1*
X2991295Y1470345D1*
X2992079Y1469173D1*
X2992768Y1467944D1*
X2993358Y1466663D1*
X2993845Y1465340D1*
X2994228Y1463984D1*
X2994504Y1462601D1*
X2994669Y1461201D1*
X2994724Y1459793D1*
X2994669Y1458385D1*
X799787Y1008778D2*
X799622Y1007378D1*
X799346Y1005995D1*
X798963Y1004639D1*
X798476Y1003316D1*
X797886Y1002035D1*
X797197Y1000806D1*
X796413Y999634D1*
X795541Y998528D1*
X794232Y997167D1*
X851866Y939531D1*
X854164Y939501D1*
X855564Y939336D1*
X856948Y939060D1*
X858303Y938677D1*
X859626Y938190D1*
X860907Y937600D1*
X862136Y936911D1*
X863308Y936127D1*
X864415Y935255D1*
X865450Y934298D1*
X866407Y933262D1*
X867280Y932156D1*
X868063Y930984D1*
X868752Y929755D1*
X869343Y928474D1*
X869829Y927151D1*
X870213Y925795D1*
X870488Y924412D1*
X870654Y923012D1*
X870709Y921604D1*
X870654Y920196D1*
X870488Y918795D1*
X870213Y917412D1*
X869829Y916056D1*
X869343Y914734D1*
X868752Y913453D1*
X868063Y912223D1*
X867280Y911051D1*
X866407Y909945D1*
X865450Y908909D1*
X864415Y907953D1*
X863308Y907080D1*
X862136Y906297D1*
X860907Y905608D1*
X859626Y905017D1*
X858303Y904530D1*
X856948Y904147D1*
X855564Y903871D1*
X854164Y903706D1*
X852756Y903651D1*
X851348Y903706D1*
X849948Y903871D1*
X848564Y904147D1*
X847209Y904530D1*
X845886Y905017D1*
X844605Y905608D1*
X843375Y906297D1*
X842203Y907080D1*
X841097Y907953D1*
X840062Y908909D1*
X839105Y909945D1*
X838232Y911051D1*
X837449Y912223D1*
X836760Y913453D1*
X836169Y914734D1*
X835682Y916056D1*
X835299Y917412D1*
X835024Y918795D1*
X834858Y920196D1*
X834839Y922490D1*
X773371Y983951D1*
X772143Y985388D1*
X771155Y987000D1*
X770432Y988747D1*
X769991Y990585D1*
X769843Y992474D1*
Y996875D1*
X768239Y998528D1*
X767366Y999634D1*
X766583Y1000806D1*
X765894Y1002035D1*
X765303Y1003316D1*
X764816Y1004639D1*
X764433Y1005995D1*
X764157Y1007378D1*
X763992Y1008778D1*
X763937Y1010186D1*
X763992Y1011594D1*
X764157Y1012995D1*
X764433Y1014378D1*
X764816Y1015734D1*
X765303Y1017056D1*
X765894Y1018337D1*
X766583Y1019567D1*
X767366Y1020739D1*
X768239Y1021845D1*
X769196Y1022881D1*
X770231Y1023837D1*
X771337Y1024710D1*
X772509Y1025493D1*
X773739Y1026182D1*
X775020Y1026773D1*
X776343Y1027260D1*
X777698Y1027643D1*
X779081Y1027919D1*
X780482Y1028084D1*
X781890Y1028139D1*
X783298Y1028084D1*
X784698Y1027919D1*
X786081Y1027643D1*
X787437Y1027260D1*
X788760Y1026773D1*
X790041Y1026182D1*
X791270Y1025493D1*
X792442Y1024710D1*
X793549Y1023837D1*
X794584Y1022881D1*
X795541Y1021845D1*
X796413Y1020739D1*
X797197Y1019567D1*
X797886Y1018337D1*
X798476Y1017056D1*
X798963Y1015734D1*
X799346Y1014378D1*
X799622Y1012995D1*
X799787Y1011594D1*
X799843Y1010186D1*
X799787Y1008778D1*
X661328Y950899D2*
X659690Y949291D1*
X658584Y948419D1*
X657412Y947635D1*
X656182Y946946D1*
X654902Y946356D1*
X653579Y945869D1*
X652223Y945486D1*
X650840Y945210D1*
X649440Y945045D1*
X648031Y944990D1*
X646623Y945045D1*
X645223Y945210D1*
X643840Y945486D1*
X642484Y945869D1*
X641161Y946356D1*
X639881Y946946D1*
X638651Y947635D1*
X637479Y948419D1*
X636373Y949291D1*
X635337Y950248D1*
X634381Y951283D1*
X633508Y952390D1*
X632724Y953562D1*
X632035Y954791D1*
X631445Y956072D1*
X630958Y957395D1*
X630575Y958751D1*
X630299Y960134D1*
X630134Y961534D1*
X630079Y962942D1*
X630134Y964350D1*
X630299Y965751D1*
X630575Y967134D1*
X630958Y968490D1*
X631445Y969812D1*
X632035Y971093D1*
X632724Y972323D1*
X633508Y973495D1*
X634381Y974601D1*
X635337Y975636D1*
X636373Y976593D1*
X637479Y977466D1*
X638651Y978249D1*
X639881Y978938D1*
X641161Y979529D1*
X642484Y980016D1*
X643840Y980399D1*
X645223Y980675D1*
X646623Y980840D1*
X648031Y980895D1*
X649440Y980840D1*
X650840Y980675D1*
X652223Y980399D1*
X653579Y980016D1*
X654902Y979529D1*
X656182Y978938D1*
X657412Y978249D1*
X658584Y977466D1*
X659690Y976593D1*
X661328Y974986D1*
X732677Y974990D1*
X734562Y974841D1*
X736400Y974400D1*
X738147Y973677D1*
X739759Y972689D1*
X741198Y971458D1*
X838060Y874596D1*
X843382D1*
X845034Y876199D1*
X846140Y877072D1*
X847312Y877856D1*
X848542Y878545D1*
X849823Y879135D1*
X851146Y879622D1*
X852501Y880005D1*
X853885Y880281D1*
X855285Y880446D1*
X856693Y880501D1*
X858101Y880446D1*
X859501Y880281D1*
X860885Y880005D1*
X862240Y879622D1*
X863563Y879135D1*
X864844Y878545D1*
X866073Y877856D1*
X867245Y877072D1*
X868352Y876199D1*
X869387Y875243D1*
X870344Y874207D1*
X871217Y873101D1*
X872000Y871929D1*
X872689Y870699D1*
X873280Y869419D1*
X873766Y868096D1*
X874150Y866740D1*
X874425Y865357D1*
X874591Y863957D1*
X874646Y862549D1*
X874591Y861140D1*
X874425Y859740D1*
X874150Y858357D1*
X873766Y857001D1*
X873280Y855678D1*
X872689Y854398D1*
X872000Y853168D1*
X871217Y851996D1*
X870344Y850890D1*
X869387Y849854D1*
X868352Y848898D1*
X867245Y848025D1*
X866073Y847241D1*
X864844Y846552D1*
X863563Y845962D1*
X862240Y845475D1*
X860885Y845092D1*
X859501Y844816D1*
X858101Y844651D1*
X856693Y844596D1*
X855285Y844651D1*
X853885Y844816D1*
X852501Y845092D1*
X851146Y845475D1*
X849823Y845962D1*
X848542Y846552D1*
X847312Y847241D1*
X846140Y848025D1*
X845034Y848898D1*
X843396Y850505D1*
X832126Y850538D1*
X830259Y850835D1*
X828461Y851419D1*
X826776Y852277D1*
X825247Y853387D1*
X821768Y856814D1*
X727688Y950895D1*
X661343D1*
X911992Y1036337D2*
X911827Y1034937D1*
X911551Y1033554D1*
X911168Y1032198D1*
X910681Y1030875D1*
X910091Y1029594D1*
X909402Y1028365D1*
X908618Y1027193D1*
X907745Y1026087D1*
X906138Y1024449D1*
X906142Y969902D1*
X916799Y959244D1*
X1030545Y959241D1*
X1031906Y961719D1*
X1032996Y963357D1*
X1034199Y964915D1*
X1035510Y966382D1*
X1036923Y967753D1*
X1038429Y969020D1*
X1040021Y970177D1*
X1041690Y971219D1*
X1043430Y972139D1*
X1045231Y972933D1*
X1047084Y973598D1*
X1048979Y974130D1*
X1050907Y974525D1*
X1052857Y974783D1*
X1054822Y974902D1*
X1056790Y974882D1*
X1058752Y974720D1*
X1060697Y974421D1*
X1062615Y973984D1*
X1064499Y973413D1*
X1066337Y972710D1*
X1068121Y971877D1*
X1069840Y970920D1*
X1071488Y969844D1*
X1073055Y968652D1*
X1074533Y967353D1*
X1075916Y965953D1*
X1077196Y964458D1*
X1078366Y962875D1*
X1079421Y961214D1*
X1080356Y959482D1*
X1081165Y957688D1*
X1081845Y955841D1*
X1082392Y953950D1*
X1082804Y952026D1*
X1083077Y950077D1*
X1083228Y947194D1*
X1083159Y945227D1*
X1082949Y943270D1*
X1082601Y941333D1*
X1082117Y939425D1*
X1081499Y937558D1*
X1080749Y935738D1*
X1079873Y933975D1*
X1078874Y932280D1*
X1077756Y930660D1*
X1076526Y929123D1*
X1075192Y927677D1*
X1073757Y926329D1*
X1072230Y925088D1*
X1070619Y923957D1*
X1068932Y922944D1*
X1067177Y922052D1*
X1065364Y921287D1*
X1063501Y920654D1*
X1061597Y920154D1*
X1059663Y919790D1*
X1057707Y919564D1*
X1055741Y919479D1*
X1053774Y919533D1*
X1051816Y919726D1*
X1049875Y920056D1*
X1047965Y920525D1*
X1046091Y921127D1*
X1044265Y921862D1*
X1042496Y922724D1*
X1040791Y923710D1*
X1039163Y924814D1*
X1037615Y926030D1*
X1036159Y927353D1*
X1034799Y928777D1*
X1033545Y930293D1*
X1032400Y931895D1*
X1031373Y933573D1*
X1030556Y935150D1*
X910866Y935184D1*
X908999Y935480D1*
X907201Y936064D1*
X905516Y936923D1*
X903987Y938033D1*
X900508Y941459D1*
X884933Y957087D1*
X883823Y958615D1*
X882965Y960301D1*
X882381Y962098D1*
X882084Y963966D1*
X882047Y968848D1*
Y1024434D1*
X880444Y1026087D1*
X879571Y1027193D1*
X878787Y1028365D1*
X878098Y1029594D1*
X877508Y1030875D1*
X877021Y1032198D1*
X876638Y1033554D1*
X876362Y1034937D1*
X876197Y1036337D1*
X876142Y1037745D1*
X876197Y1039154D1*
X876362Y1040554D1*
X876638Y1041937D1*
X877021Y1043293D1*
X877508Y1044615D1*
X878098Y1045896D1*
X878787Y1047126D1*
X879571Y1048298D1*
X880444Y1049404D1*
X881400Y1050440D1*
X882436Y1051396D1*
X883542Y1052269D1*
X884714Y1053052D1*
X885944Y1053741D1*
X887224Y1054332D1*
X888547Y1054819D1*
X889903Y1055202D1*
X891286Y1055478D1*
X892686Y1055643D1*
X894094Y1055698D1*
X895503Y1055643D1*
X896903Y1055478D1*
X898286Y1055202D1*
X899642Y1054819D1*
X900965Y1054332D1*
X902245Y1053741D1*
X903475Y1053052D1*
X904647Y1052269D1*
X905753Y1051396D1*
X906789Y1050440D1*
X907745Y1049404D1*
X908618Y1048298D1*
X909402Y1047126D1*
X910091Y1045896D1*
X910681Y1044615D1*
X911168Y1043293D1*
X911551Y1041937D1*
X911827Y1040554D1*
X911992Y1039154D1*
X912047Y1037745D1*
X911992Y1036337D1*
X1001879Y988301D2*
X1000241Y986693D1*
X999135Y985820D1*
X997963Y985037D1*
X996734Y984348D1*
X995453Y983757D1*
X994130Y983270D1*
X992774Y982887D1*
X991391Y982612D1*
X989991Y982446D1*
X988583Y982391D1*
X987175Y982446D1*
X985774Y982612D1*
X984391Y982887D1*
X983035Y983270D1*
X981713Y983757D1*
X980432Y984348D1*
X979202Y985037D1*
X978030Y985820D1*
X976924Y986693D1*
X975888Y987650D1*
X974932Y988685D1*
X974059Y989791D1*
X973276Y990963D1*
X972587Y992193D1*
X971996Y993474D1*
X971509Y994797D1*
X971126Y996152D1*
X970850Y997535D1*
X970685Y998936D1*
X970630Y1000344D1*
X970685Y1001752D1*
X970850Y1003152D1*
X971126Y1004535D1*
X971509Y1005891D1*
X971996Y1007214D1*
X972587Y1008495D1*
X973276Y1009724D1*
X974059Y1010896D1*
X974932Y1012003D1*
X975888Y1013038D1*
X976924Y1013995D1*
X978030Y1014867D1*
X979202Y1015651D1*
X980432Y1016340D1*
X981713Y1016930D1*
X983035Y1017417D1*
X984391Y1017801D1*
X985774Y1018076D1*
X987175Y1018241D1*
X988583Y1018297D1*
X989991Y1018241D1*
X991391Y1018076D1*
X992774Y1017801D1*
X994130Y1017417D1*
X995453Y1016930D1*
X996734Y1016340D1*
X997963Y1015651D1*
X999135Y1014867D1*
X1000241Y1013995D1*
X1001879Y1012387D1*
X1090945Y1012391D1*
X1092829Y1012243D1*
X1094668Y1011802D1*
X1096415Y1011077D1*
X1098026Y1010091D1*
X1099466Y1008860D1*
X1312469Y795857D1*
X1368972Y795856D1*
X1370625Y797459D1*
X1371731Y798332D1*
X1372903Y799115D1*
X1374133Y799804D1*
X1375413Y800395D1*
X1376736Y800882D1*
X1378092Y801265D1*
X1379475Y801541D1*
X1380875Y801706D1*
X1382283Y801761D1*
X1383692Y801706D1*
X1385092Y801541D1*
X1386475Y801265D1*
X1387831Y800882D1*
X1389154Y800395D1*
X1390434Y799804D1*
X1391664Y799115D1*
X1392836Y798332D1*
X1393942Y797459D1*
X1394978Y796503D1*
X1395934Y795467D1*
X1396807Y794361D1*
X1397591Y793189D1*
X1398280Y791959D1*
X1398870Y790678D1*
X1399357Y789356D1*
X1399740Y788000D1*
X1400016Y786617D1*
X1400181Y785217D1*
X1400236Y783808D1*
X1400181Y782400D1*
X1400016Y781000D1*
X1399740Y779617D1*
X1399357Y778261D1*
X1398870Y776938D1*
X1398280Y775657D1*
X1397591Y774428D1*
X1396807Y773256D1*
X1395934Y772150D1*
X1394978Y771114D1*
X1393942Y770157D1*
X1392836Y769285D1*
X1391664Y768501D1*
X1390434Y767812D1*
X1389154Y767222D1*
X1387831Y766735D1*
X1386475Y766352D1*
X1385092Y766076D1*
X1383692Y765911D1*
X1382283Y765856D1*
X1380875Y765911D1*
X1379475Y766076D1*
X1378092Y766352D1*
X1376736Y766735D1*
X1375413Y767222D1*
X1374133Y767812D1*
X1372903Y768501D1*
X1371731Y769285D1*
X1370625Y770157D1*
X1368987Y771765D1*
X1307480Y771761D1*
X1305596Y771909D1*
X1303757Y772350D1*
X1302010Y773075D1*
X1300399Y774062D1*
X1298962Y775290D1*
X1085957Y988295D1*
X1001894Y988297D1*
X669785Y1127314D2*
X669613Y1125353D1*
X669325Y1123406D1*
X668925Y1121479D1*
X668412Y1119579D1*
X667789Y1117711D1*
X667058Y1115883D1*
X666222Y1114102D1*
X665282Y1112373D1*
X664243Y1110701D1*
X663108Y1109093D1*
X661881Y1107555D1*
X660564Y1106091D1*
X659167Y1104706D1*
X657689Y1103406D1*
X656138Y1102193D1*
X654518Y1101075D1*
X652837Y1100052D1*
X651098Y1099130D1*
X649308Y1098311D1*
X647474Y1097598D1*
X645601Y1096993D1*
X643696Y1096500D1*
X641764Y1096119D1*
X639815Y1095852D1*
X637852Y1095698D1*
X635885Y1095660D1*
X633917Y1095738D1*
X631959Y1095930D1*
X630014Y1096236D1*
X628092Y1096656D1*
X626197Y1097188D1*
X624336Y1097829D1*
X622516Y1098579D1*
X620743Y1099433D1*
X619022Y1100390D1*
X617362Y1101446D1*
X615765Y1102597D1*
X614239Y1103840D1*
X612787Y1105169D1*
X611417Y1106581D1*
X610131Y1108072D1*
X608936Y1109635D1*
X607832Y1111265D1*
X606827Y1112958D1*
X605923Y1114705D1*
X605121Y1116503D1*
X604427Y1118345D1*
X603841Y1120224D1*
X603366Y1122134D1*
X603005Y1124068D1*
X602757Y1126021D1*
X602623Y1127986D1*
X602605Y1129953D1*
X602702Y1131919D1*
X602913Y1133875D1*
X603240Y1135816D1*
X603678Y1137735D1*
X604230Y1139625D1*
X604890Y1141479D1*
X605657Y1143291D1*
X606529Y1145056D1*
X607503Y1146766D1*
X608575Y1148417D1*
X609743Y1150001D1*
X611000Y1151516D1*
X612345Y1152953D1*
X613770Y1154310D1*
X615274Y1155580D1*
X616849Y1156761D1*
X618490Y1157848D1*
X620192Y1158836D1*
X621949Y1159723D1*
X623755Y1160507D1*
X625602Y1161182D1*
X627488Y1161749D1*
X629403Y1162205D1*
X631341Y1162547D1*
X633295Y1162776D1*
X635261Y1162890D1*
X637228Y1162887D1*
X639194Y1162772D1*
X641148Y1162539D1*
X643087Y1162194D1*
X645000Y1161736D1*
X646885Y1161167D1*
X648732Y1160488D1*
X650537Y1159703D1*
X652293Y1158812D1*
X653992Y1157822D1*
X655633Y1156734D1*
X657205Y1155550D1*
X658706Y1154277D1*
X660131Y1152919D1*
X661472Y1151479D1*
X662728Y1149963D1*
X663894Y1148377D1*
X664963Y1146724D1*
X665934Y1145013D1*
X666804Y1143248D1*
X667570Y1141434D1*
X668227Y1139579D1*
X668774Y1137688D1*
X669210Y1135769D1*
X669534Y1133828D1*
X669743Y1131870D1*
X669843Y1129281D1*
X669785Y1127314D1*
Y843849D2*
X669613Y841888D1*
X669325Y839941D1*
X668925Y838014D1*
X668412Y836114D1*
X667789Y834247D1*
X667058Y832419D1*
X666222Y830638D1*
X665282Y828908D1*
X664243Y827236D1*
X663108Y825629D1*
X661881Y824091D1*
X660564Y822626D1*
X659167Y821241D1*
X657689Y819941D1*
X656138Y818728D1*
X654518Y817610D1*
X652837Y816588D1*
X651098Y815665D1*
X649308Y814846D1*
X647474Y814134D1*
X645601Y813529D1*
X643696Y813035D1*
X641764Y812655D1*
X639815Y812387D1*
X637852Y812234D1*
X635885Y812196D1*
X633917Y812273D1*
X631959Y812466D1*
X630014Y812772D1*
X628092Y813192D1*
X626197Y813723D1*
X624336Y814365D1*
X622516Y815114D1*
X620743Y815969D1*
X619022Y816925D1*
X617362Y817982D1*
X615765Y819133D1*
X614239Y820375D1*
X612787Y821705D1*
X611417Y823117D1*
X610131Y824608D1*
X608936Y826171D1*
X607832Y827801D1*
X606827Y829493D1*
X605923Y831240D1*
X605121Y833038D1*
X604427Y834881D1*
X603841Y836760D1*
X603366Y838669D1*
X603005Y840604D1*
X602757Y842556D1*
X602623Y844521D1*
X602605Y846488D1*
X602702Y848454D1*
X602913Y850411D1*
X603240Y852352D1*
X603678Y854270D1*
X604230Y856160D1*
X604890Y858014D1*
X605657Y859827D1*
X606529Y861592D1*
X607503Y863302D1*
X608575Y864953D1*
X609743Y866537D1*
X611000Y868051D1*
X612345Y869488D1*
X613770Y870845D1*
X615274Y872115D1*
X616849Y873297D1*
X618490Y874383D1*
X620192Y875371D1*
X621949Y876259D1*
X623755Y877042D1*
X625602Y877718D1*
X627488Y878285D1*
X629403Y878740D1*
X631341Y879083D1*
X633295Y879311D1*
X635261Y879425D1*
X637228Y879423D1*
X639194Y879307D1*
X641148Y879075D1*
X643087Y878730D1*
X645000Y878272D1*
X646885Y877702D1*
X648732Y877024D1*
X650537Y876239D1*
X652293Y875348D1*
X653992Y874357D1*
X655633Y873269D1*
X657205Y872085D1*
X658706Y870812D1*
X660131Y869454D1*
X661472Y868014D1*
X662728Y866499D1*
X663894Y864912D1*
X664963Y863260D1*
X665934Y861549D1*
X666804Y859783D1*
X667570Y857970D1*
X668227Y856114D1*
X668774Y854223D1*
X669210Y852304D1*
X669534Y850364D1*
X669743Y848406D1*
X669843Y845816D1*
X669785Y843849D1*
X2748993Y1807568D2*
X2777949Y1807543D1*
X2779206Y1807344D1*
X2780416Y1806951D1*
X2781550Y1806373D1*
X2782580Y1805625D1*
X2783479Y1804726D1*
X2784227Y1803696D1*
X2784806Y1802562D1*
X2785198Y1801352D1*
X2785398Y1800094D1*
X2785423Y1789615D1*
Y1717741D1*
X2937862Y1870182D1*
X2811606Y1870186D1*
X2748997Y1807571D1*
X2783434Y1415411D2*
X2799366Y1431343D1*
X2799370Y1688386D1*
X2799542Y1690579D1*
X2800058Y1692720D1*
X2770314Y1662991D1*
X2770315Y1433707D1*
X2772276Y1432442D1*
X2773843Y1431251D1*
X2775320Y1429951D1*
X2776703Y1428551D1*
X2777983Y1427056D1*
X2779154Y1425474D1*
X2780209Y1423812D1*
X2781143Y1422080D1*
X2781953Y1420286D1*
X2782633Y1418440D1*
X2783180Y1416549D1*
X2783425Y1415399D1*
X2958169Y1845217D2*
X3610583D1*
X3609172Y1847151D1*
X3608390Y1848429D1*
X2955756Y1848434D1*
X2951870Y1844530D1*
X2954008Y1845045D1*
X2956201Y1845217D1*
X2958169D1*
X415362Y415354D2*
X4309047D1*
X4309055Y2344488D1*
Y4309047D1*
X2366142Y4309055D1*
X415362D1*
X415354Y2352362D1*
Y415362D1*
X1933567Y1369176D2*
X2710631D1*
X1933567Y1365370D2*
X2710631D1*
X1933567Y1361564D2*
X2710631D1*
X1933567Y1357759D2*
X2710631D1*
X1933567Y1353953D2*
X2710631D1*
X1933567Y1350147D2*
X2710631D1*
X1933567Y1346341D2*
X2710631D1*
X1933567Y1342535D2*
X2710631D1*
X1933567Y1338730D2*
X2710631D1*
X1933567Y1334924D2*
X2710631D1*
X1933567Y1331118D2*
X2710631D1*
X1933567Y1327312D2*
X2710631D1*
X1933567Y1323507D2*
X2710631D1*
X1933567Y1319701D2*
X2710631D1*
X1933567Y1315895D2*
X2710631D1*
X1933567Y1312089D2*
X2710631D1*
X1933567Y1308283D2*
X2710631D1*
X1933567Y1304478D2*
X2710631D1*
X1933567Y1300672D2*
X2710631D1*
X1933567Y1296866D2*
X2710631D1*
X1933567Y1293060D2*
X2710631D1*
X1933567Y1289255D2*
X2710631D1*
X1933567Y1285449D2*
X2710631D1*
X1933567Y1281643D2*
X2710631D1*
X1933567Y1277837D2*
X2710631D1*
X1933567Y1274031D2*
X2710631D1*
X1933567Y1270226D2*
X2710631D1*
X1933567Y1266420D2*
X2710631D1*
X1933567Y1262614D2*
X2710631D1*
X1933567Y1258808D2*
X2710631D1*
X1933567Y1255003D2*
X2710631D1*
X1933567Y1251197D2*
X2710631D1*
X1933567Y1247391D2*
X2710631D1*
X1933567Y1243585D2*
X2710631D1*
X1933567Y1239780D2*
X2710631D1*
X1933567Y1235974D2*
X2710631D1*
X1933567Y1232168D2*
X2710631D1*
X1933567Y1228362D2*
X2710631D1*
X1933567Y1224556D2*
X2710631D1*
X1933567Y1220751D2*
X2710631D1*
X1933567Y1216945D2*
X2710631D1*
X1933567Y1213139D2*
X2710631D1*
X1933567Y1209333D2*
X2710631D1*
X1933567Y1205528D2*
X2710631D1*
X1933567Y1201722D2*
X2710631D1*
X1933567Y1197916D2*
X2710631D1*
X1933567Y1194110D2*
X2710631D1*
X1933567Y1190304D2*
X2710631D1*
X1933567Y1186499D2*
X2710631D1*
X1933567Y1182693D2*
X2710631D1*
X1933567Y1178887D2*
X2710631D1*
X1933567Y1175081D2*
X2710631D1*
X1933567Y1171276D2*
X2710631D1*
X1933567Y1167470D2*
X2710631D1*
X1933567Y1163664D2*
X2710631D1*
X1933567Y1159858D2*
X2710631D1*
X1933567Y1156052D2*
X2710631D1*
X1933567Y1152247D2*
X2710631D1*
X1933567Y1148441D2*
X2710631D1*
X1933567Y1144635D2*
X2710631D1*
X1933567Y1140829D2*
X2710631D1*
X1933567Y1137024D2*
X2710631D1*
X1933567Y1133218D2*
X2710631D1*
X1933567Y1129412D2*
X2710631D1*
X1933567Y1125606D2*
X2710631D1*
X1933567Y1121801D2*
X2710631D1*
X1933567Y1117995D2*
X2710631D1*
X1933567Y1114189D2*
X2710631D1*
X1933567Y1110383D2*
X2710631D1*
X1933567Y1106577D2*
X2710631D1*
X1933567Y1102772D2*
X2710631D1*
X1933567Y1098966D2*
X2710631D1*
X1933567Y1095160D2*
X2710631D1*
X1933567Y1091354D2*
X2710631D1*
X1933567Y1087549D2*
X2710631D1*
X1933567Y1083743D2*
X2710631D1*
X1933567Y1079937D2*
X2710631D1*
X1933567Y1076131D2*
X2710631D1*
X1933567Y1072325D2*
X2710631D1*
X1933567Y1068520D2*
X2710631D1*
X1933567Y1064714D2*
X2710631D1*
X1933567Y1060908D2*
X2710631D1*
X1933567Y1057102D2*
X2710631D1*
X1933567Y1053297D2*
X2710631D1*
X1933567Y1049491D2*
X2710631D1*
X1933567Y1045685D2*
X2710631D1*
X1933567Y1041879D2*
X2710631D1*
X1933567Y1038073D2*
X2710631D1*
X1933567Y1034268D2*
X2710631D1*
X1933567Y1030462D2*
X2710631D1*
X1933567Y1026656D2*
X2710631D1*
X1933567Y1022850D2*
X2710631D1*
X1933567Y1019045D2*
X2710631D1*
X1933567Y1015239D2*
X2710631D1*
X1933567Y1011433D2*
X2710631D1*
X1933567Y1007627D2*
X2710631D1*
X1933567Y1003822D2*
X2710631D1*
X1933567Y1000016D2*
X2710631D1*
X1933567Y996210D2*
X2710631D1*
X1933567Y992404D2*
X2710631D1*
X1933567Y988598D2*
X2710631D1*
X1933567Y984793D2*
X2710631D1*
X1933567Y980987D2*
X2710631D1*
X1933567Y977181D2*
X2710631D1*
X1933567Y973375D2*
X2710631D1*
X2403609Y969570D2*
X2710631D1*
X2711024Y968856D2*
X2711022Y1372392D1*
X1933164Y1372980D1*
X1933173Y970665D1*
X2711030Y968852D1*
D54*
X516142Y1157627D3*
Y817470D3*
D55*
X714961D3*
Y1157627D3*
D56*
X691339Y1145816D3*
Y828887D3*
M02*
