M48
INCH
T01C0.0118
T02C0.0236
T03C0.0276
%
T01
X+029394Y+010181
X+029394Y+010377
X+029285Y+009629
X+029535Y+009629
X+029785Y+009629
X+030035Y+009629
X+030285Y+009629
X+030535Y+009629
X+030785Y+009629
X+031035Y+009629
X+031035Y+009379
X+030785Y+009379
X+030535Y+009379
X+030285Y+009379
X+030035Y+009379
X+029785Y+009379
X+029535Y+009379
X+029285Y+009379
X+029246Y+008704
X+029246Y+008454
X+029496Y+008454
X+029496Y+008704
X+029746Y+008704
X+029746Y+008454
X+029996Y+008454
X+029996Y+008704
X+030246Y+008704
X+030246Y+008454
X+030496Y+008454
X+030496Y+008704
X+030746Y+008704
X+030746Y+008454
X+030996Y+008454
X+030996Y+008704
X+030976Y+007858
X+030726Y+007858
X+030726Y+007608
X+030476Y+007608
X+030476Y+007858
X+030226Y+007858
X+030226Y+007608
X+029976Y+007608
X+029976Y+007858
X+029726Y+007858
X+029726Y+007608
X+029476Y+007608
X+029476Y+007858
X+029226Y+007858
X+029226Y+007608
X+030976Y+007608
X+030850Y+010181
X+030850Y+010377
X+030519Y+012384
X+030269Y+012384
X+030269Y+012634
X+030519Y+012634
X+030019Y+012634
X+029769Y+012634
X+029519Y+012634
X+029269Y+012634
X+029269Y+012384
X+029519Y+012384
X+029769Y+012384
X+030019Y+012384
X+029019Y+012384
X+028769Y+012384
X+028769Y+012634
X+029019Y+012634
X+027740Y+012149
X+027543Y+012149
X+027563Y+013586
X+027760Y+013586
X+027740Y+013862
X+027563Y+014098
X+028992Y+015279
X+029189Y+015279
X+029273Y+015932
X+029586Y+015932
X+029586Y+016245
X+029273Y+016245
X+028961Y+016245
X+028961Y+015932
X+029898Y+015932
X+030211Y+015932
X+030211Y+016245
X+029898Y+016245
X+029768Y+014598
X+029768Y+014413
X+026961Y+017120
X+026961Y+017432
X+027211Y+017622
X+027461Y+017620
X+030336Y+018842
X+034437Y+017250
X+034437Y+017000
X+034437Y+016750
X+034437Y+016500
X+034437Y+016250
X+034437Y+016000
X+034437Y+015750
X+034437Y+015500
X+034687Y+015500
X+034687Y+015750
X+034687Y+016000
X+034687Y+016250
X+034687Y+016500
X+034687Y+016750
X+034687Y+017000
X+034687Y+017250
X+036323Y+018625
X+036677Y+018312
X+036657Y+007425
X+036407Y+007425
X+036407Y+007175
X+036157Y+007175
X+036157Y+007425
X+035907Y+007425
X+035907Y+007175
X+035657Y+007175
X+035657Y+007425
X+035407Y+007425
X+035407Y+007175
X+035157Y+007175
X+035157Y+007425
X+034907Y+007425
X+034907Y+007175
X+036657Y+007175
X+026937Y+007749
X+026687Y+007750
X+026437Y+007750
X+026187Y+007750
X+026187Y+008000
X+026437Y+008000
X+026687Y+008000
X+026937Y+008000
X+025937Y+007999
X+025937Y+007750
X+025687Y+007750
X+025437Y+007750
X+025437Y+008000
X+025187Y+008000
X+025187Y+007750
X+025687Y+008000
X+025687Y+011125
X+025937Y+011125
X+025937Y+011375
X+025937Y+011625
X+025687Y+011625
X+025687Y+011375
X+025687Y+011875
X+025937Y+011875
X+025937Y+012125
X+025937Y+012375
X+025937Y+012625
X+025687Y+012625
X+025687Y+012375
X+025687Y+012125
X+025023Y+011807
X+025000Y+012687
X+025000Y+012937
X+025000Y+013187
X+025687Y+012875
X+025937Y+012875
X+024062Y+012687
X+024062Y+012437
X+024062Y+012187
X+024062Y+011937
X+023812Y+011937
X+023812Y+012187
X+023812Y+012437
X+023812Y+012687
X+023812Y+011687
X+023812Y+011437
X+023812Y+011187
X+023812Y+010937
X+024062Y+010937
X+024062Y+011187
X+024062Y+011437
X+024062Y+011687
X+013823Y+007838
X+010555Y+009472
X+009886Y+010003
X+009295Y+009236
X+009551Y+008921
X+009787Y+008606
X+008567Y+008625
X+008528Y+009216
X+008705Y+009787
X+008941Y+010377
X+009551Y+011047
X+009551Y+011263
X+007819Y+010102
X+006480Y+009629
T02
X+007406Y+008175G85X+006894Y+008175
X+006362Y+008458
X+006362Y+011293
X+007406Y+011576G85X+006894Y+011576
T03
X+005417Y+011576G85X+004906Y+011576
X+006913Y+011350G85X+006913Y+011566
X+006913Y+008181G85X+006913Y+008397
X+005417Y+008175G85X+004906Y+008175
T00
M30
