G04 DipTrace 3.3.0.1*
G04 TopDimension.gbr*
%MOIN*%
G04 #@! TF.FileFunction,Drawing,Top*
G04 #@! TF.Part,Single*
%ADD13C,0.001378*%
%ADD124C,0.006176*%
%FSLAX26Y26*%
G04*
G70*
G90*
G75*
G01*
G04 TopDimension*
%LPD*%
X4231201Y631199D2*
D13*
Y1919635D1*
X1649950Y599950D2*
Y1919635D1*
X2940575Y1899950D2*
X4191831D1*
G36*
X4231201D2*
X4191831Y1892076D1*
Y1907824D1*
X4231201Y1899950D1*
G37*
X2940575D2*
D13*
X1689320D1*
G36*
X1649950D2*
X1689320Y1907824D1*
Y1892076D1*
X1649950Y1899950D1*
G37*
X2888341Y1946605D2*
D124*
X2886440Y1950407D1*
X2880692Y1952309D1*
X2876889D1*
X2871141Y1950407D1*
X2867295Y1944659D1*
X2865393Y1935109D1*
Y1925558D1*
X2867295Y1917909D1*
X2871141Y1914062D1*
X2876889Y1912161D1*
X2878791D1*
X2884494Y1914062D1*
X2888341Y1917909D1*
X2890242Y1923657D1*
Y1925558D1*
X2888341Y1931306D1*
X2884494Y1935109D1*
X2878791Y1937010D1*
X2876889D1*
X2871141Y1935109D1*
X2867295Y1931306D1*
X2865393Y1925558D1*
X2925542Y1952309D2*
X2906441D1*
X2904539Y1935109D1*
X2906441Y1937010D1*
X2912189Y1938956D1*
X2917892D1*
X2923641Y1937010D1*
X2927487Y1933208D1*
X2929389Y1927459D1*
Y1923657D1*
X2927487Y1917909D1*
X2923641Y1914062D1*
X2917892Y1912161D1*
X2912189D1*
X2906441Y1914062D1*
X2904539Y1916008D1*
X2902594Y1919810D1*
X2943641Y1916008D2*
X2941740Y1914062D1*
X2943641Y1912161D1*
X2945587Y1914062D1*
X2943641Y1916008D1*
X2980886Y1952309D2*
X2961785D1*
X2959884Y1935109D1*
X2961785Y1937010D1*
X2967533Y1938956D1*
X2973237D1*
X2978985Y1937010D1*
X2982831Y1933208D1*
X2984733Y1927459D1*
Y1923657D1*
X2982831Y1917909D1*
X2978985Y1914062D1*
X2973237Y1912161D1*
X2967533D1*
X2961785Y1914062D1*
X2959884Y1916008D1*
X2957938Y1919810D1*
X3020032Y1946605D2*
X3018131Y1950407D1*
X3012383Y1952309D1*
X3008580D1*
X3002832Y1950407D1*
X2998985Y1944659D1*
X2997084Y1935109D1*
Y1925558D1*
X2998985Y1917909D1*
X3002832Y1914062D1*
X3008580Y1912161D1*
X3010481D1*
X3016185Y1914062D1*
X3020032Y1917909D1*
X3021933Y1923657D1*
Y1925558D1*
X3020032Y1931306D1*
X3016185Y1935109D1*
X3010481Y1937010D1*
X3008580D1*
X3002832Y1935109D1*
X2998985Y1931306D1*
X2997084Y1925558D1*
M02*
