G04 DipTrace 3.3.0.1*
G04 TopMask.gbr*
%MOIN*%
G04 #@! TF.FileFunction,Soldermask,Top*
G04 #@! TF.Part,Single*
%ADD16C,0.023622*%
%ADD44C,0.059055*%
%ADD45C,0.047244*%
%ADD58O,0.051181X0.072835*%
%ADD60O,0.098425X0.055118*%
%ADD62O,0.110236X0.059055*%
%ADD64R,0.043307X0.018504*%
%ADD66R,0.03937X0.018504*%
%ADD68R,0.114173X0.114173*%
%ADD70R,0.017717X0.031496*%
%ADD72R,0.031496X0.017717*%
%ADD74R,0.224409X0.106299*%
%ADD76R,0.023622X0.049213*%
%ADD82R,0.07874X0.133858*%
%ADD84R,0.024016X0.022441*%
%ADD86R,0.095866X0.075787*%
%ADD88R,0.023819X0.04685*%
%ADD90R,0.023819X0.037795*%
%ADD92R,0.075787X0.095866*%
%ADD94R,0.04685X0.023819*%
%ADD96R,0.037795X0.023819*%
%ADD98R,0.125984X0.066929*%
%ADD100R,0.129921X0.204724*%
%ADD102R,0.043307X0.023622*%
%ADD104R,0.023622X0.043307*%
%ADD106R,0.027559X0.041339*%
%ADD108R,0.031496X0.031496*%
%ADD110R,0.047244X0.051181*%
%ADD112R,0.022441X0.024016*%
%ADD114R,0.051181X0.047244*%
%ADD116R,0.043307X0.035433*%
%ADD118R,0.035433X0.043307*%
%ADD120R,0.07874X0.070866*%
%FSLAX26Y26*%
G04*
G70*
G90*
G75*
G01*
G04 TopMask*
%LPD*%
D120*
X3443307Y809399D3*
Y919635D3*
X3533858Y809399D3*
Y919635D3*
X3624412Y809399D3*
Y919635D3*
X3714961Y809399D3*
Y919635D3*
X2522049Y903887D3*
Y1014123D3*
X2612597Y903887D3*
Y1014123D3*
X2703150Y903887D3*
Y1014123D3*
X2793701Y903887D3*
Y1014123D3*
D118*
X3140157Y1655856D3*
Y1604675D3*
X2945276Y1842864D3*
Y1791682D3*
X2787008D3*
Y1842864D3*
D116*
X2884646Y1388139D3*
X2935827D3*
D114*
X3128346Y1411761D3*
X3061417D3*
D116*
X2644094Y1439320D3*
X2695276D3*
D118*
X2624803Y1498375D3*
Y1549556D3*
D112*
X2846850Y1455068D3*
X2822441D3*
D110*
X823228Y1128297D3*
Y1061367D3*
D118*
X1128346Y825147D3*
Y876328D3*
X978740Y1065304D3*
Y1116486D3*
X931496Y1065304D3*
Y1116486D3*
D108*
X3006299Y1364517D3*
Y1451131D3*
D106*
X835039Y880265D3*
X783853D3*
X809446Y797588D3*
D104*
X842913Y1002312D3*
X886220D3*
D102*
X1419685Y1130265D3*
Y1173572D3*
D110*
X1382283Y943257D3*
Y1010186D3*
X1321260Y943257D3*
Y1010186D3*
D100*
X3216929Y1236564D3*
X3653937D3*
D98*
X3226772Y1691289D3*
Y1601131D3*
D96*
X2650000Y1195226D3*
Y1169241D3*
Y1143257D3*
Y1117274D3*
D94*
X2766929Y1195245D3*
Y1169261D3*
Y1143297D3*
Y1117294D3*
D92*
X2686535Y1156171D3*
D90*
X2941339Y1207037D3*
X2915354D3*
X2889370D3*
X2863387D3*
D88*
X2941358Y1090108D3*
X2915374D3*
X2889409D3*
X2863407D3*
D86*
X2902283Y1170501D3*
D96*
X2650000Y1340895D3*
Y1314911D3*
Y1288927D3*
Y1262944D3*
D94*
X2766929Y1340915D3*
Y1314930D3*
Y1288966D3*
Y1262963D3*
D92*
X2686535Y1301840D3*
D90*
X3087008Y1207037D3*
X3061024D3*
X3035039D3*
X3009056D3*
D88*
X3087028Y1090108D3*
X3061043D3*
X3035079D3*
X3009076D3*
D86*
X3047953Y1170501D3*
D96*
X1244488Y1047588D3*
Y1073572D3*
Y1099556D3*
Y1125539D3*
D94*
X1127559Y1047568D3*
Y1073552D3*
Y1099517D3*
Y1125520D3*
D92*
X1207953Y1086643D3*
D84*
X2976772Y1825147D3*
Y1800738D3*
D110*
X2830709Y1794438D3*
Y1861367D3*
D82*
X3535827Y1583021D3*
X3756299D3*
D116*
X2785827Y1439320D3*
X2734646D3*
D118*
X2872047Y1791289D3*
Y1842470D3*
X2909449D3*
Y1791289D3*
D84*
X2821260Y1409793D3*
Y1434202D3*
X2848819Y1409793D3*
Y1434202D3*
D118*
X1018110Y1065304D3*
Y1116486D3*
X1063386Y1065304D3*
Y1116486D3*
X1128346Y929478D3*
Y980659D3*
X1244488Y829084D3*
Y880265D3*
X894094Y1116486D3*
Y1065304D3*
X1382283Y866486D3*
Y815304D3*
X1323228Y817273D3*
Y868454D3*
D44*
X2439814Y1643209D3*
X2439812Y1549458D3*
X795669Y697194D3*
D45*
X1029921Y990501D3*
D44*
X972835Y697194D3*
X880315D3*
D76*
X3053543Y1718848D3*
X3027953D3*
X3002362D3*
X2976772D3*
X2951181D3*
X2925591D3*
X2900000D3*
X2874409D3*
X2848819D3*
X2823228D3*
X2797638D3*
X2772047D3*
X2746457D3*
X2720866D3*
Y1490501D3*
X2746457D3*
X2772047D3*
X2797638D3*
X2823228D3*
X2848819D3*
X2874409D3*
X2900000D3*
X2925591D3*
X2951181D3*
X2976772D3*
X3002362D3*
X3027953D3*
X3053543D3*
D74*
X2887205Y1604675D3*
D72*
X880315Y941289D3*
Y921604D3*
Y901919D3*
Y882234D3*
Y862549D3*
Y842864D3*
D70*
X905906Y817273D3*
X925591D3*
X945276D3*
X964961D3*
X984646D3*
X1004331D3*
D72*
X1029921Y842864D3*
Y862549D3*
Y882234D3*
Y901919D3*
Y921604D3*
Y941289D3*
D70*
X1004331Y966879D3*
X984646D3*
X964961D3*
X945276D3*
X925591D3*
X905906D3*
D68*
X955118Y892076D3*
D66*
X679528Y1100738D3*
Y1081052D3*
Y1061367D3*
Y1041682D3*
Y1021997D3*
Y1002312D3*
Y982627D3*
Y962942D3*
Y943257D3*
Y923572D3*
Y903887D3*
Y884202D3*
D64*
X742520Y1090895D3*
Y1071210D3*
Y1051525D3*
Y1031840D3*
Y1012155D3*
Y992470D3*
Y972785D3*
Y953100D3*
Y933415D3*
Y913730D3*
Y894045D3*
Y874360D3*
D62*
X516142Y1157627D3*
Y817470D3*
D60*
X714961D3*
Y1157627D3*
D58*
X691339Y1145816D3*
Y828887D3*
D16*
X636220Y1129281D3*
Y845816D3*
G36*
X2193701Y1262450D2*
X2406201D1*
Y1112450D1*
X2193701D1*
Y1262450D1*
G37*
G36*
X2174950Y806199D2*
X2449950D1*
Y574950D1*
X2174950D1*
Y806199D1*
G37*
G36*
X2000787Y1144340D2*
X2213287D1*
Y994340D1*
X2000787D1*
Y1144340D1*
G37*
M02*
