G04 DipTrace 3.3.0.1*
G04 TopSilk.gbr*
%MOIN*%
G04 #@! TF.FileFunction,Legend,Top*
G04 #@! TF.Part,Single*
%ADD10C,0.009843*%
%ADD28C,0.009449*%
%ADD30C,0.015415*%
%ADD48O,0.016249X0.015383*%
%ADD122C,0.003088*%
%FSLAX26Y26*%
G04*
G70*
G90*
G75*
G01*
G04 TopSilk*
%LPD*%
X3474772Y860186D2*
D10*
X3411843D1*
X3474772Y852738D2*
X3411843D1*
X3474772D2*
Y876297D1*
X3411843Y852738D2*
Y876297D1*
X3565323Y860186D2*
X3502394D1*
X3565323Y852738D2*
X3502394D1*
X3565323D2*
Y876297D1*
X3502394Y852738D2*
Y876297D1*
X3655877Y860186D2*
X3592948D1*
X3655877Y852738D2*
X3592948D1*
X3655877D2*
Y876297D1*
X3592948Y852738D2*
Y876297D1*
X3746425Y860186D2*
X3683496D1*
X3746425Y852738D2*
X3683496D1*
X3746425D2*
Y876297D1*
X3683496Y852738D2*
Y876297D1*
X2553513Y954675D2*
X2490584D1*
X2553513Y947226D2*
X2490584D1*
X2553513D2*
Y970785D1*
X2490584Y947226D2*
Y970785D1*
X2644062Y954675D2*
X2581133D1*
X2644062Y947226D2*
X2581133D1*
X2644062D2*
Y970785D1*
X2581133Y947226D2*
Y970785D1*
X2734614Y954675D2*
X2671685D1*
X2734614Y947226D2*
X2671685D1*
X2734614D2*
Y970785D1*
X2671685Y947226D2*
Y970785D1*
X2825165Y954675D2*
X2762236D1*
X2825165Y947226D2*
X2762236D1*
X2825165D2*
Y970785D1*
X2762236Y947226D2*
Y970785D1*
X2982678Y1376323D2*
Y1439314D1*
X3029921Y1376323D2*
Y1439314D1*
D28*
X3006299Y1339315D3*
D30*
X861945Y883165D3*
X848821Y848764D2*
D10*
X770074D1*
Y829089D1*
X848821D1*
Y848764D1*
X1398031Y909793D2*
X1366535D1*
X1337008D2*
X1305512D1*
X3701208Y990501D2*
X3169658D1*
X3701208Y1482627D2*
X3169658D1*
X3583134Y1642108D2*
X3708992D1*
X3583134Y1523934D2*
X3708992D1*
X3080098Y1667808D2*
X2694311D1*
X3080098Y1541541D2*
X2694311D1*
Y1667808D2*
Y1541541D1*
X3080098Y1667808D2*
Y1624415D1*
Y1584934D2*
Y1541541D1*
Y1624415D2*
G03X3080098Y1584934I66J-19741D01*
G01*
X876270Y959081D2*
X888200Y970791D1*
X876270Y813361D2*
X888200D1*
X876270D2*
Y825071D1*
X1033899Y813361D2*
Y825071D1*
Y813361D2*
X1021968D1*
X1033899Y970791D2*
Y959081D1*
Y970791D2*
X1021968D1*
D48*
X849004Y941134D3*
X3444995Y975645D2*
D122*
X3444044Y977546D1*
X3442121Y979470D1*
X3440219Y980420D1*
X3436395D1*
X3434471Y979470D1*
X3432570Y977546D1*
X3431597Y975645D1*
X3430647Y972771D1*
Y967974D1*
X3431597Y965122D1*
X3432570Y963198D1*
X3434471Y961297D1*
X3436395Y960324D1*
X3440219D1*
X3442121Y961297D1*
X3444044Y963198D1*
X3444995Y965122D1*
X3451170Y976574D2*
X3453094Y977546D1*
X3455968Y980398D1*
Y960324D1*
X3531246Y975645D2*
X3530295Y977546D1*
X3528372Y979470D1*
X3526470Y980420D1*
X3522646D1*
X3520722Y979470D1*
X3518821Y977546D1*
X3517848Y975645D1*
X3516898Y972771D1*
Y967974D1*
X3517848Y965122D1*
X3518821Y963198D1*
X3520722Y961297D1*
X3522646Y960324D1*
X3526470D1*
X3528372Y961297D1*
X3530295Y963198D1*
X3531246Y965122D1*
X3538394Y975623D2*
Y976574D1*
X3539345Y978497D1*
X3540295Y979448D1*
X3542219Y980398D1*
X3546043D1*
X3547945Y979448D1*
X3548895Y978497D1*
X3549868Y976574D1*
Y974672D1*
X3548895Y972749D1*
X3546994Y969897D1*
X3537421Y960324D1*
X3550819D1*
X3621800Y975645D2*
X3620849Y977546D1*
X3618926Y979470D1*
X3617024Y980420D1*
X3613200D1*
X3611276Y979470D1*
X3609375Y977546D1*
X3608402Y975645D1*
X3607452Y972771D1*
Y967974D1*
X3608402Y965122D1*
X3609375Y963198D1*
X3611276Y961297D1*
X3613200Y960324D1*
X3617024D1*
X3618926Y961297D1*
X3620849Y963198D1*
X3621800Y965122D1*
X3629899Y980398D2*
X3640400D1*
X3634674Y972749D1*
X3637548D1*
X3639449Y971798D1*
X3640400Y970848D1*
X3641373Y967974D1*
Y966072D1*
X3640400Y963198D1*
X3638499Y961275D1*
X3635625Y960324D1*
X3632751D1*
X3629899Y961275D1*
X3628948Y962248D1*
X3627975Y964149D1*
X3711873Y975645D2*
X3710922Y977546D1*
X3708999Y979470D1*
X3707097Y980420D1*
X3703273D1*
X3701349Y979470D1*
X3699448Y977546D1*
X3698475Y975645D1*
X3697525Y972771D1*
Y967974D1*
X3698475Y965122D1*
X3699448Y963198D1*
X3701349Y961297D1*
X3703273Y960324D1*
X3707097D1*
X3708999Y961297D1*
X3710922Y963198D1*
X3711873Y965122D1*
X3727621Y960324D2*
Y980398D1*
X3718048Y967023D1*
X3732396D1*
X2519436Y1070133D2*
X2518485Y1072035D1*
X2516562Y1073958D1*
X2514661Y1074909D1*
X2510836D1*
X2508913Y1073958D1*
X2507011Y1072035D1*
X2506039Y1070133D1*
X2505088Y1067259D1*
Y1062462D1*
X2506039Y1059610D1*
X2507011Y1057687D1*
X2508913Y1055785D1*
X2510836Y1054813D1*
X2514661D1*
X2516562Y1055785D1*
X2518485Y1057687D1*
X2519436Y1059610D1*
X2537086Y1074887D2*
X2527535D1*
X2526584Y1066287D1*
X2527535Y1067237D1*
X2530409Y1068210D1*
X2533261D1*
X2536135Y1067237D1*
X2538058Y1065336D1*
X2539009Y1062462D1*
Y1060561D1*
X2538058Y1057687D1*
X2536135Y1055763D1*
X2533261Y1054813D1*
X2530409D1*
X2527535Y1055763D1*
X2526584Y1056736D1*
X2525612Y1058637D1*
X2610471Y1070133D2*
X2609520Y1072035D1*
X2607597Y1073958D1*
X2605696Y1074909D1*
X2601871D1*
X2599948Y1073958D1*
X2598046Y1072035D1*
X2597074Y1070133D1*
X2596123Y1067259D1*
Y1062462D1*
X2597074Y1059610D1*
X2598046Y1057687D1*
X2599948Y1055785D1*
X2601871Y1054813D1*
X2605696D1*
X2607597Y1055785D1*
X2609520Y1057687D1*
X2610471Y1059610D1*
X2628121Y1072035D2*
X2627170Y1073936D1*
X2624296Y1074887D1*
X2622395D1*
X2619521Y1073936D1*
X2617597Y1071062D1*
X2616647Y1066287D1*
Y1061511D1*
X2617597Y1057687D1*
X2619521Y1055763D1*
X2622395Y1054813D1*
X2623345D1*
X2626197Y1055763D1*
X2628121Y1057687D1*
X2629071Y1060561D1*
Y1061511D1*
X2628121Y1064385D1*
X2626197Y1066287D1*
X2623345Y1067237D1*
X2622395D1*
X2619521Y1066287D1*
X2617597Y1064385D1*
X2616647Y1061511D1*
X2700537Y1070133D2*
X2699586Y1072035D1*
X2697663Y1073958D1*
X2695762Y1074909D1*
X2691937D1*
X2690014Y1073958D1*
X2688112Y1072035D1*
X2687140Y1070133D1*
X2686189Y1067259D1*
Y1062462D1*
X2687140Y1059610D1*
X2688112Y1057687D1*
X2690014Y1055785D1*
X2691937Y1054813D1*
X2695762D1*
X2697663Y1055785D1*
X2699586Y1057687D1*
X2700537Y1059610D1*
X2710537Y1054813D2*
X2720110Y1074887D1*
X2706713D1*
X2791099Y1070133D2*
X2790149Y1072035D1*
X2788225Y1073958D1*
X2786324Y1074909D1*
X2782499D1*
X2780576Y1073958D1*
X2778675Y1072035D1*
X2777702Y1070133D1*
X2776751Y1067259D1*
Y1062462D1*
X2777702Y1059610D1*
X2778675Y1057687D1*
X2780576Y1055785D1*
X2782499Y1054813D1*
X2786324D1*
X2788225Y1055785D1*
X2790149Y1057687D1*
X2791099Y1059610D1*
X2802050Y1074887D2*
X2799198Y1073936D1*
X2798226Y1072035D1*
Y1070111D1*
X2799198Y1068210D1*
X2801100Y1067237D1*
X2804924Y1066287D1*
X2807798Y1065336D1*
X2809700Y1063413D1*
X2810650Y1061511D1*
Y1058637D1*
X2809700Y1056736D1*
X2808749Y1055763D1*
X2805875Y1054813D1*
X2802050D1*
X2799198Y1055763D1*
X2798226Y1056736D1*
X2797275Y1058637D1*
Y1061511D1*
X2798226Y1063413D1*
X2800149Y1065336D1*
X2803001Y1066287D1*
X2806826Y1067237D1*
X2808749Y1068210D1*
X2809700Y1070111D1*
Y1072035D1*
X2808749Y1073936D1*
X2805875Y1074887D1*
X2802050D1*
X3138020Y1698086D2*
X3137070Y1699987D1*
X3135146Y1701911D1*
X3133245Y1702861D1*
X3129420D1*
X3127497Y1701911D1*
X3125596Y1699987D1*
X3124623Y1698086D1*
X3123672Y1695212D1*
Y1690415D1*
X3124623Y1687563D1*
X3125596Y1685639D1*
X3127497Y1683738D1*
X3129420Y1682765D1*
X3133245D1*
X3135146Y1683738D1*
X3137070Y1685639D1*
X3138020Y1687563D1*
X3156643Y1696163D2*
X3155670Y1693289D1*
X3153769Y1691365D1*
X3150895Y1690415D1*
X3149944D1*
X3147070Y1691365D1*
X3145169Y1693289D1*
X3144196Y1696163D1*
Y1697113D1*
X3145169Y1699987D1*
X3147070Y1701889D1*
X3149944Y1702839D1*
X3150895D1*
X3153769Y1701889D1*
X3155670Y1699987D1*
X3156643Y1696163D1*
Y1691365D1*
X3155670Y1686590D1*
X3153769Y1683716D1*
X3150895Y1682765D1*
X3148993D1*
X3146119Y1683716D1*
X3145169Y1685639D1*
X2952925Y1885094D2*
X2951974Y1886995D1*
X2950051Y1888919D1*
X2948149Y1889869D1*
X2944325D1*
X2942401Y1888919D1*
X2940500Y1886995D1*
X2939527Y1885094D1*
X2938577Y1882220D1*
Y1877423D1*
X2939527Y1874571D1*
X2940500Y1872647D1*
X2942401Y1870746D1*
X2944325Y1869773D1*
X2948149D1*
X2950051Y1870746D1*
X2951974Y1872647D1*
X2952925Y1874571D1*
X2959100Y1886023D2*
X2961024Y1886995D1*
X2963898Y1889847D1*
Y1869773D1*
X2975821Y1889847D2*
X2972947Y1888897D1*
X2971024Y1886023D1*
X2970073Y1881247D1*
Y1878373D1*
X2971024Y1873598D1*
X2972947Y1870724D1*
X2975821Y1869773D1*
X2977723D1*
X2980597Y1870724D1*
X2982498Y1873598D1*
X2983471Y1878373D1*
Y1881247D1*
X2982498Y1886023D1*
X2980597Y1888897D1*
X2977723Y1889847D1*
X2975821D1*
X2982498Y1886023D2*
X2971024Y1873598D1*
X2783209Y1885094D2*
X2782258Y1886995D1*
X2780335Y1888919D1*
X2778433Y1889869D1*
X2774609D1*
X2772685Y1888919D1*
X2770784Y1886995D1*
X2769811Y1885094D1*
X2768861Y1882220D1*
Y1877423D1*
X2769811Y1874571D1*
X2770784Y1872647D1*
X2772685Y1870746D1*
X2774609Y1869773D1*
X2778433D1*
X2780335Y1870746D1*
X2782258Y1872647D1*
X2783209Y1874571D1*
X2789384Y1886023D2*
X2791308Y1886995D1*
X2794182Y1889847D1*
Y1869773D1*
X2800358Y1886023D2*
X2802281Y1886995D1*
X2805155Y1889847D1*
Y1869773D1*
X2902137Y1426433D2*
X2901187Y1428334D1*
X2899263Y1430257D1*
X2897362Y1431208D1*
X2893537D1*
X2891614Y1430257D1*
X2889713Y1428334D1*
X2888740Y1426433D1*
X2887789Y1423559D1*
Y1418761D1*
X2888740Y1415909D1*
X2889713Y1413986D1*
X2891614Y1412085D1*
X2893537Y1411112D1*
X2897362D1*
X2899263Y1412085D1*
X2901187Y1413986D1*
X2902137Y1415909D1*
X2908313Y1427361D2*
X2910236Y1428334D1*
X2913110Y1431186D1*
Y1411112D1*
X2920259Y1426410D2*
Y1427361D1*
X2921209Y1429284D1*
X2922160Y1430235D1*
X2924083Y1431186D1*
X2927908D1*
X2929809Y1430235D1*
X2930760Y1429284D1*
X2931733Y1427361D1*
Y1425460D1*
X2930760Y1423536D1*
X2928859Y1420685D1*
X2919286Y1411112D1*
X2932683D1*
X3086783Y1455960D2*
X3085832Y1457861D1*
X3083909Y1459785D1*
X3082008Y1460735D1*
X3078183D1*
X3076259Y1459785D1*
X3074358Y1457861D1*
X3073385Y1455960D1*
X3072435Y1453086D1*
Y1448289D1*
X3073385Y1445437D1*
X3074358Y1443513D1*
X3076259Y1441612D1*
X3078183Y1440639D1*
X3082008D1*
X3083909Y1441612D1*
X3085832Y1443513D1*
X3086783Y1445437D1*
X3092959Y1456889D2*
X3094882Y1457861D1*
X3097756Y1460713D1*
Y1440639D1*
X3105855Y1460713D2*
X3116356D1*
X3110630Y1453064D1*
X3113504D1*
X3115406Y1452113D1*
X3116356Y1451163D1*
X3117329Y1448289D1*
Y1446387D1*
X3116356Y1443513D1*
X3114455Y1441590D1*
X3111581Y1440639D1*
X3108707D1*
X3105855Y1441590D1*
X3104904Y1442563D1*
X3103932Y1444464D1*
X2659142Y1414622D2*
X2658192Y1416523D1*
X2656268Y1418446D1*
X2654367Y1419397D1*
X2650542D1*
X2648619Y1418446D1*
X2646718Y1416523D1*
X2645745Y1414622D1*
X2644794Y1411748D1*
Y1406950D1*
X2645745Y1404098D1*
X2646718Y1402175D1*
X2648619Y1400274D1*
X2650542Y1399301D1*
X2654367D1*
X2656268Y1400274D1*
X2658192Y1402175D1*
X2659142Y1404098D1*
X2665318Y1415550D2*
X2667241Y1416523D1*
X2670115Y1419375D1*
Y1399301D1*
X2685864D2*
Y1419375D1*
X2676291Y1406000D1*
X2690639D1*
X2616704Y1591787D2*
X2615753Y1593688D1*
X2613830Y1595612D1*
X2611929Y1596562D1*
X2608104D1*
X2606181Y1595612D1*
X2604279Y1593688D1*
X2603307Y1591787D1*
X2602356Y1588913D1*
Y1584115D1*
X2603307Y1581264D1*
X2604279Y1579340D1*
X2606181Y1577439D1*
X2608104Y1576466D1*
X2611929D1*
X2613830Y1577439D1*
X2615753Y1579340D1*
X2616704Y1581264D1*
X2622880Y1592715D2*
X2624803Y1593688D1*
X2627677Y1596540D1*
Y1576466D1*
X2645327Y1596540D2*
X2635776D1*
X2634826Y1587940D1*
X2635776Y1588891D1*
X2638650Y1589864D1*
X2641502D1*
X2644376Y1588891D1*
X2646300Y1586990D1*
X2647250Y1584115D1*
Y1582214D1*
X2646300Y1579340D1*
X2644376Y1577417D1*
X2641502Y1576466D1*
X2638650D1*
X2635776Y1577417D1*
X2634826Y1578390D1*
X2633853Y1580291D1*
X2876246Y1458125D2*
X2875295Y1460027D1*
X2873372Y1461950D1*
X2871470Y1462901D1*
X2867646D1*
X2865722Y1461950D1*
X2863821Y1460027D1*
X2862848Y1458125D1*
X2861898Y1455251D1*
Y1450454D1*
X2862848Y1447602D1*
X2863821Y1445679D1*
X2865722Y1443778D1*
X2867646Y1442805D1*
X2871470D1*
X2873372Y1443778D1*
X2875295Y1445679D1*
X2876246Y1447602D1*
X2882421Y1459054D2*
X2884345Y1460027D1*
X2887219Y1462879D1*
Y1442805D1*
X2904868Y1460027D2*
X2903918Y1461928D1*
X2901044Y1462879D1*
X2899142D1*
X2896268Y1461928D1*
X2894345Y1459054D1*
X2893394Y1454279D1*
Y1449503D1*
X2894345Y1445679D1*
X2896268Y1443755D1*
X2899142Y1442805D1*
X2900093D1*
X2902945Y1443755D1*
X2904868Y1445679D1*
X2905819Y1448553D1*
Y1449503D1*
X2904868Y1452377D1*
X2902945Y1454279D1*
X2900093Y1455229D1*
X2899142D1*
X2896268Y1454279D1*
X2894345Y1452377D1*
X2893394Y1449503D1*
X773791Y1188244D2*
X772840Y1190145D1*
X770917Y1192068D1*
X769015Y1193019D1*
X765191D1*
X763267Y1192068D1*
X761366Y1190145D1*
X760393Y1188244D1*
X759443Y1185370D1*
Y1180572D1*
X760393Y1177720D1*
X761366Y1175797D1*
X763267Y1173896D1*
X765191Y1172923D1*
X769015D1*
X770917Y1173896D1*
X772840Y1175797D1*
X773791Y1177720D1*
X780939Y1188221D2*
Y1189172D1*
X781890Y1191096D1*
X782840Y1192046D1*
X784764Y1192997D1*
X788588D1*
X790490Y1192046D1*
X791440Y1191096D1*
X792413Y1189172D1*
Y1187271D1*
X791440Y1185347D1*
X789539Y1182496D1*
X779966Y1172923D1*
X793364D1*
X799539Y1189172D2*
X801463Y1190145D1*
X804337Y1192997D1*
Y1172923D1*
X1163192Y855566D2*
X1162241Y857468D1*
X1160317Y859391D1*
X1158416Y860342D1*
X1154592D1*
X1152668Y859391D1*
X1150767Y857468D1*
X1149794Y855566D1*
X1148844Y852692D1*
Y847895D1*
X1149794Y845043D1*
X1150767Y843120D1*
X1152668Y841218D1*
X1154592Y840246D1*
X1158416D1*
X1160317Y841218D1*
X1162241Y843120D1*
X1163192Y845043D1*
X1170340Y855544D2*
Y856495D1*
X1171291Y858418D1*
X1172241Y859369D1*
X1174165Y860320D1*
X1177989D1*
X1179891Y859369D1*
X1180841Y858418D1*
X1181814Y856495D1*
Y854594D1*
X1180841Y852670D1*
X1178940Y849818D1*
X1169367Y840246D1*
X1182765D1*
X1189913Y855544D2*
Y856495D1*
X1190864Y858418D1*
X1191814Y859369D1*
X1193738Y860320D1*
X1197562D1*
X1199464Y859369D1*
X1200414Y858418D1*
X1201387Y856495D1*
Y854594D1*
X1200414Y852670D1*
X1198513Y849818D1*
X1188940Y840246D1*
X1202338D1*
X974215Y1160685D2*
X973264Y1162586D1*
X971341Y1164509D1*
X969440Y1165460D1*
X965615D1*
X963692Y1164509D1*
X961791Y1162586D1*
X960818Y1160685D1*
X959867Y1157811D1*
Y1153013D1*
X960818Y1150161D1*
X961791Y1148238D1*
X963692Y1146337D1*
X965615Y1145364D1*
X969440D1*
X971341Y1146337D1*
X973264Y1148238D1*
X974215Y1150161D1*
X981364Y1160662D2*
Y1161613D1*
X982314Y1163536D1*
X983265Y1164487D1*
X985188Y1165438D1*
X989013D1*
X990914Y1164487D1*
X991865Y1163536D1*
X992838Y1161613D1*
Y1159712D1*
X991865Y1157788D1*
X989964Y1154937D1*
X980391Y1145364D1*
X993788D1*
X1001887Y1165438D2*
X1012388D1*
X1006663Y1157788D1*
X1009537D1*
X1011438Y1156838D1*
X1012388Y1155887D1*
X1013361Y1153013D1*
Y1151112D1*
X1012388Y1148238D1*
X1010487Y1146314D1*
X1007613Y1145364D1*
X1004739D1*
X1001887Y1146314D1*
X1000937Y1147287D1*
X999964Y1149188D1*
X912716Y1160685D2*
X911766Y1162586D1*
X909842Y1164509D1*
X907941Y1165460D1*
X904116D1*
X902193Y1164509D1*
X900292Y1162586D1*
X899319Y1160685D1*
X898368Y1157811D1*
Y1153013D1*
X899319Y1150161D1*
X900292Y1148238D1*
X902193Y1146337D1*
X904116Y1145364D1*
X907941D1*
X909842Y1146337D1*
X911766Y1148238D1*
X912716Y1150161D1*
X919865Y1160662D2*
Y1161613D1*
X920815Y1163536D1*
X921766Y1164487D1*
X923689Y1165438D1*
X927514D1*
X929415Y1164487D1*
X930366Y1163536D1*
X931339Y1161613D1*
Y1159712D1*
X930366Y1157788D1*
X928465Y1154937D1*
X918892Y1145364D1*
X932289D1*
X948038D2*
Y1165438D1*
X938465Y1152062D1*
X952813D1*
X3047264Y1380027D2*
Y1359931D1*
X3053962D1*
X3056836Y1360904D1*
X3058760Y1362805D1*
X3059710Y1364728D1*
X3060661Y1367580D1*
Y1372377D1*
X3059710Y1375251D1*
X3058760Y1377153D1*
X3056836Y1379076D1*
X3053962Y1380027D1*
X3047264D1*
X3066837Y1376180D2*
X3068760Y1377153D1*
X3071634Y1380005D1*
Y1359931D1*
X775819Y924318D2*
Y904222D1*
X782518D1*
X785392Y905195D1*
X787315Y907096D1*
X788266Y909019D1*
X789217Y911871D1*
Y916669D1*
X788266Y919543D1*
X787315Y921444D1*
X785392Y923367D1*
X782518Y924318D1*
X775819D1*
X796365Y919521D2*
Y920471D1*
X797316Y922395D1*
X798266Y923345D1*
X800190Y924296D1*
X804014D1*
X805916Y923345D1*
X806866Y922395D1*
X807839Y920471D1*
Y918570D1*
X806866Y916647D1*
X804965Y913795D1*
X795392Y904222D1*
X808790D1*
X842595Y1049318D2*
Y1029222D1*
X849294D1*
X852168Y1030195D1*
X854091Y1032096D1*
X855042Y1034019D1*
X855993Y1036871D1*
Y1041669D1*
X855042Y1044543D1*
X854091Y1046444D1*
X852168Y1048367D1*
X849294Y1049318D1*
X842595D1*
X862168Y1045471D2*
X864092Y1046444D1*
X866966Y1049296D1*
Y1029222D1*
X878889Y1049296D2*
X876015Y1048345D1*
X874092Y1045471D1*
X873141Y1040696D1*
Y1037822D1*
X874092Y1033047D1*
X876015Y1030173D1*
X878889Y1029222D1*
X880791D1*
X883665Y1030173D1*
X885566Y1033047D1*
X886539Y1037822D1*
Y1040696D1*
X885566Y1045471D1*
X883665Y1048345D1*
X880791Y1049296D1*
X878889D1*
X885566Y1045471D2*
X874092Y1033047D1*
X1402013Y1210735D2*
Y1190639D1*
X1408712D1*
X1411586Y1191612D1*
X1413509Y1193513D1*
X1414460Y1195437D1*
X1415411Y1198289D1*
Y1203086D1*
X1414460Y1205960D1*
X1413509Y1207861D1*
X1411586Y1209785D1*
X1408712Y1210735D1*
X1402013D1*
X1421586Y1206889D2*
X1423510Y1207861D1*
X1426384Y1210713D1*
Y1190639D1*
X1432559Y1206889D2*
X1434483Y1207861D1*
X1437357Y1210713D1*
Y1190639D1*
X1360312Y1061129D2*
Y1041033D1*
X1367010D1*
X1369884Y1042006D1*
X1371808Y1043907D1*
X1372758Y1045831D1*
X1373709Y1048682D1*
Y1053480D1*
X1372758Y1056354D1*
X1371808Y1058255D1*
X1369884Y1060178D1*
X1367010Y1061129D1*
X1360312D1*
X1379885Y1057282D2*
X1381808Y1058255D1*
X1384682Y1061107D1*
Y1041033D1*
X1391831Y1056332D2*
Y1057282D1*
X1392781Y1059206D1*
X1393732Y1060156D1*
X1395655Y1061107D1*
X1399480D1*
X1401381Y1060156D1*
X1402332Y1059206D1*
X1403305Y1057282D1*
Y1055381D1*
X1402332Y1053458D1*
X1400431Y1050606D1*
X1390858Y1041033D1*
X1404255D1*
X1299288Y1061129D2*
Y1041033D1*
X1305987D1*
X1308861Y1042006D1*
X1310784Y1043907D1*
X1311735Y1045831D1*
X1312685Y1048682D1*
Y1053480D1*
X1311735Y1056354D1*
X1310784Y1058255D1*
X1308861Y1060178D1*
X1305987Y1061129D1*
X1299288D1*
X1318861Y1057282D2*
X1320785Y1058255D1*
X1323659Y1061107D1*
Y1041033D1*
X1331758Y1061107D2*
X1342259D1*
X1336533Y1053458D1*
X1339407D1*
X1341308Y1052507D1*
X1342259Y1051556D1*
X1343232Y1048682D1*
Y1046781D1*
X1342259Y1043907D1*
X1340358Y1041984D1*
X1337484Y1041033D1*
X1334610D1*
X1331758Y1041984D1*
X1330807Y1042957D1*
X1329834Y1044858D1*
X3424210Y1511917D2*
Y1491821D1*
X3435684D1*
X3441859Y1508070D2*
X3443783Y1509043D1*
X3446657Y1511894D1*
Y1491821D1*
X3211248Y1750106D2*
Y1730010D1*
X3222722D1*
X3229871Y1745308D2*
Y1746259D1*
X3230821Y1748182D1*
X3231772Y1749133D1*
X3233695Y1750083D1*
X3237520D1*
X3239421Y1749133D1*
X3240372Y1748182D1*
X3241345Y1746259D1*
Y1744357D1*
X3240372Y1742434D1*
X3238470Y1739582D1*
X3228898Y1730010D1*
X3242295D1*
X2595062Y1197074D2*
X2593160Y1196145D1*
X2591237Y1194222D1*
X2590286Y1192299D1*
X2589314Y1189425D1*
Y1184649D1*
X2590286Y1181775D1*
X2591237Y1179874D1*
X2593160Y1177951D1*
X2595062Y1177000D1*
X2598886D1*
X2600810Y1177951D1*
X2602711Y1179874D1*
X2603662Y1181775D1*
X2604634Y1184649D1*
Y1189425D1*
X2603662Y1192299D1*
X2602711Y1194222D1*
X2600810Y1196145D1*
X2598886Y1197074D1*
X2595062D1*
X2597936Y1180825D2*
X2603662Y1175077D1*
X2610810Y1193227D2*
X2612734Y1194200D1*
X2615608Y1197052D1*
Y1176978D1*
X2890674Y1251287D2*
X2888773Y1250358D1*
X2886849Y1248435D1*
X2885899Y1246511D1*
X2884926Y1243637D1*
Y1238862D1*
X2885899Y1235988D1*
X2886849Y1234087D1*
X2888773Y1232163D1*
X2890674Y1231213D1*
X2894499D1*
X2896422Y1232163D1*
X2898323Y1234087D1*
X2899274Y1235988D1*
X2900247Y1238862D1*
Y1243637D1*
X2899274Y1246511D1*
X2898323Y1248435D1*
X2896422Y1250358D1*
X2894499Y1251287D1*
X2890674D1*
X2893548Y1235037D2*
X2899274Y1229289D1*
X2907395Y1246489D2*
Y1247440D1*
X2908346Y1249363D1*
X2909296Y1250314D1*
X2911220Y1251264D1*
X2915044D1*
X2916946Y1250314D1*
X2917896Y1249363D1*
X2918869Y1247440D1*
Y1245539D1*
X2917896Y1243615D1*
X2915995Y1240763D1*
X2906422Y1231191D1*
X2919820D1*
X2592730Y1340775D2*
X2590829Y1339846D1*
X2588906Y1337923D1*
X2587955Y1336000D1*
X2586982Y1333125D1*
Y1328350D1*
X2587955Y1325476D1*
X2588906Y1323575D1*
X2590829Y1321652D1*
X2592730Y1320701D1*
X2596555D1*
X2598478Y1321652D1*
X2600380Y1323575D1*
X2601330Y1325476D1*
X2602303Y1328350D1*
Y1333125D1*
X2601330Y1336000D1*
X2600380Y1337923D1*
X2598478Y1339846D1*
X2596555Y1340775D1*
X2592730D1*
X2595604Y1324526D2*
X2601330Y1318778D1*
X2610402Y1340753D2*
X2620903D1*
X2615177Y1333103D1*
X2618051D1*
X2619953Y1332153D1*
X2620903Y1331202D1*
X2621876Y1328328D1*
Y1326427D1*
X2620903Y1323553D1*
X2619002Y1321629D1*
X2616128Y1320679D1*
X2613254D1*
X2610402Y1321629D1*
X2609451Y1322602D1*
X2608479Y1324503D1*
X3035868Y1251287D2*
X3033967Y1250358D1*
X3032043Y1248435D1*
X3031093Y1246511D1*
X3030120Y1243637D1*
Y1238862D1*
X3031093Y1235988D1*
X3032043Y1234087D1*
X3033967Y1232163D1*
X3035868Y1231213D1*
X3039692D1*
X3041616Y1232163D1*
X3043517Y1234087D1*
X3044468Y1235988D1*
X3045441Y1238862D1*
Y1243637D1*
X3044468Y1246511D1*
X3043517Y1248435D1*
X3041616Y1250358D1*
X3039692Y1251287D1*
X3035868D1*
X3038742Y1235037D2*
X3044468Y1229289D1*
X3061189Y1231191D2*
Y1251264D1*
X3051616Y1237889D1*
X3065964D1*
X1172547Y1162801D2*
X1170646Y1161873D1*
X1168723Y1159949D1*
X1167772Y1158026D1*
X1166799Y1155152D1*
Y1150376D1*
X1167772Y1147502D1*
X1168723Y1145601D1*
X1170646Y1143678D1*
X1172547Y1142727D1*
X1176372D1*
X1178295Y1143678D1*
X1180197Y1145601D1*
X1181147Y1147502D1*
X1182120Y1150376D1*
Y1155152D1*
X1181147Y1158026D1*
X1180197Y1159949D1*
X1178295Y1161873D1*
X1176372Y1162801D1*
X1172547D1*
X1175421Y1146552D2*
X1181147Y1140804D1*
X1199770Y1159927D2*
X1198819Y1161828D1*
X1195945Y1162779D1*
X1194044D1*
X1191170Y1161828D1*
X1189246Y1158954D1*
X1188296Y1154179D1*
Y1149404D1*
X1189246Y1145579D1*
X1191170Y1143656D1*
X1194044Y1142705D1*
X1194994D1*
X1197846Y1143656D1*
X1199770Y1145579D1*
X1200720Y1148453D1*
Y1149404D1*
X1199770Y1152278D1*
X1197846Y1154179D1*
X1194994Y1155130D1*
X1194044D1*
X1191170Y1154179D1*
X1189246Y1152278D1*
X1188296Y1149404D1*
X2992145Y1816714D2*
X3000745D1*
X3003619Y1817687D1*
X3004592Y1818637D1*
X3005543Y1820539D1*
Y1822462D1*
X3004592Y1824363D1*
X3003619Y1825336D1*
X3000745Y1826287D1*
X2992145D1*
Y1806191D1*
X2998844Y1816714D2*
X3005543Y1806191D1*
X3011719Y1822440D2*
X3013642Y1823413D1*
X3016516Y1826264D1*
Y1806191D1*
X2814223Y1902738D2*
X2822823D1*
X2825697Y1903710D1*
X2826670Y1904661D1*
X2827621Y1906562D1*
Y1908486D1*
X2826670Y1910387D1*
X2825697Y1911360D1*
X2822823Y1912310D1*
X2814223D1*
Y1892214D1*
X2820922Y1902738D2*
X2827621Y1892214D1*
X2834769Y1907513D2*
Y1908463D1*
X2835720Y1910387D1*
X2836671Y1911337D1*
X2838594Y1912288D1*
X2842419D1*
X2844320Y1911337D1*
X2845270Y1910387D1*
X2846243Y1908463D1*
Y1906562D1*
X2845270Y1904639D1*
X2843369Y1901787D1*
X2833797Y1892214D1*
X2847194D1*
X3629578Y1665730D2*
X3638178D1*
X3641052Y1666702D1*
X3642025Y1667653D1*
X3642975Y1669554D1*
Y1671478D1*
X3642025Y1673379D1*
X3641052Y1674352D1*
X3638178Y1675302D1*
X3629578D1*
Y1655206D1*
X3636276Y1665730D2*
X3642975Y1655206D1*
X3651074Y1675280D2*
X3661575D1*
X3655850Y1667631D1*
X3658724D1*
X3660625Y1666680D1*
X3661575Y1665730D1*
X3662548Y1662856D1*
Y1660954D1*
X3661575Y1658080D1*
X3659674Y1656157D1*
X3656800Y1655206D1*
X3653926D1*
X3651074Y1656157D1*
X3650124Y1657130D1*
X3649151Y1659031D1*
X2743276Y1409824D2*
X2751876D1*
X2754750Y1410797D1*
X2755722Y1411748D1*
X2756673Y1413649D1*
Y1415572D1*
X2755722Y1417473D1*
X2754750Y1418446D1*
X2751876Y1419397D1*
X2743276D1*
Y1399301D1*
X2749974Y1409824D2*
X2756673Y1399301D1*
X2772421D2*
Y1419375D1*
X2762849Y1406000D1*
X2777197D1*
X2855562Y1879903D2*
X2864162D1*
X2867036Y1880876D1*
X2868009Y1881826D1*
X2868959Y1883728D1*
Y1885651D1*
X2868009Y1887552D1*
X2867036Y1888525D1*
X2864162Y1889476D1*
X2855562D1*
Y1869380D1*
X2862261Y1879903D2*
X2868959Y1869380D1*
X2886609Y1889453D2*
X2877058D1*
X2876108Y1880854D1*
X2877058Y1881804D1*
X2879932Y1882777D1*
X2882784D1*
X2885658Y1881804D1*
X2887582Y1879903D1*
X2888532Y1877029D1*
Y1875128D1*
X2887582Y1872254D1*
X2885658Y1870330D1*
X2882784Y1869380D1*
X2879932D1*
X2877058Y1870330D1*
X2876108Y1871303D1*
X2875135Y1873204D1*
X2897387Y1879903D2*
X2905987D1*
X2908861Y1880876D1*
X2909834Y1881826D1*
X2910784Y1883728D1*
Y1885651D1*
X2909834Y1887552D1*
X2908861Y1888525D1*
X2905987Y1889476D1*
X2897387D1*
Y1869380D1*
X2904086Y1879903D2*
X2910784Y1869380D1*
X2928434Y1886602D2*
X2927483Y1888503D1*
X2924609Y1889453D1*
X2922708D1*
X2919834Y1888503D1*
X2917911Y1885629D1*
X2916960Y1880854D1*
Y1876078D1*
X2917911Y1872254D1*
X2919834Y1870330D1*
X2922708Y1869380D1*
X2923659D1*
X2926511Y1870330D1*
X2928434Y1872254D1*
X2929385Y1875128D1*
Y1876078D1*
X2928434Y1878952D1*
X2926511Y1880854D1*
X2923659Y1881804D1*
X2922708D1*
X2919834Y1880854D1*
X2917911Y1878952D1*
X2916960Y1876078D1*
X2785090Y1384430D2*
X2793690D1*
X2796564Y1385403D1*
X2797536Y1386354D1*
X2798487Y1388255D1*
Y1390178D1*
X2797536Y1392080D1*
X2796564Y1393053D1*
X2793690Y1394003D1*
X2785090D1*
Y1373907D1*
X2791788Y1384430D2*
X2798487Y1373907D1*
X2808487D2*
X2818060Y1393981D1*
X2804663D1*
X2828408Y1384430D2*
X2837008D1*
X2839882Y1385403D1*
X2840854Y1386354D1*
X2841805Y1388255D1*
Y1390178D1*
X2840854Y1392080D1*
X2839882Y1393053D1*
X2837008Y1394003D1*
X2828408D1*
Y1373907D1*
X2835106Y1384430D2*
X2841805Y1373907D1*
X2852756Y1393981D2*
X2849904Y1393030D1*
X2848931Y1391129D1*
Y1389206D1*
X2849904Y1387304D1*
X2851805Y1386332D1*
X2855630Y1385381D1*
X2858504Y1384430D1*
X2860405Y1382507D1*
X2861356Y1380606D1*
Y1377732D1*
X2860405Y1375831D1*
X2859455Y1374858D1*
X2856581Y1373907D1*
X2852756D1*
X2849904Y1374858D1*
X2848931Y1375831D1*
X2847981Y1377732D1*
Y1380606D1*
X2848931Y1382507D1*
X2850855Y1384430D1*
X2853707Y1385381D1*
X2857531Y1386332D1*
X2859455Y1387304D1*
X2860405Y1389206D1*
Y1391129D1*
X2859455Y1393030D1*
X2856581Y1393981D1*
X2852756D1*
X1024184Y1155887D2*
X1032784D1*
X1035658Y1156860D1*
X1036631Y1157811D1*
X1037581Y1159712D1*
Y1161635D1*
X1036631Y1163536D1*
X1035658Y1164509D1*
X1032784Y1165460D1*
X1024184D1*
Y1145364D1*
X1030883Y1155887D2*
X1037581Y1145364D1*
X1043757Y1161613D2*
X1045680Y1162586D1*
X1048554Y1165438D1*
Y1145364D1*
X1066204Y1162586D2*
X1065253Y1164487D1*
X1062379Y1165438D1*
X1060478D1*
X1057604Y1164487D1*
X1055681Y1161613D1*
X1054730Y1156838D1*
Y1152062D1*
X1055681Y1148238D1*
X1057604Y1146314D1*
X1060478Y1145364D1*
X1061429D1*
X1064281Y1146314D1*
X1066204Y1148238D1*
X1067155Y1151112D1*
Y1152062D1*
X1066204Y1154937D1*
X1064281Y1156838D1*
X1061429Y1157788D1*
X1060478D1*
X1057604Y1156838D1*
X1055681Y1154937D1*
X1054730Y1152062D1*
X1088658Y1120454D2*
X1097258D1*
X1100132Y1121427D1*
X1101105Y1122377D1*
X1102056Y1124279D1*
Y1126202D1*
X1101105Y1128103D1*
X1100132Y1129076D1*
X1097258Y1130027D1*
X1088658D1*
Y1109931D1*
X1095357Y1120454D2*
X1102056Y1109931D1*
X1108231Y1126180D2*
X1110155Y1127153D1*
X1113029Y1130005D1*
Y1109931D1*
X1123029D2*
X1132602Y1130005D1*
X1119204D1*
X1147724Y955100D2*
X1156324D1*
X1159198Y956072D1*
X1160171Y957023D1*
X1161122Y958924D1*
Y960848D1*
X1160171Y962749D1*
X1159198Y963722D1*
X1156324Y964672D1*
X1147724D1*
Y944576D1*
X1154423Y955100D2*
X1161122Y944576D1*
X1167297Y960826D2*
X1169221Y961798D1*
X1172095Y964650D1*
Y944576D1*
X1183046Y964650D2*
X1180194Y963700D1*
X1179221Y961798D1*
Y959875D1*
X1180194Y957974D1*
X1182095Y957001D1*
X1185920Y956050D1*
X1188794Y955100D1*
X1190695Y953176D1*
X1191646Y951275D1*
Y948401D1*
X1190695Y946500D1*
X1189744Y945527D1*
X1186870Y944576D1*
X1183046D1*
X1180194Y945527D1*
X1179221Y946500D1*
X1178270Y948401D1*
Y951275D1*
X1179221Y953176D1*
X1181145Y955100D1*
X1183996Y956050D1*
X1187821Y957001D1*
X1189744Y957974D1*
X1190695Y959875D1*
Y961798D1*
X1189744Y963700D1*
X1186870Y964650D1*
X1183046D1*
X1222992Y917698D2*
X1231592D1*
X1234466Y918671D1*
X1235438Y919622D1*
X1236389Y921523D1*
Y923446D1*
X1235438Y925347D1*
X1234466Y926320D1*
X1231592Y927271D1*
X1222992D1*
Y907175D1*
X1229690Y917698D2*
X1236389Y907175D1*
X1242565Y923424D2*
X1244488Y924397D1*
X1247362Y927249D1*
Y907175D1*
X1265985Y920572D2*
X1265012Y917698D1*
X1263111Y915775D1*
X1260237Y914824D1*
X1259286D1*
X1256412Y915775D1*
X1254511Y917698D1*
X1253538Y920572D1*
Y921523D1*
X1254511Y924397D1*
X1256412Y926298D1*
X1259286Y927249D1*
X1260237D1*
X1263111Y926298D1*
X1265012Y924397D1*
X1265985Y920572D1*
Y915775D1*
X1265012Y911000D1*
X1263111Y908125D1*
X1260237Y907175D1*
X1258335D1*
X1255461Y908125D1*
X1254511Y910049D1*
X834358Y1155887D2*
X842958D1*
X845832Y1156860D1*
X846805Y1157811D1*
X847756Y1159712D1*
Y1161635D1*
X846805Y1163536D1*
X845832Y1164509D1*
X842958Y1165460D1*
X834358D1*
Y1145364D1*
X841057Y1155887D2*
X847756Y1145364D1*
X854904Y1160662D2*
Y1161613D1*
X855855Y1163536D1*
X856805Y1164487D1*
X858729Y1165438D1*
X862553D1*
X864455Y1164487D1*
X865405Y1163536D1*
X866378Y1161613D1*
Y1159712D1*
X865405Y1157788D1*
X863504Y1154937D1*
X853931Y1145364D1*
X867329D1*
X879252Y1165438D2*
X876378Y1164487D1*
X874455Y1161613D1*
X873504Y1156838D1*
Y1153964D1*
X874455Y1149188D1*
X876378Y1146314D1*
X879252Y1145364D1*
X881154D1*
X884028Y1146314D1*
X885929Y1149188D1*
X886902Y1153964D1*
Y1156838D1*
X885929Y1161613D1*
X884028Y1164487D1*
X881154Y1165438D1*
X879252D1*
X885929Y1161613D2*
X874455Y1149188D1*
X1362280Y748407D2*
X1370880D1*
X1373754Y749380D1*
X1374727Y750330D1*
X1375678Y752231D1*
Y754155D1*
X1374727Y756056D1*
X1373754Y757029D1*
X1370880Y757980D1*
X1362280D1*
Y737884D1*
X1368979Y748407D2*
X1375678Y737884D1*
X1382826Y753182D2*
Y754133D1*
X1383777Y756056D1*
X1384727Y757007D1*
X1386651Y757957D1*
X1390475D1*
X1392377Y757007D1*
X1393327Y756056D1*
X1394300Y754133D1*
Y752231D1*
X1393327Y750308D1*
X1391426Y747456D1*
X1381853Y737884D1*
X1395251D1*
X1401426Y754133D2*
X1403350Y755106D1*
X1406224Y757957D1*
Y737884D1*
X1294988Y748407D2*
X1303588D1*
X1306462Y749380D1*
X1307435Y750330D1*
X1308385Y752231D1*
Y754155D1*
X1307435Y756056D1*
X1306462Y757029D1*
X1303588Y757980D1*
X1294988D1*
Y737884D1*
X1301687Y748407D2*
X1308385Y737884D1*
X1315534Y753182D2*
Y754133D1*
X1316485Y756056D1*
X1317435Y757007D1*
X1319359Y757957D1*
X1323183D1*
X1325084Y757007D1*
X1326035Y756056D1*
X1327008Y754133D1*
Y752231D1*
X1326035Y750308D1*
X1324134Y747456D1*
X1314561Y737884D1*
X1327959D1*
X1335107Y753182D2*
Y754133D1*
X1336058Y756056D1*
X1337008Y757007D1*
X1338932Y757957D1*
X1342756D1*
X1344658Y757007D1*
X1345608Y756056D1*
X1346581Y754133D1*
Y752231D1*
X1345608Y750308D1*
X1343707Y747456D1*
X1334134Y737884D1*
X1347532D1*
X2424541Y1702025D2*
Y1681929D1*
X2417842Y1702025D2*
X2431239D1*
X2437415Y1691502D2*
X2446037D1*
X2448889Y1692453D1*
X2449862Y1693426D1*
X2450812Y1695327D1*
Y1698201D1*
X2449862Y1700102D1*
X2448889Y1701075D1*
X2446037Y1702025D1*
X2437415D1*
Y1681929D1*
X2456988Y1698179D2*
X2458911Y1699151D1*
X2461785Y1702003D1*
Y1681929D1*
X2420239Y1608275D2*
Y1588179D1*
X2413541Y1608275D2*
X2426938D1*
X2433114Y1597751D2*
X2441736D1*
X2444588Y1598702D1*
X2445560Y1599675D1*
X2446511Y1601576D1*
Y1604450D1*
X2445560Y1606351D1*
X2444588Y1607324D1*
X2441736Y1608275D1*
X2433114D1*
Y1588179D1*
X2453659Y1603477D2*
Y1604428D1*
X2454610Y1606351D1*
X2455561Y1607302D1*
X2457484Y1608253D1*
X2461309D1*
X2463210Y1607302D1*
X2464161Y1606351D1*
X2465133Y1604428D1*
Y1602527D1*
X2464161Y1600603D1*
X2462259Y1597751D1*
X2452687Y1588179D1*
X2466084D1*
X756059Y746438D2*
X764659D1*
X767533Y747411D1*
X768506Y748362D1*
X769456Y750263D1*
Y752186D1*
X768506Y754088D1*
X767533Y755060D1*
X764659Y756011D1*
X756059D1*
Y735915D1*
X762758Y746438D2*
X769456Y735915D1*
X775632Y743564D2*
X787106D1*
Y745488D1*
X786155Y747411D1*
X785205Y748362D1*
X783281Y749312D1*
X780407D1*
X778506Y748362D1*
X776583Y746438D1*
X775632Y743564D1*
Y741663D1*
X776583Y738789D1*
X778506Y736888D1*
X780407Y735915D1*
X783281D1*
X785205Y736888D1*
X787106Y738789D1*
X803805Y746438D2*
X802854Y748362D1*
X799980Y749312D1*
X797106D1*
X794232Y748362D1*
X793282Y746438D1*
X794232Y744537D1*
X796156Y743564D1*
X800931Y742614D1*
X802854Y741663D1*
X803805Y739740D1*
Y738789D1*
X802854Y736888D1*
X799980Y735915D1*
X797106D1*
X794232Y736888D1*
X793282Y738789D1*
X809981Y743564D2*
X821455D1*
Y745488D1*
X820504Y747411D1*
X819553Y748362D1*
X817630Y749312D1*
X814756D1*
X812855Y748362D1*
X810931Y746438D1*
X809981Y743564D1*
Y741663D1*
X810931Y738789D1*
X812855Y736888D1*
X814756Y735915D1*
X817630D1*
X819553Y736888D1*
X821455Y738789D1*
X830504Y756011D2*
Y739740D1*
X831455Y736888D1*
X833378Y735915D1*
X835280D1*
X827630Y749312D2*
X834329D1*
X1009864Y1019380D2*
X1002193Y1039476D1*
X994544Y1019380D1*
X997418Y1026078D2*
X1006990D1*
X1016040Y1039476D2*
Y1019380D1*
X1022216Y1027029D2*
X1033690D1*
Y1028952D1*
X1032739Y1030876D1*
X1031788Y1031826D1*
X1029865Y1032777D1*
X1026991D1*
X1025090Y1031826D1*
X1023166Y1029903D1*
X1022216Y1027029D1*
Y1025128D1*
X1023166Y1022254D1*
X1025090Y1020352D1*
X1026991Y1019380D1*
X1029865D1*
X1031788Y1020352D1*
X1033690Y1022254D1*
X1039865Y1032777D2*
Y1019380D1*
Y1027029D2*
X1040838Y1029903D1*
X1042739Y1031826D1*
X1044663Y1032777D1*
X1047537D1*
X1056587Y1039476D2*
Y1023204D1*
X1057537Y1020352D1*
X1059461Y1019380D1*
X1061362D1*
X1053713Y1032777D2*
X1060411D1*
X958999Y753137D2*
X957097Y755060D1*
X954223Y756011D1*
X950399D1*
X947525Y755060D1*
X945601Y753137D1*
Y751236D1*
X946574Y749312D1*
X947525Y748362D1*
X949426Y747411D1*
X955174Y745488D1*
X957097Y744537D1*
X958048Y743564D1*
X958999Y741663D1*
Y738789D1*
X957097Y736888D1*
X954223Y735915D1*
X950399D1*
X947525Y736888D1*
X945601Y738789D1*
X965174Y756011D2*
Y735915D1*
X971873D1*
X974747Y736888D1*
X976670Y738789D1*
X977621Y740712D1*
X978572Y743564D1*
Y748362D1*
X977621Y751236D1*
X976670Y753137D1*
X974747Y755060D1*
X971873Y756011D1*
X965174D1*
X1000068Y735915D2*
X992397Y756011D1*
X984747Y735915D1*
X987621Y742614D2*
X997194D1*
X867927Y753137D2*
X866026Y755060D1*
X863152Y756011D1*
X859327D1*
X856453Y755060D1*
X854530Y753137D1*
Y751236D1*
X855502Y749312D1*
X856453Y748362D1*
X858354Y747411D1*
X864102Y745488D1*
X866026Y744537D1*
X866976Y743564D1*
X867927Y741663D1*
Y738789D1*
X866026Y736888D1*
X863152Y735915D1*
X859327D1*
X856453Y736888D1*
X854530Y738789D1*
X888451Y751236D2*
X887500Y753137D1*
X885577Y755060D1*
X883675Y756011D1*
X879851D1*
X877927Y755060D1*
X876026Y753137D1*
X875053Y751236D1*
X874103Y748362D1*
Y743564D1*
X875053Y740712D1*
X876026Y738789D1*
X877927Y736888D1*
X879851Y735915D1*
X883675D1*
X885577Y736888D1*
X887500Y738789D1*
X888451Y740712D1*
X894626Y756011D2*
Y735915D1*
X906100D1*
X2875020Y1768806D2*
Y1754458D1*
X2875970Y1751584D1*
X2877894Y1749683D1*
X2880768Y1748710D1*
X2882669D1*
X2885543Y1749683D1*
X2887466Y1751584D1*
X2888417Y1754458D1*
Y1768806D1*
X2894593Y1764960D2*
X2896516Y1765932D1*
X2899390Y1768784D1*
Y1748710D1*
X1050330Y834751D2*
Y820403D1*
X1051280Y817529D1*
X1053204Y815628D1*
X1056078Y814655D1*
X1057979D1*
X1060853Y815628D1*
X1062776Y817529D1*
X1063727Y820403D1*
Y834751D1*
X1079475Y814655D2*
Y834729D1*
X1069903Y821354D1*
X1084251D1*
X596113Y1212507D2*
Y1198159D1*
X597064Y1195285D1*
X598987Y1193384D1*
X601861Y1192411D1*
X603763D1*
X606637Y1193384D1*
X608560Y1195285D1*
X609511Y1198159D1*
Y1212507D1*
X627160Y1212485D2*
X617610D1*
X616659Y1203885D1*
X617610Y1204836D1*
X620484Y1205808D1*
X623336D1*
X626210Y1204836D1*
X628133Y1202934D1*
X629084Y1200060D1*
Y1198159D1*
X628133Y1195285D1*
X626210Y1193362D1*
X623336Y1192411D1*
X620484D1*
X617610Y1193362D1*
X616659Y1194334D1*
X615686Y1196236D1*
M02*
