G04 DipTrace 3.3.1.3*
G04 Top.gbr*
%MOMM*%
G04 #@! TF.FileFunction,Copper,L1,Top*
G04 #@! TF.Part,Single*
%ADD50C,0.4*%
%ADD51C,0.6*%
G04 #@! TA.AperFunction,Conductor*
%ADD13C,0.3*%
%ADD14R,2.4X2.6*%
%ADD15R,2.7X1.6*%
%ADD16R,1.8X1.6*%
%ADD17R,1.0X1.1*%
%ADD18R,0.7X0.9*%
%ADD19R,1.1X1.0*%
%ADD20R,0.9X0.7*%
%ADD22R,0.6X0.6*%
%ADD24R,0.85X0.5*%
%ADD25R,0.4X0.9*%
%ADD26R,3.3X9.02*%
%ADD27R,3.0X1.5*%
%ADD28R,3.65X4.41*%
%ADD29R,1.35X0.6*%
%ADD30R,1.55X0.6*%
%ADD31R,0.76X0.405*%
%ADD32R,0.99X0.405*%
%ADD33R,1.725X2.235*%
%ADD34R,1.8X3.2*%
%ADD35C,1.5*%
%ADD36C,1.2*%
%ADD37R,0.4X1.05*%
%ADD38R,5.5X2.5*%
%ADD40R,0.6X0.25*%
%ADD41R,0.25X0.6*%
%ADD42R,2.7X2.7*%
%ADD43R,0.3X1.1*%
G04 #@! TA.AperFunction,ComponentPad*
%ADD44C,0.65*%
%ADD45O,1.1X2.2*%
%ADD47R,0.4X1.4*%
%ADD48R,2.2X1.5*%
%FSLAX35Y35*%
G04*
G71*
G90*
G75*
G01*
G04 Top*
%LPD*%
X2957427Y4069300D2*
D13*
Y3997173D1*
X3027550Y3927050D1*
Y3814923D1*
X3417550D2*
Y3893800D1*
X3429677Y3905923D1*
X3509050D1*
X3582427Y3979300D1*
Y4069300D1*
X3457427D2*
Y3981300D1*
X3429673Y3953550D1*
X3397923D1*
X3350300Y3905923D1*
Y3817173D1*
X3352550Y3814923D1*
X3082427Y4069300D2*
Y4030923D1*
X3223300Y3890050D1*
X3222550Y3889300D1*
Y3814923D1*
X3547550Y3234923D2*
Y3088425D1*
X3572550Y3063425D1*
X3711925D1*
X3747175Y3028175D1*
X3905925D1*
X3572550Y2843425D2*
Y2905800D1*
X3450175Y3028175D1*
X3397925D1*
Y3080425D1*
X3350300Y3128050D1*
X3352550Y3130300D1*
Y3234923D1*
X3207427Y4069300D2*
X3332427D1*
Y3983300D1*
X3286800Y3937673D1*
Y3815677D1*
X3287550Y3814923D1*
X3222550Y3234923D2*
Y3160550D1*
X3255050Y3128050D1*
X3286800D1*
X3302675Y3112175D1*
Y2953425D1*
X3397925Y2858175D1*
D14*
X5398177Y1873923D3*
Y1233890D3*
X5947053Y1873923D3*
Y1233890D3*
D15*
X8493800Y1924427D3*
Y2204427D3*
X8811300Y1924427D3*
Y2204427D3*
D16*
X1699307Y1826300D3*
Y2106300D3*
X1921550Y1826300D3*
Y2106300D3*
X2143803Y1826300D3*
Y2106300D3*
X2366050Y1826300D3*
Y2106300D3*
D17*
X3858300Y3604300D3*
Y3434300D3*
X3457427Y4239300D3*
Y4069300D3*
X2957427D3*
Y4239300D3*
X3397925Y2858175D3*
Y3028175D3*
X3905925Y2858175D3*
Y3028175D3*
D18*
X2794673Y3032800D3*
Y2902800D3*
D17*
X2524800Y3219173D3*
Y3389173D3*
D19*
X3213050Y3048673D3*
X3043050D3*
D17*
X2635927Y3985300D3*
Y3815300D3*
X2572423Y1905677D3*
Y2075677D3*
X3747175Y2858175D3*
Y3028175D3*
D19*
X-808950Y4588550D3*
X-638950D3*
D20*
X-746950Y4032927D3*
X-616950D3*
X429300Y3239177D3*
X559300D3*
X1064300Y3255050D3*
X1194300D3*
D22*
X3572550Y2843425D3*
Y3063425D3*
D24*
X-681950Y2270800D3*
Y2140787D3*
X-471950Y2205793D3*
D25*
X-697827Y3016927D3*
X-587827D3*
X1111923Y3477300D3*
X1221923D3*
D19*
X-777200Y3763050D3*
X-607200D3*
X-824823Y3429673D3*
X-654823D3*
D26*
X3858300Y1937427D3*
X4738300D3*
D27*
X4112300Y3639423D3*
Y3410423D3*
D28*
X2994550Y2239050D3*
D29*
X2755050Y2048550D3*
Y2175550D3*
Y2302550D3*
Y2429550D3*
D30*
X3364050Y2048550D3*
Y2175550D3*
Y2302550D3*
Y2429550D3*
D28*
X3134553Y1683427D3*
D29*
X3374053Y1873927D3*
Y1746927D3*
Y1619927D3*
Y1492927D3*
D30*
X2765053Y1873927D3*
Y1746927D3*
Y1619927D3*
Y1492927D3*
D31*
X318173Y4445677D3*
Y4511677D3*
Y4577677D3*
Y4643673D3*
D32*
X21173Y4445627D3*
Y4511627D3*
Y4577577D3*
Y4643623D3*
D33*
X225373Y4544877D3*
D17*
X3582427Y4239300D3*
Y4069300D3*
X3082427D3*
Y4239300D3*
D34*
X4768927Y2699427D3*
X5328927D3*
D18*
X2921677Y3032800D3*
Y2902800D3*
D17*
X3332427Y4069300D3*
Y4239300D3*
X3207427D3*
Y4069300D3*
X3048677Y2741423D3*
Y2911423D3*
X3207423Y2741423D3*
Y2911423D3*
D20*
X1556423Y5572800D3*
X1686423D3*
X2205800Y5699800D3*
X2335800D3*
X-731077Y4239300D3*
X-601077D3*
X49800Y3191550D3*
X-80200D3*
X-634327Y2731177D3*
X-504327D3*
X1205677Y2778800D3*
X1335677D3*
X1191300Y2588300D3*
X1321300D3*
D35*
X3937677Y8255677D3*
X3921653Y7890293D3*
X492800Y2012173D3*
D36*
Y2562173D3*
D35*
Y3112173D3*
Y3662173D3*
D37*
X3677550Y3814923D3*
X3612550D3*
X3547550D3*
X3482550D3*
X3417550D3*
X3352550D3*
X3287550D3*
X3222550D3*
X3157550D3*
X3092550D3*
X3027550D3*
X2962550D3*
X2897550D3*
X2832550D3*
Y3234923D3*
X2897550D3*
X2962550D3*
X3027550D3*
X3092550D3*
X3157550D3*
X3222550D3*
X3287550D3*
X3352550D3*
X3417550D3*
X3482550D3*
X3547550D3*
X3612550D3*
X3677550D3*
D38*
X3255050Y3524923D3*
D40*
X1334177Y3366177D3*
Y3316177D3*
Y3266177D3*
Y3216177D3*
Y3166177D3*
Y3116177D3*
D41*
X1399177Y3051177D3*
X1449177D3*
X1499177D3*
X1549177D3*
X1599177D3*
X1649177D3*
D40*
X1714177Y3116177D3*
Y3166177D3*
Y3216177D3*
Y3266177D3*
Y3316177D3*
Y3366177D3*
D41*
X1649177Y3431177D3*
X1599177D3*
X1549177D3*
X1499177D3*
X1449177D3*
X1399177D3*
D42*
X1524177Y3241177D3*
D43*
X2064423Y3731300D3*
X2014423D3*
X1964423D3*
X1914423D3*
X1864423D3*
X1814423D3*
X1764423D3*
X1714423D3*
X1664423D3*
X1614423D3*
X1564423D3*
X1514423D3*
D44*
X2064423Y3862300D3*
X1909423D3*
X1749423D3*
X1829423D3*
X1669423D3*
X1949423Y3932300D3*
X1869423D3*
X2029423D3*
X1509423Y3862300D3*
X1709423Y3932300D3*
X1629423D3*
X1549423D3*
D45*
X2249423Y3937300D3*
Y4237300D3*
X1329423D3*
Y3937300D3*
D47*
X5842675Y2302550D3*
X5907675D3*
X5972675D3*
X6037675D3*
Y2742550D3*
X5972675D3*
X5907675D3*
X5842675D3*
D48*
X5940175Y2522550D3*
G04 Top Clear*
%LPC*%
D50*
X2064423Y3862300D3*
X1909423D3*
X1749423D3*
X1829423D3*
X1669423D3*
X1949423Y3932300D3*
X1869423D3*
X2029423D3*
X1509423Y3862300D3*
X1709423Y3932300D3*
X1629423D3*
X1549423D3*
X2249423Y3887300D2*
D51*
Y3987300D1*
Y4187300D2*
Y4287300D1*
X1329423Y4187300D2*
Y4287300D1*
Y3887300D2*
Y3987300D1*
M02*
