G04 DipTrace 3.3.1.3*
G04 Bottom.gbr*
%MOMM*%
G04 #@! TF.FileFunction,Copper,L2,Bot*
G04 #@! TF.Part,Single*
%ADD13C,0.3*%
%ADD15C,0.5*%
%ADD66C,0.6*%
G04 #@! TA.AperFunction,ViaPad*
%ADD14C,0.8*%
%ADD16C,1.0*%
G04 #@! TA.AperFunction,CopperBalancing*
%ADD20C,0.1*%
G04 #@! TA.AperFunction,ComponentPad*
%ADD61O,1.1X2.1*%
%ADD63O,0.7X2.2*%
%ADD64R,0.7X2.2*%
%FSLAX35Y35*%
G04*
G71*
G90*
G75*
G01*
G04 Bottom*
%LPD*%
X2366050Y1397673D2*
D13*
X2540673D1*
D14*
X3260800Y2117800D1*
Y3143927D1*
X3270927D1*
X2493050Y1397673D2*
D13*
X2540673D1*
X4763177Y3350300D2*
X4223427Y3890050D1*
X2794673D1*
X2651800Y3747177D1*
Y3286800D1*
X2842300Y3096300D1*
Y2604173D1*
X3080800Y3180800D2*
D14*
X3128050D1*
Y2445427D1*
X3080800Y3320800D2*
Y3180800D1*
X3001050Y2604173D2*
D13*
Y3016923D1*
X2731173Y3286800D1*
Y3731300D1*
X2826423Y3826550D1*
X4159923D1*
X4699673Y3286800D1*
X4826673D1*
X2318427Y3810677D2*
D14*
X2413677Y3810673D1*
D16*
Y3842427D1*
X2762927Y4191677D1*
X3371427D1*
D14*
X3461427D1*
X3556673D2*
X3461427D1*
D15*
X3128050Y2445427D3*
X3001050Y2604173D3*
X2842300D3*
X3080800Y3320800D3*
X4763177Y3350300D3*
X4826673Y3286800D3*
X3080800Y3180800D3*
X3270927Y3143927D3*
X3223300D3*
D16*
X2366050Y1397673D3*
X2493050D3*
D14*
X6509427Y2334300D3*
X3937677Y4080550D3*
X6509423Y2239050D3*
X6699927Y2334300D3*
X3937673Y3985300D3*
X6699927Y2239050D3*
X6604673D3*
Y2334300D3*
X3461427Y4191677D3*
X3556673D3*
X2413677Y3810673D3*
X2318427Y3810677D3*
D15*
X2826427Y3461423D3*
X2889927D3*
X2953427D3*
X3016923D3*
X3080427D3*
X3143927D3*
X3207423D3*
X3270927D3*
X2826427Y3540800D3*
X2889927D3*
X2953430D3*
X3016920D3*
X3080430D3*
X3143930D3*
X3207420D3*
X3270923D3*
X2826430Y3620173D3*
X2889930D3*
X2953433D3*
X3016923D3*
X3080433D3*
X3143933D3*
X3207423D3*
X3270930D3*
X2292683Y1462383D2*
D20*
X2550547D1*
X2292683Y1452717D2*
X2550547D1*
X2292683Y1443050D2*
X2550547D1*
X2292683Y1433383D2*
X2550547D1*
X2292683Y1423717D2*
X2550547D1*
X2292683Y1414050D2*
X2550547D1*
X2292683Y1404383D2*
X2550547D1*
X2292683Y1394717D2*
X2550547D1*
X2292683Y1385050D2*
X2550547D1*
X2292683Y1375383D2*
X2550547D1*
X2292683Y1365717D2*
X2550547D1*
X2292683Y1356050D2*
X2550547D1*
X2292683Y1346383D2*
X2550547D1*
X2551530Y1472050D2*
X2291687D1*
X2291673Y1339180D1*
X2551537Y1339173D1*
X2551550Y1472043D1*
X1056810Y4436133D2*
X7444790D1*
X1056810Y4426467D2*
X7444790D1*
X1056810Y4416800D2*
X7444790D1*
X1056810Y4407133D2*
X7444790D1*
X1056810Y4397467D2*
X7444790D1*
X1056810Y4387800D2*
X7444790D1*
X1056810Y4378133D2*
X7444790D1*
X1056810Y4368467D2*
X7444790D1*
X1056810Y4358800D2*
X7444790D1*
X1056810Y4349133D2*
X7444790D1*
X1056810Y4339467D2*
X7444790D1*
X1056810Y4329800D2*
X7444790D1*
X1056810Y4320133D2*
X7444790D1*
X1056810Y4310467D2*
X7444790D1*
X1056810Y4300800D2*
X7444790D1*
X1056810Y4291133D2*
X7444790D1*
X1056810Y4281467D2*
X7444790D1*
X1056810Y4271800D2*
X7444790D1*
X1056810Y4262133D2*
X2757427D1*
X3376927D2*
X7444790D1*
X1056810Y4252467D2*
X2726020D1*
X3408333D2*
X7444790D1*
X1056810Y4242800D2*
X2713227D1*
X3590207D2*
X7444790D1*
X1056810Y4233133D2*
X2703540D1*
X3601867D2*
X7444790D1*
X1056810Y4223467D2*
X2693873D1*
X3609270D2*
X7444790D1*
X1056810Y4213800D2*
X2684203D1*
X3614093D2*
X7444790D1*
X1056810Y4204133D2*
X2674537D1*
X3616987D2*
X7444790D1*
X1056810Y4194467D2*
X2664867D1*
X3618217D2*
X7444790D1*
X1056810Y4184800D2*
X2655200D1*
X3617883D2*
X7444790D1*
X1056810Y4175133D2*
X2645533D1*
X3615970D2*
X7444790D1*
X1056810Y4165467D2*
X2635863D1*
X3612317D2*
X7444790D1*
X1056810Y4155800D2*
X2626217D1*
X3606517D2*
X7444790D1*
X1056810Y4146133D2*
X2616547D1*
X3597650D2*
X7444790D1*
X1056810Y4136467D2*
X2606880D1*
X3582650D2*
X7444790D1*
X1056810Y4126800D2*
X2597213D1*
X3400267D2*
X7444790D1*
X1056810Y4117133D2*
X2587543D1*
X2789230D2*
X7444790D1*
X1056810Y4107467D2*
X2577877D1*
X2779563D2*
X7444790D1*
X1056810Y4097800D2*
X2568207D1*
X2769897D2*
X7444790D1*
X1056810Y4088133D2*
X2558540D1*
X2760227D2*
X7444790D1*
X1056810Y4078467D2*
X2548873D1*
X2750560D2*
X7444790D1*
X1056810Y4068800D2*
X2539203D1*
X2740893D2*
X7444790D1*
X1056810Y4059133D2*
X2529537D1*
X2731223D2*
X7444790D1*
X1056810Y4049467D2*
X2519867D1*
X2721557D2*
X7444790D1*
X1056810Y4039800D2*
X2510200D1*
X2711887D2*
X7444790D1*
X1056810Y4030133D2*
X2500533D1*
X2702220D2*
X7444790D1*
X1056810Y4020467D2*
X2490863D1*
X2692553D2*
X7444790D1*
X1056810Y4010800D2*
X2481217D1*
X2682903D2*
X7444790D1*
X1056810Y4001133D2*
X2471547D1*
X2673237D2*
X7444790D1*
X1056810Y3991467D2*
X2461880D1*
X2663567D2*
X7444790D1*
X1056810Y3981800D2*
X2452213D1*
X2653900D2*
X7444790D1*
X1056810Y3972133D2*
X2442543D1*
X2644230D2*
X7444790D1*
X1056810Y3962467D2*
X2432877D1*
X2634563D2*
X7444790D1*
X1056810Y3952800D2*
X2423207D1*
X2624897D2*
X7444790D1*
X1056810Y3943133D2*
X2413540D1*
X2615227D2*
X7444790D1*
X1056810Y3933467D2*
X2403873D1*
X2605560D2*
X7444790D1*
X1056810Y3923800D2*
X2394203D1*
X2595893D2*
X2782350D1*
X4235757D2*
X7444790D1*
X1056810Y3914133D2*
X2384537D1*
X2586223D2*
X2767407D1*
X4250697D2*
X7444790D1*
X1056810Y3904467D2*
X2374867D1*
X2576557D2*
X2757740D1*
X4260363D2*
X6168343D1*
X6200247D2*
X6658343D1*
X6690247D2*
X7444790D1*
X1056810Y3894800D2*
X2365200D1*
X2566887D2*
X2748070D1*
X4270033D2*
X6131977D1*
X6236633D2*
X6621977D1*
X6726633D2*
X7444790D1*
X1056810Y3885133D2*
X2356450D1*
X2557220D2*
X2738403D1*
X4279680D2*
X6113600D1*
X6255013D2*
X6603600D1*
X6745013D2*
X7444790D1*
X1056810Y3875467D2*
X2350280D1*
X2547553D2*
X2728737D1*
X4289350D2*
X6100260D1*
X6268333D2*
X6590260D1*
X6758333D2*
X7444790D1*
X1056810Y3865800D2*
X2292250D1*
X2537903D2*
X2719067D1*
X4299017D2*
X6089770D1*
X6278820D2*
X6579770D1*
X6768820D2*
X7444790D1*
X1056810Y3856133D2*
X2277350D1*
X2528237D2*
X2709420D1*
X4308683D2*
X6081273D1*
X6287337D2*
X6571273D1*
X6777337D2*
X7444790D1*
X1056810Y3846467D2*
X2268520D1*
X2518567D2*
X2699750D1*
X4191360D2*
X4215670D1*
X4318353D2*
X6074283D1*
X6294330D2*
X6564283D1*
X6784330D2*
X7444790D1*
X1056810Y3836800D2*
X2262740D1*
X2508900D2*
X2690083D1*
X4201030D2*
X4225337D1*
X4328020D2*
X6068520D1*
X6300090D2*
X6558520D1*
X6790090D2*
X7444790D1*
X1056810Y3827133D2*
X2259107D1*
X2499230D2*
X2680417D1*
X4210677D2*
X4235007D1*
X4337690D2*
X6063813D1*
X6304797D2*
X6553813D1*
X6794797D2*
X7444790D1*
X1056810Y3817467D2*
X2257213D1*
X2489563D2*
X2670747D1*
X4220343D2*
X4244673D1*
X4347357D2*
X6060023D1*
X6308567D2*
X6550023D1*
X6798567D2*
X7444790D1*
X1056810Y3807800D2*
X2256900D1*
X2485227D2*
X2661080D1*
X4230013D2*
X4254320D1*
X4357023D2*
X6057113D1*
X6311497D2*
X6547113D1*
X6801497D2*
X7444790D1*
X1056810Y3798133D2*
X2258130D1*
X2484153D2*
X2651410D1*
X4239680D2*
X4263990D1*
X4366693D2*
X6054987D1*
X6313627D2*
X6544987D1*
X6803627D2*
X7444790D1*
X1056810Y3788467D2*
X2261040D1*
X2481693D2*
X2641743D1*
X2839680D2*
X4146667D1*
X4249350D2*
X4273657D1*
X4376360D2*
X6053600D1*
X6314993D2*
X6543600D1*
X6804993D2*
X7444790D1*
X1056810Y3778800D2*
X2265883D1*
X2477670D2*
X2632077D1*
X2830013D2*
X4156333D1*
X4259017D2*
X4283327D1*
X4386030D2*
X6052953D1*
X6315637D2*
X6542953D1*
X6805637D2*
X7444790D1*
X1056810Y3769133D2*
X2273307D1*
X2471770D2*
X2622780D1*
X2820343D2*
X4166000D1*
X4268683D2*
X4292993D1*
X4395697D2*
X6053033D1*
X6315580D2*
X6543033D1*
X6805580D2*
X7444790D1*
X1056810Y3759467D2*
X2285023D1*
X2463273D2*
X2617387D1*
X2810677D2*
X4175670D1*
X4278353D2*
X4302660D1*
X4405363D2*
X6053813D1*
X6314780D2*
X6543813D1*
X6804780D2*
X7444790D1*
X1056810Y3749800D2*
X2376920D1*
X2450443D2*
X2615297D1*
X2801030D2*
X4185317D1*
X4288020D2*
X4312330D1*
X4415033D2*
X6055337D1*
X6313257D2*
X6545337D1*
X6803257D2*
X7444790D1*
X1056810Y3740133D2*
X2409770D1*
X2417590D2*
X2615200D1*
X2791360D2*
X4194987D1*
X4297690D2*
X4321997D1*
X4424680D2*
X6057623D1*
X6310970D2*
X6547623D1*
X6800970D2*
X7444790D1*
X1056810Y3730467D2*
X2615200D1*
X2688393D2*
X2694587D1*
X2781693D2*
X4204653D1*
X4307357D2*
X4331667D1*
X4434350D2*
X6060707D1*
X6307883D2*
X6550707D1*
X6797883D2*
X7444790D1*
X1056810Y3720800D2*
X2615200D1*
X2688393D2*
X2694587D1*
X2772023D2*
X4214320D1*
X4317023D2*
X4341333D1*
X4444017D2*
X6064673D1*
X6303940D2*
X6554673D1*
X6793940D2*
X7444790D1*
X1056810Y3711133D2*
X2615200D1*
X2688393D2*
X2694587D1*
X2767767D2*
X4223990D1*
X4326693D2*
X4351000D1*
X4453683D2*
X6069577D1*
X6299037D2*
X6559577D1*
X6789037D2*
X7444790D1*
X1056810Y3701467D2*
X2615200D1*
X2688393D2*
X2694587D1*
X2767767D2*
X4233657D1*
X4336360D2*
X4360670D1*
X4463353D2*
X6075553D1*
X6293040D2*
X6565553D1*
X6783040D2*
X7444790D1*
X1056810Y3691800D2*
X2615200D1*
X2688393D2*
X2694587D1*
X2767767D2*
X4243327D1*
X4346030D2*
X4370337D1*
X4473020D2*
X6082837D1*
X6285773D2*
X6572837D1*
X6775773D2*
X7444790D1*
X1056810Y3682133D2*
X2615200D1*
X2688393D2*
X2694587D1*
X2767767D2*
X4252993D1*
X4355677D2*
X4380007D1*
X4482690D2*
X6091683D1*
X6276907D2*
X6581683D1*
X6766907D2*
X7444790D1*
X1056810Y3672467D2*
X2615200D1*
X2688393D2*
X2694587D1*
X2767767D2*
X4262660D1*
X4365343D2*
X4389673D1*
X4492357D2*
X6102643D1*
X6265970D2*
X6592643D1*
X6755970D2*
X7444790D1*
X1056810Y3662800D2*
X2615200D1*
X2688393D2*
X2694587D1*
X2767767D2*
X4272330D1*
X4375013D2*
X4399320D1*
X4502023D2*
X6116723D1*
X6251867D2*
X6606723D1*
X6741867D2*
X7444790D1*
X1056810Y3653133D2*
X2615200D1*
X2688393D2*
X2694587D1*
X2767767D2*
X4281997D1*
X4384680D2*
X4408990D1*
X4511693D2*
X6136703D1*
X6231887D2*
X6626703D1*
X6721887D2*
X7444790D1*
X1056810Y3643467D2*
X2615200D1*
X2688393D2*
X2694587D1*
X2767767D2*
X4291667D1*
X4394350D2*
X4418657D1*
X4521360D2*
X7444790D1*
X1056810Y3633800D2*
X2615200D1*
X2688393D2*
X2694587D1*
X2767767D2*
X4301333D1*
X4404017D2*
X4428327D1*
X4531030D2*
X7444790D1*
X1056810Y3624133D2*
X2615200D1*
X2688393D2*
X2694587D1*
X2767767D2*
X4311000D1*
X4413683D2*
X4437993D1*
X4540697D2*
X7444790D1*
X1056810Y3614467D2*
X2615200D1*
X2688393D2*
X2694587D1*
X2767767D2*
X4320670D1*
X4423353D2*
X4447660D1*
X4550363D2*
X7444790D1*
X1056810Y3604800D2*
X2615200D1*
X2688393D2*
X2694587D1*
X2767767D2*
X4330317D1*
X4433020D2*
X4457330D1*
X4560033D2*
X7444790D1*
X1056810Y3595133D2*
X2615200D1*
X2688393D2*
X2694587D1*
X2767767D2*
X4339987D1*
X4442690D2*
X4466997D1*
X4569680D2*
X7444790D1*
X1056810Y3585467D2*
X2615200D1*
X2688393D2*
X2694587D1*
X2767767D2*
X4349653D1*
X4452357D2*
X4476667D1*
X4579350D2*
X7444790D1*
X1056810Y3575800D2*
X2615200D1*
X2688393D2*
X2694587D1*
X2767767D2*
X4359320D1*
X4462023D2*
X4486333D1*
X4589017D2*
X7444790D1*
X1056810Y3566133D2*
X2615200D1*
X2688393D2*
X2694587D1*
X2767767D2*
X4368990D1*
X4471693D2*
X4496000D1*
X4598683D2*
X7444790D1*
X1056810Y3556467D2*
X2615200D1*
X2688393D2*
X2694587D1*
X2767767D2*
X4378657D1*
X4481360D2*
X4505670D1*
X4608353D2*
X7444790D1*
X1056810Y3546800D2*
X2615200D1*
X2688393D2*
X2694587D1*
X2767767D2*
X4388327D1*
X4491030D2*
X4515337D1*
X4618020D2*
X7444790D1*
X1056810Y3537133D2*
X2615200D1*
X2688393D2*
X2694587D1*
X2767767D2*
X4397993D1*
X4500677D2*
X4525007D1*
X4627690D2*
X7444790D1*
X1056810Y3527467D2*
X2615200D1*
X2688393D2*
X2694587D1*
X2767767D2*
X4407660D1*
X4510343D2*
X4534673D1*
X4637357D2*
X7444790D1*
X1056810Y3517800D2*
X2615200D1*
X2688393D2*
X2694587D1*
X2767767D2*
X4417330D1*
X4520013D2*
X4544320D1*
X4647023D2*
X7444790D1*
X1056810Y3508133D2*
X2615200D1*
X2688393D2*
X2694587D1*
X2767767D2*
X4426997D1*
X4529680D2*
X4553990D1*
X4656693D2*
X7444790D1*
X1056810Y3498467D2*
X2615200D1*
X2688393D2*
X2694587D1*
X2767767D2*
X4436667D1*
X4539350D2*
X4563657D1*
X4666360D2*
X7444790D1*
X1056810Y3488800D2*
X2615200D1*
X2688393D2*
X2694587D1*
X2767767D2*
X4446333D1*
X4549017D2*
X4573327D1*
X4676030D2*
X7444790D1*
X1056810Y3479133D2*
X2615200D1*
X2688393D2*
X2694587D1*
X2767767D2*
X4456000D1*
X4558683D2*
X4582993D1*
X4685697D2*
X7444790D1*
X1056810Y3469467D2*
X2615200D1*
X2688393D2*
X2694587D1*
X2767767D2*
X4465670D1*
X4568353D2*
X4592660D1*
X4695363D2*
X7444790D1*
X1056810Y3459800D2*
X2615200D1*
X2688393D2*
X2694587D1*
X2767767D2*
X4475317D1*
X4578020D2*
X4602330D1*
X4705033D2*
X7444790D1*
X1056810Y3450133D2*
X2615200D1*
X2688393D2*
X2694587D1*
X2767767D2*
X4484987D1*
X4587690D2*
X4611997D1*
X4714680D2*
X7444790D1*
X1056810Y3440467D2*
X2615200D1*
X2688393D2*
X2694587D1*
X2767767D2*
X4494653D1*
X4597357D2*
X4621667D1*
X4724350D2*
X7444790D1*
X1056810Y3430800D2*
X2615200D1*
X2688393D2*
X2694587D1*
X2767767D2*
X4504320D1*
X4607023D2*
X4631333D1*
X4734017D2*
X7444790D1*
X1056810Y3421133D2*
X2615200D1*
X2688393D2*
X2694587D1*
X2767767D2*
X4513990D1*
X4616693D2*
X4641000D1*
X4743683D2*
X7444790D1*
X1056810Y3411467D2*
X2615200D1*
X2688393D2*
X2694587D1*
X2767767D2*
X4523657D1*
X4626360D2*
X4650670D1*
X4753353D2*
X7444790D1*
X1056810Y3401800D2*
X2615200D1*
X2688393D2*
X2694587D1*
X2767767D2*
X4533327D1*
X4636030D2*
X4660337D1*
X4763020D2*
X7444790D1*
X1056810Y3392133D2*
X2615200D1*
X2688393D2*
X2694587D1*
X2767767D2*
X4542993D1*
X4645677D2*
X4670007D1*
X4782317D2*
X7444790D1*
X1056810Y3382467D2*
X2615200D1*
X2688393D2*
X2694587D1*
X2767767D2*
X4552660D1*
X4655343D2*
X4679673D1*
X4796497D2*
X7444790D1*
X1056810Y3372800D2*
X2615200D1*
X2688393D2*
X2694587D1*
X2767767D2*
X3048677D1*
X3112923D2*
X4562330D1*
X4665013D2*
X4689320D1*
X4803840D2*
X7444790D1*
X1056810Y3363133D2*
X2615200D1*
X2688393D2*
X2694587D1*
X2767767D2*
X3036430D1*
X3125170D2*
X4571997D1*
X4674680D2*
X4698990D1*
X4807943D2*
X7444790D1*
X1056810Y3353467D2*
X2615200D1*
X2688393D2*
X2694587D1*
X2767767D2*
X3028757D1*
X3132843D2*
X4581667D1*
X4684350D2*
X4708657D1*
X4809660D2*
X7444790D1*
X1056810Y3343800D2*
X2615200D1*
X2688393D2*
X2694587D1*
X2767767D2*
X3023737D1*
X3137863D2*
X4591333D1*
X4694017D2*
X4717037D1*
X4809310D2*
X7444790D1*
X1056810Y3334133D2*
X2615200D1*
X2688393D2*
X2694587D1*
X2767767D2*
X3020690D1*
X3140910D2*
X4601000D1*
X4703683D2*
X4719537D1*
X4806810D2*
X7444790D1*
X1056810Y3324467D2*
X2615200D1*
X2688393D2*
X2694587D1*
X2767767D2*
X3019303D1*
X3142297D2*
X4610670D1*
X4713353D2*
X4724593D1*
X4853373D2*
X7444790D1*
X1056810Y3314800D2*
X2615200D1*
X2688393D2*
X2694587D1*
X2767767D2*
X3019203D1*
X3142397D2*
X4620317D1*
X4863667D2*
X7444790D1*
X1056810Y3305133D2*
X2615200D1*
X2688393D2*
X2694587D1*
X2767767D2*
X3019203D1*
X3142397D2*
X4629987D1*
X4869427D2*
X7444790D1*
X1056810Y3295467D2*
X2615200D1*
X2773860D2*
X3019203D1*
X3142397D2*
X4639653D1*
X4872433D2*
X7444790D1*
X1056810Y3285800D2*
X2615220D1*
X2783530D2*
X3019203D1*
X3142397D2*
X4649320D1*
X4873257D2*
X7444790D1*
X1056810Y3276133D2*
X2616840D1*
X2793177D2*
X3019203D1*
X3142397D2*
X4658990D1*
X4872007D2*
X7444790D1*
X1056810Y3266467D2*
X2621587D1*
X2802843D2*
X3019203D1*
X3142397D2*
X4668657D1*
X4868490D2*
X7444790D1*
X1056810Y3256800D2*
X2630453D1*
X2812513D2*
X3019203D1*
X3142397D2*
X4679497D1*
X4862023D2*
X7444790D1*
X1056810Y3247133D2*
X2640123D1*
X2822180D2*
X3019203D1*
X3142397D2*
X4803190D1*
X4850170D2*
X7444790D1*
X1056810Y3237467D2*
X2649790D1*
X2831850D2*
X3019203D1*
X3150520D2*
X7444790D1*
X1056810Y3227800D2*
X2659457D1*
X2841517D2*
X3019203D1*
X3167297D2*
X7444790D1*
X1056810Y3218133D2*
X2669127D1*
X2851183D2*
X3019203D1*
X3176790D2*
X7444790D1*
X1056810Y3208467D2*
X2678793D1*
X2860853D2*
X3019203D1*
X3182963D2*
X7444790D1*
X1056810Y3198800D2*
X2688463D1*
X2870520D2*
X3019203D1*
X3186907D2*
X3234087D1*
X3297650D2*
X7444790D1*
X1056810Y3189133D2*
X2698110D1*
X2880190D2*
X3019203D1*
X3189077D2*
X3216333D1*
X3312280D2*
X7444790D1*
X1056810Y3179467D2*
X2707780D1*
X2889857D2*
X3019223D1*
X3189643D2*
X3193723D1*
X3321010D2*
X7444790D1*
X1056810Y3169800D2*
X2717447D1*
X2899523D2*
X3020200D1*
X3326730D2*
X7444790D1*
X1056810Y3160133D2*
X2727113D1*
X2909193D2*
X3022837D1*
X3330327D2*
X7444790D1*
X1056810Y3150467D2*
X2736783D1*
X2918860D2*
X3027330D1*
X3332180D2*
X7444790D1*
X1056810Y3140800D2*
X2746450D1*
X2928530D2*
X3034283D1*
X3332453D2*
X7444790D1*
X1056810Y3131133D2*
X2756117D1*
X2938177D2*
X3045083D1*
X3331167D2*
X7444790D1*
X1056810Y3121467D2*
X2765787D1*
X2947843D2*
X3066450D1*
X3328217D2*
X7444790D1*
X1056810Y3111800D2*
X2775453D1*
X2957513D2*
X3066450D1*
X3323313D2*
X7444790D1*
X1056810Y3102133D2*
X2785123D1*
X2967180D2*
X3066450D1*
X3189643D2*
X3199203D1*
X3322397D2*
X7444790D1*
X1056810Y3092467D2*
X2794790D1*
X2976850D2*
X3066450D1*
X3189643D2*
X3199203D1*
X3322397D2*
X7444790D1*
X1056810Y3082800D2*
X2804457D1*
X2878900D2*
X2883827D1*
X2986517D2*
X3066450D1*
X3189643D2*
X3199203D1*
X3322397D2*
X7444790D1*
X1056810Y3073133D2*
X2805707D1*
X2878900D2*
X2893500D1*
X2996183D2*
X3066450D1*
X3189643D2*
X3199203D1*
X3322397D2*
X7444790D1*
X1056810Y3063467D2*
X2805707D1*
X2878900D2*
X2903170D1*
X3005853D2*
X3066450D1*
X3189643D2*
X3199203D1*
X3322397D2*
X7444790D1*
X1056810Y3053800D2*
X2805707D1*
X2878900D2*
X2912817D1*
X3015520D2*
X3066450D1*
X3189643D2*
X3199203D1*
X3322397D2*
X7444790D1*
X1056810Y3044133D2*
X2805707D1*
X2878900D2*
X2922487D1*
X3025190D2*
X3066450D1*
X3189643D2*
X3199203D1*
X3322397D2*
X7444790D1*
X1056810Y3034467D2*
X2805707D1*
X2878900D2*
X2932153D1*
X3033020D2*
X3066450D1*
X3189643D2*
X3199203D1*
X3322397D2*
X7444790D1*
X1056810Y3024800D2*
X2805707D1*
X2878900D2*
X2941820D1*
X3036770D2*
X3066450D1*
X3189643D2*
X3199203D1*
X3322397D2*
X7444790D1*
X1056810Y3015133D2*
X2805707D1*
X2878900D2*
X2951490D1*
X3037650D2*
X3066450D1*
X3189643D2*
X3199203D1*
X3322397D2*
X7444790D1*
X1056810Y3005467D2*
X2805707D1*
X2878900D2*
X2961157D1*
X3037650D2*
X3066450D1*
X3189643D2*
X3199203D1*
X3322397D2*
X7444790D1*
X1056810Y2995800D2*
X2805707D1*
X2878900D2*
X2964457D1*
X3037650D2*
X3066450D1*
X3189643D2*
X3199203D1*
X3322397D2*
X7444790D1*
X1056810Y2986133D2*
X2805707D1*
X2878900D2*
X2964457D1*
X3037650D2*
X3066450D1*
X3189643D2*
X3199203D1*
X3322397D2*
X7444790D1*
X1056810Y2976467D2*
X2805707D1*
X2878900D2*
X2964457D1*
X3037650D2*
X3066450D1*
X3189643D2*
X3199203D1*
X3322397D2*
X7444790D1*
X1056810Y2966800D2*
X2805707D1*
X2878900D2*
X2964457D1*
X3037650D2*
X3066450D1*
X3189643D2*
X3199203D1*
X3322397D2*
X7444790D1*
X1056810Y2957133D2*
X2805707D1*
X2878900D2*
X2964457D1*
X3037650D2*
X3066450D1*
X3189643D2*
X3199203D1*
X3322397D2*
X7444790D1*
X1056810Y2947467D2*
X2805707D1*
X2878900D2*
X2964457D1*
X3037650D2*
X3066450D1*
X3189643D2*
X3199203D1*
X3322397D2*
X7444790D1*
X1056810Y2937800D2*
X2805707D1*
X2878900D2*
X2964457D1*
X3037650D2*
X3066450D1*
X3189643D2*
X3199203D1*
X3322397D2*
X7444790D1*
X1056810Y2928133D2*
X2805707D1*
X2878900D2*
X2964457D1*
X3037650D2*
X3066450D1*
X3189643D2*
X3199203D1*
X3322397D2*
X7444790D1*
X1056810Y2918467D2*
X2805707D1*
X2878900D2*
X2964457D1*
X3037650D2*
X3066450D1*
X3189643D2*
X3199203D1*
X3322397D2*
X7444790D1*
X1056810Y2908800D2*
X2805707D1*
X2878900D2*
X2964457D1*
X3037650D2*
X3066450D1*
X3189643D2*
X3199203D1*
X3322397D2*
X7444790D1*
X1056810Y2899133D2*
X2805707D1*
X2878900D2*
X2964457D1*
X3037650D2*
X3066450D1*
X3189643D2*
X3199203D1*
X3322397D2*
X7444790D1*
X1056810Y2889467D2*
X2805707D1*
X2878900D2*
X2964457D1*
X3037650D2*
X3066450D1*
X3189643D2*
X3199203D1*
X3322397D2*
X7444790D1*
X1056810Y2879800D2*
X2805707D1*
X2878900D2*
X2964457D1*
X3037650D2*
X3066450D1*
X3189643D2*
X3199203D1*
X3322397D2*
X7444790D1*
X1056810Y2870133D2*
X2805707D1*
X2878900D2*
X2964457D1*
X3037650D2*
X3066450D1*
X3189643D2*
X3199203D1*
X3322397D2*
X7444790D1*
X1056810Y2860467D2*
X2805707D1*
X2878900D2*
X2964457D1*
X3037650D2*
X3066450D1*
X3189643D2*
X3199203D1*
X3322397D2*
X7444790D1*
X1056810Y2850800D2*
X2805707D1*
X2878900D2*
X2964457D1*
X3037650D2*
X3066450D1*
X3189643D2*
X3199203D1*
X3322397D2*
X7444790D1*
X1056810Y2841133D2*
X2805707D1*
X2878900D2*
X2964457D1*
X3037650D2*
X3066450D1*
X3189643D2*
X3199203D1*
X3322397D2*
X7444790D1*
X1056810Y2831467D2*
X2805707D1*
X2878900D2*
X2964457D1*
X3037650D2*
X3066450D1*
X3189643D2*
X3199203D1*
X3322397D2*
X7444790D1*
X1056810Y2821800D2*
X2805707D1*
X2878900D2*
X2964457D1*
X3037650D2*
X3066450D1*
X3189643D2*
X3199203D1*
X3322397D2*
X7444790D1*
X1056810Y2812133D2*
X2805707D1*
X2878900D2*
X2964457D1*
X3037650D2*
X3066450D1*
X3189643D2*
X3199203D1*
X3322397D2*
X7444790D1*
X1056810Y2802467D2*
X2805707D1*
X2878900D2*
X2964457D1*
X3037650D2*
X3066450D1*
X3189643D2*
X3199203D1*
X3322397D2*
X7444790D1*
X1056810Y2792800D2*
X2805707D1*
X2878900D2*
X2964457D1*
X3037650D2*
X3066450D1*
X3189643D2*
X3199203D1*
X3322397D2*
X7444790D1*
X1056810Y2783133D2*
X2805707D1*
X2878900D2*
X2964457D1*
X3037650D2*
X3066450D1*
X3189643D2*
X3199203D1*
X3322397D2*
X7444790D1*
X1056810Y2773467D2*
X2805707D1*
X2878900D2*
X2964457D1*
X3037650D2*
X3066450D1*
X3189643D2*
X3199203D1*
X3322397D2*
X7444790D1*
X1056810Y2763800D2*
X2805707D1*
X2878900D2*
X2964457D1*
X3037650D2*
X3066450D1*
X3189643D2*
X3199203D1*
X3322397D2*
X7444790D1*
X1056810Y2754133D2*
X2805707D1*
X2878900D2*
X2964457D1*
X3037650D2*
X3066450D1*
X3189643D2*
X3199203D1*
X3322397D2*
X7444790D1*
X1056810Y2744467D2*
X2805707D1*
X2878900D2*
X2964457D1*
X3037650D2*
X3066450D1*
X3189643D2*
X3199203D1*
X3322397D2*
X7444790D1*
X1056810Y2734800D2*
X2805707D1*
X2878900D2*
X2964457D1*
X3037650D2*
X3066450D1*
X3189643D2*
X3199203D1*
X3322397D2*
X7444790D1*
X1056810Y2725133D2*
X2805707D1*
X2878900D2*
X2964457D1*
X3037650D2*
X3066450D1*
X3189643D2*
X3199203D1*
X3322397D2*
X7444790D1*
X1056810Y2715467D2*
X2805707D1*
X2878900D2*
X2964457D1*
X3037650D2*
X3066450D1*
X3189643D2*
X3199203D1*
X3322397D2*
X7444790D1*
X1056810Y2705800D2*
X2805707D1*
X2878900D2*
X2964457D1*
X3037650D2*
X3066450D1*
X3189643D2*
X3199203D1*
X3322397D2*
X7444790D1*
X1056810Y2696133D2*
X2805707D1*
X2878900D2*
X2964457D1*
X3037650D2*
X3066450D1*
X3189643D2*
X3199203D1*
X3322397D2*
X7444790D1*
X1056810Y2686467D2*
X2805707D1*
X2878900D2*
X2964457D1*
X3037650D2*
X3066450D1*
X3189643D2*
X3199203D1*
X3322397D2*
X7444790D1*
X1056810Y2676800D2*
X2805707D1*
X2878900D2*
X2964457D1*
X3037650D2*
X3066450D1*
X3189643D2*
X3199203D1*
X3322397D2*
X7444790D1*
X1056810Y2667133D2*
X2805707D1*
X2878900D2*
X2964457D1*
X3037650D2*
X3066450D1*
X3189643D2*
X3199203D1*
X3322397D2*
X7444790D1*
X1056810Y2657467D2*
X2805707D1*
X2878900D2*
X2964457D1*
X3037650D2*
X3066450D1*
X3189643D2*
X3199203D1*
X3322397D2*
X7444790D1*
X1056810Y2647800D2*
X2805707D1*
X2878900D2*
X2964457D1*
X3037650D2*
X3066450D1*
X3189643D2*
X3199203D1*
X3322397D2*
X7444790D1*
X1056810Y2638133D2*
X2805707D1*
X2878900D2*
X2964457D1*
X3037650D2*
X3066450D1*
X3189643D2*
X3199203D1*
X3322397D2*
X7444790D1*
X1056810Y2628467D2*
X2802700D1*
X2881887D2*
X2961450D1*
X3040637D2*
X3066450D1*
X3189643D2*
X3199203D1*
X3322397D2*
X7444790D1*
X1056810Y2618800D2*
X2798110D1*
X2886497D2*
X2956860D1*
X3045247D2*
X3066450D1*
X3189643D2*
X3199203D1*
X3322397D2*
X7444790D1*
X1056810Y2609133D2*
X2795963D1*
X2888627D2*
X2954713D1*
X3047377D2*
X3066450D1*
X3189643D2*
X3199203D1*
X3322397D2*
X7444790D1*
X1056810Y2599467D2*
X2795943D1*
X2888667D2*
X2954693D1*
X3047417D2*
X3066450D1*
X3189643D2*
X3199203D1*
X3322397D2*
X7444790D1*
X1056810Y2589800D2*
X2798033D1*
X2886577D2*
X2956783D1*
X3045327D2*
X3066450D1*
X3189643D2*
X3199203D1*
X3322397D2*
X7444790D1*
X1056810Y2580133D2*
X2802543D1*
X2882043D2*
X2961293D1*
X3040793D2*
X3066450D1*
X3189643D2*
X3199203D1*
X3322397D2*
X7444790D1*
X1056810Y2570467D2*
X2810590D1*
X2874017D2*
X2969340D1*
X3032767D2*
X3066450D1*
X3189643D2*
X3199203D1*
X3322397D2*
X7444790D1*
X1056810Y2560800D2*
X2827230D1*
X2857377D2*
X2985980D1*
X3016127D2*
X3066450D1*
X3189643D2*
X3199203D1*
X3322397D2*
X7444790D1*
X1056810Y2551133D2*
X3066450D1*
X3189643D2*
X3199203D1*
X3322397D2*
X7444790D1*
X1056810Y2541467D2*
X3066450D1*
X3189643D2*
X3199203D1*
X3322397D2*
X7444790D1*
X1056810Y2531800D2*
X3066450D1*
X3189643D2*
X3199203D1*
X3322397D2*
X7444790D1*
X1056810Y2522133D2*
X3066450D1*
X3189643D2*
X3199203D1*
X3322397D2*
X7444790D1*
X1056810Y2512467D2*
X3066450D1*
X3189643D2*
X3199203D1*
X3322397D2*
X7444790D1*
X1056810Y2502800D2*
X3066450D1*
X3189643D2*
X3199203D1*
X3322397D2*
X7444790D1*
X1056810Y2493133D2*
X3066450D1*
X3189643D2*
X3199203D1*
X3322397D2*
X7444790D1*
X1056810Y2483467D2*
X3066450D1*
X3189643D2*
X3199203D1*
X3322397D2*
X7444790D1*
X1056810Y2473800D2*
X3062623D1*
X3193470D2*
X3199197D1*
X3322397D2*
X7444790D1*
X1056810Y2464133D2*
X3059183D1*
X3322397D2*
X7444790D1*
X1056810Y2454467D2*
X3057230D1*
X3322397D2*
X7444790D1*
X1056810Y2444800D2*
X3056647D1*
X3322397D2*
X7444790D1*
X1056810Y2435133D2*
X3057407D1*
X3322397D2*
X7444790D1*
X1056810Y2425467D2*
X3059537D1*
X3322397D2*
X7444790D1*
X1056810Y2415800D2*
X3063190D1*
X3192903D2*
X3199193D1*
X3322397D2*
X7444790D1*
X1056810Y2406133D2*
X3068637D1*
X3187473D2*
X3199203D1*
X3322397D2*
X7444790D1*
X1056810Y2396467D2*
X3076470D1*
X3179643D2*
X3199203D1*
X3322397D2*
X7444790D1*
X1056810Y2386800D2*
X3088070D1*
X3168020D2*
X3199203D1*
X3322397D2*
X7444790D1*
X1056810Y2377133D2*
X3109967D1*
X3146147D2*
X3199203D1*
X3322397D2*
X7444790D1*
X1056810Y2367467D2*
X3199203D1*
X3322397D2*
X7444790D1*
X1056810Y2357800D2*
X3199203D1*
X3322397D2*
X7444790D1*
X1056810Y2348133D2*
X3199203D1*
X3322397D2*
X7444790D1*
X1056810Y2338467D2*
X3199203D1*
X3322397D2*
X7444790D1*
X1056810Y2328800D2*
X3199203D1*
X3322397D2*
X7444790D1*
X1056810Y2319133D2*
X3199203D1*
X3322397D2*
X7444790D1*
X1056810Y2309467D2*
X3199203D1*
X3322397D2*
X7444790D1*
X1056810Y2299800D2*
X3199203D1*
X3322397D2*
X7444790D1*
X1056810Y2290133D2*
X3199203D1*
X3322397D2*
X7444790D1*
X1056810Y2280467D2*
X3199203D1*
X3322397D2*
X7444790D1*
X1056810Y2270800D2*
X3199203D1*
X3322397D2*
X7444790D1*
X1056810Y2261133D2*
X3199203D1*
X3322397D2*
X7444790D1*
X1056810Y2251467D2*
X3199203D1*
X3322397D2*
X7444790D1*
X1056810Y2241800D2*
X3199203D1*
X3322397D2*
X7444790D1*
X1056810Y2232133D2*
X3199203D1*
X3322397D2*
X7444790D1*
X1056810Y2222467D2*
X3199203D1*
X3322397D2*
X7444790D1*
X1056810Y2212800D2*
X3199203D1*
X3322397D2*
X7444790D1*
X1056810Y2203133D2*
X3199203D1*
X3322397D2*
X7444790D1*
X1056810Y2193467D2*
X3199203D1*
X3322397D2*
X7444790D1*
X1056810Y2183800D2*
X3199203D1*
X3322397D2*
X7444790D1*
X1056810Y2174133D2*
X3199203D1*
X3322397D2*
X7444790D1*
X1056810Y2164467D2*
X3199203D1*
X3322397D2*
X7444790D1*
X1056810Y2154800D2*
X3199203D1*
X3322397D2*
X7444790D1*
X1056810Y2145133D2*
X3199203D1*
X3322397D2*
X7444790D1*
X1056810Y2135467D2*
X3191763D1*
X3322397D2*
X7444790D1*
X1056810Y2125800D2*
X3182093D1*
X3322397D2*
X7444790D1*
X1056810Y2116133D2*
X3172427D1*
X3322377D2*
X7444790D1*
X1056810Y2106467D2*
X3162760D1*
X3321320D2*
X7444790D1*
X1056810Y2096800D2*
X3153090D1*
X3318647D2*
X7444790D1*
X1056810Y2087133D2*
X3143423D1*
X3314077D2*
X7444790D1*
X1056810Y2077467D2*
X3133773D1*
X3307023D2*
X7444790D1*
X1056810Y2067800D2*
X3124107D1*
X3297493D2*
X7444790D1*
X1056810Y2058133D2*
X3114440D1*
X3287827D2*
X7444790D1*
X1056810Y2048467D2*
X3104770D1*
X3278177D2*
X7444790D1*
X1056810Y2038800D2*
X3095103D1*
X3268510D2*
X7444790D1*
X1056810Y2029133D2*
X3085433D1*
X3258840D2*
X7444790D1*
X1056810Y2019467D2*
X3075767D1*
X3249173D2*
X7444790D1*
X1056810Y2009800D2*
X3066100D1*
X3239507D2*
X7444790D1*
X1056810Y2000133D2*
X3056430D1*
X3229837D2*
X7444790D1*
X1056810Y1990467D2*
X3046763D1*
X3220170D2*
X7444790D1*
X1056810Y1980800D2*
X3037093D1*
X3210500D2*
X7444790D1*
X1056810Y1971133D2*
X3027427D1*
X3200833D2*
X7444790D1*
X1056810Y1961467D2*
X3017760D1*
X3191167D2*
X7444790D1*
X1056810Y1951800D2*
X3008090D1*
X3181497D2*
X7444790D1*
X1056810Y1942133D2*
X2998423D1*
X3171830D2*
X7444790D1*
X1056810Y1932467D2*
X2988773D1*
X3162160D2*
X7444790D1*
X1056810Y1922800D2*
X2979107D1*
X3152493D2*
X7444790D1*
X1056810Y1913133D2*
X2969440D1*
X3142827D2*
X7444790D1*
X1056810Y1903467D2*
X2959770D1*
X3133177D2*
X7444790D1*
X1056810Y1893800D2*
X2950103D1*
X3123510D2*
X7444790D1*
X1056810Y1884133D2*
X2940433D1*
X3113840D2*
X7444790D1*
X1056810Y1874467D2*
X2930767D1*
X3104173D2*
X7444790D1*
X1056810Y1864800D2*
X2921100D1*
X3094507D2*
X7444790D1*
X1056810Y1855133D2*
X2911430D1*
X3084837D2*
X7444790D1*
X1056810Y1845467D2*
X2901763D1*
X3075170D2*
X7444790D1*
X1056810Y1835800D2*
X2892093D1*
X3065500D2*
X7444790D1*
X1056810Y1826133D2*
X2882427D1*
X3055833D2*
X7444790D1*
X1056810Y1816467D2*
X2872760D1*
X3046167D2*
X7444790D1*
X1056810Y1806800D2*
X2863090D1*
X3036497D2*
X7444790D1*
X1056810Y1797133D2*
X2853423D1*
X3026830D2*
X7444790D1*
X1056810Y1787467D2*
X2843773D1*
X3017160D2*
X7444790D1*
X1056810Y1777800D2*
X2834107D1*
X3007493D2*
X7444790D1*
X1056810Y1768133D2*
X2824440D1*
X2997827D2*
X7444790D1*
X1056810Y1758467D2*
X2814770D1*
X2988177D2*
X7444790D1*
X1056810Y1748800D2*
X2805103D1*
X2978510D2*
X7444790D1*
X1056810Y1739133D2*
X2795433D1*
X2968840D2*
X7444790D1*
X1056810Y1729467D2*
X2785767D1*
X2959173D2*
X7444790D1*
X1056810Y1719800D2*
X2776100D1*
X2949507D2*
X7444790D1*
X1056810Y1710133D2*
X2766430D1*
X2939837D2*
X7444790D1*
X1056810Y1700467D2*
X2756763D1*
X2930170D2*
X7444790D1*
X1056810Y1690800D2*
X2747093D1*
X2920500D2*
X7444790D1*
X1056810Y1681133D2*
X2737427D1*
X2910833D2*
X7444790D1*
X1056810Y1671467D2*
X2727760D1*
X2901167D2*
X7444790D1*
X1056810Y1661800D2*
X2718090D1*
X2891497D2*
X7444790D1*
X1056810Y1652133D2*
X2708423D1*
X2881830D2*
X7444790D1*
X1056810Y1642467D2*
X2698773D1*
X2872160D2*
X7444790D1*
X1056810Y1632800D2*
X2689107D1*
X2862493D2*
X7444790D1*
X1056810Y1623133D2*
X2679440D1*
X2852827D2*
X7444790D1*
X1056810Y1613467D2*
X2669770D1*
X2843177D2*
X7444790D1*
X1056810Y1603800D2*
X2660103D1*
X2833510D2*
X7444790D1*
X1056810Y1594133D2*
X2650433D1*
X2823840D2*
X7444790D1*
X1056810Y1584467D2*
X2640767D1*
X2814173D2*
X7444790D1*
X1056810Y1574800D2*
X2631100D1*
X2804507D2*
X7444790D1*
X1056810Y1565133D2*
X2621430D1*
X2794837D2*
X7444790D1*
X1056810Y1555467D2*
X2611763D1*
X2785170D2*
X7444790D1*
X1056810Y1545800D2*
X2602093D1*
X2775500D2*
X7444790D1*
X1056810Y1536133D2*
X2592427D1*
X2765833D2*
X7444790D1*
X1056810Y1526467D2*
X2582760D1*
X2756167D2*
X7444790D1*
X1056810Y1516800D2*
X2573090D1*
X2746497D2*
X7444790D1*
X1056810Y1507133D2*
X2563423D1*
X2736830D2*
X7444790D1*
X1056810Y1497467D2*
X2282933D1*
X2727160D2*
X7444790D1*
X1056810Y1487800D2*
X2268090D1*
X2717493D2*
X7444790D1*
X1056810Y1478133D2*
X2265103D1*
X2707827D2*
X7444790D1*
X1056810Y1468467D2*
X2265063D1*
X2698177D2*
X7444790D1*
X1056810Y1458800D2*
X2265063D1*
X2688510D2*
X7444790D1*
X1056810Y1449133D2*
X2265063D1*
X2678840D2*
X7444790D1*
X1056810Y1439467D2*
X2265063D1*
X2669173D2*
X7444790D1*
X1056810Y1429800D2*
X2265063D1*
X2659507D2*
X7444790D1*
X1056810Y1420133D2*
X2265063D1*
X2649837D2*
X7444790D1*
X1056810Y1410467D2*
X2265063D1*
X2640170D2*
X7444790D1*
X1056810Y1400800D2*
X2265063D1*
X2630500D2*
X7444790D1*
X1056810Y1391133D2*
X2265063D1*
X2620833D2*
X7444790D1*
X1056810Y1381467D2*
X2265063D1*
X2611167D2*
X7444790D1*
X1056810Y1371800D2*
X2265063D1*
X2601497D2*
X7444790D1*
X1056810Y1362133D2*
X2265063D1*
X2591830D2*
X7444790D1*
X1056810Y1352467D2*
X2265063D1*
X2582023D2*
X7444790D1*
X1056810Y1342800D2*
X2265063D1*
X2578157D2*
X7444790D1*
X1056810Y1333133D2*
X2265103D1*
X2578117D2*
X7444790D1*
X1056810Y1323467D2*
X2268070D1*
X2575150D2*
X7444790D1*
X1056810Y1313800D2*
X2282623D1*
X2560600D2*
X7444790D1*
X1056810Y1304133D2*
X7444790D1*
X1056810Y1294467D2*
X7444790D1*
X1056810Y1284800D2*
X7444790D1*
X1056810Y1275133D2*
X7444790D1*
X1056810Y1265467D2*
X7444790D1*
X1056810Y1255800D2*
X7444790D1*
X1056810Y1246133D2*
X7444790D1*
X1056810Y1236467D2*
X7444790D1*
X1056810Y1226800D2*
X7444790D1*
X1056810Y1217133D2*
X7444790D1*
X1056810Y1207467D2*
X7444790D1*
X1056810Y1197800D2*
X7444790D1*
X1056810Y1188133D2*
X7444790D1*
X1056810Y1178467D2*
X7444790D1*
X1056810Y1168800D2*
X7444790D1*
X1056810Y1159133D2*
X7444790D1*
X1056810Y1149467D2*
X7444790D1*
X1056810Y1139800D2*
X7444790D1*
X1056810Y1130133D2*
X7444790D1*
X1056810Y1120467D2*
X7444790D1*
X1056810Y1110800D2*
X7444790D1*
X1056810Y1101133D2*
X7444790D1*
X1056810Y1091467D2*
X7444790D1*
X1056810Y1081800D2*
X7444790D1*
X1056810Y1072133D2*
X7444790D1*
X1056810Y1062467D2*
X7444790D1*
X6804603Y3769927D2*
X6803837Y3759960D1*
X6802310Y3750080D1*
X6800030Y3740347D1*
X6797013Y3730813D1*
X6793273Y3721543D1*
X6788833Y3712587D1*
X6783720Y3703993D1*
X6777963Y3695820D1*
X6771600Y3688110D1*
X6764660Y3680910D1*
X6757193Y3674263D1*
X6749237Y3668210D1*
X6740840Y3662783D1*
X6732053Y3658013D1*
X6722927Y3653933D1*
X6713517Y3650563D1*
X6703873Y3647923D1*
X6694057Y3646033D1*
X6684123Y3644897D1*
X6674133Y3644527D1*
X6664143Y3644923D1*
X6654213Y3646083D1*
X6644400Y3648000D1*
X6634763Y3650663D1*
X6625360Y3654060D1*
X6616243Y3658163D1*
X6607470Y3662953D1*
X6599087Y3668403D1*
X6591147Y3674480D1*
X6583697Y3681143D1*
X6576777Y3688360D1*
X6570433Y3696087D1*
X6564697Y3704277D1*
X6559607Y3712880D1*
X6555190Y3721850D1*
X6551473Y3731130D1*
X6548480Y3740670D1*
X6546227Y3750410D1*
X6544723Y3760293D1*
X6543983Y3770263D1*
X6544010Y3780260D1*
X6544800Y3790227D1*
X6546353Y3800103D1*
X6548660Y3809833D1*
X6551703Y3819357D1*
X6555467Y3828617D1*
X6559930Y3837563D1*
X6565063Y3846140D1*
X6570840Y3854300D1*
X6577227Y3861993D1*
X6584180Y3869177D1*
X6591667Y3875803D1*
X6599637Y3881837D1*
X6608047Y3887243D1*
X6616847Y3891987D1*
X6625983Y3896047D1*
X6635407Y3899390D1*
X6645057Y3902007D1*
X6654877Y3903873D1*
X6664813Y3904980D1*
X6674803Y3905327D1*
X6684793Y3904903D1*
X6694720Y3903717D1*
X6704527Y3901773D1*
X6714157Y3899087D1*
X6723550Y3895667D1*
X6732657Y3891540D1*
X6741420Y3886727D1*
X6749787Y3881257D1*
X6757710Y3875160D1*
X6765147Y3868477D1*
X6772047Y3861240D1*
X6778370Y3853497D1*
X6784083Y3845293D1*
X6789153Y3836677D1*
X6793547Y3827697D1*
X6797237Y3818407D1*
X6800207Y3808860D1*
X6802437Y3799113D1*
X6803913Y3789227D1*
X6804627Y3779253D1*
X6804603Y3769927D1*
X6314603D2*
X6313837Y3759960D1*
X6312310Y3750080D1*
X6310030Y3740347D1*
X6307013Y3730813D1*
X6303273Y3721543D1*
X6298833Y3712587D1*
X6293720Y3703993D1*
X6287963Y3695820D1*
X6281600Y3688110D1*
X6274660Y3680910D1*
X6267193Y3674263D1*
X6259237Y3668210D1*
X6250840Y3662783D1*
X6242053Y3658013D1*
X6232927Y3653933D1*
X6223517Y3650563D1*
X6213873Y3647923D1*
X6204057Y3646033D1*
X6194123Y3644897D1*
X6184133Y3644527D1*
X6174143Y3644923D1*
X6164213Y3646083D1*
X6154400Y3648000D1*
X6144763Y3650663D1*
X6135360Y3654060D1*
X6126243Y3658163D1*
X6117470Y3662953D1*
X6109087Y3668403D1*
X6101147Y3674480D1*
X6093697Y3681143D1*
X6086777Y3688360D1*
X6080433Y3696087D1*
X6074697Y3704277D1*
X6069607Y3712880D1*
X6065190Y3721850D1*
X6061473Y3731130D1*
X6058480Y3740670D1*
X6056227Y3750410D1*
X6054723Y3760293D1*
X6053983Y3770263D1*
X6054010Y3780260D1*
X6054800Y3790227D1*
X6056353Y3800103D1*
X6058660Y3809833D1*
X6061703Y3819357D1*
X6065467Y3828617D1*
X6069930Y3837563D1*
X6075063Y3846140D1*
X6080840Y3854300D1*
X6087227Y3861993D1*
X6094180Y3869177D1*
X6101667Y3875803D1*
X6109637Y3881837D1*
X6118047Y3887243D1*
X6126847Y3891987D1*
X6135983Y3896047D1*
X6145407Y3899390D1*
X6155057Y3902007D1*
X6164877Y3903873D1*
X6174813Y3904980D1*
X6184803Y3905327D1*
X6194793Y3904903D1*
X6204720Y3903717D1*
X6214527Y3901773D1*
X6224157Y3899087D1*
X6233550Y3895667D1*
X6242657Y3891540D1*
X6251420Y3886727D1*
X6259787Y3881257D1*
X6267710Y3875160D1*
X6275147Y3868477D1*
X6282047Y3861240D1*
X6288370Y3853497D1*
X6294083Y3845293D1*
X6299153Y3836677D1*
X6303547Y3827697D1*
X6307237Y3818407D1*
X6310207Y3808860D1*
X6312437Y3799113D1*
X6313913Y3789227D1*
X6314627Y3779253D1*
X6314603Y3769927D1*
X3046510Y2600597D2*
X3046090Y2597040D1*
X3045390Y2593527D1*
X3044417Y2590083D1*
X3043180Y2586723D1*
X3041680Y2583470D1*
X3039930Y2580347D1*
X3037940Y2577370D1*
X3035723Y2574560D1*
X3033293Y2571930D1*
X3030663Y2569500D1*
X3027853Y2567283D1*
X3024877Y2565293D1*
X3021753Y2563543D1*
X3018500Y2562043D1*
X3015140Y2560807D1*
X3011697Y2559833D1*
X3008183Y2559133D1*
X3004627Y2558713D1*
X3001050Y2558573D1*
X2997473Y2558713D1*
X2993917Y2559133D1*
X2990403Y2559833D1*
X2986960Y2560807D1*
X2983600Y2562043D1*
X2980347Y2563543D1*
X2977223Y2565293D1*
X2974247Y2567283D1*
X2971437Y2569500D1*
X2968807Y2571930D1*
X2966377Y2574560D1*
X2964160Y2577370D1*
X2962170Y2580347D1*
X2960420Y2583470D1*
X2958920Y2586723D1*
X2957683Y2590083D1*
X2956710Y2593527D1*
X2956010Y2597040D1*
X2955590Y2600597D1*
X2955450Y2604173D1*
X2955590Y2607750D1*
X2956010Y2611307D1*
X2956710Y2614820D1*
X2957683Y2618263D1*
X2958920Y2621623D1*
X2960420Y2624877D1*
X2962170Y2628000D1*
X2965450Y2632613D1*
Y3002160D1*
X2877890Y3089737D1*
X2877900Y2632687D1*
X2881180Y2628000D1*
X2882930Y2624877D1*
X2884430Y2621623D1*
X2885667Y2618263D1*
X2886640Y2614820D1*
X2887340Y2611307D1*
X2887760Y2607750D1*
X2887900Y2604173D1*
X2887760Y2600597D1*
X2887340Y2597040D1*
X2886640Y2593527D1*
X2885667Y2590083D1*
X2884430Y2586723D1*
X2882930Y2583470D1*
X2881180Y2580347D1*
X2879190Y2577370D1*
X2876973Y2574560D1*
X2874543Y2571930D1*
X2871913Y2569500D1*
X2869103Y2567283D1*
X2866127Y2565293D1*
X2863003Y2563543D1*
X2859750Y2562043D1*
X2856390Y2560807D1*
X2852947Y2559833D1*
X2849433Y2559133D1*
X2845877Y2558713D1*
X2842300Y2558573D1*
X2838723Y2558713D1*
X2835167Y2559133D1*
X2831653Y2559833D1*
X2828210Y2560807D1*
X2824850Y2562043D1*
X2821597Y2563543D1*
X2818473Y2565293D1*
X2815497Y2567283D1*
X2812687Y2569500D1*
X2810057Y2571930D1*
X2807627Y2574560D1*
X2805410Y2577370D1*
X2803420Y2580347D1*
X2801670Y2583470D1*
X2800170Y2586723D1*
X2798933Y2590083D1*
X2797960Y2593527D1*
X2797260Y2597040D1*
X2796840Y2600597D1*
X2796700Y2604173D1*
X2796840Y2607750D1*
X2797260Y2611307D1*
X2797960Y2614820D1*
X2798933Y2618263D1*
X2800170Y2621623D1*
X2801670Y2624877D1*
X2803420Y2628000D1*
X2806700Y2632613D1*
Y3081537D1*
X2626627Y3261627D1*
X2623000Y3265873D1*
X2620080Y3270637D1*
X2617943Y3275800D1*
X2616637Y3281230D1*
X2616200Y3286810D1*
X2616310Y3749970D1*
X2617183Y3755487D1*
X2618910Y3760800D1*
X2621447Y3765777D1*
X2624730Y3770297D1*
X2633697Y3779420D1*
X2771553Y3917120D1*
X2776073Y3920403D1*
X2781050Y3922940D1*
X2786363Y3924667D1*
X2791880Y3925540D1*
X2804673Y3925650D1*
X4226220Y3925540D1*
X4231737Y3924667D1*
X4237050Y3922940D1*
X4242027Y3920403D1*
X4246547Y3917120D1*
X4255670Y3908153D1*
X4768200Y3395623D1*
X4773823Y3394640D1*
X4777267Y3393667D1*
X4780627Y3392430D1*
X4783880Y3390930D1*
X4787003Y3389180D1*
X4789980Y3387190D1*
X4792790Y3384973D1*
X4795420Y3382543D1*
X4797850Y3379913D1*
X4800067Y3377103D1*
X4802057Y3374127D1*
X4803807Y3371003D1*
X4805307Y3367750D1*
X4806543Y3364390D1*
X4807517Y3360947D1*
X4808217Y3357433D1*
X4808637Y3353877D1*
X4808777Y3350300D1*
X4808637Y3346723D1*
X4808217Y3343167D1*
X4807517Y3339653D1*
X4806543Y3336210D1*
X4805307Y3332850D1*
X4803807Y3329597D1*
X4800497Y3324137D1*
X4805970Y3327430D1*
X4809223Y3328930D1*
X4812583Y3330167D1*
X4816027Y3331140D1*
X4819540Y3331840D1*
X4823097Y3332260D1*
X4826673Y3332400D1*
X4830250Y3332260D1*
X4833807Y3331840D1*
X4837320Y3331140D1*
X4840763Y3330167D1*
X4844123Y3328930D1*
X4847377Y3327430D1*
X4850500Y3325680D1*
X4853477Y3323690D1*
X4856287Y3321473D1*
X4858917Y3319043D1*
X4861347Y3316413D1*
X4863563Y3313603D1*
X4865553Y3310627D1*
X4867303Y3307503D1*
X4868803Y3304250D1*
X4870040Y3300890D1*
X4871013Y3297447D1*
X4871713Y3293933D1*
X4872133Y3290377D1*
X4872273Y3286800D1*
X4872133Y3283223D1*
X4871713Y3279667D1*
X4871013Y3276153D1*
X4870040Y3272710D1*
X4868803Y3269350D1*
X4867303Y3266097D1*
X4865553Y3262973D1*
X4863563Y3259997D1*
X4861347Y3257187D1*
X4858917Y3254557D1*
X4856287Y3252127D1*
X4853477Y3249910D1*
X4850500Y3247920D1*
X4847377Y3246170D1*
X4844123Y3244670D1*
X4840763Y3243433D1*
X4837320Y3242460D1*
X4833807Y3241760D1*
X4830250Y3241340D1*
X4826673Y3241200D1*
X4823097Y3241340D1*
X4819540Y3241760D1*
X4816027Y3242460D1*
X4812583Y3243433D1*
X4809223Y3244670D1*
X4805970Y3246170D1*
X4802847Y3247920D1*
X4798233Y3251200D1*
X4696880Y3251310D1*
X4691363Y3252183D1*
X4686050Y3253910D1*
X4681073Y3256447D1*
X4676553Y3259730D1*
X4667430Y3268697D1*
X4145180Y3790950D1*
X2841153D1*
X2766783Y3716567D1*
X2766773Y3301553D1*
X3026223Y3042097D1*
X3029850Y3037850D1*
X3032770Y3033087D1*
X3034907Y3027923D1*
X3036213Y3022493D1*
X3036650Y3016913D1*
Y2632687D1*
X3039930Y2628000D1*
X3041680Y2624877D1*
X3043180Y2621623D1*
X3044417Y2618263D1*
X3045390Y2614820D1*
X3046090Y2611307D1*
X3046510Y2607750D1*
X3046650Y2604173D1*
X3046510Y2600597D1*
X4727143Y3322410D2*
X4724297Y3326473D1*
X4722547Y3329597D1*
X4721047Y3332850D1*
X4719810Y3336210D1*
X4718837Y3339653D1*
X4717893Y3345237D1*
X4208680Y3854450D1*
X4182040D1*
X4185097Y3851723D1*
X4714417Y3322400D1*
X4727113D1*
X3200193Y3104643D2*
X3196497Y3107037D1*
X3193687Y3109253D1*
X3191057Y3111683D1*
X3188653Y3114280D1*
X3188650Y2481250D1*
X3191153Y2476637D1*
X3193210Y2472080D1*
X3194937Y2467390D1*
X3196327Y2462587D1*
X3197373Y2457700D1*
X3198067Y2452750D1*
X3198450Y2445427D1*
X3198273Y2440430D1*
X3197740Y2435460D1*
X3196857Y2430540D1*
X3195627Y2425693D1*
X3194057Y2420950D1*
X3192153Y2416327D1*
X3189927Y2411850D1*
X3187390Y2407543D1*
X3184550Y2403430D1*
X3181427Y2399527D1*
X3178037Y2395853D1*
X3174393Y2392430D1*
X3170513Y2389277D1*
X3166423Y2386403D1*
X3162137Y2383830D1*
X3157680Y2381567D1*
X3153073Y2379623D1*
X3148343Y2378013D1*
X3143507Y2376743D1*
X3138593Y2375820D1*
X3133627Y2375247D1*
X3128633Y2375030D1*
X3123637Y2375167D1*
X3118663Y2375657D1*
X3113733Y2376497D1*
X3108880Y2377687D1*
X3104120Y2379217D1*
X3099483Y2381083D1*
X3094990Y2383273D1*
X3090660Y2385777D1*
X3086523Y2388580D1*
X3082593Y2391670D1*
X3078893Y2395030D1*
X3075440Y2398647D1*
X3072253Y2402497D1*
X3069347Y2406567D1*
X3066737Y2410830D1*
X3064437Y2415267D1*
X3062457Y2419857D1*
X3060810Y2424577D1*
X3059500Y2429400D1*
X3058533Y2434307D1*
X3057920Y2439267D1*
X3057660Y2444260D1*
X3057753Y2449257D1*
X3058203Y2454237D1*
X3059003Y2459170D1*
X3060153Y2464033D1*
X3061647Y2468807D1*
X3063473Y2473460D1*
X3065623Y2477970D1*
X3067447Y2481180D1*
X3067450Y3121697D1*
X3062073Y3123167D1*
X3057610Y3124813D1*
X3053287Y3126803D1*
X3049137Y3129130D1*
X3045180Y3131773D1*
X3041443Y3134720D1*
X3037950Y3137950D1*
X3034720Y3141443D1*
X3031773Y3145180D1*
X3029130Y3149137D1*
X3026803Y3153287D1*
X3024813Y3157610D1*
X3023167Y3162073D1*
X3021873Y3166653D1*
X3020947Y3171320D1*
X3020387Y3176047D1*
X3020200Y3185800D1*
Y3320800D1*
X3020387Y3325553D1*
X3020947Y3330280D1*
X3021873Y3334947D1*
X3023167Y3339527D1*
X3024813Y3343990D1*
X3026803Y3348313D1*
X3029130Y3352463D1*
X3031773Y3356420D1*
X3034720Y3360157D1*
X3037950Y3363650D1*
X3041443Y3366880D1*
X3045180Y3369827D1*
X3049137Y3372470D1*
X3053287Y3374797D1*
X3057610Y3376787D1*
X3062073Y3378433D1*
X3066653Y3379727D1*
X3071320Y3380653D1*
X3076047Y3381213D1*
X3080800Y3381400D1*
X3085553Y3381213D1*
X3090280Y3380653D1*
X3094947Y3379727D1*
X3099527Y3378433D1*
X3103990Y3376787D1*
X3108313Y3374797D1*
X3112463Y3372470D1*
X3116420Y3369827D1*
X3120157Y3366880D1*
X3123650Y3363650D1*
X3126880Y3360157D1*
X3129827Y3356420D1*
X3132470Y3352463D1*
X3134797Y3348313D1*
X3136787Y3343990D1*
X3138433Y3339527D1*
X3139727Y3334947D1*
X3140653Y3330280D1*
X3141213Y3325553D1*
X3141400Y3315800D1*
Y3239920D1*
X3146777Y3238433D1*
X3151240Y3236787D1*
X3155563Y3234797D1*
X3159713Y3232470D1*
X3163670Y3229827D1*
X3167407Y3226880D1*
X3170900Y3223650D1*
X3174130Y3220157D1*
X3177077Y3216420D1*
X3179720Y3212463D1*
X3182047Y3208313D1*
X3184037Y3203990D1*
X3185683Y3199527D1*
X3186977Y3194947D1*
X3187903Y3190280D1*
X3188463Y3185553D1*
X3188650Y3175800D1*
Y3173553D1*
X3191057Y3176170D1*
X3193687Y3178600D1*
X3196497Y3180817D1*
X3199473Y3182807D1*
X3202597Y3184557D1*
X3205850Y3186057D1*
X3209210Y3187293D1*
X3212653Y3188267D1*
X3216167Y3188967D1*
X3220770Y3189427D1*
X3225180Y3192953D1*
X3229137Y3195597D1*
X3233287Y3197923D1*
X3237610Y3199913D1*
X3242073Y3201560D1*
X3246653Y3202853D1*
X3251320Y3203780D1*
X3256047Y3204340D1*
X3265800Y3204527D1*
X3275680Y3204340D1*
X3280407Y3203780D1*
X3285073Y3202853D1*
X3289653Y3201560D1*
X3294117Y3199913D1*
X3298440Y3197923D1*
X3302590Y3195597D1*
X3306547Y3192953D1*
X3310283Y3190007D1*
X3313777Y3186777D1*
X3317007Y3183283D1*
X3319953Y3179547D1*
X3322597Y3175590D1*
X3324923Y3171440D1*
X3326913Y3167117D1*
X3328560Y3162653D1*
X3329853Y3158073D1*
X3330780Y3153407D1*
X3331340Y3148680D1*
X3331527Y3143927D1*
X3331340Y3139173D1*
X3330780Y3134447D1*
X3329853Y3129780D1*
X3328560Y3125200D1*
X3326913Y3120737D1*
X3324923Y3116413D1*
X3321410Y3110487D1*
X3321400Y2117800D1*
X3321213Y2113047D1*
X3320653Y2108320D1*
X3319727Y2103653D1*
X3318433Y2099073D1*
X3316787Y2094610D1*
X3314797Y2090287D1*
X3312470Y2086137D1*
X3309827Y2082180D1*
X3306880Y2078443D1*
X3300117Y2071413D1*
X2583523Y1354823D1*
X2580030Y1351593D1*
X2577153Y1349327D1*
X2577087Y1332557D1*
X2576580Y1329363D1*
X2575583Y1326290D1*
X2574113Y1323410D1*
X2572213Y1320793D1*
X2569930Y1318510D1*
X2567313Y1316610D1*
X2564433Y1315140D1*
X2561360Y1314143D1*
X2558167Y1313637D1*
X2531550Y1313573D1*
X2285057Y1313637D1*
X2281863Y1314143D1*
X2278790Y1315140D1*
X2275910Y1316610D1*
X2273293Y1318510D1*
X2271010Y1320793D1*
X2269110Y1323410D1*
X2267640Y1326290D1*
X2266643Y1329363D1*
X2266137Y1332557D1*
X2266073Y1359173D1*
X2266137Y1478667D1*
X2266643Y1481860D1*
X2267640Y1484933D1*
X2269110Y1487813D1*
X2271010Y1490430D1*
X2273293Y1492713D1*
X2275910Y1494613D1*
X2278790Y1496083D1*
X2281863Y1497080D1*
X2285057Y1497587D1*
X2311673Y1497650D1*
X2554930D1*
X3200193Y2142893D1*
X3200200Y3104617D1*
X2697333Y3742363D2*
X2687387Y3732420D1*
X2687400Y3301533D1*
X2695577Y3293370D1*
X2695683Y3734093D1*
X2696557Y3739610D1*
X2697320Y3742310D1*
X2323430Y3871277D2*
X2349230D1*
X2350947Y3874820D1*
X2353397Y3879177D1*
X2356147Y3883350D1*
X2359187Y3887320D1*
X2363753Y3892350D1*
X2715653Y4244113D1*
X2719483Y4247327D1*
X2723530Y4250260D1*
X2727773Y4252903D1*
X2732193Y4255237D1*
X2736770Y4257253D1*
X2741473Y4258940D1*
X2746287Y4260287D1*
X2751183Y4261293D1*
X2756140Y4261950D1*
X2762927Y4262277D1*
X3371427D1*
X3376423Y4262100D1*
X3381393Y4261570D1*
X3386313Y4260690D1*
X3391160Y4259463D1*
X3395907Y4257897D1*
X3400533Y4255997D1*
X3405010Y4253777D1*
X3407553Y4252283D1*
X3556673Y4252277D1*
X3561427Y4252090D1*
X3566153Y4251530D1*
X3570820Y4250603D1*
X3575400Y4249310D1*
X3579863Y4247663D1*
X3584187Y4245673D1*
X3588337Y4243347D1*
X3592293Y4240703D1*
X3596030Y4237757D1*
X3599523Y4234527D1*
X3602753Y4231033D1*
X3605700Y4227297D1*
X3608343Y4223340D1*
X3610670Y4219190D1*
X3612660Y4214867D1*
X3614307Y4210403D1*
X3615600Y4205823D1*
X3616527Y4201157D1*
X3617087Y4196430D1*
X3617273Y4191677D1*
X3617087Y4186923D1*
X3616527Y4182197D1*
X3615600Y4177530D1*
X3614307Y4172950D1*
X3612660Y4168487D1*
X3610670Y4164163D1*
X3608343Y4160013D1*
X3605700Y4156057D1*
X3602753Y4152320D1*
X3599523Y4148827D1*
X3596030Y4145597D1*
X3592293Y4142650D1*
X3588337Y4140007D1*
X3584187Y4137680D1*
X3579863Y4135690D1*
X3575400Y4134043D1*
X3570820Y4132750D1*
X3566153Y4131823D1*
X3561427Y4131263D1*
X3551673Y4131077D1*
X3407657D1*
X3402160Y4128117D1*
X3397583Y4126100D1*
X3392880Y4124413D1*
X3388067Y4123067D1*
X3383170Y4122060D1*
X3378213Y4121403D1*
X3371427Y4121077D1*
X2792190D1*
X2484280Y3813183D1*
X2484100Y3805677D1*
X2483570Y3800707D1*
X2482690Y3795787D1*
X2481463Y3790940D1*
X2479897Y3786193D1*
X2477997Y3781567D1*
X2475777Y3777090D1*
X2473247Y3772780D1*
X2470413Y3768660D1*
X2467300Y3764750D1*
X2463917Y3761070D1*
X2460280Y3757640D1*
X2456410Y3754473D1*
X2452327Y3751593D1*
X2448047Y3749003D1*
X2443597Y3746727D1*
X2438997Y3744770D1*
X2434270Y3743143D1*
X2429440Y3741857D1*
X2424533Y3740913D1*
X2419567Y3740320D1*
X2414577Y3740080D1*
X2409577Y3740193D1*
X2404600Y3740660D1*
X2399670Y3741477D1*
X2394807Y3742640D1*
X2390040Y3744147D1*
X2385393Y3745987D1*
X2380887Y3748150D1*
X2377510Y3750077D1*
X2318423D1*
X2313670Y3750263D1*
X2308943Y3750823D1*
X2304277Y3751750D1*
X2299697Y3753043D1*
X2295233Y3754690D1*
X2290913Y3756683D1*
X2286760Y3759007D1*
X2282807Y3761650D1*
X2279070Y3764597D1*
X2275573Y3767827D1*
X2272343Y3771320D1*
X2269400Y3775060D1*
X2266757Y3779017D1*
X2264430Y3783167D1*
X2262440Y3787487D1*
X2260793Y3791953D1*
X2259500Y3796533D1*
X2258573Y3801200D1*
X2258013Y3805923D1*
X2257827Y3810680D1*
X2258013Y3815433D1*
X2258573Y3820160D1*
X2259500Y3824827D1*
X2260793Y3829407D1*
X2262440Y3833870D1*
X2264433Y3838190D1*
X2266757Y3842343D1*
X2269400Y3846297D1*
X2272347Y3850033D1*
X2275577Y3853530D1*
X2279070Y3856760D1*
X2282810Y3859703D1*
X2286767Y3862347D1*
X2290917Y3864673D1*
X2295237Y3866663D1*
X2299703Y3868310D1*
X2304283Y3869603D1*
X2308950Y3870530D1*
X2313673Y3871090D1*
X2323430Y3871277D1*
X1055820Y1055800D2*
X7445780D1*
X7445800Y4445780D1*
X2610800Y4445800D1*
X1055820D1*
X1055800Y1055820D1*
D61*
X1190300Y3764673D3*
X2054300D3*
D63*
X2084300Y4300673D3*
D64*
X1160300D3*
G04 Bottom Clear*
%LPC*%
D13*
X3128050Y2445427D3*
X3001050Y2604173D3*
X2842300D3*
X3080800Y3320800D3*
X4763177Y3350300D3*
X4826673Y3286800D3*
X3080800Y3180800D3*
X3270927Y3143927D3*
X3223300D3*
D15*
X2366050Y1397673D3*
X2493050D3*
X6509427Y2334300D3*
X3937677Y4080550D3*
X6509423Y2239050D3*
X6699927Y2334300D3*
X3937673Y3985300D3*
X6699927Y2239050D3*
X6604673D3*
Y2334300D3*
X3461427Y4191677D3*
X3556673D3*
X2413677Y3810673D3*
X2318427Y3810677D3*
D13*
X2826427Y3461423D3*
X2889927D3*
X2953427D3*
X3016923D3*
X3080427D3*
X3143927D3*
X3207423D3*
X3270927D3*
X2826427Y3540800D3*
X2889927D3*
X2953430D3*
X3016920D3*
X3080430D3*
X3143930D3*
X3207420D3*
X3270923D3*
X2826430Y3620173D3*
X2889930D3*
X2953433D3*
X3016923D3*
X3080433D3*
X3143933D3*
X3207423D3*
X3270930D3*
X1190300Y3714673D2*
D66*
Y3814673D1*
X2054300Y3714673D2*
Y3814673D1*
X2084300Y4225673D2*
Y4375673D1*
X1160300Y4225673D2*
Y4375673D1*
M02*
