G04 DipTrace 3.3.1.3*
G04 TopAssy.gbr*
%MOMM*%
G04 #@! TF.FileFunction,Drawing,Top*
G04 #@! TF.Part,Single*
%ADD10C,0.25*%
%ADD28O,0.23999X0.23961*%
%ADD30O,0.39176X0.39154*%
%ADD33C,0.127*%
%ADD34C,0.6096*%
%ADD50C,0.15*%
%ADD54O,0.39103X0.39118*%
%ADD56O,0.39072X0.41272*%
%ADD148C,0.07843*%
%ADD149C,0.39216*%
%FSLAX35Y35*%
G04*
G71*
G90*
G75*
G01*
G04 TopAssy*
%LPD*%
X5421800Y1949777D2*
D10*
Y1189789D1*
X4961800Y1949777D2*
Y1189789D1*
X5421800Y1719819D2*
X4961800D1*
X5970677Y1949777D2*
Y1189789D1*
X5510677Y1949777D2*
Y1189789D1*
X5970677Y1719819D2*
X5510677D1*
X1477597Y1971177D2*
X1317757D1*
X1477597Y1952257D2*
X1317757D1*
X1477597D2*
Y2012097D1*
X1317757Y1952257D2*
Y2012097D1*
X1699840Y1971177D2*
X1540000D1*
X1699840Y1952257D2*
X1540000D1*
X1699840D2*
Y2012097D1*
X1540000Y1952257D2*
Y2012097D1*
X1922093Y1971177D2*
X1762253D1*
X1922093Y1952257D2*
X1762253D1*
X1922093D2*
Y2012097D1*
X1762253Y1952257D2*
Y2012097D1*
X2144343Y1971177D2*
X1984503D1*
X2144343Y1952257D2*
X1984503D1*
X2144343D2*
Y2012097D1*
X1984503Y1952257D2*
Y2012097D1*
X3665800Y4112847D2*
Y3953007D1*
X3684720Y4112847D2*
Y3953007D1*
Y4112847D2*
X3624880D1*
X3684720Y3953007D2*
X3624880D1*
X6517177Y1949777D2*
Y1189789D1*
X6057177Y1949777D2*
Y1189789D1*
X6517177Y1719819D2*
X6057177D1*
X8285427Y2779347D2*
Y2619507D1*
X8304347Y2779347D2*
Y2619507D1*
Y2779347D2*
X8244507D1*
X8304347Y2619507D2*
X8244507D1*
X3306178Y2873414D2*
Y3033411D1*
X3426175Y2873414D2*
Y3033411D1*
D28*
X3366177Y2779414D3*
D30*
X-594065Y2767765D3*
X-506687Y2734429D2*
D10*
Y2534412D1*
X-456713D1*
Y2734429D1*
X-506687D1*
X7084238Y3584896D2*
D33*
X5774362D1*
Y4584967D1*
X7084238D1*
Y3584896D1*
X6863362D1*
X5991300D2*
X5774362D1*
X7084238Y3854953D2*
Y4209926D1*
X5774362Y3851937D2*
Y4207954D1*
X7084238Y4452954D2*
Y4584967D1*
X5774362D1*
Y4449938D1*
X6898238Y3454914D2*
D34*
X6898240Y3454982D1*
X6898248Y3455051D1*
X6898260Y3455119D1*
X6898277Y3455185D1*
X6898300Y3455251D1*
X6898327Y3455315D1*
X6898358Y3455377D1*
X6898394Y3455436D1*
X6898434Y3455493D1*
X6898479Y3455548D1*
X6898527Y3455599D1*
X6898579Y3455646D1*
X6898634Y3455691D1*
X6898692Y3455731D1*
X6898753Y3455768D1*
X6898817Y3455800D1*
X6898882Y3455828D1*
X6898950Y3455851D1*
X6899019Y3455870D1*
X6899090Y3455885D1*
X6899161Y3455894D1*
X6899233Y3455899D1*
X6899305D1*
X6899377Y3455894D1*
X6899448Y3455885D1*
X6899518Y3455870D1*
X6899587Y3455851D1*
X6899655Y3455828D1*
X6899721Y3455800D1*
X6899784Y3455768D1*
X6899845Y3455731D1*
X6899904Y3455691D1*
X6899959Y3455646D1*
X6900011Y3455599D1*
X6900059Y3455548D1*
X6900103Y3455493D1*
X6900143Y3455436D1*
X6900179Y3455377D1*
X6900211Y3455315D1*
X6900238Y3455251D1*
X6900260Y3455185D1*
X6900277Y3455119D1*
X6900290Y3455051D1*
X6900297Y3454982D1*
X6900300Y3454914D1*
X6900297Y3454845D1*
X6900290Y3454776D1*
X6900277Y3454709D1*
X6900260Y3454642D1*
X6900238Y3454576D1*
X6900211Y3454513D1*
X6900179Y3454451D1*
X6900143Y3454391D1*
X6900103Y3454334D1*
X6900059Y3454280D1*
X6900011Y3454229D1*
X6899959Y3454181D1*
X6899904Y3454137D1*
X6899845Y3454096D1*
X6899784Y3454060D1*
X6899721Y3454027D1*
X6899655Y3453999D1*
X6899587Y3453976D1*
X6899518Y3453957D1*
X6899448Y3453943D1*
X6899377Y3453933D1*
X6899305Y3453928D1*
X6899233D1*
X6899161Y3453933D1*
X6899090Y3453943D1*
X6899019Y3453957D1*
X6898950Y3453976D1*
X6898882Y3453999D1*
X6898817Y3454027D1*
X6898753Y3454060D1*
X6898692Y3454096D1*
X6898634Y3454137D1*
X6898579Y3454181D1*
X6898527Y3454229D1*
X6898479Y3454280D1*
X6898434Y3454334D1*
X6898394Y3454391D1*
X6898358Y3454451D1*
X6898327Y3454513D1*
X6898300Y3454576D1*
X6898277Y3454642D1*
X6898260Y3454709D1*
X6898248Y3454776D1*
X6898240Y3454845D1*
X6898238Y3454914D1*
X6689362Y3584896D2*
D33*
X6619237D1*
X6449362D2*
X6409238D1*
X6239363D2*
X6169238D1*
X5774362D2*
Y3603921D1*
X7084238Y3584896D2*
Y3602877D1*
X7298300Y2057943D2*
Y2607903D1*
X6768300D2*
Y2057943D1*
X6930321D1*
X7139300D2*
X7298300D1*
X6768300Y2607903D2*
X6932282D1*
X7134318D2*
X7298300D1*
X4635083Y2976507D2*
D10*
X4954763D1*
X4635083Y2676347D2*
X4954763D1*
X3538623Y3701159D2*
X2558723D1*
X3538623Y3380441D2*
X2558723D1*
Y3701159D2*
Y3380441D1*
X3538623Y3701159D2*
Y3590942D1*
Y3490658D2*
Y3380441D1*
Y3590942D2*
G03X3538623Y3490658I167J-50142D01*
G01*
X6609555Y2440677D2*
D50*
X6409539D1*
Y2640677D1*
X6609555D1*
Y2440677D1*
D54*
X6213198Y3196411D3*
X6350525Y3183044D2*
D10*
Y2883050D1*
X6430511Y3183044D2*
Y2883050D1*
X6350525D2*
X6430511D1*
X6350525Y3183044D2*
X6430511D1*
X1665119Y3344699D2*
X1694863Y3314395D1*
X1294991Y3344699D2*
Y3314395D1*
Y3344699D2*
X1324735D1*
X1294991Y2944320D2*
X1324735D1*
X1294991D2*
Y2974624D1*
X1694863Y2944320D2*
X1665119D1*
X1694863D2*
Y2974624D1*
D56*
X1619535Y3413954D3*
X5196086Y2082065D2*
D148*
X5193671Y2086895D1*
X5188786Y2091780D1*
X5183957Y2094195D1*
X5174242D1*
X5169357Y2091780D1*
X5164528Y2086895D1*
X5162057Y2082065D1*
X5159642Y2074765D1*
Y2062580D1*
X5162057Y2055336D1*
X5164528Y2050451D1*
X5169357Y2045622D1*
X5174242Y2043151D1*
X5183957D1*
X5188786Y2045622D1*
X5193671Y2050451D1*
X5196086Y2055336D1*
X5211772Y2084424D2*
X5216658Y2086895D1*
X5223958Y2094138D1*
Y2043151D1*
X5734041Y2082065D2*
X5731626Y2086895D1*
X5726741Y2091780D1*
X5721912Y2094195D1*
X5712197D1*
X5707312Y2091780D1*
X5702482Y2086895D1*
X5700012Y2082065D1*
X5697597Y2074765D1*
Y2062580D1*
X5700012Y2055336D1*
X5702482Y2050451D1*
X5707312Y2045622D1*
X5712197Y2043151D1*
X5721912D1*
X5726741Y2045622D1*
X5731626Y2050451D1*
X5734041Y2055336D1*
X5752198Y2082009D2*
Y2084424D1*
X5754612Y2089309D1*
X5757027Y2091724D1*
X5761912Y2094138D1*
X5771627D1*
X5776456Y2091724D1*
X5778871Y2089309D1*
X5781342Y2084424D1*
Y2079595D1*
X5778871Y2074709D1*
X5774042Y2067465D1*
X5749727Y2043151D1*
X5783756D1*
X2264164Y2224692D2*
X2261750Y2229521D1*
X2256864Y2234407D1*
X2252035Y2236821D1*
X2242320D1*
X2237435Y2234407D1*
X2232606Y2229521D1*
X2230135Y2224692D1*
X2227720Y2217392D1*
Y2205207D1*
X2230135Y2197963D1*
X2232606Y2193077D1*
X2237435Y2188248D1*
X2242320Y2185777D1*
X2252035D1*
X2256864Y2188248D1*
X2261750Y2193077D1*
X2264164Y2197963D1*
X2284736Y2236765D2*
X2311409D1*
X2296865Y2217336D1*
X2304165D1*
X2308994Y2214921D1*
X2311409Y2212507D1*
X2313880Y2205207D1*
Y2200377D1*
X2311409Y2193077D1*
X2306580Y2188192D1*
X2299280Y2185777D1*
X2291980D1*
X2284736Y2188192D1*
X2282321Y2190663D1*
X2279850Y2195492D1*
X1391041Y2264442D2*
X1388626Y2269271D1*
X1383741Y2274157D1*
X1378912Y2276571D1*
X1369197D1*
X1364312Y2274157D1*
X1359482Y2269271D1*
X1357012Y2264442D1*
X1354597Y2257142D1*
Y2244957D1*
X1357012Y2237713D1*
X1359482Y2232827D1*
X1364312Y2227998D1*
X1369197Y2225527D1*
X1378912D1*
X1383741Y2227998D1*
X1388626Y2232827D1*
X1391041Y2237713D1*
X1435871Y2276515D2*
X1411612D1*
X1409198Y2254671D1*
X1411612Y2257086D1*
X1418912Y2259557D1*
X1426156D1*
X1433456Y2257086D1*
X1438342Y2252257D1*
X1440756Y2244957D1*
Y2240127D1*
X1438342Y2232827D1*
X1433456Y2227942D1*
X1426156Y2225527D1*
X1418912D1*
X1411612Y2227942D1*
X1409198Y2230413D1*
X1406727Y2235242D1*
X1614520Y2264442D2*
X1612105Y2269271D1*
X1607220Y2274157D1*
X1602390Y2276571D1*
X1592676D1*
X1587790Y2274157D1*
X1582961Y2269271D1*
X1580490Y2264442D1*
X1578076Y2257142D1*
Y2244957D1*
X1580490Y2237713D1*
X1582961Y2232827D1*
X1587790Y2227998D1*
X1592676Y2225527D1*
X1602390D1*
X1607220Y2227998D1*
X1612105Y2232827D1*
X1614520Y2237713D1*
X1659350Y2269271D2*
X1656935Y2274101D1*
X1649635Y2276515D1*
X1644806D1*
X1637506Y2274101D1*
X1632620Y2266801D1*
X1630206Y2254671D1*
Y2242542D1*
X1632620Y2232827D1*
X1637506Y2227942D1*
X1644806Y2225527D1*
X1647220D1*
X1654464Y2227942D1*
X1659350Y2232827D1*
X1661764Y2240127D1*
Y2242542D1*
X1659350Y2249842D1*
X1654464Y2254671D1*
X1647220Y2257086D1*
X1644806D1*
X1637506Y2254671D1*
X1632620Y2249842D1*
X1630206Y2242542D1*
X1835538Y2264442D2*
X1833123Y2269271D1*
X1828238Y2274157D1*
X1823408Y2276571D1*
X1813694D1*
X1808808Y2274157D1*
X1803979Y2269271D1*
X1801508Y2264442D1*
X1799094Y2257142D1*
Y2244957D1*
X1801508Y2237713D1*
X1803979Y2232827D1*
X1808808Y2227998D1*
X1813694Y2225527D1*
X1823408D1*
X1828238Y2227998D1*
X1833123Y2232827D1*
X1835538Y2237713D1*
X1860938Y2225527D2*
X1885253Y2276515D1*
X1851224D1*
X2057816Y2264442D2*
X2055401Y2269271D1*
X2050516Y2274157D1*
X2045686Y2276571D1*
X2035972D1*
X2031086Y2274157D1*
X2026257Y2269271D1*
X2023786Y2264442D1*
X2021372Y2257142D1*
Y2244957D1*
X2023786Y2237713D1*
X2026257Y2232827D1*
X2031086Y2227998D1*
X2035972Y2225527D1*
X2045686D1*
X2050516Y2227998D1*
X2055401Y2232827D1*
X2057816Y2237713D1*
X2085631Y2276515D2*
X2078387Y2274101D1*
X2075916Y2269271D1*
Y2264386D1*
X2078387Y2259557D1*
X2083216Y2257086D1*
X2092931Y2254671D1*
X2100231Y2252257D1*
X2105060Y2247371D1*
X2107475Y2242542D1*
Y2235242D1*
X2105060Y2230413D1*
X2102646Y2227942D1*
X2095346Y2225527D1*
X2085631D1*
X2078387Y2227942D1*
X2075916Y2230413D1*
X2073502Y2235242D1*
Y2242542D1*
X2075916Y2247371D1*
X2080802Y2252257D1*
X2088046Y2254671D1*
X2097760Y2257086D1*
X2102646Y2259557D1*
X2105060Y2264386D1*
Y2269271D1*
X2102646Y2274101D1*
X2095346Y2276515D1*
X2085631D1*
X3646498Y3737442D2*
X3644084Y3742271D1*
X3639198Y3747157D1*
X3634369Y3749571D1*
X3624654D1*
X3619769Y3747157D1*
X3614940Y3742271D1*
X3612469Y3737442D1*
X3610054Y3730142D1*
Y3717957D1*
X3612469Y3710713D1*
X3614940Y3705827D1*
X3619769Y3700998D1*
X3624654Y3698527D1*
X3634369D1*
X3639198Y3700998D1*
X3644084Y3705827D1*
X3646498Y3710713D1*
X3693799Y3732557D2*
X3691328Y3725257D1*
X3686499Y3720371D1*
X3679199Y3717957D1*
X3676784D1*
X3669484Y3720371D1*
X3664655Y3725257D1*
X3662184Y3732557D1*
Y3734971D1*
X3664655Y3742271D1*
X3669484Y3747101D1*
X3676784Y3749515D1*
X3679199D1*
X3686499Y3747101D1*
X3691328Y3742271D1*
X3693799Y3732557D1*
Y3720371D1*
X3691328Y3708242D1*
X3686499Y3700942D1*
X3679199Y3698527D1*
X3674370D1*
X3667070Y3700942D1*
X3664655Y3705827D1*
X3184855Y4378065D2*
X3182440Y4382895D1*
X3177555Y4387780D1*
X3172726Y4390195D1*
X3163011D1*
X3158126Y4387780D1*
X3153297Y4382895D1*
X3150826Y4378065D1*
X3148411Y4370765D1*
Y4358580D1*
X3150826Y4351336D1*
X3153297Y4346451D1*
X3158126Y4341622D1*
X3163011Y4339151D1*
X3172726D1*
X3177555Y4341622D1*
X3182440Y4346451D1*
X3184855Y4351336D1*
X3200541Y4380424D2*
X3205427Y4382895D1*
X3212727Y4390138D1*
Y4339151D1*
X3243013Y4390138D2*
X3235713Y4387724D1*
X3230828Y4380424D1*
X3228413Y4368295D1*
Y4360995D1*
X3230828Y4348865D1*
X3235713Y4341565D1*
X3243013Y4339151D1*
X3247842D1*
X3255142Y4341565D1*
X3259971Y4348865D1*
X3262442Y4360995D1*
Y4368295D1*
X3259971Y4380424D1*
X3255142Y4387724D1*
X3247842Y4390138D1*
X3243013D1*
X3259971Y4380424D2*
X3230828Y4348865D1*
X2695777Y4378065D2*
X2693362Y4382895D1*
X2688477Y4387780D1*
X2683648Y4390195D1*
X2673933D1*
X2669048Y4387780D1*
X2664218Y4382895D1*
X2661748Y4378065D1*
X2659333Y4370765D1*
Y4358580D1*
X2661748Y4351336D1*
X2664218Y4346451D1*
X2669048Y4341622D1*
X2673933Y4339151D1*
X2683648D1*
X2688477Y4341622D1*
X2693362Y4346451D1*
X2695777Y4351336D1*
X2711463Y4380424D2*
X2716349Y4382895D1*
X2723649Y4390138D1*
Y4339151D1*
X2739335Y4380424D2*
X2744220Y4382895D1*
X2751520Y4390138D1*
Y4339151D1*
X3186852Y3145442D2*
X3184437Y3150271D1*
X3179552Y3155157D1*
X3174722Y3157571D1*
X3165008D1*
X3160122Y3155157D1*
X3155293Y3150271D1*
X3152822Y3145442D1*
X3150408Y3138142D1*
Y3125957D1*
X3152822Y3118713D1*
X3155293Y3113827D1*
X3160122Y3108998D1*
X3165008Y3106527D1*
X3174722D1*
X3179552Y3108998D1*
X3184437Y3113827D1*
X3186852Y3118713D1*
X3202538Y3147801D2*
X3207423Y3150271D1*
X3214723Y3157515D1*
Y3106527D1*
X3232880Y3145386D2*
Y3147801D1*
X3235295Y3152686D1*
X3237710Y3155101D1*
X3242595Y3157515D1*
X3252310D1*
X3257139Y3155101D1*
X3259553Y3152686D1*
X3262024Y3147801D1*
Y3142971D1*
X3259553Y3138086D1*
X3254724Y3130842D1*
X3230410Y3106527D1*
X3264439D1*
X3678978Y3145442D2*
X3676564Y3150271D1*
X3671678Y3155157D1*
X3666849Y3157571D1*
X3657134D1*
X3652249Y3155157D1*
X3647420Y3150271D1*
X3644949Y3145442D1*
X3642534Y3138142D1*
Y3125957D1*
X3644949Y3118713D1*
X3647420Y3113827D1*
X3652249Y3108998D1*
X3657134Y3106527D1*
X3666849D1*
X3671678Y3108998D1*
X3676564Y3113827D1*
X3678978Y3118713D1*
X3694665Y3147801D2*
X3699550Y3150271D1*
X3706850Y3157515D1*
Y3106527D1*
X3727422Y3157515D2*
X3754095D1*
X3739551Y3138086D1*
X3746851D1*
X3751680Y3135671D1*
X3754095Y3133257D1*
X3756566Y3125957D1*
Y3121127D1*
X3754095Y3113827D1*
X3749266Y3108942D1*
X3741966Y3106527D1*
X3734666D1*
X3727422Y3108942D1*
X3725007Y3111413D1*
X3722536Y3116242D1*
X2598271Y3155942D2*
X2595856Y3160771D1*
X2590971Y3165657D1*
X2586142Y3168071D1*
X2576427D1*
X2571542Y3165657D1*
X2566713Y3160771D1*
X2564242Y3155942D1*
X2561827Y3148642D1*
Y3136457D1*
X2564242Y3129213D1*
X2566713Y3124327D1*
X2571542Y3119498D1*
X2576427Y3117027D1*
X2586142D1*
X2590971Y3119498D1*
X2595856Y3124327D1*
X2598271Y3129213D1*
X2613957Y3158301D2*
X2618843Y3160771D1*
X2626143Y3168015D1*
Y3117027D1*
X2666144D2*
Y3168015D1*
X2641829Y3134042D1*
X2678273D1*
X2393102Y3462942D2*
X2390687Y3467771D1*
X2385802Y3472657D1*
X2380972Y3475071D1*
X2371258D1*
X2366372Y3472657D1*
X2361543Y3467771D1*
X2359072Y3462942D1*
X2356658Y3455642D1*
Y3443457D1*
X2359072Y3436213D1*
X2361543Y3431327D1*
X2366372Y3426498D1*
X2371258Y3424027D1*
X2380972D1*
X2385802Y3426498D1*
X2390687Y3431327D1*
X2393102Y3436213D1*
X2408788Y3465301D2*
X2413673Y3467771D1*
X2420973Y3475015D1*
Y3424027D1*
X2465803Y3475015D2*
X2441545D1*
X2439130Y3453171D1*
X2441545Y3455586D1*
X2448845Y3458057D1*
X2456089D1*
X2463389Y3455586D1*
X2468274Y3450757D1*
X2470689Y3443457D1*
Y3438627D1*
X2468274Y3431327D1*
X2463389Y3426442D1*
X2456089Y3424027D1*
X2448845D1*
X2441545Y3426442D1*
X2439130Y3428913D1*
X2436660Y3433742D1*
X2902337Y3113315D2*
X2899922Y3118145D1*
X2895037Y3123030D1*
X2890208Y3125445D1*
X2880493D1*
X2875608Y3123030D1*
X2870779Y3118145D1*
X2868308Y3113315D1*
X2865893Y3106015D1*
Y3093830D1*
X2868308Y3086586D1*
X2870779Y3081701D1*
X2875608Y3076872D1*
X2880493Y3074401D1*
X2890208D1*
X2895037Y3076872D1*
X2899922Y3081701D1*
X2902337Y3086586D1*
X2918023Y3115674D2*
X2922909Y3118145D1*
X2930209Y3125388D1*
Y3074401D1*
X2975039Y3118145D2*
X2972624Y3122974D1*
X2965324Y3125388D1*
X2960495D1*
X2953195Y3122974D1*
X2948310Y3115674D1*
X2945895Y3103545D1*
Y3091415D1*
X2948310Y3081701D1*
X2953195Y3076815D1*
X2960495Y3074401D1*
X2962910D1*
X2970153Y3076815D1*
X2975039Y3081701D1*
X2977453Y3089001D1*
Y3091415D1*
X2975039Y3098715D1*
X2970153Y3103545D1*
X2962910Y3105959D1*
X2960495D1*
X2953195Y3103545D1*
X2948310Y3098715D1*
X2945895Y3091415D1*
X3634228Y4185192D2*
X3631814Y4190021D1*
X3626928Y4194907D1*
X3622099Y4197321D1*
X3612384D1*
X3607499Y4194907D1*
X3602670Y4190021D1*
X3600199Y4185192D1*
X3597784Y4177892D1*
Y4165707D1*
X3600199Y4158463D1*
X3602670Y4153577D1*
X3607499Y4148748D1*
X3612384Y4146277D1*
X3622099D1*
X3626928Y4148748D1*
X3631814Y4153577D1*
X3634228Y4158463D1*
X3649915Y4187551D2*
X3654800Y4190021D1*
X3662100Y4197265D1*
Y4146277D1*
X3687501D2*
X3711816Y4197265D1*
X3677786D1*
X6266633Y2082065D2*
X6264218Y2086895D1*
X6259333Y2091780D1*
X6254504Y2094195D1*
X6244789D1*
X6239904Y2091780D1*
X6235075Y2086895D1*
X6232604Y2082065D1*
X6230189Y2074765D1*
Y2062580D1*
X6232604Y2055336D1*
X6235075Y2050451D1*
X6239904Y2045622D1*
X6244789Y2043151D1*
X6254504D1*
X6259333Y2045622D1*
X6264218Y2050451D1*
X6266633Y2055336D1*
X6282319Y2084424D2*
X6287205Y2086895D1*
X6294505Y2094138D1*
Y2043151D1*
X6322320Y2094138D2*
X6315076Y2091724D1*
X6312606Y2086895D1*
Y2082009D1*
X6315076Y2077180D1*
X6319906Y2074709D1*
X6329620Y2072295D1*
X6336920Y2069880D1*
X6341749Y2064995D1*
X6344164Y2060165D1*
Y2052865D1*
X6341749Y2048036D1*
X6339335Y2045565D1*
X6332035Y2043151D1*
X6322320D1*
X6315076Y2045565D1*
X6312606Y2048036D1*
X6310191Y2052865D1*
Y2060165D1*
X6312606Y2064995D1*
X6317491Y2069880D1*
X6324735Y2072295D1*
X6334449Y2074709D1*
X6339335Y2077180D1*
X6341749Y2082009D1*
Y2086895D1*
X6339335Y2091724D1*
X6332035Y2094138D1*
X6322320D1*
X2489562Y4213689D2*
X2487148Y4218518D1*
X2482262Y4223403D1*
X2477433Y4225818D1*
X2467718D1*
X2462833Y4223403D1*
X2458004Y4218518D1*
X2455533Y4213689D1*
X2453118Y4206389D1*
Y4194203D1*
X2455533Y4186960D1*
X2458004Y4182074D1*
X2462833Y4177245D1*
X2467718Y4174774D1*
X2477433D1*
X2482262Y4177245D1*
X2487148Y4182074D1*
X2489562Y4186960D1*
X2505249Y4216047D2*
X2510134Y4218518D1*
X2517434Y4225762D1*
Y4174774D1*
X2564735Y4208803D2*
X2562264Y4201503D1*
X2557435Y4196618D1*
X2550135Y4194203D1*
X2547720D1*
X2540420Y4196618D1*
X2535591Y4201503D1*
X2533120Y4208803D1*
Y4211218D1*
X2535591Y4218518D1*
X2540420Y4223347D1*
X2547720Y4225762D1*
X2550135D1*
X2557435Y4223347D1*
X2562264Y4218518D1*
X2564735Y4208803D1*
Y4196618D1*
X2562264Y4184489D1*
X2557435Y4177189D1*
X2550135Y4174774D1*
X2545306D1*
X2538006Y4177189D1*
X2535591Y4182074D1*
X3493433Y3145442D2*
X3491018Y3150271D1*
X3486133Y3155157D1*
X3481304Y3157571D1*
X3471589D1*
X3466704Y3155157D1*
X3461875Y3150271D1*
X3459404Y3145442D1*
X3456989Y3138142D1*
Y3125957D1*
X3459404Y3118713D1*
X3461875Y3113827D1*
X3466704Y3108998D1*
X3471589Y3106527D1*
X3481304D1*
X3486133Y3108998D1*
X3491018Y3113827D1*
X3493433Y3118713D1*
X3511590Y3145386D2*
Y3147801D1*
X3514005Y3152686D1*
X3516419Y3155101D1*
X3521305Y3157515D1*
X3531019D1*
X3535849Y3155101D1*
X3538263Y3152686D1*
X3540734Y3147801D1*
Y3142971D1*
X3538263Y3138086D1*
X3533434Y3130842D1*
X3509119Y3106527D1*
X3543149D1*
X3573435Y3157515D2*
X3566135Y3155101D1*
X3561249Y3147801D1*
X3558835Y3135671D1*
Y3128371D1*
X3561249Y3116242D1*
X3566135Y3108942D1*
X3573435Y3106527D1*
X3578264D1*
X3585564Y3108942D1*
X3590393Y3116242D1*
X3592864Y3128371D1*
Y3135671D1*
X3590393Y3147801D1*
X3585564Y3155101D1*
X3578264Y3157515D1*
X3573435D1*
X3590393Y3147801D2*
X3561249Y3116242D1*
X1847728Y3557815D2*
X1845314Y3562645D1*
X1840428Y3567530D1*
X1835599Y3569945D1*
X1825884D1*
X1820999Y3567530D1*
X1816170Y3562645D1*
X1813699Y3557815D1*
X1811284Y3550515D1*
Y3538330D1*
X1813699Y3531086D1*
X1816170Y3526201D1*
X1820999Y3521372D1*
X1825884Y3518901D1*
X1835599D1*
X1840428Y3521372D1*
X1845314Y3526201D1*
X1847728Y3531086D1*
X1865885Y3557759D2*
Y3560174D1*
X1868300Y3565059D1*
X1870715Y3567474D1*
X1875600Y3569888D1*
X1885315D1*
X1890144Y3567474D1*
X1892558Y3565059D1*
X1895029Y3560174D1*
Y3555345D1*
X1892558Y3550459D1*
X1887729Y3543215D1*
X1863415Y3518901D1*
X1897444D1*
X1913130Y3560174D2*
X1918016Y3562645D1*
X1925316Y3569888D1*
Y3518901D1*
X1556680Y2792315D2*
X1554265Y2797145D1*
X1549380Y2802030D1*
X1544551Y2804445D1*
X1534836D1*
X1529951Y2802030D1*
X1525121Y2797145D1*
X1522651Y2792315D1*
X1520236Y2785015D1*
Y2772830D1*
X1522651Y2765586D1*
X1525121Y2760701D1*
X1529951Y2755872D1*
X1534836Y2753401D1*
X1544551D1*
X1549380Y2755872D1*
X1554265Y2760701D1*
X1556680Y2765586D1*
X1574837Y2792259D2*
Y2794674D1*
X1577251Y2799559D1*
X1579666Y2801974D1*
X1584551Y2804388D1*
X1594266D1*
X1599095Y2801974D1*
X1601510Y2799559D1*
X1603981Y2794674D1*
Y2789845D1*
X1601510Y2784959D1*
X1596681Y2777715D1*
X1572366Y2753401D1*
X1606395D1*
X1624552Y2792259D2*
Y2794674D1*
X1626967Y2799559D1*
X1629382Y2801974D1*
X1634267Y2804388D1*
X1643982D1*
X1648811Y2801974D1*
X1651225Y2799559D1*
X1653696Y2794674D1*
Y2789845D1*
X1651225Y2784959D1*
X1646396Y2777715D1*
X1622082Y2753401D1*
X1656111D1*
X1843930Y3209439D2*
X1841515Y3214268D1*
X1836630Y3219153D1*
X1831801Y3221568D1*
X1822086D1*
X1817201Y3219153D1*
X1812371Y3214268D1*
X1809901Y3209439D1*
X1807486Y3202139D1*
Y3189953D1*
X1809901Y3182710D1*
X1812371Y3177824D1*
X1817201Y3172995D1*
X1822086Y3170524D1*
X1831801D1*
X1836630Y3172995D1*
X1841515Y3177824D1*
X1843930Y3182710D1*
X1862087Y3209383D2*
Y3211797D1*
X1864501Y3216683D1*
X1866916Y3219097D1*
X1871801Y3221512D1*
X1881516D1*
X1886345Y3219097D1*
X1888760Y3216683D1*
X1891231Y3211797D1*
Y3206968D1*
X1888760Y3202083D1*
X1883931Y3194839D1*
X1859616Y3170524D1*
X1893645D1*
X1914217Y3221512D2*
X1940890D1*
X1926346Y3202083D1*
X1933646D1*
X1938475Y3199668D1*
X1940890Y3197253D1*
X1943361Y3189953D1*
Y3185124D1*
X1940890Y3177824D1*
X1936061Y3172939D1*
X1928761Y3170524D1*
X1921461D1*
X1914217Y3172939D1*
X1911802Y3175410D1*
X1909332Y3180239D1*
X1842722Y3320565D2*
X1840308Y3325395D1*
X1835422Y3330280D1*
X1830593Y3332695D1*
X1820879D1*
X1815993Y3330280D1*
X1811164Y3325395D1*
X1808693Y3320565D1*
X1806279Y3313265D1*
Y3301080D1*
X1808693Y3293836D1*
X1811164Y3288951D1*
X1815993Y3284122D1*
X1820879Y3281651D1*
X1830593D1*
X1835422Y3284122D1*
X1840308Y3288951D1*
X1842722Y3293836D1*
X1860879Y3320509D2*
Y3322924D1*
X1863294Y3327809D1*
X1865709Y3330224D1*
X1870594Y3332638D1*
X1880309D1*
X1885138Y3330224D1*
X1887553Y3327809D1*
X1890023Y3322924D1*
Y3318095D1*
X1887553Y3313209D1*
X1882723Y3305965D1*
X1858409Y3281651D1*
X1892438D1*
X1932439D2*
Y3332638D1*
X1908124Y3298665D1*
X1944568D1*
X8242933Y2851692D2*
X8240518Y2856521D1*
X8235633Y2861407D1*
X8230804Y2863821D1*
X8221089D1*
X8216204Y2861407D1*
X8211375Y2856521D1*
X8208904Y2851692D1*
X8206489Y2844392D1*
Y2832207D1*
X8208904Y2824963D1*
X8211375Y2820077D1*
X8216204Y2815248D1*
X8221089Y2812777D1*
X8230804D1*
X8235633Y2815248D1*
X8240518Y2820077D1*
X8242933Y2824963D1*
X8261090Y2851636D2*
Y2854051D1*
X8263505Y2858936D1*
X8265919Y2861351D1*
X8270805Y2863765D1*
X8280519D1*
X8285349Y2861351D1*
X8287763Y2858936D1*
X8290234Y2854051D1*
Y2849221D1*
X8287763Y2844336D1*
X8282934Y2837092D1*
X8258619Y2812777D1*
X8292649D1*
X8337479Y2863765D2*
X8313220D1*
X8310806Y2841921D1*
X8313220Y2844336D1*
X8320520Y2846807D1*
X8327764D1*
X8335064Y2844336D1*
X8339949Y2839507D1*
X8342364Y2832207D1*
Y2827377D1*
X8339949Y2820077D1*
X8335064Y2815192D1*
X8327764Y2812777D1*
X8320520D1*
X8313220Y2815192D1*
X8310806Y2817663D1*
X8308335Y2822492D1*
X3335226Y3167821D2*
Y3116777D1*
X3352241D1*
X3359541Y3119248D1*
X3364426Y3124077D1*
X3366841Y3128963D1*
X3369255Y3136207D1*
Y3148392D1*
X3366841Y3155692D1*
X3364426Y3160521D1*
X3359541Y3165407D1*
X3352241Y3167821D1*
X3335226D1*
X3384942Y3158051D2*
X3389827Y3160521D1*
X3397127Y3167765D1*
Y3116777D1*
X-523572Y2861736D2*
Y2810692D1*
X-506558D1*
X-499258Y2813163D1*
X-494372Y2817992D1*
X-491958Y2822878D1*
X-489543Y2830122D1*
Y2842307D1*
X-491958Y2849607D1*
X-494372Y2854436D1*
X-499258Y2859322D1*
X-506558Y2861736D1*
X-523572D1*
X-471386Y2849551D2*
Y2851966D1*
X-468971Y2856851D1*
X-466557Y2859266D1*
X-461671Y2861680D1*
X-451957D1*
X-447128Y2859266D1*
X-444713Y2856851D1*
X-442242Y2851966D1*
Y2847136D1*
X-444713Y2842251D1*
X-449542Y2835007D1*
X-473857Y2810692D1*
X-439828D1*
X-698635Y3136321D2*
Y3085277D1*
X-681620D1*
X-674320Y3087748D1*
X-669435Y3092577D1*
X-667020Y3097463D1*
X-664606Y3104707D1*
Y3116892D1*
X-667020Y3124192D1*
X-669435Y3129021D1*
X-674320Y3133907D1*
X-681620Y3136321D1*
X-698635D1*
X-648919Y3126551D2*
X-644034Y3129021D1*
X-636734Y3136265D1*
Y3085277D1*
X-606448Y3136265D2*
X-613748Y3133851D1*
X-618633Y3126551D1*
X-621048Y3114421D1*
Y3107121D1*
X-618633Y3094992D1*
X-613748Y3087692D1*
X-606448Y3085277D1*
X-601618D1*
X-594318Y3087692D1*
X-589489Y3094992D1*
X-587018Y3107121D1*
Y3114421D1*
X-589489Y3126551D1*
X-594318Y3133851D1*
X-601618Y3136265D1*
X-606448D1*
X-589489Y3126551D2*
X-618633Y3094992D1*
X-274963Y3120445D2*
Y3069401D1*
X-257948D1*
X-250648Y3071872D1*
X-245763Y3076701D1*
X-243348Y3081586D1*
X-240934Y3088830D1*
Y3101015D1*
X-243348Y3108315D1*
X-245763Y3113145D1*
X-250648Y3118030D1*
X-257948Y3120445D1*
X-274963D1*
X-225247Y3110674D2*
X-220362Y3113145D1*
X-213062Y3120388D1*
Y3069401D1*
X-197376Y3110674D2*
X-192490Y3113145D1*
X-185190Y3120388D1*
Y3069401D1*
X6427521Y4659361D2*
Y4620503D1*
X6425107Y4613203D1*
X6422636Y4610788D1*
X6417807Y4608317D1*
X6412921D1*
X6408092Y4610788D1*
X6405678Y4613203D1*
X6403207Y4620503D1*
Y4625332D1*
X6443208Y4649591D2*
X6448093Y4652061D1*
X6455393Y4659305D1*
Y4608317D1*
X4015792Y2478695D2*
Y2427651D1*
X4044936D1*
X4060622Y2468924D2*
X4065508Y2471395D1*
X4072808Y2478638D1*
Y2427651D1*
X3866494Y3804695D2*
Y3753651D1*
X3895638D1*
X3913795Y3792509D2*
Y3794924D1*
X3916209Y3799809D1*
X3918624Y3802224D1*
X3923509Y3804638D1*
X3933224D1*
X3938053Y3802224D1*
X3940468Y3799809D1*
X3942938Y3794924D1*
Y3790095D1*
X3940468Y3785209D1*
X3935638Y3777965D1*
X3911324Y3753651D1*
X3945353D1*
X6993870Y2707318D2*
Y2656274D1*
X7023014D1*
X7043586Y2707262D2*
X7070259D1*
X7055715Y2687833D1*
X7063015D1*
X7067844Y2685418D1*
X7070259Y2683003D1*
X7072730Y2675703D1*
Y2670874D1*
X7070259Y2663574D1*
X7065430Y2658689D1*
X7058130Y2656274D1*
X7050830D1*
X7043586Y2658689D1*
X7041171Y2661160D1*
X7038700Y2665989D1*
X2744130Y2549821D2*
X2739301Y2547463D1*
X2734416Y2542577D1*
X2732001Y2537692D1*
X2729530Y2530392D1*
Y2518263D1*
X2732001Y2510963D1*
X2734416Y2506134D1*
X2739301Y2501248D1*
X2744130Y2498834D1*
X2753845D1*
X2758730Y2501248D1*
X2763559Y2506134D1*
X2765974Y2510963D1*
X2768445Y2518263D1*
Y2530392D1*
X2765974Y2537692D1*
X2763559Y2542577D1*
X2758730Y2547463D1*
X2753845Y2549821D1*
X2744130D1*
X2751430Y2508548D2*
X2765974Y2493948D1*
X2784131Y2540051D2*
X2789016Y2542521D1*
X2796316Y2549765D1*
Y2498777D1*
X2733208Y1994198D2*
X2728379Y1991840D1*
X2723494Y1986954D1*
X2721079Y1982069D1*
X2718608Y1974769D1*
Y1962640D1*
X2721079Y1955340D1*
X2723494Y1950510D1*
X2728379Y1945625D1*
X2733208Y1943210D1*
X2742923D1*
X2747808Y1945625D1*
X2752638Y1950510D1*
X2755052Y1955340D1*
X2757523Y1962640D1*
Y1974769D1*
X2755052Y1982069D1*
X2752638Y1986954D1*
X2747808Y1991840D1*
X2742923Y1994198D1*
X2733208D1*
X2740508Y1952925D2*
X2755052Y1938325D1*
X2775680Y1982013D2*
Y1984427D1*
X2778095Y1989313D1*
X2780509Y1991727D1*
X2785395Y1994142D1*
X2795109D1*
X2799938Y1991727D1*
X2802353Y1989313D1*
X2804824Y1984427D1*
Y1979598D1*
X2802353Y1974713D1*
X2797524Y1967469D1*
X2773209Y1943154D1*
X2807238D1*
X1968267Y2839195D2*
X1963438Y2836836D1*
X1958552Y2831951D1*
X1956138Y2827065D1*
X1953667Y2819765D1*
Y2807636D1*
X1956138Y2800336D1*
X1958552Y2795507D1*
X1963438Y2790622D1*
X1968267Y2788207D1*
X1977982D1*
X1982867Y2790622D1*
X1987696Y2795507D1*
X1990111Y2800336D1*
X1992582Y2807636D1*
Y2819765D1*
X1990111Y2827065D1*
X1987696Y2831951D1*
X1982867Y2836836D1*
X1977982Y2839195D1*
X1968267D1*
X1975567Y2797922D2*
X1990111Y2783322D1*
X2037412Y2831895D2*
X2034997Y2836724D1*
X2027697Y2839138D1*
X2022868D1*
X2015568Y2836724D1*
X2010682Y2829424D1*
X2008268Y2817295D1*
Y2805165D1*
X2010682Y2795451D1*
X2015568Y2790565D1*
X2022868Y2788151D1*
X2025282D1*
X2032526Y2790565D1*
X2037412Y2795451D1*
X2039826Y2802751D1*
Y2805165D1*
X2037412Y2812465D1*
X2032526Y2817295D1*
X2025282Y2819709D1*
X2022868D1*
X2015568Y2817295D1*
X2010682Y2812465D1*
X2008268Y2805165D1*
X3299476Y4365880D2*
X3321320D1*
X3328620Y4368351D1*
X3331091Y4370765D1*
X3333505Y4375595D1*
Y4380480D1*
X3331091Y4385309D1*
X3328620Y4387780D1*
X3321320Y4390195D1*
X3299476D1*
Y4339151D1*
X3316491Y4365880D2*
X3333505Y4339151D1*
X3349192Y4380424D2*
X3354077Y4382895D1*
X3361377Y4390138D1*
Y4339151D1*
X2788554Y4365880D2*
X2810398D1*
X2817698Y4368351D1*
X2820169Y4370765D1*
X2822584Y4375595D1*
Y4380480D1*
X2820169Y4385309D1*
X2817698Y4387780D1*
X2810398Y4390195D1*
X2788554D1*
Y4339151D1*
X2805569Y4365880D2*
X2822584Y4339151D1*
X2840741Y4378009D2*
Y4380424D1*
X2843155Y4385309D1*
X2845570Y4387724D1*
X2850455Y4390138D1*
X2860170D1*
X2864999Y4387724D1*
X2867414Y4385309D1*
X2869884Y4380424D1*
Y4375595D1*
X2867414Y4370709D1*
X2862584Y4363465D1*
X2838270Y4339151D1*
X2872299D1*
X4753051Y3036507D2*
X4774895D1*
X4782195Y3038977D1*
X4784666Y3041392D1*
X4787080Y3046221D1*
Y3051107D1*
X4784666Y3055936D1*
X4782195Y3058407D1*
X4774895Y3060821D1*
X4753051D1*
Y3009777D1*
X4770066Y3036507D2*
X4787080Y3009777D1*
X4807652Y3060765D2*
X4834325D1*
X4819781Y3041336D1*
X4827081D1*
X4831910Y3038921D1*
X4834325Y3036507D1*
X4836796Y3029207D1*
Y3024377D1*
X4834325Y3017077D1*
X4829496Y3012192D1*
X4822196Y3009777D1*
X4814896D1*
X4807652Y3012192D1*
X4805237Y3014663D1*
X4802766Y3019492D1*
X2672224Y3143757D2*
X2694068D1*
X2701368Y3146227D1*
X2703838Y3148642D1*
X2706253Y3153471D1*
Y3158357D1*
X2703838Y3163186D1*
X2701368Y3165657D1*
X2694068Y3168071D1*
X2672224D1*
Y3117027D1*
X2689238Y3143757D2*
X2706253Y3117027D1*
X2746254D2*
Y3168015D1*
X2721939Y3134042D1*
X2758383D1*
X3038554Y4365880D2*
X3060398D1*
X3067698Y4368351D1*
X3070169Y4370765D1*
X3072584Y4375595D1*
Y4380480D1*
X3070169Y4385309D1*
X3067698Y4387780D1*
X3060398Y4390195D1*
X3038554D1*
Y4339151D1*
X3055569Y4365880D2*
X3072584Y4339151D1*
X3117414Y4390138D2*
X3093155D1*
X3090741Y4368295D1*
X3093155Y4370709D1*
X3100455Y4373180D1*
X3107699D1*
X3114999Y4370709D1*
X3119884Y4365880D1*
X3122299Y4358580D1*
Y4353751D1*
X3119884Y4346451D1*
X3114999Y4341565D1*
X3107699Y4339151D1*
X3100455D1*
X3093155Y4341565D1*
X3090741Y4344036D1*
X3088270Y4348865D1*
X2914790Y4365880D2*
X2936634D1*
X2943934Y4368351D1*
X2946404Y4370765D1*
X2948819Y4375595D1*
Y4380480D1*
X2946404Y4385309D1*
X2943934Y4387780D1*
X2936634Y4390195D1*
X2914790D1*
Y4339151D1*
X2931804Y4365880D2*
X2948819Y4339151D1*
X2993649Y4382895D2*
X2991234Y4387724D1*
X2983934Y4390138D1*
X2979105D1*
X2971805Y4387724D1*
X2966920Y4380424D1*
X2964505Y4368295D1*
Y4356165D1*
X2966920Y4346451D1*
X2971805Y4341565D1*
X2979105Y4339151D1*
X2981520D1*
X2988764Y4341565D1*
X2993649Y4346451D1*
X2996064Y4353751D1*
Y4356165D1*
X2993649Y4363465D1*
X2988764Y4368295D1*
X2981520Y4370709D1*
X2979105D1*
X2971805Y4368295D1*
X2966920Y4363465D1*
X2964505Y4356165D1*
X2800428Y2968880D2*
X2822271D1*
X2829571Y2971351D1*
X2832042Y2973765D1*
X2834457Y2978595D1*
Y2983480D1*
X2832042Y2988309D1*
X2829571Y2990780D1*
X2822271Y2993195D1*
X2800428D1*
Y2942151D1*
X2817442Y2968880D2*
X2834457Y2942151D1*
X2859858D2*
X2884172Y2993138D1*
X2850143D1*
X2959202Y2968880D2*
X2981046D1*
X2988346Y2971351D1*
X2990817Y2973765D1*
X2993232Y2978595D1*
Y2983480D1*
X2990817Y2988309D1*
X2988346Y2990780D1*
X2981046Y2993195D1*
X2959202D1*
Y2942151D1*
X2976217Y2968880D2*
X2993232Y2942151D1*
X3021047Y2993138D2*
X3013803Y2990724D1*
X3011332Y2985895D1*
Y2981009D1*
X3013803Y2976180D1*
X3018632Y2973709D1*
X3028347Y2971295D1*
X3035647Y2968880D1*
X3040476Y2963995D1*
X3042891Y2959165D1*
Y2951865D1*
X3040476Y2947036D1*
X3038062Y2944565D1*
X3030762Y2942151D1*
X3021047D1*
X3013803Y2944565D1*
X3011332Y2947036D1*
X3008918Y2951865D1*
Y2959165D1*
X3011332Y2963995D1*
X3016218Y2968880D1*
X3023462Y2971295D1*
X3033176Y2973709D1*
X3038062Y2976180D1*
X3040476Y2981009D1*
Y2985895D1*
X3038062Y2990724D1*
X3030762Y2993138D1*
X3021047D1*
X6320258Y2863007D2*
X6342102D1*
X6349402Y2865477D1*
X6351873Y2867892D1*
X6354288Y2872721D1*
Y2877607D1*
X6351873Y2882436D1*
X6349402Y2884907D1*
X6342102Y2887321D1*
X6320258D1*
Y2836277D1*
X6337273Y2863007D2*
X6354288Y2836277D1*
X6401588Y2870307D2*
X6399118Y2863007D1*
X6394288Y2858121D1*
X6386988Y2855707D1*
X6384574D1*
X6377274Y2858121D1*
X6372445Y2863007D1*
X6369974Y2870307D1*
Y2872721D1*
X6372445Y2880021D1*
X6377274Y2884851D1*
X6384574Y2887265D1*
X6386988D1*
X6394288Y2884851D1*
X6399118Y2880021D1*
X6401588Y2870307D1*
Y2858121D1*
X6399118Y2845992D1*
X6394288Y2838692D1*
X6386988Y2836277D1*
X6382159D1*
X6374859Y2838692D1*
X6372445Y2843577D1*
X5982992Y2863007D2*
X6004836D1*
X6012136Y2865477D1*
X6014606Y2867892D1*
X6017021Y2872721D1*
Y2877607D1*
X6014606Y2882436D1*
X6012136Y2884907D1*
X6004836Y2887321D1*
X5982992D1*
Y2836277D1*
X6000006Y2863007D2*
X6017021Y2836277D1*
X6032707Y2877551D2*
X6037593Y2880021D1*
X6044893Y2887265D1*
Y2836277D1*
X6075179Y2887265D2*
X6067879Y2884851D1*
X6062994Y2877551D1*
X6060579Y2865421D1*
Y2858121D1*
X6062994Y2845992D1*
X6067879Y2838692D1*
X6075179Y2836277D1*
X6080008D1*
X6087308Y2838692D1*
X6092137Y2845992D1*
X6094608Y2858121D1*
Y2865421D1*
X6092137Y2877551D1*
X6087308Y2884851D1*
X6080008Y2887265D1*
X6075179D1*
X6092137Y2877551D2*
X6062994Y2845992D1*
X1820851Y3086130D2*
X1842694D1*
X1849994Y3088601D1*
X1852465Y3091015D1*
X1854880Y3095845D1*
Y3100730D1*
X1852465Y3105559D1*
X1849994Y3108030D1*
X1842694Y3110445D1*
X1820851D1*
Y3059401D1*
X1837865Y3086130D2*
X1854880Y3059401D1*
X1870566Y3100674D2*
X1875451Y3103145D1*
X1882751Y3110388D1*
Y3059401D1*
X1927582Y3103145D2*
X1925167Y3107974D1*
X1917867Y3110388D1*
X1913038D1*
X1905738Y3107974D1*
X1900852Y3100674D1*
X1898438Y3088545D1*
Y3076415D1*
X1900852Y3066701D1*
X1905738Y3061815D1*
X1913038Y3059401D1*
X1915452D1*
X1922696Y3061815D1*
X1927582Y3066701D1*
X1929996Y3074001D1*
Y3076415D1*
X1927582Y3083715D1*
X1922696Y3088545D1*
X1915452Y3090959D1*
X1913038D1*
X1905738Y3088545D1*
X1900852Y3083715D1*
X1898438Y3076415D1*
X1867242Y2975007D2*
X1889086D1*
X1896386Y2977477D1*
X1898856Y2979892D1*
X1901271Y2984721D1*
Y2989607D1*
X1898856Y2994436D1*
X1896386Y2996907D1*
X1889086Y2999321D1*
X1867242D1*
Y2948277D1*
X1884256Y2975007D2*
X1901271Y2948277D1*
X1916957Y2989551D2*
X1921843Y2992021D1*
X1929143Y2999265D1*
Y2948277D1*
X1954544D2*
X1978858Y2999265D1*
X1944829D1*
X1595893Y2895630D2*
X1617737D1*
X1625037Y2898101D1*
X1627508Y2900515D1*
X1629922Y2905345D1*
Y2910230D1*
X1627508Y2915059D1*
X1625037Y2917530D1*
X1617737Y2919945D1*
X1595893D1*
Y2868901D1*
X1612908Y2895630D2*
X1629922Y2868901D1*
X1645609Y2910174D2*
X1650494Y2912645D1*
X1657794Y2919888D1*
Y2868901D1*
X1685610Y2919888D2*
X1678366Y2917474D1*
X1675895Y2912645D1*
Y2907759D1*
X1678366Y2902930D1*
X1683195Y2900459D1*
X1692910Y2898045D1*
X1700210Y2895630D1*
X1705039Y2890745D1*
X1707453Y2885915D1*
Y2878615D1*
X1705039Y2873786D1*
X1702624Y2871315D1*
X1695324Y2868901D1*
X1685610D1*
X1678366Y2871315D1*
X1675895Y2873786D1*
X1673480Y2878615D1*
Y2885915D1*
X1675895Y2890745D1*
X1680780Y2895630D1*
X1688024Y2898045D1*
X1697739Y2900459D1*
X1702624Y2902930D1*
X1705039Y2907759D1*
Y2912645D1*
X1702624Y2917474D1*
X1695324Y2919888D1*
X1685610D1*
X1311322Y2689253D2*
X1333166D1*
X1340466Y2691724D1*
X1342937Y2694139D1*
X1345352Y2698968D1*
Y2703853D1*
X1342937Y2708683D1*
X1340466Y2711153D1*
X1333166Y2713568D1*
X1311322D1*
Y2662524D1*
X1328337Y2689253D2*
X1345352Y2662524D1*
X1361038Y2703797D2*
X1365923Y2706268D1*
X1373223Y2713512D1*
Y2662524D1*
X1420524Y2696553D2*
X1418053Y2689253D1*
X1413224Y2684368D1*
X1405924Y2681953D1*
X1403510D1*
X1396210Y2684368D1*
X1391380Y2689253D1*
X1388910Y2696553D1*
Y2698968D1*
X1391380Y2706268D1*
X1396210Y2711097D1*
X1403510Y2713512D1*
X1405924D1*
X1413224Y2711097D1*
X1418053Y2706268D1*
X1420524Y2696553D1*
Y2684368D1*
X1418053Y2672239D1*
X1413224Y2664939D1*
X1405924Y2662524D1*
X1401095D1*
X1393795Y2664939D1*
X1391380Y2669824D1*
X1808693Y3403630D2*
X1830537D1*
X1837837Y3406101D1*
X1840308Y3408515D1*
X1842722Y3413345D1*
Y3418230D1*
X1840308Y3423059D1*
X1837837Y3425530D1*
X1830537Y3427945D1*
X1808693D1*
Y3376901D1*
X1825708Y3403630D2*
X1842722Y3376901D1*
X1860879Y3415759D2*
Y3418174D1*
X1863294Y3423059D1*
X1865709Y3425474D1*
X1870594Y3427888D1*
X1880309D1*
X1885138Y3425474D1*
X1887553Y3423059D1*
X1890023Y3418174D1*
Y3413345D1*
X1887553Y3408459D1*
X1882723Y3401215D1*
X1858409Y3376901D1*
X1892438D1*
X1922724Y3427888D2*
X1915424Y3425474D1*
X1910539Y3418174D1*
X1908124Y3406045D1*
Y3398745D1*
X1910539Y3386615D1*
X1915424Y3379315D1*
X1922724Y3376901D1*
X1927553D1*
X1934853Y3379315D1*
X1939683Y3386615D1*
X1942153Y3398745D1*
Y3406045D1*
X1939683Y3418174D1*
X1934853Y3425474D1*
X1927553Y3427888D1*
X1922724D1*
X1939683Y3418174D2*
X1910539Y3386615D1*
X2374883Y3817195D2*
Y3766151D1*
X2357868Y3817195D2*
X2391898D1*
X2407584Y3790465D2*
X2429484D1*
X2436728Y3792880D1*
X2439199Y3795351D1*
X2441613Y3800180D1*
Y3807480D1*
X2439199Y3812309D1*
X2436728Y3814780D1*
X2429484Y3817195D1*
X2407584D1*
Y3766151D1*
X2457299Y3807424D2*
X2462185Y3809895D1*
X2469485Y3817138D1*
Y3766151D1*
X2363958Y3642571D2*
Y3591527D1*
X2346943Y3642571D2*
X2380972D1*
X2396659Y3615842D2*
X2418559D1*
X2425803Y3618257D1*
X2428273Y3620727D1*
X2430688Y3625557D1*
Y3632857D1*
X2428273Y3637686D1*
X2425803Y3640157D1*
X2418559Y3642571D1*
X2396659D1*
Y3591527D1*
X2448845Y3630386D2*
Y3632801D1*
X2451260Y3637686D1*
X2453674Y3640101D1*
X2458560Y3642515D1*
X2468274D1*
X2473103Y3640101D1*
X2475518Y3637686D1*
X2477989Y3632801D1*
Y3627971D1*
X2475518Y3623086D1*
X2470689Y3615842D1*
X2446374Y3591527D1*
X2480403D1*
X1252711Y3642568D2*
Y3591524D1*
X1235697Y3642568D2*
X1269726D1*
X1285412Y3615839D2*
X1307312D1*
X1314556Y3618253D1*
X1317027Y3620724D1*
X1319441Y3625553D1*
Y3632853D1*
X1317027Y3637683D1*
X1314556Y3640153D1*
X1307312Y3642568D1*
X1285412D1*
Y3591524D1*
X1344842D2*
X1369157Y3642512D1*
X1335128D1*
X1111042Y3245695D2*
Y3194651D1*
X1094027Y3245695D2*
X1128056D1*
X1143743Y3218965D2*
X1165643D1*
X1172887Y3221380D1*
X1175357Y3223851D1*
X1177772Y3228680D1*
Y3235980D1*
X1175357Y3240809D1*
X1172887Y3243280D1*
X1165643Y3245695D1*
X1143743D1*
Y3194651D1*
X1225073Y3228680D2*
X1222602Y3221380D1*
X1217773Y3216495D1*
X1210473Y3214080D1*
X1208058D1*
X1200758Y3216495D1*
X1195929Y3221380D1*
X1193458Y3228680D1*
Y3231095D1*
X1195929Y3238395D1*
X1200758Y3243224D1*
X1208058Y3245638D1*
X1210473D1*
X1217773Y3243224D1*
X1222602Y3238395D1*
X1225073Y3228680D1*
Y3216495D1*
X1222602Y3204365D1*
X1217773Y3197065D1*
X1210473Y3194651D1*
X1205644D1*
X1198344Y3197065D1*
X1195929Y3201951D1*
X1095899Y3452068D2*
Y3401024D1*
X1078884Y3452068D2*
X1112913D1*
X1128600Y3425339D2*
X1150500D1*
X1157743Y3427753D1*
X1160214Y3430224D1*
X1162629Y3435053D1*
Y3442353D1*
X1160214Y3447183D1*
X1157743Y3449653D1*
X1150500Y3452068D1*
X1128600D1*
Y3401024D1*
X1178315Y3442297D2*
X1183200Y3444768D1*
X1190500Y3452012D1*
Y3401024D1*
X1220787Y3452012D2*
X1213487Y3449597D1*
X1208601Y3442297D1*
X1206187Y3430168D1*
Y3422868D1*
X1208601Y3410739D1*
X1213487Y3403439D1*
X1220787Y3401024D1*
X1225616D1*
X1232916Y3403439D1*
X1237745Y3410739D1*
X1240216Y3422868D1*
Y3430168D1*
X1237745Y3442297D1*
X1232916Y3449597D1*
X1225616Y3452012D1*
X1220787D1*
X1237745Y3442297D2*
X1208601Y3410739D1*
X3017723Y3957695D2*
Y3921251D1*
X3020138Y3913951D1*
X3025023Y3909122D1*
X3032323Y3906651D1*
X3037152D1*
X3044452Y3909122D1*
X3049338Y3913951D1*
X3051752Y3921251D1*
Y3957695D1*
X3067438Y3947924D2*
X3072324Y3950395D1*
X3079624Y3957638D1*
Y3906651D1*
X6467674Y2715071D2*
Y2678627D1*
X6470089Y2671327D1*
X6474974Y2666498D1*
X6482274Y2664027D1*
X6487104D1*
X6494404Y2666498D1*
X6499289Y2671327D1*
X6501704Y2678627D1*
Y2715071D1*
X6519861Y2702886D2*
Y2705301D1*
X6522275Y2710186D1*
X6524690Y2712601D1*
X6529575Y2715015D1*
X6539290D1*
X6544119Y2712601D1*
X6546534Y2710186D1*
X6549004Y2705301D1*
Y2700471D1*
X6546534Y2695586D1*
X6541704Y2688342D1*
X6517390Y2664027D1*
X6551419D1*
X6345164Y3290365D2*
Y3253921D1*
X6347579Y3246621D1*
X6352464Y3241792D1*
X6359764Y3239321D1*
X6364594D1*
X6371894Y3241792D1*
X6376779Y3246621D1*
X6379194Y3253921D1*
Y3290365D1*
X6399765Y3290308D2*
X6426438D1*
X6411894Y3270879D1*
X6419194D1*
X6424024Y3268465D1*
X6426438Y3266050D1*
X6428909Y3258750D1*
Y3253921D1*
X6426438Y3246621D1*
X6421609Y3241735D1*
X6414309Y3239321D1*
X6407009D1*
X6399765Y3241735D1*
X6397351Y3244206D1*
X6394880Y3249035D1*
X1451847Y3508985D2*
Y3472541D1*
X1454262Y3465241D1*
X1459147Y3460412D1*
X1466447Y3457941D1*
X1471276D1*
X1478576Y3460412D1*
X1483462Y3465241D1*
X1485876Y3472541D1*
Y3508985D1*
X1525877Y3457941D2*
Y3508928D1*
X1501562Y3474955D1*
X1538006D1*
X1580428Y4505068D2*
Y4468624D1*
X1582842Y4461324D1*
X1587728Y4456495D1*
X1595028Y4454024D1*
X1599857D1*
X1607157Y4456495D1*
X1612042Y4461324D1*
X1614457Y4468624D1*
Y4505068D1*
X1659287Y4505012D2*
X1635029D1*
X1632614Y4483168D1*
X1635029Y4485583D1*
X1642329Y4488053D1*
X1649572D1*
X1656872Y4485583D1*
X1661758Y4480753D1*
X1664172Y4473453D1*
Y4468624D1*
X1661758Y4461324D1*
X1656872Y4456439D1*
X1649572Y4454024D1*
X1642329D1*
X1635029Y4456439D1*
X1632614Y4458910D1*
X1630143Y4463739D1*
X10150498Y5347507D2*
D149*
Y5092287D1*
X10065425Y5347507D2*
X10235571D1*
X10374648Y5262433D2*
X10350502Y5250360D1*
X10326075Y5225933D1*
X10314002Y5189433D1*
Y5165287D1*
X10326075Y5128787D1*
X10350502Y5104641D1*
X10374648Y5092287D1*
X10411148D1*
X10435575Y5104641D1*
X10459721Y5128787D1*
X10472075Y5165287D1*
Y5189433D1*
X10459721Y5225933D1*
X10435575Y5250360D1*
X10411148Y5262433D1*
X10374648D1*
X10943119Y5347507D2*
Y5092287D1*
Y5225933D2*
X10918972Y5250360D1*
X10894546Y5262433D1*
X10858046D1*
X10833899Y5250360D1*
X10809472Y5225933D1*
X10797399Y5189433D1*
Y5165287D1*
X10809472Y5128787D1*
X10833899Y5104641D1*
X10858046Y5092287D1*
X10894546D1*
X10918972Y5104641D1*
X10943119Y5128787D1*
X11082196Y5262433D2*
X11058050Y5250360D1*
X11033623Y5225933D1*
X11021550Y5189433D1*
Y5165287D1*
X11033623Y5128787D1*
X11058050Y5104641D1*
X11082196Y5092287D1*
X11118696D1*
X11143123Y5104641D1*
X11167269Y5128787D1*
X11179623Y5165287D1*
Y5189433D1*
X11167269Y5225933D1*
X11143123Y5250360D1*
X11118696Y5262433D1*
X11082196D1*
X11411278Y5024310D2*
X11398925Y5011956D1*
X11411278Y4999883D1*
X11423351Y5011956D1*
X11411278Y5024310D1*
Y4878591D2*
X11398925Y4866237D1*
X11411278Y4854164D1*
X11423351Y4866237D1*
X11411278Y4878591D1*
X11930895Y5048737D2*
X11918822Y5072883D1*
X11894395Y5097310D1*
X11870249Y5109383D1*
X11821676D1*
X11797249Y5097310D1*
X11773103Y5072883D1*
X11760749Y5048737D1*
X11748676Y5012237D1*
Y4951310D1*
X11760749Y4915091D1*
X11773103Y4890664D1*
X11797249Y4866518D1*
X11821676Y4854164D1*
X11870249D1*
X11894395Y4866518D1*
X11918822Y4890664D1*
X11930895Y4915091D1*
X12009326Y5109383D2*
Y4854164D1*
Y4975737D2*
X12045826Y5012237D1*
X12070253Y5024310D1*
X12106753D1*
X12130899Y5012237D1*
X12142972Y4975737D1*
Y4854164D1*
X12221404Y4951310D2*
X12367123D1*
Y4975737D1*
X12355050Y5000164D1*
X12342977Y5012237D1*
X12318550Y5024310D1*
X12282050D1*
X12257904Y5012237D1*
X12233477Y4987810D1*
X12221404Y4951310D1*
Y4927164D1*
X12233477Y4890664D1*
X12257904Y4866518D1*
X12282050Y4854164D1*
X12318550D1*
X12342977Y4866518D1*
X12367123Y4890664D1*
X12591554Y4987810D2*
X12567128Y5012237D1*
X12542701Y5024310D1*
X12506481D1*
X12482054Y5012237D1*
X12457908Y4987810D1*
X12445554Y4951310D1*
Y4927164D1*
X12457908Y4890664D1*
X12482054Y4866518D1*
X12506481Y4854164D1*
X12542701D1*
X12567128Y4866518D1*
X12591554Y4890664D1*
X12669986Y5109383D2*
Y4854164D1*
X12791559Y5024310D2*
X12669986Y4902737D1*
X12718559Y4951310D2*
X12803632Y4854164D1*
X13128956Y5109383D2*
Y4927164D1*
X13141029Y4890664D1*
X13165456Y4866518D1*
X13201956Y4854164D1*
X13226102D1*
X13262602Y4866518D1*
X13287029Y4890664D1*
X13299102Y4927164D1*
Y5109383D1*
X13547680Y5072883D2*
X13523534Y5097310D1*
X13487034Y5109383D1*
X13438461D1*
X13401961Y5097310D1*
X13377534Y5072883D1*
Y5048737D1*
X13389888Y5024310D1*
X13401961Y5012237D1*
X13426107Y5000164D1*
X13499107Y4975737D1*
X13523534Y4963664D1*
X13535607Y4951310D1*
X13547680Y4927164D1*
Y4890664D1*
X13523534Y4866518D1*
X13487034Y4854164D1*
X13438461D1*
X13401961Y4866518D1*
X13377534Y4890664D1*
X13626111Y5109383D2*
Y4854164D1*
X13735611D1*
X13772111Y4866518D1*
X13784184Y4878591D1*
X13796257Y4902737D1*
Y4939237D1*
X13784184Y4963664D1*
X13772111Y4975737D1*
X13735611Y4987810D1*
X13772111Y5000164D1*
X13784184Y5012237D1*
X13796257Y5036383D1*
Y5060810D1*
X13784184Y5084956D1*
X13772111Y5097310D1*
X13735611Y5109383D1*
X13626111D1*
Y4987810D2*
X13735611D1*
X14020689D2*
X13996262Y5012237D1*
X13971835Y5024310D1*
X13935616D1*
X13911189Y5012237D1*
X13887043Y4987810D1*
X13874689Y4951310D1*
Y4927164D1*
X13887043Y4890664D1*
X13911189Y4866518D1*
X13935616Y4854164D1*
X13971835D1*
X13996262Y4866518D1*
X14020689Y4890664D1*
X14346013Y5024310D2*
Y4769091D1*
Y4987810D2*
X14370440Y5011956D1*
X14394586Y5024310D1*
X14431086D1*
X14455513Y5011956D1*
X14479659Y4987810D1*
X14492013Y4951310D1*
Y4926883D1*
X14479659Y4890664D1*
X14455513Y4866237D1*
X14431086Y4854164D1*
X14394586D1*
X14370440Y4866237D1*
X14346013Y4890664D1*
X14570444Y5109383D2*
X14582518Y5097310D1*
X14594871Y5109383D1*
X14582518Y5121737D1*
X14570444Y5109383D1*
X14582518Y5024310D2*
Y4854164D1*
X14673303Y5024310D2*
Y4854164D1*
Y4975737D2*
X14709803Y5012237D1*
X14734230Y5024310D1*
X14770449D1*
X14794876Y5012237D1*
X14806949Y4975737D1*
Y4854164D1*
X15278273Y4987810D2*
X15253846Y5012237D1*
X15229419Y5024310D1*
X15193200D1*
X15168773Y5012237D1*
X15144627Y4987810D1*
X15132273Y4951310D1*
Y4927164D1*
X15144627Y4890664D1*
X15168773Y4866518D1*
X15193200Y4854164D1*
X15229419D1*
X15253846Y4866518D1*
X15278273Y4890664D1*
X15417351Y5024310D2*
X15393205Y5012237D1*
X15368778Y4987810D1*
X15356705Y4951310D1*
Y4927164D1*
X15368778Y4890664D1*
X15393205Y4866518D1*
X15417351Y4854164D1*
X15453851D1*
X15478278Y4866518D1*
X15502424Y4890664D1*
X15514778Y4927164D1*
Y4951310D1*
X15502424Y4987810D1*
X15478278Y5012237D1*
X15453851Y5024310D1*
X15417351D1*
X15593209D2*
Y4854164D1*
Y4975737D2*
X15629709Y5012237D1*
X15654136Y5024310D1*
X15690355D1*
X15714782Y5012237D1*
X15726855Y4975737D1*
Y4854164D1*
X15805287Y5024310D2*
Y4854164D1*
Y4975737D2*
X15841787Y5012237D1*
X15866213Y5024310D1*
X15902433D1*
X15926860Y5012237D1*
X15938933Y4975737D1*
Y4854164D1*
X16017364Y4951310D2*
X16163083D1*
Y4975737D1*
X16151010Y5000164D1*
X16138937Y5012237D1*
X16114510Y5024310D1*
X16078010D1*
X16053864Y5012237D1*
X16029437Y4987810D1*
X16017364Y4951310D1*
Y4927164D1*
X16029437Y4890664D1*
X16053864Y4866518D1*
X16078010Y4854164D1*
X16114510D1*
X16138937Y4866518D1*
X16163083Y4890664D1*
X16387515Y4987810D2*
X16363088Y5012237D1*
X16338661Y5024310D1*
X16302442D1*
X16278015Y5012237D1*
X16253869Y4987810D1*
X16241515Y4951310D1*
Y4927164D1*
X16253869Y4890664D1*
X16278015Y4866518D1*
X16302442Y4854164D1*
X16338661D1*
X16363088Y4866518D1*
X16387515Y4890664D1*
X16502446Y5109383D2*
Y4902737D1*
X16514519Y4866518D1*
X16538946Y4854164D1*
X16563092D1*
X16465946Y5024310D2*
X16551019D1*
X16641524Y5109383D2*
X16653597Y5097310D1*
X16665951Y5109383D1*
X16653597Y5121737D1*
X16641524Y5109383D1*
X16653597Y5024310D2*
Y4854164D1*
X16805028Y5024310D2*
X16780882Y5012237D1*
X16756455Y4987810D1*
X16744382Y4951310D1*
Y4927164D1*
X16756455Y4890664D1*
X16780882Y4866518D1*
X16805028Y4854164D1*
X16841528D1*
X16865955Y4866518D1*
X16890101Y4890664D1*
X16902455Y4927164D1*
Y4951310D1*
X16890101Y4987810D1*
X16865955Y5012237D1*
X16841528Y5024310D1*
X16805028D1*
X16980886D2*
Y4854164D1*
Y4975737D2*
X17017386Y5012237D1*
X17041813Y5024310D1*
X17078033D1*
X17102459Y5012237D1*
X17114533Y4975737D1*
Y4854164D1*
X11938675Y4156883D2*
Y3974664D1*
X11950748Y3938164D1*
X11975175Y3914018D1*
X12011675Y3901664D1*
X12035821D1*
X12072321Y3914018D1*
X12096748Y3938164D1*
X12108821Y3974664D1*
Y4156883D1*
X12357398Y4120383D2*
X12333252Y4144810D1*
X12296752Y4156883D1*
X12248179D1*
X12211679Y4144810D1*
X12187252Y4120383D1*
Y4096237D1*
X12199606Y4071810D1*
X12211679Y4059737D1*
X12235825Y4047664D1*
X12308825Y4023237D1*
X12333252Y4011164D1*
X12345325Y3998810D1*
X12357398Y3974664D1*
Y3938164D1*
X12333252Y3914018D1*
X12296752Y3901664D1*
X12248179D1*
X12211679Y3914018D1*
X12187252Y3938164D1*
X12435830Y4156883D2*
Y3901664D1*
X12545330D1*
X12581830Y3914018D1*
X12593903Y3926091D1*
X12605976Y3950237D1*
Y3986737D1*
X12593903Y4011164D1*
X12581830Y4023237D1*
X12545330Y4035310D1*
X12581830Y4047664D1*
X12593903Y4059737D1*
X12605976Y4083883D1*
Y4108310D1*
X12593903Y4132456D1*
X12581830Y4144810D1*
X12545330Y4156883D1*
X12435830D1*
Y4035310D2*
X12545330D1*
X12866626Y4096237D2*
X12854553Y4120383D1*
X12830126Y4144810D1*
X12805980Y4156883D1*
X12757407D1*
X12732980Y4144810D1*
X12708834Y4120383D1*
X12696480Y4096237D1*
X12684407Y4059737D1*
Y3998810D1*
X12696480Y3962591D1*
X12708834Y3938164D1*
X12732980Y3914018D1*
X12757407Y3901664D1*
X12805980D1*
X12830126Y3914018D1*
X12854553Y3938164D1*
X12866626Y3962591D1*
X13337670Y4156883D2*
Y3901664D1*
Y4035310D2*
X13313524Y4059737D1*
X13289097Y4071810D1*
X13252597D1*
X13228451Y4059737D1*
X13204024Y4035310D1*
X13191951Y3998810D1*
Y3974664D1*
X13204024Y3938164D1*
X13228451Y3914018D1*
X13252597Y3901664D1*
X13289097D1*
X13313524Y3914018D1*
X13337670Y3938164D1*
X13476747Y4071810D2*
X13452601Y4059737D1*
X13428174Y4035310D1*
X13416101Y3998810D1*
Y3974664D1*
X13428174Y3938164D1*
X13452601Y3914018D1*
X13476747Y3901664D1*
X13513247D1*
X13537674Y3914018D1*
X13561820Y3938164D1*
X13574174Y3974664D1*
Y3998810D1*
X13561820Y4035310D1*
X13537674Y4059737D1*
X13513247Y4071810D1*
X13476747D1*
X13652606Y3998810D2*
X13798325D1*
Y4023237D1*
X13786252Y4047664D1*
X13774179Y4059737D1*
X13749752Y4071810D1*
X13713252D1*
X13689106Y4059737D1*
X13664679Y4035310D1*
X13652606Y3998810D1*
Y3974664D1*
X13664679Y3938164D1*
X13689106Y3914018D1*
X13713252Y3901664D1*
X13749752D1*
X13774179Y3914018D1*
X13798325Y3938164D1*
X14010402Y4035310D2*
X13998329Y4059737D1*
X13961829Y4071810D1*
X13925329D1*
X13888829Y4059737D1*
X13876756Y4035310D1*
X13888829Y4011164D1*
X13913256Y3998810D1*
X13973902Y3986737D1*
X13998329Y3974664D1*
X14010402Y3950237D1*
Y3938164D1*
X13998329Y3914018D1*
X13961829Y3901664D1*
X13925329D1*
X13888829Y3914018D1*
X13876756Y3938164D1*
X14335727Y4071810D2*
Y3901664D1*
Y4023237D2*
X14372227Y4059737D1*
X14396654Y4071810D1*
X14432873D1*
X14457300Y4059737D1*
X14469373Y4023237D1*
Y3901664D1*
X14608450Y4071810D2*
X14584304Y4059737D1*
X14559877Y4035310D1*
X14547804Y3998810D1*
Y3974664D1*
X14559877Y3938164D1*
X14584304Y3914018D1*
X14608450Y3901664D1*
X14644950D1*
X14669377Y3914018D1*
X14693523Y3938164D1*
X14705877Y3974664D1*
Y3998810D1*
X14693523Y4035310D1*
X14669377Y4059737D1*
X14644950Y4071810D1*
X14608450D1*
X14820809Y4156883D2*
Y3950237D1*
X14832882Y3914018D1*
X14857309Y3901664D1*
X14881455D1*
X14784309Y4071810D2*
X14869382D1*
X15352498Y4059737D2*
Y3865164D1*
X15340425Y3828945D1*
X15328352Y3816591D1*
X15303925Y3804518D1*
X15267425D1*
X15243279Y3816591D1*
X15352498Y4023237D2*
X15328352Y4047383D1*
X15303925Y4059737D1*
X15267425D1*
X15243279Y4047383D1*
X15218852Y4023237D1*
X15206779Y3986737D1*
Y3962310D1*
X15218852Y3926091D1*
X15243279Y3901664D1*
X15267425Y3889591D1*
X15303925D1*
X15328352Y3901664D1*
X15352498Y3926091D1*
X15491576Y4071810D2*
X15467430Y4059737D1*
X15443003Y4035310D1*
X15430930Y3998810D1*
Y3974664D1*
X15443003Y3938164D1*
X15467430Y3914018D1*
X15491576Y3901664D1*
X15528076D1*
X15552503Y3914018D1*
X15576649Y3938164D1*
X15589003Y3974664D1*
Y3998810D1*
X15576649Y4035310D1*
X15552503Y4059737D1*
X15528076Y4071810D1*
X15491576D1*
X16060046D2*
Y3901664D1*
Y4035310D2*
X16035900Y4059737D1*
X16011473Y4071810D1*
X15975254D1*
X15950827Y4059737D1*
X15926681Y4035310D1*
X15914327Y3998810D1*
Y3974664D1*
X15926681Y3938164D1*
X15950827Y3914018D1*
X15975254Y3901664D1*
X16011473D1*
X16035900Y3914018D1*
X16060046Y3938164D1*
X16138478Y4156883D2*
Y3901664D1*
X16216909Y4156883D2*
Y3901664D1*
X16578733Y4156883D2*
Y3950237D1*
X16590806Y3914018D1*
X16615233Y3901664D1*
X16639379D1*
X16542233Y4071810D2*
X16627306D1*
X16717811Y4156883D2*
Y3901664D1*
Y4023237D2*
X16754311Y4059737D1*
X16778738Y4071810D1*
X16815238D1*
X16839384Y4059737D1*
X16851457Y4023237D1*
Y3901664D1*
X16929888Y3998810D2*
X17075608D1*
Y4023237D1*
X17063535Y4047664D1*
X17051461Y4059737D1*
X17027035Y4071810D1*
X16990535D1*
X16966388Y4059737D1*
X16941961Y4035310D1*
X16929888Y3998810D1*
Y3974664D1*
X16941961Y3938164D1*
X16966388Y3914018D1*
X16990535Y3901664D1*
X17027035D1*
X17051461Y3914018D1*
X17075608Y3938164D1*
X17400932Y4071810D2*
X17449505Y3901664D1*
X17498078Y4071810D1*
X17546651Y3901664D1*
X17595224Y4071810D1*
X17819375D2*
Y3901664D1*
Y4035310D2*
X17795229Y4059737D1*
X17770802Y4071810D1*
X17734583D1*
X17710156Y4059737D1*
X17686009Y4035310D1*
X17673656Y3998810D1*
Y3974664D1*
X17686009Y3938164D1*
X17710156Y3914018D1*
X17734583Y3901664D1*
X17770802D1*
X17795229Y3914018D1*
X17819375Y3938164D1*
X17910160Y4071810D2*
X17982879Y3901664D1*
X17958733Y3853091D1*
X17934306Y3828664D1*
X17910160Y3816591D1*
X17897806D1*
X18055879Y4071810D2*
X17982879Y3901664D1*
X18417704Y4156883D2*
Y3950237D1*
X18429777Y3914018D1*
X18454204Y3901664D1*
X18478350D1*
X18381204Y4071810D2*
X18466277D1*
X18556781Y4156883D2*
Y3901664D1*
Y4023237D2*
X18593281Y4059737D1*
X18617708Y4071810D1*
X18654208D1*
X18678354Y4059737D1*
X18690427Y4023237D1*
Y3901664D1*
X18768859Y4071810D2*
Y3901664D1*
Y3998810D2*
X18781212Y4035310D1*
X18805359Y4059737D1*
X18829786Y4071810D1*
X18866286D1*
X19005363D2*
X18981217Y4059737D1*
X18956790Y4035310D1*
X18944717Y3998810D1*
Y3974664D1*
X18956790Y3938164D1*
X18981217Y3914018D1*
X19005363Y3901664D1*
X19041863D1*
X19066290Y3914018D1*
X19090436Y3938164D1*
X19102790Y3974664D1*
Y3998810D1*
X19090436Y4035310D1*
X19066290Y4059737D1*
X19041863Y4071810D1*
X19005363D1*
X19181221D2*
Y3950237D1*
X19193294Y3914018D1*
X19217721Y3901664D1*
X19254221D1*
X19278367Y3914018D1*
X19314867Y3950237D1*
Y4071810D2*
Y3901664D1*
X19539018Y4059737D2*
Y3865164D1*
X19526945Y3828945D1*
X19514872Y3816591D1*
X19490445Y3804518D1*
X19453945D1*
X19429799Y3816591D1*
X19539018Y4023237D2*
X19514872Y4047383D1*
X19490445Y4059737D1*
X19453945D1*
X19429799Y4047383D1*
X19405372Y4023237D1*
X19393299Y3986737D1*
Y3962310D1*
X19405372Y3926091D1*
X19429799Y3901664D1*
X19453945Y3889591D1*
X19490445D1*
X19514872Y3901664D1*
X19539018Y3926091D1*
X19617449Y4156883D2*
Y3901664D1*
Y4023237D2*
X19653949Y4059737D1*
X19678376Y4071810D1*
X19714876D1*
X19739023Y4059737D1*
X19751096Y4023237D1*
Y3901664D1*
X12272051Y3082810D2*
X12381270D1*
X12417770Y3095164D1*
X12430124Y3107237D1*
X12442197Y3131383D1*
Y3155810D1*
X12430124Y3179956D1*
X12417770Y3192310D1*
X12381270Y3204383D1*
X12272051D1*
Y2949164D1*
X12357124Y3082810D2*
X12442197Y2949164D1*
X12520629Y3046310D2*
X12666348D1*
Y3070737D1*
X12654275Y3095164D1*
X12642202Y3107237D1*
X12617775Y3119310D1*
X12581275D1*
X12557129Y3107237D1*
X12532702Y3082810D1*
X12520629Y3046310D1*
Y3022164D1*
X12532702Y2985664D1*
X12557129Y2961518D1*
X12581275Y2949164D1*
X12617775D1*
X12642202Y2961518D1*
X12666348Y2985664D1*
X12890499Y3204383D2*
Y2949164D1*
Y3082810D2*
X12866352Y3107237D1*
X12841925Y3119310D1*
X12805425D1*
X12781279Y3107237D1*
X12756852Y3082810D1*
X12744779Y3046310D1*
Y3022164D1*
X12756852Y2985664D1*
X12781279Y2961518D1*
X12805425Y2949164D1*
X12841925D1*
X12866352Y2961518D1*
X12890499Y2985664D1*
X13029576Y3119310D2*
X13005430Y3107237D1*
X12981003Y3082810D1*
X12968930Y3046310D1*
Y3022164D1*
X12981003Y2985664D1*
X13005430Y2961518D1*
X13029576Y2949164D1*
X13066076D1*
X13090503Y2961518D1*
X13114649Y2985664D1*
X13127003Y3022164D1*
Y3046310D1*
X13114649Y3082810D1*
X13090503Y3107237D1*
X13066076Y3119310D1*
X13029576D1*
X13452327Y3204383D2*
Y2949164D1*
X13676478Y3119310D2*
Y2949164D1*
Y3082810D2*
X13652332Y3107237D1*
X13627905Y3119310D1*
X13591686D1*
X13567259Y3107237D1*
X13543112Y3082810D1*
X13530759Y3046310D1*
Y3022164D1*
X13543112Y2985664D1*
X13567259Y2961518D1*
X13591686Y2949164D1*
X13627905D1*
X13652332Y2961518D1*
X13676478Y2985664D1*
X13767263Y3119310D2*
X13839982Y2949164D1*
X13815836Y2900591D1*
X13791409Y2876164D1*
X13767263Y2864091D1*
X13754909D1*
X13912982Y3119310D2*
X13839982Y2949164D1*
X14052060Y3119310D2*
X14027914Y3107237D1*
X14003487Y3082810D1*
X13991414Y3046310D1*
Y3022164D1*
X14003487Y2985664D1*
X14027914Y2961518D1*
X14052060Y2949164D1*
X14088560D1*
X14112987Y2961518D1*
X14137133Y2985664D1*
X14149487Y3022164D1*
Y3046310D1*
X14137133Y3082810D1*
X14112987Y3107237D1*
X14088560Y3119310D1*
X14052060D1*
X14227918D2*
Y2997737D1*
X14239991Y2961518D1*
X14264418Y2949164D1*
X14300918D1*
X14325064Y2961518D1*
X14361564Y2997737D1*
Y3119310D2*
Y2949164D1*
X14476496Y3204383D2*
Y2997737D1*
X14488569Y2961518D1*
X14512996Y2949164D1*
X14537142D1*
X14439996Y3119310D2*
X14525069D1*
X15008185D2*
Y2949164D1*
Y3082810D2*
X14984039Y3107237D1*
X14959612Y3119310D1*
X14923393D1*
X14898966Y3107237D1*
X14874820Y3082810D1*
X14862466Y3046310D1*
Y3022164D1*
X14874820Y2985664D1*
X14898966Y2961518D1*
X14923393Y2949164D1*
X14959612D1*
X14984039Y2961518D1*
X15008185Y2985664D1*
X15232617Y3082810D2*
X15208190Y3107237D1*
X15183763Y3119310D1*
X15147544D1*
X15123117Y3107237D1*
X15098971Y3082810D1*
X15086617Y3046310D1*
Y3022164D1*
X15098971Y2985664D1*
X15123117Y2961518D1*
X15147544Y2949164D1*
X15183763D1*
X15208190Y2961518D1*
X15232617Y2985664D1*
X15457048Y3082810D2*
X15432621Y3107237D1*
X15408194Y3119310D1*
X15371975D1*
X15347548Y3107237D1*
X15323402Y3082810D1*
X15311048Y3046310D1*
Y3022164D1*
X15323402Y2985664D1*
X15347548Y2961518D1*
X15371975Y2949164D1*
X15408194D1*
X15432621Y2961518D1*
X15457048Y2985664D1*
X15596126Y3119310D2*
X15571979Y3107237D1*
X15547553Y3082810D1*
X15535479Y3046310D1*
Y3022164D1*
X15547553Y2985664D1*
X15571979Y2961518D1*
X15596126Y2949164D1*
X15632626D1*
X15657053Y2961518D1*
X15681199Y2985664D1*
X15693553Y3022164D1*
Y3046310D1*
X15681199Y3082810D1*
X15657053Y3107237D1*
X15632626Y3119310D1*
X15596126D1*
X15771984D2*
Y2949164D1*
Y3046310D2*
X15784338Y3082810D1*
X15808484Y3107237D1*
X15832911Y3119310D1*
X15869411D1*
X16093561Y3204383D2*
Y2949164D1*
Y3082810D2*
X16069415Y3107237D1*
X16044988Y3119310D1*
X16008488D1*
X15984342Y3107237D1*
X15959915Y3082810D1*
X15947842Y3046310D1*
Y3022164D1*
X15959915Y2985664D1*
X15984342Y2961518D1*
X16008488Y2949164D1*
X16044988D1*
X16069415Y2961518D1*
X16093561Y2985664D1*
X16171993Y3204383D2*
X16184066Y3192310D1*
X16196420Y3204383D1*
X16184066Y3216737D1*
X16171993Y3204383D1*
X16184066Y3119310D2*
Y2949164D1*
X16274851Y3119310D2*
Y2949164D1*
Y3070737D2*
X16311351Y3107237D1*
X16335778Y3119310D1*
X16371997D1*
X16396424Y3107237D1*
X16408497Y3070737D1*
Y2949164D1*
X16632648Y3107237D2*
Y2912664D1*
X16620575Y2876445D1*
X16608502Y2864091D1*
X16584075Y2852018D1*
X16547575D1*
X16523429Y2864091D1*
X16632648Y3070737D2*
X16608502Y3094883D1*
X16584075Y3107237D1*
X16547575D1*
X16523429Y3094883D1*
X16499002Y3070737D1*
X16486929Y3034237D1*
Y3009810D1*
X16499002Y2973591D1*
X16523429Y2949164D1*
X16547575Y2937091D1*
X16584075D1*
X16608502Y2949164D1*
X16632648Y2973591D1*
X16994472Y3204383D2*
Y2997737D1*
X17006545Y2961518D1*
X17030972Y2949164D1*
X17055118D1*
X16957972Y3119310D2*
X17043045D1*
X17194196D2*
X17170050Y3107237D1*
X17145623Y3082810D1*
X17133550Y3046310D1*
Y3022164D1*
X17145623Y2985664D1*
X17170050Y2961518D1*
X17194196Y2949164D1*
X17230696D1*
X17255123Y2961518D1*
X17279269Y2985664D1*
X17291623Y3022164D1*
Y3046310D1*
X17279269Y3082810D1*
X17255123Y3107237D1*
X17230696Y3119310D1*
X17194196D1*
X17616947D2*
Y2949164D1*
Y3046310D2*
X17629301Y3082810D1*
X17653447Y3107237D1*
X17677874Y3119310D1*
X17714374D1*
X17792805Y3046310D2*
X17938525D1*
Y3070737D1*
X17926451Y3095164D1*
X17914378Y3107237D1*
X17889951Y3119310D1*
X17853451D1*
X17829305Y3107237D1*
X17804878Y3082810D1*
X17792805Y3046310D1*
Y3022164D1*
X17804878Y2985664D1*
X17829305Y2961518D1*
X17853451Y2949164D1*
X17889951D1*
X17914378Y2961518D1*
X17938525Y2985664D1*
X18162956Y3082810D2*
X18138529Y3107237D1*
X18114102Y3119310D1*
X18077883D1*
X18053456Y3107237D1*
X18029310Y3082810D1*
X18016956Y3046310D1*
Y3022164D1*
X18029310Y2985664D1*
X18053456Y2961518D1*
X18077883Y2949164D1*
X18114102D1*
X18138529Y2961518D1*
X18162956Y2985664D1*
X18302033Y3119310D2*
X18277887Y3107237D1*
X18253460Y3082810D1*
X18241387Y3046310D1*
Y3022164D1*
X18253460Y2985664D1*
X18277887Y2961518D1*
X18302033Y2949164D1*
X18338533D1*
X18362960Y2961518D1*
X18387107Y2985664D1*
X18399460Y3022164D1*
Y3046310D1*
X18387107Y3082810D1*
X18362960Y3107237D1*
X18338533Y3119310D1*
X18302033D1*
X18477892D2*
Y2949164D1*
Y3070737D2*
X18514392Y3107237D1*
X18538819Y3119310D1*
X18575038D1*
X18599465Y3107237D1*
X18611538Y3070737D1*
Y2949164D1*
Y3070737D2*
X18648038Y3107237D1*
X18672465Y3119310D1*
X18708684D1*
X18733111Y3107237D1*
X18745465Y3070737D1*
Y2949164D1*
X18823896Y3046310D2*
X18969615D1*
Y3070737D1*
X18957542Y3095164D1*
X18945469Y3107237D1*
X18921042Y3119310D1*
X18884542D1*
X18860396Y3107237D1*
X18835969Y3082810D1*
X18823896Y3046310D1*
Y3022164D1*
X18835969Y2985664D1*
X18860396Y2961518D1*
X18884542Y2949164D1*
X18921042D1*
X18945469Y2961518D1*
X18969615Y2985664D1*
X19048047Y3119310D2*
Y2949164D1*
Y3070737D2*
X19084547Y3107237D1*
X19108974Y3119310D1*
X19145193D1*
X19169620Y3107237D1*
X19181693Y3070737D1*
Y2949164D1*
X19405844Y3204383D2*
Y2949164D1*
Y3082810D2*
X19381697Y3107237D1*
X19357270Y3119310D1*
X19320770D1*
X19296624Y3107237D1*
X19272197Y3082810D1*
X19260124Y3046310D1*
Y3022164D1*
X19272197Y2985664D1*
X19296624Y2961518D1*
X19320770Y2949164D1*
X19357270D1*
X19381697Y2961518D1*
X19405844Y2985664D1*
X19484275Y3046310D2*
X19629994D1*
Y3070737D1*
X19617921Y3095164D1*
X19605848Y3107237D1*
X19581421Y3119310D1*
X19544921D1*
X19520775Y3107237D1*
X19496348Y3082810D1*
X19484275Y3046310D1*
Y3022164D1*
X19496348Y2985664D1*
X19520775Y2961518D1*
X19544921Y2949164D1*
X19581421D1*
X19605848Y2961518D1*
X19629994Y2985664D1*
X19854145Y3204383D2*
Y2949164D1*
Y3082810D2*
X19829999Y3107237D1*
X19805572Y3119310D1*
X19769072D1*
X19744926Y3107237D1*
X19720499Y3082810D1*
X19708426Y3046310D1*
Y3022164D1*
X19720499Y2985664D1*
X19744926Y2961518D1*
X19769072Y2949164D1*
X19805572D1*
X19829999Y2961518D1*
X19854145Y2985664D1*
X20179469Y3204383D2*
Y2949164D1*
X20403620Y3119310D2*
Y2949164D1*
Y3082810D2*
X20379473Y3107237D1*
X20355047Y3119310D1*
X20318827D1*
X20294400Y3107237D1*
X20270254Y3082810D1*
X20257900Y3046310D1*
Y3022164D1*
X20270254Y2985664D1*
X20294400Y2961518D1*
X20318827Y2949164D1*
X20355047D1*
X20379473Y2961518D1*
X20403620Y2985664D1*
X20494405Y3119310D2*
X20567124Y2949164D1*
X20542978Y2900591D1*
X20518551Y2876164D1*
X20494405Y2864091D1*
X20482051D1*
X20640124Y3119310D2*
X20567124Y2949164D1*
X20779202Y3119310D2*
X20755055Y3107237D1*
X20730629Y3082810D1*
X20718555Y3046310D1*
Y3022164D1*
X20730629Y2985664D1*
X20755055Y2961518D1*
X20779202Y2949164D1*
X20815702D1*
X20840129Y2961518D1*
X20864275Y2985664D1*
X20876629Y3022164D1*
Y3046310D1*
X20864275Y3082810D1*
X20840129Y3107237D1*
X20815702Y3119310D1*
X20779202D1*
X20955060D2*
Y2997737D1*
X20967133Y2961518D1*
X20991560Y2949164D1*
X21028060D1*
X21052206Y2961518D1*
X21088706Y2997737D1*
Y3119310D2*
Y2949164D1*
X21203637Y3204383D2*
Y2997737D1*
X21215711Y2961518D1*
X21240137Y2949164D1*
X21264284D1*
X21167137Y3119310D2*
X21252211D1*
X21686754Y3204383D2*
X21662608D1*
X21638181Y3192310D1*
X21626108Y3155810D1*
Y2949164D1*
X21589608Y3119310D2*
X21674681D1*
X21825832D2*
X21801685Y3107237D1*
X21777258Y3082810D1*
X21765185Y3046310D1*
Y3022164D1*
X21777258Y2985664D1*
X21801685Y2961518D1*
X21825832Y2949164D1*
X21862332D1*
X21886758Y2961518D1*
X21910905Y2985664D1*
X21923258Y3022164D1*
Y3046310D1*
X21910905Y3082810D1*
X21886758Y3107237D1*
X21862332Y3119310D1*
X21825832D1*
X22001690D2*
Y2949164D1*
Y3046310D2*
X22014044Y3082810D1*
X22038190Y3107237D1*
X22062617Y3119310D1*
X22099117D1*
X22570160Y3204102D2*
X22448868D1*
X22436795Y3094883D1*
X22448868Y3106956D1*
X22485368Y3119310D1*
X22521587D1*
X22558087Y3106956D1*
X22582514Y3082810D1*
X22594587Y3046310D1*
Y3022164D1*
X22582514Y2985664D1*
X22558087Y2961237D1*
X22521587Y2949164D1*
X22485368D1*
X22448868Y2961237D1*
X22436795Y2973591D1*
X22424441Y2997737D1*
X22673019Y3204383D2*
X22770165Y2949164D1*
X22867311Y3204383D1*
X23006388Y3119310D2*
X22982242Y3107237D1*
X22957815Y3082810D1*
X22945742Y3046310D1*
Y3022164D1*
X22957815Y2985664D1*
X22982242Y2961518D1*
X23006388Y2949164D1*
X23042888D1*
X23067315Y2961518D1*
X23091462Y2985664D1*
X23103815Y3022164D1*
Y3046310D1*
X23091462Y3082810D1*
X23067315Y3107237D1*
X23042888Y3119310D1*
X23006388D1*
X23182247D2*
Y2997737D1*
X23194320Y2961518D1*
X23218747Y2949164D1*
X23255247D1*
X23279393Y2961518D1*
X23315893Y2997737D1*
Y3119310D2*
Y2949164D1*
X23430824Y3204383D2*
Y2997737D1*
X23442897Y2961518D1*
X23467324Y2949164D1*
X23491470D1*
X23394324Y3119310D2*
X23479397D1*
X12311394Y2207110D2*
X12299321Y2231257D1*
X12274894Y2255683D1*
X12250748Y2267757D1*
X12202175D1*
X12177748Y2255683D1*
X12153601Y2231257D1*
X12141248Y2207110D1*
X12129175Y2170610D1*
Y2109683D1*
X12141248Y2073464D1*
X12153601Y2049037D1*
X12177748Y2024891D1*
X12202175Y2012537D1*
X12250748D1*
X12274894Y2024891D1*
X12299321Y2049037D1*
X12311394Y2073464D1*
X12389825Y2267757D2*
Y2012537D1*
Y2134110D2*
X12426325Y2170610D1*
X12450752Y2182683D1*
X12487252D1*
X12511398Y2170610D1*
X12523471Y2134110D1*
Y2012537D1*
X12747622Y2182683D2*
Y2012537D1*
Y2146183D2*
X12723476Y2170610D1*
X12699049Y2182683D1*
X12662830D1*
X12638403Y2170610D1*
X12614256Y2146183D1*
X12601903Y2109683D1*
Y2085537D1*
X12614256Y2049037D1*
X12638403Y2024891D1*
X12662830Y2012537D1*
X12699049D1*
X12723476Y2024891D1*
X12747622Y2049037D1*
X12826053Y2182683D2*
Y2012537D1*
Y2134110D2*
X12862553Y2170610D1*
X12886980Y2182683D1*
X12923199D1*
X12947626Y2170610D1*
X12959699Y2134110D1*
Y2012537D1*
X13183850Y2170610D2*
Y1976037D1*
X13171777Y1939818D1*
X13159704Y1927464D1*
X13135277Y1915391D1*
X13098777D1*
X13074631Y1927464D1*
X13183850Y2134110D2*
X13159704Y2158257D1*
X13135277Y2170610D1*
X13098777D1*
X13074631Y2158257D1*
X13050204Y2134110D1*
X13038131Y2097610D1*
Y2073183D1*
X13050204Y2036964D1*
X13074631Y2012537D1*
X13098777Y2000464D1*
X13135277D1*
X13159704Y2012537D1*
X13183850Y2036964D1*
X13262281Y2109683D2*
X13408001D1*
Y2134110D1*
X13395928Y2158537D1*
X13383854Y2170610D1*
X13359428Y2182683D1*
X13322928D1*
X13298781Y2170610D1*
X13274354Y2146183D1*
X13262281Y2109683D1*
Y2085537D1*
X13274354Y2049037D1*
X13298781Y2024891D1*
X13322928Y2012537D1*
X13359428D1*
X13383854Y2024891D1*
X13408001Y2049037D1*
X13879325Y2146183D2*
X13854898Y2170610D1*
X13830471Y2182683D1*
X13794252D1*
X13769825Y2170610D1*
X13745679Y2146183D1*
X13733325Y2109683D1*
Y2085537D1*
X13745679Y2049037D1*
X13769825Y2024891D1*
X13794252Y2012537D1*
X13830471D1*
X13854898Y2024891D1*
X13879325Y2049037D1*
X13957756Y2182683D2*
Y2061110D1*
X13969829Y2024891D1*
X13994256Y2012537D1*
X14030756D1*
X14054902Y2024891D1*
X14091402Y2061110D1*
Y2182683D2*
Y2012537D1*
X14169834Y2182683D2*
Y2012537D1*
Y2109683D2*
X14182188Y2146183D1*
X14206334Y2170610D1*
X14230761Y2182683D1*
X14267261D1*
X14345692D2*
Y2012537D1*
Y2109683D2*
X14358046Y2146183D1*
X14382192Y2170610D1*
X14406619Y2182683D1*
X14443119D1*
X14521550Y2109683D2*
X14667270D1*
Y2134110D1*
X14655197Y2158537D1*
X14643123Y2170610D1*
X14618697Y2182683D1*
X14582197D1*
X14558050Y2170610D1*
X14533623Y2146183D1*
X14521550Y2109683D1*
Y2085537D1*
X14533623Y2049037D1*
X14558050Y2024891D1*
X14582197Y2012537D1*
X14618697D1*
X14643123Y2024891D1*
X14667270Y2049037D1*
X14745701Y2182683D2*
Y2012537D1*
Y2134110D2*
X14782201Y2170610D1*
X14806628Y2182683D1*
X14842847D1*
X14867274Y2170610D1*
X14879347Y2134110D1*
Y2012537D1*
X14994279Y2267757D2*
Y2061110D1*
X15006352Y2024891D1*
X15030779Y2012537D1*
X15054925D1*
X14957779Y2182683D2*
X15042852D1*
X15267002Y2146183D2*
X15254929Y2170610D1*
X15218429Y2182683D1*
X15181929D1*
X15145429Y2170610D1*
X15133356Y2146183D1*
X15145429Y2122037D1*
X15169856Y2109683D1*
X15230502Y2097610D1*
X15254929Y2085537D1*
X15267002Y2061110D1*
Y2049037D1*
X15254929Y2024891D1*
X15218429Y2012537D1*
X15181929D1*
X15145429Y2024891D1*
X15133356Y2049037D1*
X15725973Y2146183D2*
X15713900Y2170610D1*
X15677400Y2182683D1*
X15640900D1*
X15604400Y2170610D1*
X15592326Y2146183D1*
X15604400Y2122037D1*
X15628826Y2109683D1*
X15689473Y2097610D1*
X15713900Y2085537D1*
X15725973Y2061110D1*
Y2049037D1*
X15713900Y2024891D1*
X15677400Y2012537D1*
X15640900D1*
X15604400Y2024891D1*
X15592326Y2049037D1*
X15804404Y2109683D2*
X15950123D1*
Y2134110D1*
X15938050Y2158537D1*
X15925977Y2170610D1*
X15901550Y2182683D1*
X15865050D1*
X15840904Y2170610D1*
X15816477Y2146183D1*
X15804404Y2109683D1*
Y2085537D1*
X15816477Y2049037D1*
X15840904Y2024891D1*
X15865050Y2012537D1*
X15901550D1*
X15925977Y2024891D1*
X15950123Y2049037D1*
X16028555Y2182683D2*
Y2012537D1*
Y2134110D2*
X16065055Y2170610D1*
X16089482Y2182683D1*
X16125701D1*
X16150128Y2170610D1*
X16162201Y2134110D1*
Y2012537D1*
X16374278Y2146183D2*
X16362205Y2170610D1*
X16325705Y2182683D1*
X16289205D1*
X16252705Y2170610D1*
X16240632Y2146183D1*
X16252705Y2122037D1*
X16277132Y2109683D1*
X16337778Y2097610D1*
X16362205Y2085537D1*
X16374278Y2061110D1*
Y2049037D1*
X16362205Y2024891D1*
X16325705Y2012537D1*
X16289205D1*
X16252705Y2024891D1*
X16240632Y2049037D1*
X16452710Y2109683D2*
X16598429D1*
Y2134110D1*
X16586356Y2158537D1*
X16574283Y2170610D1*
X16549856Y2182683D1*
X16513356D1*
X16489210Y2170610D1*
X16464783Y2146183D1*
X16452710Y2109683D1*
Y2085537D1*
X16464783Y2049037D1*
X16489210Y2024891D1*
X16513356Y2012537D1*
X16549856D1*
X16574283Y2024891D1*
X16598429Y2049037D1*
X16923753Y2182683D2*
Y2012537D1*
Y2109683D2*
X16936107Y2146183D1*
X16960253Y2170610D1*
X16984680Y2182683D1*
X17021180D1*
X17099611Y2109683D2*
X17245331D1*
Y2134110D1*
X17233258Y2158537D1*
X17221185Y2170610D1*
X17196758Y2182683D1*
X17160258D1*
X17136111Y2170610D1*
X17111685Y2146183D1*
X17099611Y2109683D1*
Y2085537D1*
X17111685Y2049037D1*
X17136111Y2024891D1*
X17160258Y2012537D1*
X17196758D1*
X17221185Y2024891D1*
X17245331Y2049037D1*
X17457408Y2146183D2*
X17445335Y2170610D1*
X17408835Y2182683D1*
X17372335D1*
X17335835Y2170610D1*
X17323762Y2146183D1*
X17335835Y2122037D1*
X17360262Y2109683D1*
X17420908Y2097610D1*
X17445335Y2085537D1*
X17457408Y2061110D1*
Y2049037D1*
X17445335Y2024891D1*
X17408835Y2012537D1*
X17372335D1*
X17335835Y2024891D1*
X17323762Y2049037D1*
X17535840Y2267757D2*
X17547913Y2255683D1*
X17560267Y2267757D1*
X17547913Y2280110D1*
X17535840Y2267757D1*
X17547913Y2182683D2*
Y2012537D1*
X17772344Y2146183D2*
X17760271Y2170610D1*
X17723771Y2182683D1*
X17687271D1*
X17650771Y2170610D1*
X17638698Y2146183D1*
X17650771Y2122037D1*
X17675198Y2109683D1*
X17735844Y2097610D1*
X17760271Y2085537D1*
X17772344Y2061110D1*
Y2049037D1*
X17760271Y2024891D1*
X17723771Y2012537D1*
X17687271D1*
X17650771Y2024891D1*
X17638698Y2049037D1*
X17887275Y2267757D2*
Y2061110D1*
X17899348Y2024891D1*
X17923775Y2012537D1*
X17947922D1*
X17850775Y2182683D2*
X17935848D1*
X18086999D2*
X18062853Y2170610D1*
X18038426Y2146183D1*
X18026353Y2109683D1*
Y2085537D1*
X18038426Y2049037D1*
X18062853Y2024891D1*
X18086999Y2012537D1*
X18123499D1*
X18147926Y2024891D1*
X18172072Y2049037D1*
X18184426Y2085537D1*
Y2109683D1*
X18172072Y2146183D1*
X18147926Y2170610D1*
X18123499Y2182683D1*
X18086999D1*
X18262857D2*
Y2012537D1*
Y2109683D2*
X18275211Y2146183D1*
X18299357Y2170610D1*
X18323784Y2182683D1*
X18360284D1*
X12065675Y1585133D2*
X12162821Y1329914D1*
X12259967Y1585133D1*
X12338398D2*
Y1329914D1*
X12611403D2*
X12513976Y1585133D1*
X12416830Y1329914D1*
X12453330Y1414987D2*
X12574903D1*
X13070373Y1463560D2*
X13058300Y1487987D1*
X13021800Y1500060D1*
X12985300D1*
X12948800Y1487987D1*
X12936727Y1463560D1*
X12948800Y1439414D1*
X12973227Y1427060D1*
X13033873Y1414987D1*
X13058300Y1402914D1*
X13070373Y1378487D1*
Y1366414D1*
X13058300Y1342268D1*
X13021800Y1329914D1*
X12985300D1*
X12948800Y1342268D1*
X12936727Y1366414D1*
X13185304Y1585133D2*
Y1378487D1*
X13197378Y1342268D1*
X13221804Y1329914D1*
X13245951D1*
X13148804Y1500060D2*
X13233878D1*
X13324382Y1585133D2*
X13336455Y1573060D1*
X13348809Y1585133D1*
X13336455Y1597487D1*
X13324382Y1585133D1*
X13336455Y1500060D2*
Y1329914D1*
X13463740Y1585133D2*
Y1378487D1*
X13475813Y1342268D1*
X13500240Y1329914D1*
X13524386D1*
X13427240Y1500060D2*
X13512313D1*
X13748818Y1463560D2*
X13724391Y1487987D1*
X13699964Y1500060D1*
X13663745D1*
X13639318Y1487987D1*
X13615172Y1463560D1*
X13602818Y1427060D1*
Y1402914D1*
X13615172Y1366414D1*
X13639318Y1342268D1*
X13663745Y1329914D1*
X13699964D1*
X13724391Y1342268D1*
X13748818Y1366414D1*
X13827249Y1585133D2*
Y1329914D1*
Y1451487D2*
X13863749Y1487987D1*
X13888176Y1500060D1*
X13924676D1*
X13948822Y1487987D1*
X13960895Y1451487D1*
Y1329914D1*
X14039327Y1585133D2*
X14051400Y1573060D1*
X14063754Y1585133D1*
X14051400Y1597487D1*
X14039327Y1585133D1*
X14051400Y1500060D2*
Y1329914D1*
X14142185Y1500060D2*
Y1329914D1*
Y1451487D2*
X14178685Y1487987D1*
X14203112Y1500060D1*
X14239331D1*
X14263758Y1487987D1*
X14275831Y1451487D1*
Y1329914D1*
X14499982Y1487987D2*
Y1293414D1*
X14487909Y1257195D1*
X14475836Y1244841D1*
X14451409Y1232768D1*
X14414909D1*
X14390763Y1244841D1*
X14499982Y1451487D2*
X14475836Y1475633D1*
X14451409Y1487987D1*
X14414909D1*
X14390763Y1475633D1*
X14366336Y1451487D1*
X14354263Y1414987D1*
Y1390560D1*
X14366336Y1354341D1*
X14390763Y1329914D1*
X14414909Y1317841D1*
X14451409D1*
X14475836Y1329914D1*
X14499982Y1354341D1*
X12438394Y873610D2*
X12426321Y897757D1*
X12401894Y922183D1*
X12377748Y934257D1*
X12329175D1*
X12304748Y922183D1*
X12280601Y897757D1*
X12268248Y873610D1*
X12256175Y837110D1*
Y776183D1*
X12268248Y739964D1*
X12280601Y715537D1*
X12304748Y691391D1*
X12329175Y679037D1*
X12377748D1*
X12401894Y691391D1*
X12426321Y715537D1*
X12438394Y739964D1*
Y776183D1*
X12377748D1*
X12711398Y679037D2*
X12613971Y934257D1*
X12516825Y679037D1*
X12553325Y764110D2*
X12674898D1*
X12874903Y934257D2*
Y679037D1*
X12789830Y934257D2*
X12959976D1*
X13196199D2*
X13038407D1*
Y679037D1*
X13196199D1*
X13038407Y812683D2*
X13135553D1*
X13521524Y934257D2*
Y679037D1*
X13606597D1*
X13643097Y691391D1*
X13667524Y715537D1*
X13679597Y739964D1*
X13691670Y776183D1*
Y837110D1*
X13679597Y873610D1*
X13667524Y897757D1*
X13643097Y922183D1*
X13606597Y934257D1*
X13521524D1*
X13770101Y812683D2*
X13879320D1*
X13915820Y825037D1*
X13928174Y837110D1*
X13940247Y861257D1*
Y885683D1*
X13928174Y909830D1*
X13915820Y922183D1*
X13879320Y934257D1*
X13770101D1*
Y679037D1*
X13855174Y812683D2*
X13940247Y679037D1*
X14018679Y934257D2*
Y679037D1*
X14097110Y934257D2*
X14194256Y679037D1*
X14291402Y934257D1*
X14527626D2*
X14369834D1*
Y679037D1*
X14527626D1*
X14369834Y812683D2*
X14466980D1*
X14998950D2*
X14974523Y837110D1*
X14950097Y849183D1*
X14913877D1*
X14889450Y837110D1*
X14865304Y812683D1*
X14852950Y776183D1*
Y752037D1*
X14865304Y715537D1*
X14889450Y691391D1*
X14913877Y679037D1*
X14950097D1*
X14974523Y691391D1*
X14998950Y715537D1*
X15077382Y934257D2*
Y679037D1*
Y800610D2*
X15113882Y837110D1*
X15138309Y849183D1*
X15174809D1*
X15198955Y837110D1*
X15211028Y800610D1*
Y679037D1*
X15289459Y776183D2*
X15435179D1*
Y800610D1*
X15423105Y825037D1*
X15411032Y837110D1*
X15386605Y849183D1*
X15350105D1*
X15325959Y837110D1*
X15301532Y812683D1*
X15289459Y776183D1*
Y752037D1*
X15301532Y715537D1*
X15325959Y691391D1*
X15350105Y679037D1*
X15386605D1*
X15411032Y691391D1*
X15435179Y715537D1*
X15659610Y812683D2*
X15635183Y837110D1*
X15610756Y849183D1*
X15574537D1*
X15550110Y837110D1*
X15525964Y812683D1*
X15513610Y776183D1*
Y752037D1*
X15525964Y715537D1*
X15550110Y691391D1*
X15574537Y679037D1*
X15610756D1*
X15635183Y691391D1*
X15659610Y715537D1*
X15738041Y934257D2*
Y679037D1*
X15859614Y849183D2*
X15738041Y727610D1*
X15786614Y776183D2*
X15871687Y679037D1*
X12160925Y18933D2*
X12270144D1*
X12306644Y31287D1*
X12318998Y43360D1*
X12331071Y67507D1*
Y91933D1*
X12318998Y116080D1*
X12306644Y128433D1*
X12270144Y140507D1*
X12160925D1*
Y-114713D1*
X12245998Y18933D2*
X12331071Y-114713D1*
X12567294Y140507D2*
X12409502D1*
Y-114713D1*
X12567294D1*
X12409502Y18933D2*
X12506648D1*
X12645726Y6860D2*
X12755226D1*
X12791445Y18933D1*
X12803799Y31287D1*
X12815872Y55433D1*
Y91933D1*
X12803799Y116080D1*
X12791445Y128433D1*
X12755226Y140507D1*
X12645726D1*
Y-114713D1*
X12894303Y140507D2*
Y-114713D1*
X13040022D1*
X13313027D2*
X13215600Y140507D1*
X13118454Y-114713D1*
X13154954Y-29640D2*
X13276527D1*
X13573678Y79860D2*
X13561604Y104007D1*
X13537178Y128433D1*
X13513031Y140507D1*
X13464458D1*
X13440031Y128433D1*
X13415885Y104007D1*
X13403531Y79860D1*
X13391458Y43360D1*
Y-17567D1*
X13403531Y-53786D1*
X13415885Y-78213D1*
X13440031Y-102359D1*
X13464458Y-114713D1*
X13513031D1*
X13537178Y-102359D1*
X13561604Y-78213D1*
X13573678Y-53786D1*
X13809901Y140507D2*
X13652109D1*
Y-114713D1*
X13809901D1*
X13652109Y18933D2*
X13749255D1*
X14135225Y140507D2*
Y-114713D1*
X14244725D1*
X14281225Y-102359D1*
X14293299Y-90286D1*
X14305372Y-66140D1*
Y-29640D1*
X14293299Y-5213D1*
X14281225Y6860D1*
X14244725Y18933D1*
X14281225Y31287D1*
X14293299Y43360D1*
X14305372Y67507D1*
Y91933D1*
X14293299Y116080D1*
X14281225Y128433D1*
X14244725Y140507D1*
X14135225D1*
Y18933D2*
X14244725D1*
X14456803Y140507D2*
X14432376Y128433D1*
X14408230Y104007D1*
X14395876Y79860D1*
X14383803Y43360D1*
Y-17567D1*
X14395876Y-53786D1*
X14408230Y-78213D1*
X14432376Y-102359D1*
X14456803Y-114713D1*
X14505376D1*
X14529522Y-102359D1*
X14553949Y-78213D1*
X14566022Y-53786D1*
X14578095Y-17567D1*
Y43360D1*
X14566022Y79860D1*
X14553949Y104007D1*
X14529522Y128433D1*
X14505376Y140507D1*
X14456803D1*
X14729527D2*
X14705100Y128433D1*
X14680954Y104007D1*
X14668600Y79860D1*
X14656527Y43360D1*
Y-17567D1*
X14668600Y-53786D1*
X14680954Y-78213D1*
X14705100Y-102359D1*
X14729527Y-114713D1*
X14778100D1*
X14802246Y-102359D1*
X14826673Y-78213D1*
X14838746Y-53786D1*
X14850819Y-17567D1*
Y43360D1*
X14838746Y79860D1*
X14826673Y104007D1*
X14802246Y128433D1*
X14778100Y140507D1*
X14729527D1*
X15014323D2*
Y-114713D1*
X14929250Y140507D2*
X15099397D1*
X15347974Y104007D2*
X15323828Y128433D1*
X15287328Y140507D1*
X15238755D1*
X15202255Y128433D1*
X15177828Y104007D1*
Y79860D1*
X15190182Y55433D1*
X15202255Y43360D1*
X15226401Y31287D1*
X15299401Y6860D1*
X15323828Y-5213D1*
X15335901Y-17567D1*
X15347974Y-41713D1*
Y-78213D1*
X15323828Y-102359D1*
X15287328Y-114713D1*
X15238755D1*
X15202255Y-102359D1*
X15177828Y-78213D1*
X15511479Y140507D2*
Y-114713D1*
X15426405Y140507D2*
X15596552D1*
X15674983Y18933D2*
X15784202D1*
X15820702Y31287D1*
X15833056Y43360D1*
X15845129Y67507D1*
Y91933D1*
X15833056Y116080D1*
X15820702Y128433D1*
X15784202Y140507D1*
X15674983D1*
Y-114713D1*
X15760056Y18933D2*
X15845129Y-114713D1*
X16118134D2*
X16020707Y140507D1*
X15923560Y-114713D1*
X15960060Y-29640D2*
X16081634D1*
X16196565Y6860D2*
X16306065D1*
X16342284Y18933D1*
X16354638Y31287D1*
X16366711Y55433D1*
Y91933D1*
X16354638Y116080D1*
X16342284Y128433D1*
X16306065Y140507D1*
X16196565D1*
Y-114713D1*
X16445142Y140507D2*
Y-114713D1*
X16530216D1*
X16566716Y-102359D1*
X16591142Y-78213D1*
X16603216Y-53786D1*
X16615289Y-17567D1*
Y43360D1*
X16603216Y79860D1*
X16591142Y104007D1*
X16566716Y128433D1*
X16530216Y140507D1*
X16445142D1*
X16693720D2*
Y-114713D1*
X16845151Y140507D2*
X16820724Y128433D1*
X16796578Y104007D1*
X16784224Y79860D1*
X16772151Y43360D1*
Y-17567D1*
X16784224Y-53786D1*
X16796578Y-78213D1*
X16820724Y-102359D1*
X16845151Y-114713D1*
X16893724D1*
X16917871Y-102359D1*
X16942298Y-78213D1*
X16954371Y-53786D1*
X16966444Y-17567D1*
Y43360D1*
X16954371Y79860D1*
X16942298Y104007D1*
X16917871Y128433D1*
X16893724Y140507D1*
X16845151D1*
X17044875D2*
Y-114713D1*
X17129948D1*
X17166448Y-102359D1*
X17190875Y-78213D1*
X17202948Y-53786D1*
X17215021Y-17567D1*
Y43360D1*
X17202948Y79860D1*
X17190875Y104007D1*
X17166448Y128433D1*
X17129948Y140507D1*
X17044875D1*
X17451245D2*
X17293453D1*
Y-114713D1*
X17451245D1*
X17293453Y18933D2*
X17390599D1*
X17529676Y79580D2*
Y91653D1*
X17541749Y116080D1*
X17554103Y128153D1*
X17578249Y140226D1*
X17626822D1*
X17651249Y128153D1*
X17663322Y116080D1*
X17675395Y91653D1*
Y67507D1*
X17663322Y43080D1*
X17651249Y31007D1*
X17602676Y6860D1*
Y-29640D1*
Y-90286D2*
X17590322Y-102640D1*
X17602676Y-114713D1*
X17614749Y-102640D1*
X17602676Y-90286D1*
M02*
