G04 DipTrace 3.3.1.3*
G04 TopMask.gbr*
%MOMM*%
G04 #@! TF.FileFunction,Soldermask,Top*
G04 #@! TF.Part,Single*
%ADD47C,1.5*%
%ADD65C,1.5*%
%ADD74R,0.904X2.404*%
%ADD76O,0.904X2.404*%
%ADD78O,1.304X3.804*%
%ADD80O,1.304X2.304*%
%ADD82R,0.504X0.904*%
%ADD84R,2.904X2.904*%
%ADD86R,0.804X0.454*%
%ADD88R,0.454X0.804*%
%ADD90R,1.304X0.804*%
%ADD92R,0.654X0.454*%
%ADD94O,1.354X0.554*%
%ADD96O,1.654X0.404*%
%ADD98R,5.704X2.704*%
%ADD100R,0.604X1.254*%
%ADD104R,2.004X3.404*%
%ADD106R,2.439X1.929*%
%ADD108R,0.609X1.194*%
%ADD110R,0.609X0.964*%
%ADD112R,1.754X0.804*%
%ADD114R,1.554X0.804*%
%ADD116R,3.854X4.614*%
%ADD118R,1.804X2.104*%
%ADD120R,3.204X1.704*%
%ADD122R,3.504X9.224*%
%ADD124R,3.704X2.204*%
%ADD126R,1.454X2.204*%
%ADD128R,0.604X1.104*%
%ADD130R,1.054X0.704*%
%ADD132R,0.804X0.804*%
%ADD134R,1.104X0.904*%
%ADD136R,1.804X2.004*%
%ADD138R,1.304X1.204*%
%ADD140R,0.904X1.104*%
%ADD142R,2.004X1.804*%
%ADD144R,1.204X1.304*%
%ADD146R,2.604X2.804*%
%FSLAX35Y35*%
G04*
G71*
G90*
G75*
G01*
G04 TopMask*
%LPD*%
D146*
X5191800Y1889800D3*
Y1249767D3*
X5740677Y1889800D3*
Y1249767D3*
D144*
X2270800Y2107427D3*
Y1937427D3*
D142*
X1397677Y1842177D3*
Y2122177D3*
X1619920Y1842177D3*
Y2122177D3*
X1842173Y1842177D3*
Y2122177D3*
X2064423Y1842177D3*
Y2122177D3*
D144*
X3651927Y3620177D3*
Y3450177D3*
X3205427Y4260800D3*
Y4090800D3*
X2705427D3*
Y4260800D3*
X3207423Y2858177D3*
Y3028177D3*
X3699550Y2858177D3*
Y3028177D3*
D140*
X2620050Y3048677D3*
Y2918677D3*
D144*
X2413673Y3175677D3*
Y3345677D3*
D138*
X3006673Y3001050D3*
X2836673D3*
D136*
X3794800Y4032927D3*
X3514800D3*
D146*
X6287177Y1889800D3*
Y1249767D3*
D144*
X2508927Y4096423D3*
Y3926423D3*
X3524927Y2858177D3*
Y3028177D3*
D138*
X1953300Y3445550D3*
X1783300D3*
D140*
X1588173Y2555050D3*
Y2685050D3*
D134*
X1810423Y3112173D3*
X1940423D3*
X1810423Y3223300D3*
X1940423D3*
D136*
X8414427Y2699427D3*
X8134427D3*
D132*
X3366177Y2843427D3*
Y3063427D3*
D130*
X-586700Y2699423D3*
Y2569410D3*
X-376700Y2634417D3*
D128*
X-697827Y3016927D3*
X-587827D3*
X-285077Y3001050D3*
X-175077D3*
D126*
X6779300Y3524927D3*
D124*
X7191800Y3724927D3*
X5666800D3*
Y4334927D3*
X7191800D3*
D126*
X6529300Y3524927D3*
X6329300D3*
X6079300D3*
D65*
X6674300Y3774927D3*
X6184300D3*
D122*
X3604300Y1953300D3*
X4484300D3*
D120*
X3905923Y3655300D3*
Y3426300D3*
D118*
X7033300Y2127923D3*
Y2537923D3*
D116*
X2692923Y2254927D3*
D114*
X2453423Y2064427D3*
Y2191427D3*
Y2318427D3*
Y2445427D3*
D112*
X3062423Y2064427D3*
Y2191427D3*
Y2318427D3*
Y2445427D3*
D116*
X2832923Y1699303D3*
D114*
X3072423Y1889803D3*
Y1762803D3*
Y1635803D3*
Y1508803D3*
D112*
X2463423Y1889803D3*
Y1762803D3*
Y1635803D3*
Y1508803D3*
D110*
X1897773Y2418300D3*
X1963773D3*
X2029773D3*
X2095770D3*
D108*
X1897723Y2715300D3*
X1963723D3*
X2029673D3*
X2095720D3*
D106*
X1996973Y2511100D3*
D144*
X3330427Y4260800D3*
Y4090800D3*
X2830427D3*
Y4260800D3*
D104*
X4514923Y2826427D3*
X5074923D3*
D140*
X2715303Y3048677D3*
Y2918677D3*
D144*
X3080427Y4090800D3*
Y4260800D3*
X2955427D3*
Y4090800D3*
X2842300Y2693800D3*
Y2863800D3*
X3001047Y2693800D3*
Y2863800D3*
D138*
X6445923Y2762927D3*
X6275923D3*
X5953800D3*
X6123800D3*
D134*
X1810423Y3001050D3*
X1940423D3*
X1858050Y2889927D3*
X1988050D3*
X1586673Y2810550D3*
X1716673D3*
X1300923Y2604173D3*
X1430923D3*
X1810423Y3318550D3*
X1940423D3*
D47*
X2413677Y3667800D3*
X2413673Y3493177D3*
X1302427Y3493173D3*
X1159550Y3096300D3*
Y3302673D3*
D100*
X3471173Y3830800D3*
X3406173D3*
X3341173D3*
X3276173D3*
X3211173D3*
X3146173D3*
X3081173D3*
X3016173D3*
X2951173D3*
X2886173D3*
X2821173D3*
X2756173D3*
X2691173D3*
X2626173D3*
Y3250800D3*
X2691173D3*
X2756173D3*
X2821173D3*
X2886173D3*
X2951173D3*
X3016173D3*
X3081173D3*
X3146173D3*
X3211173D3*
X3276173D3*
X3341173D3*
X3406173D3*
X3471173D3*
D98*
X3048673Y3540800D3*
D96*
X6557047Y2540677D3*
D94*
X6572047Y2595677D3*
Y2485677D3*
D92*
X6412047Y2615677D3*
Y2565677D3*
Y2515677D3*
Y2465677D3*
D90*
X6255427Y3128050D3*
Y3033050D3*
Y2938050D3*
X6525427D3*
Y3033050D3*
Y3128050D3*
D88*
X1619927Y3334423D3*
X1569927D3*
X1519927D3*
X1469927D3*
X1419927D3*
X1369927D3*
D86*
X1304927Y3269423D3*
Y3219423D3*
Y3169423D3*
Y3119423D3*
Y3069423D3*
Y3019423D3*
D88*
X1369927Y2954423D3*
X1419927D3*
X1469927D3*
X1519927D3*
X1569927D3*
X1619927D3*
D86*
X1684927Y3019423D3*
Y3069423D3*
Y3119423D3*
Y3169423D3*
Y3219423D3*
Y3269423D3*
D84*
X1494927Y3144423D3*
D82*
X1572300Y3683673D3*
X1522300D3*
X1472300D3*
X1422300D3*
X1372300D3*
X1322300D3*
X1922300D3*
X1872300D3*
X1822300D3*
X1772300D3*
X1722300D3*
X1672300D3*
X1847300Y3853673D3*
X1797300D3*
X1747300D3*
X1697300D3*
X1647300D3*
X1597300D3*
X1547300D3*
X1497300D3*
X1447300D3*
X1397300D3*
D134*
X1927300D3*
X1317300D3*
D80*
X1190300Y3764673D3*
X2054300D3*
D78*
X2084300Y4250673D3*
D76*
Y4300673D3*
D74*
X1160300D3*
D78*
Y4250673D3*
M02*
