G04 DipTrace 3.3.1.3*
G04 TopPaste.gbr*
%MOMM*%
G04 #@! TF.FileFunction,Paste,Top*
G04 #@! TF.Part,Single*
%ADD47C,1.5*%
%ADD79O,0.896X3.396*%
%ADD83R,0.096X0.496*%
%ADD85R,2.496X2.496*%
%ADD87R,0.396X0.046*%
%ADD89R,0.046X0.396*%
%ADD91R,0.896X0.396*%
%ADD93R,0.246X0.046*%
%ADD95O,0.946X0.146*%
%ADD97O,1.246X-0.004*%
%ADD99R,5.296X2.296*%
%ADD101R,0.196X0.846*%
%ADD105R,1.596X2.996*%
%ADD107R,2.031X1.521*%
%ADD109R,0.201X0.786*%
%ADD111R,0.201X0.556*%
%ADD113R,1.346X0.396*%
%ADD115R,1.146X0.396*%
%ADD117R,3.446X4.206*%
%ADD119R,1.396X1.696*%
%ADD121R,2.796X1.296*%
%ADD123R,3.096X8.816*%
%ADD125R,3.296X1.796*%
%ADD127R,1.046X1.796*%
%ADD129R,0.196X0.696*%
%ADD131R,0.646X0.296*%
%ADD133R,0.396X0.396*%
%ADD135R,0.696X0.496*%
%ADD137R,1.396X1.596*%
%ADD139R,0.896X0.796*%
%ADD141R,0.496X0.696*%
%ADD143R,1.596X1.396*%
%ADD145R,0.796X0.896*%
%ADD147R,2.196X2.396*%
%FSLAX35Y35*%
G04*
G71*
G90*
G75*
G01*
G04 TopPaste*
%LPD*%
D147*
X5191800Y1889800D3*
Y1249767D3*
X5740677Y1889800D3*
Y1249767D3*
D145*
X2270800Y2107427D3*
Y1937427D3*
D143*
X1397677Y1842177D3*
Y2122177D3*
X1619920Y1842177D3*
Y2122177D3*
X1842173Y1842177D3*
Y2122177D3*
X2064423Y1842177D3*
Y2122177D3*
D145*
X3651927Y3620177D3*
Y3450177D3*
X3205427Y4260800D3*
Y4090800D3*
X2705427D3*
Y4260800D3*
X3207423Y2858177D3*
Y3028177D3*
X3699550Y2858177D3*
Y3028177D3*
D141*
X2620050Y3048677D3*
Y2918677D3*
D145*
X2413673Y3175677D3*
Y3345677D3*
D139*
X3006673Y3001050D3*
X2836673D3*
D137*
X3794800Y4032927D3*
X3514800D3*
D147*
X6287177Y1889800D3*
Y1249767D3*
D145*
X2508927Y4096423D3*
Y3926423D3*
X3524927Y2858177D3*
Y3028177D3*
D139*
X1953300Y3445550D3*
X1783300D3*
D141*
X1588173Y2555050D3*
Y2685050D3*
D135*
X1810423Y3112173D3*
X1940423D3*
X1810423Y3223300D3*
X1940423D3*
D137*
X8414427Y2699427D3*
X8134427D3*
D133*
X3366177Y2843427D3*
Y3063427D3*
D131*
X-586700Y2699423D3*
Y2569410D3*
X-376700Y2634417D3*
D129*
X-697827Y3016927D3*
X-587827D3*
X-285077Y3001050D3*
X-175077D3*
D127*
X6779300Y3524927D3*
D125*
X7191800Y3724927D3*
X5666800D3*
Y4334927D3*
X7191800D3*
D127*
X6529300Y3524927D3*
X6329300D3*
X6079300D3*
D123*
X3604300Y1953300D3*
X4484300D3*
D121*
X3905923Y3655300D3*
Y3426300D3*
D119*
X7033300Y2127923D3*
Y2537923D3*
D117*
X2692923Y2254927D3*
D115*
X2453423Y2064427D3*
Y2191427D3*
Y2318427D3*
Y2445427D3*
D113*
X3062423Y2064427D3*
Y2191427D3*
Y2318427D3*
Y2445427D3*
D117*
X2832923Y1699303D3*
D115*
X3072423Y1889803D3*
Y1762803D3*
Y1635803D3*
Y1508803D3*
D113*
X2463423Y1889803D3*
Y1762803D3*
Y1635803D3*
Y1508803D3*
D111*
X1897773Y2418300D3*
X1963773D3*
X2029773D3*
X2095770D3*
D109*
X1897723Y2715300D3*
X1963723D3*
X2029673D3*
X2095720D3*
D107*
X1996973Y2511100D3*
D145*
X3330427Y4260800D3*
Y4090800D3*
X2830427D3*
Y4260800D3*
D105*
X4514923Y2826427D3*
X5074923D3*
D141*
X2715303Y3048677D3*
Y2918677D3*
D145*
X3080427Y4090800D3*
Y4260800D3*
X2955427D3*
Y4090800D3*
X2842300Y2693800D3*
Y2863800D3*
X3001047Y2693800D3*
Y2863800D3*
D139*
X6445923Y2762927D3*
X6275923D3*
X5953800D3*
X6123800D3*
D135*
X1810423Y3001050D3*
X1940423D3*
X1858050Y2889927D3*
X1988050D3*
X1586673Y2810550D3*
X1716673D3*
X1300923Y2604173D3*
X1430923D3*
X1810423Y3318550D3*
X1940423D3*
D47*
X2413677Y3667800D3*
X2413673Y3493177D3*
X1302427Y3493173D3*
X1159550Y3096300D3*
Y3302673D3*
D101*
X3471173Y3830800D3*
X3406173D3*
X3341173D3*
X3276173D3*
X3211173D3*
X3146173D3*
X3081173D3*
X3016173D3*
X2951173D3*
X2886173D3*
X2821173D3*
X2756173D3*
X2691173D3*
X2626173D3*
Y3250800D3*
X2691173D3*
X2756173D3*
X2821173D3*
X2886173D3*
X2951173D3*
X3016173D3*
X3081173D3*
X3146173D3*
X3211173D3*
X3276173D3*
X3341173D3*
X3406173D3*
X3471173D3*
D99*
X3048673Y3540800D3*
D97*
X6557047Y2540677D3*
D95*
X6572047Y2595677D3*
Y2485677D3*
D93*
X6412047Y2615677D3*
Y2565677D3*
Y2515677D3*
Y2465677D3*
D91*
X6255427Y3128050D3*
Y3033050D3*
Y2938050D3*
X6525427D3*
Y3033050D3*
Y3128050D3*
D89*
X1619927Y3334423D3*
X1569927D3*
X1519927D3*
X1469927D3*
X1419927D3*
X1369927D3*
D87*
X1304927Y3269423D3*
Y3219423D3*
Y3169423D3*
Y3119423D3*
Y3069423D3*
Y3019423D3*
D89*
X1369927Y2954423D3*
X1419927D3*
X1469927D3*
X1519927D3*
X1569927D3*
X1619927D3*
D87*
X1684927Y3019423D3*
Y3069423D3*
Y3119423D3*
Y3169423D3*
Y3219423D3*
Y3269423D3*
D85*
X1494927Y3144423D3*
D83*
X1572300Y3683673D3*
X1522300D3*
X1472300D3*
X1422300D3*
X1372300D3*
X1322300D3*
X1922300D3*
X1872300D3*
X1822300D3*
X1772300D3*
X1722300D3*
X1672300D3*
X1847300Y3853673D3*
X1797300D3*
X1747300D3*
X1697300D3*
X1647300D3*
X1597300D3*
X1547300D3*
X1497300D3*
X1447300D3*
X1397300D3*
D135*
X1927300D3*
X1317300D3*
D79*
X2084300Y4250673D3*
X1160300D3*
M02*
