G04 DipTrace 3.3.1.3*
G04 TopSilk.gbr*
%MOMM*%
G04 #@! TF.FileFunction,Legend,Top*
G04 #@! TF.Part,Single*
%ADD10C,0.25*%
%ADD28O,0.23999X0.23961*%
%ADD30O,0.39176X0.39154*%
%ADD33C,0.127*%
%ADD50C,0.15*%
%ADD54O,0.39103X0.39118*%
%ADD56O,0.39072X0.41272*%
%ADD148C,0.07843*%
%FSLAX35Y35*%
G04*
G71*
G90*
G75*
G01*
G04 TopSilk*
%LPD*%
X5421800Y1949777D2*
D10*
Y1189789D1*
X4961800Y1949777D2*
Y1189789D1*
X5421800Y1719819D2*
X4961800D1*
X5970677Y1949777D2*
Y1189789D1*
X5510677Y1949777D2*
Y1189789D1*
X5970677Y1719819D2*
X5510677D1*
X1477597Y1971177D2*
X1317757D1*
X1477597Y1952257D2*
X1317757D1*
X1477597D2*
Y2012097D1*
X1317757Y1952257D2*
Y2012097D1*
X1699840Y1971177D2*
X1540000D1*
X1699840Y1952257D2*
X1540000D1*
X1699840D2*
Y2012097D1*
X1540000Y1952257D2*
Y2012097D1*
X1922093Y1971177D2*
X1762253D1*
X1922093Y1952257D2*
X1762253D1*
X1922093D2*
Y2012097D1*
X1762253Y1952257D2*
Y2012097D1*
X2144343Y1971177D2*
X1984503D1*
X2144343Y1952257D2*
X1984503D1*
X2144343D2*
Y2012097D1*
X1984503Y1952257D2*
Y2012097D1*
X3665800Y4112847D2*
Y3953007D1*
X3684720Y4112847D2*
Y3953007D1*
Y4112847D2*
X3624880D1*
X3684720Y3953007D2*
X3624880D1*
X6517177Y1949777D2*
Y1189789D1*
X6057177Y1949777D2*
Y1189789D1*
X6517177Y1719819D2*
X6057177D1*
X8285427Y2779347D2*
Y2619507D1*
X8304347Y2779347D2*
Y2619507D1*
Y2779347D2*
X8244507D1*
X8304347Y2619507D2*
X8244507D1*
X3306178Y2873414D2*
Y3033411D1*
X3426175Y2873414D2*
Y3033411D1*
D28*
X3366177Y2779414D3*
D30*
X-594065Y2767765D3*
X-506687Y2734429D2*
D10*
Y2534412D1*
X-456713D1*
Y2734429D1*
X-506687D1*
X7084238Y3584896D2*
D33*
X6863362D1*
X5991300D2*
X5774362D1*
X7084238Y3854953D2*
Y4209926D1*
X5774362Y3851937D2*
Y4207954D1*
X7084238Y4452954D2*
Y4584967D1*
X5774362D1*
Y4449938D1*
X6689362Y3584896D2*
X6619237D1*
X6449362D2*
X6409238D1*
X6239363D2*
X6169238D1*
X5774362D2*
Y3603921D1*
X7084238Y3584896D2*
Y3602877D1*
X7298300Y2057943D2*
Y2607903D1*
X6768300D2*
Y2057943D1*
X6930321D1*
X7139300D2*
X7298300D1*
X6768300Y2607903D2*
X6932282D1*
X7134318D2*
X7298300D1*
X4635083Y2976507D2*
D10*
X4954763D1*
X4635083Y2676347D2*
X4954763D1*
X3538623Y3701159D2*
X2558723D1*
X3538623Y3380441D2*
X2558723D1*
Y3701159D2*
Y3380441D1*
X3538623Y3701159D2*
Y3590942D1*
Y3490658D2*
Y3380441D1*
Y3590942D2*
G03X3538623Y3490658I167J-50142D01*
G01*
X6609555Y2440677D2*
D50*
X6409539D1*
Y2640677D1*
X6609555D1*
Y2440677D1*
D54*
X6213198Y3196411D3*
X6350525Y3183044D2*
D10*
Y2883050D1*
X6430511Y3183044D2*
Y2883050D1*
X6350525D2*
X6430511D1*
X6350525Y3183044D2*
X6430511D1*
X1665119Y3344699D2*
X1694863Y3314395D1*
X1294991Y3344699D2*
Y3314395D1*
Y3344699D2*
X1324735D1*
X1294991Y2944320D2*
X1324735D1*
X1294991D2*
Y2974624D1*
X1694863Y2944320D2*
X1665119D1*
X1694863D2*
Y2974624D1*
D56*
X1619535Y3413954D3*
X5196086Y2082065D2*
D148*
X5193671Y2086895D1*
X5188786Y2091780D1*
X5183957Y2094195D1*
X5174242D1*
X5169357Y2091780D1*
X5164528Y2086895D1*
X5162057Y2082065D1*
X5159642Y2074765D1*
Y2062580D1*
X5162057Y2055336D1*
X5164528Y2050451D1*
X5169357Y2045622D1*
X5174242Y2043151D1*
X5183957D1*
X5188786Y2045622D1*
X5193671Y2050451D1*
X5196086Y2055336D1*
X5211772Y2084424D2*
X5216658Y2086895D1*
X5223958Y2094138D1*
Y2043151D1*
X5734041Y2082065D2*
X5731626Y2086895D1*
X5726741Y2091780D1*
X5721912Y2094195D1*
X5712197D1*
X5707312Y2091780D1*
X5702482Y2086895D1*
X5700012Y2082065D1*
X5697597Y2074765D1*
Y2062580D1*
X5700012Y2055336D1*
X5702482Y2050451D1*
X5707312Y2045622D1*
X5712197Y2043151D1*
X5721912D1*
X5726741Y2045622D1*
X5731626Y2050451D1*
X5734041Y2055336D1*
X5752198Y2082009D2*
Y2084424D1*
X5754612Y2089309D1*
X5757027Y2091724D1*
X5761912Y2094138D1*
X5771627D1*
X5776456Y2091724D1*
X5778871Y2089309D1*
X5781342Y2084424D1*
Y2079595D1*
X5778871Y2074709D1*
X5774042Y2067465D1*
X5749727Y2043151D1*
X5783756D1*
X2264164Y2224692D2*
X2261750Y2229521D1*
X2256864Y2234407D1*
X2252035Y2236821D1*
X2242320D1*
X2237435Y2234407D1*
X2232606Y2229521D1*
X2230135Y2224692D1*
X2227720Y2217392D1*
Y2205207D1*
X2230135Y2197963D1*
X2232606Y2193077D1*
X2237435Y2188248D1*
X2242320Y2185777D1*
X2252035D1*
X2256864Y2188248D1*
X2261750Y2193077D1*
X2264164Y2197963D1*
X2284736Y2236765D2*
X2311409D1*
X2296865Y2217336D1*
X2304165D1*
X2308994Y2214921D1*
X2311409Y2212507D1*
X2313880Y2205207D1*
Y2200377D1*
X2311409Y2193077D1*
X2306580Y2188192D1*
X2299280Y2185777D1*
X2291980D1*
X2284736Y2188192D1*
X2282321Y2190663D1*
X2279850Y2195492D1*
X1391041Y2264442D2*
X1388626Y2269271D1*
X1383741Y2274157D1*
X1378912Y2276571D1*
X1369197D1*
X1364312Y2274157D1*
X1359482Y2269271D1*
X1357012Y2264442D1*
X1354597Y2257142D1*
Y2244957D1*
X1357012Y2237713D1*
X1359482Y2232827D1*
X1364312Y2227998D1*
X1369197Y2225527D1*
X1378912D1*
X1383741Y2227998D1*
X1388626Y2232827D1*
X1391041Y2237713D1*
X1435871Y2276515D2*
X1411612D1*
X1409198Y2254671D1*
X1411612Y2257086D1*
X1418912Y2259557D1*
X1426156D1*
X1433456Y2257086D1*
X1438342Y2252257D1*
X1440756Y2244957D1*
Y2240127D1*
X1438342Y2232827D1*
X1433456Y2227942D1*
X1426156Y2225527D1*
X1418912D1*
X1411612Y2227942D1*
X1409198Y2230413D1*
X1406727Y2235242D1*
X1614520Y2264442D2*
X1612105Y2269271D1*
X1607220Y2274157D1*
X1602390Y2276571D1*
X1592676D1*
X1587790Y2274157D1*
X1582961Y2269271D1*
X1580490Y2264442D1*
X1578076Y2257142D1*
Y2244957D1*
X1580490Y2237713D1*
X1582961Y2232827D1*
X1587790Y2227998D1*
X1592676Y2225527D1*
X1602390D1*
X1607220Y2227998D1*
X1612105Y2232827D1*
X1614520Y2237713D1*
X1659350Y2269271D2*
X1656935Y2274101D1*
X1649635Y2276515D1*
X1644806D1*
X1637506Y2274101D1*
X1632620Y2266801D1*
X1630206Y2254671D1*
Y2242542D1*
X1632620Y2232827D1*
X1637506Y2227942D1*
X1644806Y2225527D1*
X1647220D1*
X1654464Y2227942D1*
X1659350Y2232827D1*
X1661764Y2240127D1*
Y2242542D1*
X1659350Y2249842D1*
X1654464Y2254671D1*
X1647220Y2257086D1*
X1644806D1*
X1637506Y2254671D1*
X1632620Y2249842D1*
X1630206Y2242542D1*
X1835538Y2264442D2*
X1833123Y2269271D1*
X1828238Y2274157D1*
X1823408Y2276571D1*
X1813694D1*
X1808808Y2274157D1*
X1803979Y2269271D1*
X1801508Y2264442D1*
X1799094Y2257142D1*
Y2244957D1*
X1801508Y2237713D1*
X1803979Y2232827D1*
X1808808Y2227998D1*
X1813694Y2225527D1*
X1823408D1*
X1828238Y2227998D1*
X1833123Y2232827D1*
X1835538Y2237713D1*
X1860938Y2225527D2*
X1885253Y2276515D1*
X1851224D1*
X2057816Y2264442D2*
X2055401Y2269271D1*
X2050516Y2274157D1*
X2045686Y2276571D1*
X2035972D1*
X2031086Y2274157D1*
X2026257Y2269271D1*
X2023786Y2264442D1*
X2021372Y2257142D1*
Y2244957D1*
X2023786Y2237713D1*
X2026257Y2232827D1*
X2031086Y2227998D1*
X2035972Y2225527D1*
X2045686D1*
X2050516Y2227998D1*
X2055401Y2232827D1*
X2057816Y2237713D1*
X2085631Y2276515D2*
X2078387Y2274101D1*
X2075916Y2269271D1*
Y2264386D1*
X2078387Y2259557D1*
X2083216Y2257086D1*
X2092931Y2254671D1*
X2100231Y2252257D1*
X2105060Y2247371D1*
X2107475Y2242542D1*
Y2235242D1*
X2105060Y2230413D1*
X2102646Y2227942D1*
X2095346Y2225527D1*
X2085631D1*
X2078387Y2227942D1*
X2075916Y2230413D1*
X2073502Y2235242D1*
Y2242542D1*
X2075916Y2247371D1*
X2080802Y2252257D1*
X2088046Y2254671D1*
X2097760Y2257086D1*
X2102646Y2259557D1*
X2105060Y2264386D1*
Y2269271D1*
X2102646Y2274101D1*
X2095346Y2276515D1*
X2085631D1*
X3646498Y3737442D2*
X3644084Y3742271D1*
X3639198Y3747157D1*
X3634369Y3749571D1*
X3624654D1*
X3619769Y3747157D1*
X3614940Y3742271D1*
X3612469Y3737442D1*
X3610054Y3730142D1*
Y3717957D1*
X3612469Y3710713D1*
X3614940Y3705827D1*
X3619769Y3700998D1*
X3624654Y3698527D1*
X3634369D1*
X3639198Y3700998D1*
X3644084Y3705827D1*
X3646498Y3710713D1*
X3693799Y3732557D2*
X3691328Y3725257D1*
X3686499Y3720371D1*
X3679199Y3717957D1*
X3676784D1*
X3669484Y3720371D1*
X3664655Y3725257D1*
X3662184Y3732557D1*
Y3734971D1*
X3664655Y3742271D1*
X3669484Y3747101D1*
X3676784Y3749515D1*
X3679199D1*
X3686499Y3747101D1*
X3691328Y3742271D1*
X3693799Y3732557D1*
Y3720371D1*
X3691328Y3708242D1*
X3686499Y3700942D1*
X3679199Y3698527D1*
X3674370D1*
X3667070Y3700942D1*
X3664655Y3705827D1*
X3184855Y4378065D2*
X3182440Y4382895D1*
X3177555Y4387780D1*
X3172726Y4390195D1*
X3163011D1*
X3158126Y4387780D1*
X3153297Y4382895D1*
X3150826Y4378065D1*
X3148411Y4370765D1*
Y4358580D1*
X3150826Y4351336D1*
X3153297Y4346451D1*
X3158126Y4341622D1*
X3163011Y4339151D1*
X3172726D1*
X3177555Y4341622D1*
X3182440Y4346451D1*
X3184855Y4351336D1*
X3200541Y4380424D2*
X3205427Y4382895D1*
X3212727Y4390138D1*
Y4339151D1*
X3243013Y4390138D2*
X3235713Y4387724D1*
X3230828Y4380424D1*
X3228413Y4368295D1*
Y4360995D1*
X3230828Y4348865D1*
X3235713Y4341565D1*
X3243013Y4339151D1*
X3247842D1*
X3255142Y4341565D1*
X3259971Y4348865D1*
X3262442Y4360995D1*
Y4368295D1*
X3259971Y4380424D1*
X3255142Y4387724D1*
X3247842Y4390138D1*
X3243013D1*
X3259971Y4380424D2*
X3230828Y4348865D1*
X2695777Y4378065D2*
X2693362Y4382895D1*
X2688477Y4387780D1*
X2683648Y4390195D1*
X2673933D1*
X2669048Y4387780D1*
X2664218Y4382895D1*
X2661748Y4378065D1*
X2659333Y4370765D1*
Y4358580D1*
X2661748Y4351336D1*
X2664218Y4346451D1*
X2669048Y4341622D1*
X2673933Y4339151D1*
X2683648D1*
X2688477Y4341622D1*
X2693362Y4346451D1*
X2695777Y4351336D1*
X2711463Y4380424D2*
X2716349Y4382895D1*
X2723649Y4390138D1*
Y4339151D1*
X2739335Y4380424D2*
X2744220Y4382895D1*
X2751520Y4390138D1*
Y4339151D1*
X3186852Y3145442D2*
X3184437Y3150271D1*
X3179552Y3155157D1*
X3174722Y3157571D1*
X3165008D1*
X3160122Y3155157D1*
X3155293Y3150271D1*
X3152822Y3145442D1*
X3150408Y3138142D1*
Y3125957D1*
X3152822Y3118713D1*
X3155293Y3113827D1*
X3160122Y3108998D1*
X3165008Y3106527D1*
X3174722D1*
X3179552Y3108998D1*
X3184437Y3113827D1*
X3186852Y3118713D1*
X3202538Y3147801D2*
X3207423Y3150271D1*
X3214723Y3157515D1*
Y3106527D1*
X3232880Y3145386D2*
Y3147801D1*
X3235295Y3152686D1*
X3237710Y3155101D1*
X3242595Y3157515D1*
X3252310D1*
X3257139Y3155101D1*
X3259553Y3152686D1*
X3262024Y3147801D1*
Y3142971D1*
X3259553Y3138086D1*
X3254724Y3130842D1*
X3230410Y3106527D1*
X3264439D1*
X3678978Y3145442D2*
X3676564Y3150271D1*
X3671678Y3155157D1*
X3666849Y3157571D1*
X3657134D1*
X3652249Y3155157D1*
X3647420Y3150271D1*
X3644949Y3145442D1*
X3642534Y3138142D1*
Y3125957D1*
X3644949Y3118713D1*
X3647420Y3113827D1*
X3652249Y3108998D1*
X3657134Y3106527D1*
X3666849D1*
X3671678Y3108998D1*
X3676564Y3113827D1*
X3678978Y3118713D1*
X3694665Y3147801D2*
X3699550Y3150271D1*
X3706850Y3157515D1*
Y3106527D1*
X3727422Y3157515D2*
X3754095D1*
X3739551Y3138086D1*
X3746851D1*
X3751680Y3135671D1*
X3754095Y3133257D1*
X3756566Y3125957D1*
Y3121127D1*
X3754095Y3113827D1*
X3749266Y3108942D1*
X3741966Y3106527D1*
X3734666D1*
X3727422Y3108942D1*
X3725007Y3111413D1*
X3722536Y3116242D1*
X2598271Y3155942D2*
X2595856Y3160771D1*
X2590971Y3165657D1*
X2586142Y3168071D1*
X2576427D1*
X2571542Y3165657D1*
X2566713Y3160771D1*
X2564242Y3155942D1*
X2561827Y3148642D1*
Y3136457D1*
X2564242Y3129213D1*
X2566713Y3124327D1*
X2571542Y3119498D1*
X2576427Y3117027D1*
X2586142D1*
X2590971Y3119498D1*
X2595856Y3124327D1*
X2598271Y3129213D1*
X2613957Y3158301D2*
X2618843Y3160771D1*
X2626143Y3168015D1*
Y3117027D1*
X2666144D2*
Y3168015D1*
X2641829Y3134042D1*
X2678273D1*
X2393102Y3462942D2*
X2390687Y3467771D1*
X2385802Y3472657D1*
X2380972Y3475071D1*
X2371258D1*
X2366372Y3472657D1*
X2361543Y3467771D1*
X2359072Y3462942D1*
X2356658Y3455642D1*
Y3443457D1*
X2359072Y3436213D1*
X2361543Y3431327D1*
X2366372Y3426498D1*
X2371258Y3424027D1*
X2380972D1*
X2385802Y3426498D1*
X2390687Y3431327D1*
X2393102Y3436213D1*
X2408788Y3465301D2*
X2413673Y3467771D1*
X2420973Y3475015D1*
Y3424027D1*
X2465803Y3475015D2*
X2441545D1*
X2439130Y3453171D1*
X2441545Y3455586D1*
X2448845Y3458057D1*
X2456089D1*
X2463389Y3455586D1*
X2468274Y3450757D1*
X2470689Y3443457D1*
Y3438627D1*
X2468274Y3431327D1*
X2463389Y3426442D1*
X2456089Y3424027D1*
X2448845D1*
X2441545Y3426442D1*
X2439130Y3428913D1*
X2436660Y3433742D1*
X2902337Y3113315D2*
X2899922Y3118145D1*
X2895037Y3123030D1*
X2890208Y3125445D1*
X2880493D1*
X2875608Y3123030D1*
X2870779Y3118145D1*
X2868308Y3113315D1*
X2865893Y3106015D1*
Y3093830D1*
X2868308Y3086586D1*
X2870779Y3081701D1*
X2875608Y3076872D1*
X2880493Y3074401D1*
X2890208D1*
X2895037Y3076872D1*
X2899922Y3081701D1*
X2902337Y3086586D1*
X2918023Y3115674D2*
X2922909Y3118145D1*
X2930209Y3125388D1*
Y3074401D1*
X2975039Y3118145D2*
X2972624Y3122974D1*
X2965324Y3125388D1*
X2960495D1*
X2953195Y3122974D1*
X2948310Y3115674D1*
X2945895Y3103545D1*
Y3091415D1*
X2948310Y3081701D1*
X2953195Y3076815D1*
X2960495Y3074401D1*
X2962910D1*
X2970153Y3076815D1*
X2975039Y3081701D1*
X2977453Y3089001D1*
Y3091415D1*
X2975039Y3098715D1*
X2970153Y3103545D1*
X2962910Y3105959D1*
X2960495D1*
X2953195Y3103545D1*
X2948310Y3098715D1*
X2945895Y3091415D1*
X3634228Y4185192D2*
X3631814Y4190021D1*
X3626928Y4194907D1*
X3622099Y4197321D1*
X3612384D1*
X3607499Y4194907D1*
X3602670Y4190021D1*
X3600199Y4185192D1*
X3597784Y4177892D1*
Y4165707D1*
X3600199Y4158463D1*
X3602670Y4153577D1*
X3607499Y4148748D1*
X3612384Y4146277D1*
X3622099D1*
X3626928Y4148748D1*
X3631814Y4153577D1*
X3634228Y4158463D1*
X3649915Y4187551D2*
X3654800Y4190021D1*
X3662100Y4197265D1*
Y4146277D1*
X3687501D2*
X3711816Y4197265D1*
X3677786D1*
X6266633Y2082065D2*
X6264218Y2086895D1*
X6259333Y2091780D1*
X6254504Y2094195D1*
X6244789D1*
X6239904Y2091780D1*
X6235075Y2086895D1*
X6232604Y2082065D1*
X6230189Y2074765D1*
Y2062580D1*
X6232604Y2055336D1*
X6235075Y2050451D1*
X6239904Y2045622D1*
X6244789Y2043151D1*
X6254504D1*
X6259333Y2045622D1*
X6264218Y2050451D1*
X6266633Y2055336D1*
X6282319Y2084424D2*
X6287205Y2086895D1*
X6294505Y2094138D1*
Y2043151D1*
X6322320Y2094138D2*
X6315076Y2091724D1*
X6312606Y2086895D1*
Y2082009D1*
X6315076Y2077180D1*
X6319906Y2074709D1*
X6329620Y2072295D1*
X6336920Y2069880D1*
X6341749Y2064995D1*
X6344164Y2060165D1*
Y2052865D1*
X6341749Y2048036D1*
X6339335Y2045565D1*
X6332035Y2043151D1*
X6322320D1*
X6315076Y2045565D1*
X6312606Y2048036D1*
X6310191Y2052865D1*
Y2060165D1*
X6312606Y2064995D1*
X6317491Y2069880D1*
X6324735Y2072295D1*
X6334449Y2074709D1*
X6339335Y2077180D1*
X6341749Y2082009D1*
Y2086895D1*
X6339335Y2091724D1*
X6332035Y2094138D1*
X6322320D1*
X2489562Y4213689D2*
X2487148Y4218518D1*
X2482262Y4223403D1*
X2477433Y4225818D1*
X2467718D1*
X2462833Y4223403D1*
X2458004Y4218518D1*
X2455533Y4213689D1*
X2453118Y4206389D1*
Y4194203D1*
X2455533Y4186960D1*
X2458004Y4182074D1*
X2462833Y4177245D1*
X2467718Y4174774D1*
X2477433D1*
X2482262Y4177245D1*
X2487148Y4182074D1*
X2489562Y4186960D1*
X2505249Y4216047D2*
X2510134Y4218518D1*
X2517434Y4225762D1*
Y4174774D1*
X2564735Y4208803D2*
X2562264Y4201503D1*
X2557435Y4196618D1*
X2550135Y4194203D1*
X2547720D1*
X2540420Y4196618D1*
X2535591Y4201503D1*
X2533120Y4208803D1*
Y4211218D1*
X2535591Y4218518D1*
X2540420Y4223347D1*
X2547720Y4225762D1*
X2550135D1*
X2557435Y4223347D1*
X2562264Y4218518D1*
X2564735Y4208803D1*
Y4196618D1*
X2562264Y4184489D1*
X2557435Y4177189D1*
X2550135Y4174774D1*
X2545306D1*
X2538006Y4177189D1*
X2535591Y4182074D1*
X3493433Y3145442D2*
X3491018Y3150271D1*
X3486133Y3155157D1*
X3481304Y3157571D1*
X3471589D1*
X3466704Y3155157D1*
X3461875Y3150271D1*
X3459404Y3145442D1*
X3456989Y3138142D1*
Y3125957D1*
X3459404Y3118713D1*
X3461875Y3113827D1*
X3466704Y3108998D1*
X3471589Y3106527D1*
X3481304D1*
X3486133Y3108998D1*
X3491018Y3113827D1*
X3493433Y3118713D1*
X3511590Y3145386D2*
Y3147801D1*
X3514005Y3152686D1*
X3516419Y3155101D1*
X3521305Y3157515D1*
X3531019D1*
X3535849Y3155101D1*
X3538263Y3152686D1*
X3540734Y3147801D1*
Y3142971D1*
X3538263Y3138086D1*
X3533434Y3130842D1*
X3509119Y3106527D1*
X3543149D1*
X3573435Y3157515D2*
X3566135Y3155101D1*
X3561249Y3147801D1*
X3558835Y3135671D1*
Y3128371D1*
X3561249Y3116242D1*
X3566135Y3108942D1*
X3573435Y3106527D1*
X3578264D1*
X3585564Y3108942D1*
X3590393Y3116242D1*
X3592864Y3128371D1*
Y3135671D1*
X3590393Y3147801D1*
X3585564Y3155101D1*
X3578264Y3157515D1*
X3573435D1*
X3590393Y3147801D2*
X3561249Y3116242D1*
X1847728Y3557815D2*
X1845314Y3562645D1*
X1840428Y3567530D1*
X1835599Y3569945D1*
X1825884D1*
X1820999Y3567530D1*
X1816170Y3562645D1*
X1813699Y3557815D1*
X1811284Y3550515D1*
Y3538330D1*
X1813699Y3531086D1*
X1816170Y3526201D1*
X1820999Y3521372D1*
X1825884Y3518901D1*
X1835599D1*
X1840428Y3521372D1*
X1845314Y3526201D1*
X1847728Y3531086D1*
X1865885Y3557759D2*
Y3560174D1*
X1868300Y3565059D1*
X1870715Y3567474D1*
X1875600Y3569888D1*
X1885315D1*
X1890144Y3567474D1*
X1892558Y3565059D1*
X1895029Y3560174D1*
Y3555345D1*
X1892558Y3550459D1*
X1887729Y3543215D1*
X1863415Y3518901D1*
X1897444D1*
X1913130Y3560174D2*
X1918016Y3562645D1*
X1925316Y3569888D1*
Y3518901D1*
X1556680Y2792315D2*
X1554265Y2797145D1*
X1549380Y2802030D1*
X1544551Y2804445D1*
X1534836D1*
X1529951Y2802030D1*
X1525121Y2797145D1*
X1522651Y2792315D1*
X1520236Y2785015D1*
Y2772830D1*
X1522651Y2765586D1*
X1525121Y2760701D1*
X1529951Y2755872D1*
X1534836Y2753401D1*
X1544551D1*
X1549380Y2755872D1*
X1554265Y2760701D1*
X1556680Y2765586D1*
X1574837Y2792259D2*
Y2794674D1*
X1577251Y2799559D1*
X1579666Y2801974D1*
X1584551Y2804388D1*
X1594266D1*
X1599095Y2801974D1*
X1601510Y2799559D1*
X1603981Y2794674D1*
Y2789845D1*
X1601510Y2784959D1*
X1596681Y2777715D1*
X1572366Y2753401D1*
X1606395D1*
X1624552Y2792259D2*
Y2794674D1*
X1626967Y2799559D1*
X1629382Y2801974D1*
X1634267Y2804388D1*
X1643982D1*
X1648811Y2801974D1*
X1651225Y2799559D1*
X1653696Y2794674D1*
Y2789845D1*
X1651225Y2784959D1*
X1646396Y2777715D1*
X1622082Y2753401D1*
X1656111D1*
X1843930Y3209439D2*
X1841515Y3214268D1*
X1836630Y3219153D1*
X1831801Y3221568D1*
X1822086D1*
X1817201Y3219153D1*
X1812371Y3214268D1*
X1809901Y3209439D1*
X1807486Y3202139D1*
Y3189953D1*
X1809901Y3182710D1*
X1812371Y3177824D1*
X1817201Y3172995D1*
X1822086Y3170524D1*
X1831801D1*
X1836630Y3172995D1*
X1841515Y3177824D1*
X1843930Y3182710D1*
X1862087Y3209383D2*
Y3211797D1*
X1864501Y3216683D1*
X1866916Y3219097D1*
X1871801Y3221512D1*
X1881516D1*
X1886345Y3219097D1*
X1888760Y3216683D1*
X1891231Y3211797D1*
Y3206968D1*
X1888760Y3202083D1*
X1883931Y3194839D1*
X1859616Y3170524D1*
X1893645D1*
X1914217Y3221512D2*
X1940890D1*
X1926346Y3202083D1*
X1933646D1*
X1938475Y3199668D1*
X1940890Y3197253D1*
X1943361Y3189953D1*
Y3185124D1*
X1940890Y3177824D1*
X1936061Y3172939D1*
X1928761Y3170524D1*
X1921461D1*
X1914217Y3172939D1*
X1911802Y3175410D1*
X1909332Y3180239D1*
X1842722Y3320565D2*
X1840308Y3325395D1*
X1835422Y3330280D1*
X1830593Y3332695D1*
X1820879D1*
X1815993Y3330280D1*
X1811164Y3325395D1*
X1808693Y3320565D1*
X1806279Y3313265D1*
Y3301080D1*
X1808693Y3293836D1*
X1811164Y3288951D1*
X1815993Y3284122D1*
X1820879Y3281651D1*
X1830593D1*
X1835422Y3284122D1*
X1840308Y3288951D1*
X1842722Y3293836D1*
X1860879Y3320509D2*
Y3322924D1*
X1863294Y3327809D1*
X1865709Y3330224D1*
X1870594Y3332638D1*
X1880309D1*
X1885138Y3330224D1*
X1887553Y3327809D1*
X1890023Y3322924D1*
Y3318095D1*
X1887553Y3313209D1*
X1882723Y3305965D1*
X1858409Y3281651D1*
X1892438D1*
X1932439D2*
Y3332638D1*
X1908124Y3298665D1*
X1944568D1*
X8242933Y2851692D2*
X8240518Y2856521D1*
X8235633Y2861407D1*
X8230804Y2863821D1*
X8221089D1*
X8216204Y2861407D1*
X8211375Y2856521D1*
X8208904Y2851692D1*
X8206489Y2844392D1*
Y2832207D1*
X8208904Y2824963D1*
X8211375Y2820077D1*
X8216204Y2815248D1*
X8221089Y2812777D1*
X8230804D1*
X8235633Y2815248D1*
X8240518Y2820077D1*
X8242933Y2824963D1*
X8261090Y2851636D2*
Y2854051D1*
X8263505Y2858936D1*
X8265919Y2861351D1*
X8270805Y2863765D1*
X8280519D1*
X8285349Y2861351D1*
X8287763Y2858936D1*
X8290234Y2854051D1*
Y2849221D1*
X8287763Y2844336D1*
X8282934Y2837092D1*
X8258619Y2812777D1*
X8292649D1*
X8337479Y2863765D2*
X8313220D1*
X8310806Y2841921D1*
X8313220Y2844336D1*
X8320520Y2846807D1*
X8327764D1*
X8335064Y2844336D1*
X8339949Y2839507D1*
X8342364Y2832207D1*
Y2827377D1*
X8339949Y2820077D1*
X8335064Y2815192D1*
X8327764Y2812777D1*
X8320520D1*
X8313220Y2815192D1*
X8310806Y2817663D1*
X8308335Y2822492D1*
X3335226Y3167821D2*
Y3116777D1*
X3352241D1*
X3359541Y3119248D1*
X3364426Y3124077D1*
X3366841Y3128963D1*
X3369255Y3136207D1*
Y3148392D1*
X3366841Y3155692D1*
X3364426Y3160521D1*
X3359541Y3165407D1*
X3352241Y3167821D1*
X3335226D1*
X3384942Y3158051D2*
X3389827Y3160521D1*
X3397127Y3167765D1*
Y3116777D1*
X-523572Y2861736D2*
Y2810692D1*
X-506558D1*
X-499258Y2813163D1*
X-494372Y2817992D1*
X-491958Y2822878D1*
X-489543Y2830122D1*
Y2842307D1*
X-491958Y2849607D1*
X-494372Y2854436D1*
X-499258Y2859322D1*
X-506558Y2861736D1*
X-523572D1*
X-471386Y2849551D2*
Y2851966D1*
X-468971Y2856851D1*
X-466557Y2859266D1*
X-461671Y2861680D1*
X-451957D1*
X-447128Y2859266D1*
X-444713Y2856851D1*
X-442242Y2851966D1*
Y2847136D1*
X-444713Y2842251D1*
X-449542Y2835007D1*
X-473857Y2810692D1*
X-439828D1*
X-698635Y3136321D2*
Y3085277D1*
X-681620D1*
X-674320Y3087748D1*
X-669435Y3092577D1*
X-667020Y3097463D1*
X-664606Y3104707D1*
Y3116892D1*
X-667020Y3124192D1*
X-669435Y3129021D1*
X-674320Y3133907D1*
X-681620Y3136321D1*
X-698635D1*
X-648919Y3126551D2*
X-644034Y3129021D1*
X-636734Y3136265D1*
Y3085277D1*
X-606448Y3136265D2*
X-613748Y3133851D1*
X-618633Y3126551D1*
X-621048Y3114421D1*
Y3107121D1*
X-618633Y3094992D1*
X-613748Y3087692D1*
X-606448Y3085277D1*
X-601618D1*
X-594318Y3087692D1*
X-589489Y3094992D1*
X-587018Y3107121D1*
Y3114421D1*
X-589489Y3126551D1*
X-594318Y3133851D1*
X-601618Y3136265D1*
X-606448D1*
X-589489Y3126551D2*
X-618633Y3094992D1*
X-274963Y3120445D2*
Y3069401D1*
X-257948D1*
X-250648Y3071872D1*
X-245763Y3076701D1*
X-243348Y3081586D1*
X-240934Y3088830D1*
Y3101015D1*
X-243348Y3108315D1*
X-245763Y3113145D1*
X-250648Y3118030D1*
X-257948Y3120445D1*
X-274963D1*
X-225247Y3110674D2*
X-220362Y3113145D1*
X-213062Y3120388D1*
Y3069401D1*
X-197376Y3110674D2*
X-192490Y3113145D1*
X-185190Y3120388D1*
Y3069401D1*
X6427521Y4659361D2*
Y4620503D1*
X6425107Y4613203D1*
X6422636Y4610788D1*
X6417807Y4608317D1*
X6412921D1*
X6408092Y4610788D1*
X6405678Y4613203D1*
X6403207Y4620503D1*
Y4625332D1*
X6443208Y4649591D2*
X6448093Y4652061D1*
X6455393Y4659305D1*
Y4608317D1*
X4015792Y2478695D2*
Y2427651D1*
X4044936D1*
X4060622Y2468924D2*
X4065508Y2471395D1*
X4072808Y2478638D1*
Y2427651D1*
X3866494Y3804695D2*
Y3753651D1*
X3895638D1*
X3913795Y3792509D2*
Y3794924D1*
X3916209Y3799809D1*
X3918624Y3802224D1*
X3923509Y3804638D1*
X3933224D1*
X3938053Y3802224D1*
X3940468Y3799809D1*
X3942938Y3794924D1*
Y3790095D1*
X3940468Y3785209D1*
X3935638Y3777965D1*
X3911324Y3753651D1*
X3945353D1*
X6993870Y2707318D2*
Y2656274D1*
X7023014D1*
X7043586Y2707262D2*
X7070259D1*
X7055715Y2687833D1*
X7063015D1*
X7067844Y2685418D1*
X7070259Y2683003D1*
X7072730Y2675703D1*
Y2670874D1*
X7070259Y2663574D1*
X7065430Y2658689D1*
X7058130Y2656274D1*
X7050830D1*
X7043586Y2658689D1*
X7041171Y2661160D1*
X7038700Y2665989D1*
X2744130Y2549821D2*
X2739301Y2547463D1*
X2734416Y2542577D1*
X2732001Y2537692D1*
X2729530Y2530392D1*
Y2518263D1*
X2732001Y2510963D1*
X2734416Y2506134D1*
X2739301Y2501248D1*
X2744130Y2498834D1*
X2753845D1*
X2758730Y2501248D1*
X2763559Y2506134D1*
X2765974Y2510963D1*
X2768445Y2518263D1*
Y2530392D1*
X2765974Y2537692D1*
X2763559Y2542577D1*
X2758730Y2547463D1*
X2753845Y2549821D1*
X2744130D1*
X2751430Y2508548D2*
X2765974Y2493948D1*
X2784131Y2540051D2*
X2789016Y2542521D1*
X2796316Y2549765D1*
Y2498777D1*
X2733208Y1994198D2*
X2728379Y1991840D1*
X2723494Y1986954D1*
X2721079Y1982069D1*
X2718608Y1974769D1*
Y1962640D1*
X2721079Y1955340D1*
X2723494Y1950510D1*
X2728379Y1945625D1*
X2733208Y1943210D1*
X2742923D1*
X2747808Y1945625D1*
X2752638Y1950510D1*
X2755052Y1955340D1*
X2757523Y1962640D1*
Y1974769D1*
X2755052Y1982069D1*
X2752638Y1986954D1*
X2747808Y1991840D1*
X2742923Y1994198D1*
X2733208D1*
X2740508Y1952925D2*
X2755052Y1938325D1*
X2775680Y1982013D2*
Y1984427D1*
X2778095Y1989313D1*
X2780509Y1991727D1*
X2785395Y1994142D1*
X2795109D1*
X2799938Y1991727D1*
X2802353Y1989313D1*
X2804824Y1984427D1*
Y1979598D1*
X2802353Y1974713D1*
X2797524Y1967469D1*
X2773209Y1943154D1*
X2807238D1*
X1968267Y2839195D2*
X1963438Y2836836D1*
X1958552Y2831951D1*
X1956138Y2827065D1*
X1953667Y2819765D1*
Y2807636D1*
X1956138Y2800336D1*
X1958552Y2795507D1*
X1963438Y2790622D1*
X1968267Y2788207D1*
X1977982D1*
X1982867Y2790622D1*
X1987696Y2795507D1*
X1990111Y2800336D1*
X1992582Y2807636D1*
Y2819765D1*
X1990111Y2827065D1*
X1987696Y2831951D1*
X1982867Y2836836D1*
X1977982Y2839195D1*
X1968267D1*
X1975567Y2797922D2*
X1990111Y2783322D1*
X2037412Y2831895D2*
X2034997Y2836724D1*
X2027697Y2839138D1*
X2022868D1*
X2015568Y2836724D1*
X2010682Y2829424D1*
X2008268Y2817295D1*
Y2805165D1*
X2010682Y2795451D1*
X2015568Y2790565D1*
X2022868Y2788151D1*
X2025282D1*
X2032526Y2790565D1*
X2037412Y2795451D1*
X2039826Y2802751D1*
Y2805165D1*
X2037412Y2812465D1*
X2032526Y2817295D1*
X2025282Y2819709D1*
X2022868D1*
X2015568Y2817295D1*
X2010682Y2812465D1*
X2008268Y2805165D1*
X3299476Y4365880D2*
X3321320D1*
X3328620Y4368351D1*
X3331091Y4370765D1*
X3333505Y4375595D1*
Y4380480D1*
X3331091Y4385309D1*
X3328620Y4387780D1*
X3321320Y4390195D1*
X3299476D1*
Y4339151D1*
X3316491Y4365880D2*
X3333505Y4339151D1*
X3349192Y4380424D2*
X3354077Y4382895D1*
X3361377Y4390138D1*
Y4339151D1*
X2788554Y4365880D2*
X2810398D1*
X2817698Y4368351D1*
X2820169Y4370765D1*
X2822584Y4375595D1*
Y4380480D1*
X2820169Y4385309D1*
X2817698Y4387780D1*
X2810398Y4390195D1*
X2788554D1*
Y4339151D1*
X2805569Y4365880D2*
X2822584Y4339151D1*
X2840741Y4378009D2*
Y4380424D1*
X2843155Y4385309D1*
X2845570Y4387724D1*
X2850455Y4390138D1*
X2860170D1*
X2864999Y4387724D1*
X2867414Y4385309D1*
X2869884Y4380424D1*
Y4375595D1*
X2867414Y4370709D1*
X2862584Y4363465D1*
X2838270Y4339151D1*
X2872299D1*
X4753051Y3036507D2*
X4774895D1*
X4782195Y3038977D1*
X4784666Y3041392D1*
X4787080Y3046221D1*
Y3051107D1*
X4784666Y3055936D1*
X4782195Y3058407D1*
X4774895Y3060821D1*
X4753051D1*
Y3009777D1*
X4770066Y3036507D2*
X4787080Y3009777D1*
X4807652Y3060765D2*
X4834325D1*
X4819781Y3041336D1*
X4827081D1*
X4831910Y3038921D1*
X4834325Y3036507D1*
X4836796Y3029207D1*
Y3024377D1*
X4834325Y3017077D1*
X4829496Y3012192D1*
X4822196Y3009777D1*
X4814896D1*
X4807652Y3012192D1*
X4805237Y3014663D1*
X4802766Y3019492D1*
X2672224Y3143757D2*
X2694068D1*
X2701368Y3146227D1*
X2703838Y3148642D1*
X2706253Y3153471D1*
Y3158357D1*
X2703838Y3163186D1*
X2701368Y3165657D1*
X2694068Y3168071D1*
X2672224D1*
Y3117027D1*
X2689238Y3143757D2*
X2706253Y3117027D1*
X2746254D2*
Y3168015D1*
X2721939Y3134042D1*
X2758383D1*
X3038554Y4365880D2*
X3060398D1*
X3067698Y4368351D1*
X3070169Y4370765D1*
X3072584Y4375595D1*
Y4380480D1*
X3070169Y4385309D1*
X3067698Y4387780D1*
X3060398Y4390195D1*
X3038554D1*
Y4339151D1*
X3055569Y4365880D2*
X3072584Y4339151D1*
X3117414Y4390138D2*
X3093155D1*
X3090741Y4368295D1*
X3093155Y4370709D1*
X3100455Y4373180D1*
X3107699D1*
X3114999Y4370709D1*
X3119884Y4365880D1*
X3122299Y4358580D1*
Y4353751D1*
X3119884Y4346451D1*
X3114999Y4341565D1*
X3107699Y4339151D1*
X3100455D1*
X3093155Y4341565D1*
X3090741Y4344036D1*
X3088270Y4348865D1*
X2914790Y4365880D2*
X2936634D1*
X2943934Y4368351D1*
X2946404Y4370765D1*
X2948819Y4375595D1*
Y4380480D1*
X2946404Y4385309D1*
X2943934Y4387780D1*
X2936634Y4390195D1*
X2914790D1*
Y4339151D1*
X2931804Y4365880D2*
X2948819Y4339151D1*
X2993649Y4382895D2*
X2991234Y4387724D1*
X2983934Y4390138D1*
X2979105D1*
X2971805Y4387724D1*
X2966920Y4380424D1*
X2964505Y4368295D1*
Y4356165D1*
X2966920Y4346451D1*
X2971805Y4341565D1*
X2979105Y4339151D1*
X2981520D1*
X2988764Y4341565D1*
X2993649Y4346451D1*
X2996064Y4353751D1*
Y4356165D1*
X2993649Y4363465D1*
X2988764Y4368295D1*
X2981520Y4370709D1*
X2979105D1*
X2971805Y4368295D1*
X2966920Y4363465D1*
X2964505Y4356165D1*
X2800428Y2968880D2*
X2822271D1*
X2829571Y2971351D1*
X2832042Y2973765D1*
X2834457Y2978595D1*
Y2983480D1*
X2832042Y2988309D1*
X2829571Y2990780D1*
X2822271Y2993195D1*
X2800428D1*
Y2942151D1*
X2817442Y2968880D2*
X2834457Y2942151D1*
X2859858D2*
X2884172Y2993138D1*
X2850143D1*
X2959202Y2968880D2*
X2981046D1*
X2988346Y2971351D1*
X2990817Y2973765D1*
X2993232Y2978595D1*
Y2983480D1*
X2990817Y2988309D1*
X2988346Y2990780D1*
X2981046Y2993195D1*
X2959202D1*
Y2942151D1*
X2976217Y2968880D2*
X2993232Y2942151D1*
X3021047Y2993138D2*
X3013803Y2990724D1*
X3011332Y2985895D1*
Y2981009D1*
X3013803Y2976180D1*
X3018632Y2973709D1*
X3028347Y2971295D1*
X3035647Y2968880D1*
X3040476Y2963995D1*
X3042891Y2959165D1*
Y2951865D1*
X3040476Y2947036D1*
X3038062Y2944565D1*
X3030762Y2942151D1*
X3021047D1*
X3013803Y2944565D1*
X3011332Y2947036D1*
X3008918Y2951865D1*
Y2959165D1*
X3011332Y2963995D1*
X3016218Y2968880D1*
X3023462Y2971295D1*
X3033176Y2973709D1*
X3038062Y2976180D1*
X3040476Y2981009D1*
Y2985895D1*
X3038062Y2990724D1*
X3030762Y2993138D1*
X3021047D1*
X6320258Y2863007D2*
X6342102D1*
X6349402Y2865477D1*
X6351873Y2867892D1*
X6354288Y2872721D1*
Y2877607D1*
X6351873Y2882436D1*
X6349402Y2884907D1*
X6342102Y2887321D1*
X6320258D1*
Y2836277D1*
X6337273Y2863007D2*
X6354288Y2836277D1*
X6401588Y2870307D2*
X6399118Y2863007D1*
X6394288Y2858121D1*
X6386988Y2855707D1*
X6384574D1*
X6377274Y2858121D1*
X6372445Y2863007D1*
X6369974Y2870307D1*
Y2872721D1*
X6372445Y2880021D1*
X6377274Y2884851D1*
X6384574Y2887265D1*
X6386988D1*
X6394288Y2884851D1*
X6399118Y2880021D1*
X6401588Y2870307D1*
Y2858121D1*
X6399118Y2845992D1*
X6394288Y2838692D1*
X6386988Y2836277D1*
X6382159D1*
X6374859Y2838692D1*
X6372445Y2843577D1*
X5982992Y2863007D2*
X6004836D1*
X6012136Y2865477D1*
X6014606Y2867892D1*
X6017021Y2872721D1*
Y2877607D1*
X6014606Y2882436D1*
X6012136Y2884907D1*
X6004836Y2887321D1*
X5982992D1*
Y2836277D1*
X6000006Y2863007D2*
X6017021Y2836277D1*
X6032707Y2877551D2*
X6037593Y2880021D1*
X6044893Y2887265D1*
Y2836277D1*
X6075179Y2887265D2*
X6067879Y2884851D1*
X6062994Y2877551D1*
X6060579Y2865421D1*
Y2858121D1*
X6062994Y2845992D1*
X6067879Y2838692D1*
X6075179Y2836277D1*
X6080008D1*
X6087308Y2838692D1*
X6092137Y2845992D1*
X6094608Y2858121D1*
Y2865421D1*
X6092137Y2877551D1*
X6087308Y2884851D1*
X6080008Y2887265D1*
X6075179D1*
X6092137Y2877551D2*
X6062994Y2845992D1*
X1820851Y3086130D2*
X1842694D1*
X1849994Y3088601D1*
X1852465Y3091015D1*
X1854880Y3095845D1*
Y3100730D1*
X1852465Y3105559D1*
X1849994Y3108030D1*
X1842694Y3110445D1*
X1820851D1*
Y3059401D1*
X1837865Y3086130D2*
X1854880Y3059401D1*
X1870566Y3100674D2*
X1875451Y3103145D1*
X1882751Y3110388D1*
Y3059401D1*
X1927582Y3103145D2*
X1925167Y3107974D1*
X1917867Y3110388D1*
X1913038D1*
X1905738Y3107974D1*
X1900852Y3100674D1*
X1898438Y3088545D1*
Y3076415D1*
X1900852Y3066701D1*
X1905738Y3061815D1*
X1913038Y3059401D1*
X1915452D1*
X1922696Y3061815D1*
X1927582Y3066701D1*
X1929996Y3074001D1*
Y3076415D1*
X1927582Y3083715D1*
X1922696Y3088545D1*
X1915452Y3090959D1*
X1913038D1*
X1905738Y3088545D1*
X1900852Y3083715D1*
X1898438Y3076415D1*
X1867242Y2975007D2*
X1889086D1*
X1896386Y2977477D1*
X1898856Y2979892D1*
X1901271Y2984721D1*
Y2989607D1*
X1898856Y2994436D1*
X1896386Y2996907D1*
X1889086Y2999321D1*
X1867242D1*
Y2948277D1*
X1884256Y2975007D2*
X1901271Y2948277D1*
X1916957Y2989551D2*
X1921843Y2992021D1*
X1929143Y2999265D1*
Y2948277D1*
X1954544D2*
X1978858Y2999265D1*
X1944829D1*
X1595893Y2895630D2*
X1617737D1*
X1625037Y2898101D1*
X1627508Y2900515D1*
X1629922Y2905345D1*
Y2910230D1*
X1627508Y2915059D1*
X1625037Y2917530D1*
X1617737Y2919945D1*
X1595893D1*
Y2868901D1*
X1612908Y2895630D2*
X1629922Y2868901D1*
X1645609Y2910174D2*
X1650494Y2912645D1*
X1657794Y2919888D1*
Y2868901D1*
X1685610Y2919888D2*
X1678366Y2917474D1*
X1675895Y2912645D1*
Y2907759D1*
X1678366Y2902930D1*
X1683195Y2900459D1*
X1692910Y2898045D1*
X1700210Y2895630D1*
X1705039Y2890745D1*
X1707453Y2885915D1*
Y2878615D1*
X1705039Y2873786D1*
X1702624Y2871315D1*
X1695324Y2868901D1*
X1685610D1*
X1678366Y2871315D1*
X1675895Y2873786D1*
X1673480Y2878615D1*
Y2885915D1*
X1675895Y2890745D1*
X1680780Y2895630D1*
X1688024Y2898045D1*
X1697739Y2900459D1*
X1702624Y2902930D1*
X1705039Y2907759D1*
Y2912645D1*
X1702624Y2917474D1*
X1695324Y2919888D1*
X1685610D1*
X1311322Y2689253D2*
X1333166D1*
X1340466Y2691724D1*
X1342937Y2694139D1*
X1345352Y2698968D1*
Y2703853D1*
X1342937Y2708683D1*
X1340466Y2711153D1*
X1333166Y2713568D1*
X1311322D1*
Y2662524D1*
X1328337Y2689253D2*
X1345352Y2662524D1*
X1361038Y2703797D2*
X1365923Y2706268D1*
X1373223Y2713512D1*
Y2662524D1*
X1420524Y2696553D2*
X1418053Y2689253D1*
X1413224Y2684368D1*
X1405924Y2681953D1*
X1403510D1*
X1396210Y2684368D1*
X1391380Y2689253D1*
X1388910Y2696553D1*
Y2698968D1*
X1391380Y2706268D1*
X1396210Y2711097D1*
X1403510Y2713512D1*
X1405924D1*
X1413224Y2711097D1*
X1418053Y2706268D1*
X1420524Y2696553D1*
Y2684368D1*
X1418053Y2672239D1*
X1413224Y2664939D1*
X1405924Y2662524D1*
X1401095D1*
X1393795Y2664939D1*
X1391380Y2669824D1*
X1808693Y3403630D2*
X1830537D1*
X1837837Y3406101D1*
X1840308Y3408515D1*
X1842722Y3413345D1*
Y3418230D1*
X1840308Y3423059D1*
X1837837Y3425530D1*
X1830537Y3427945D1*
X1808693D1*
Y3376901D1*
X1825708Y3403630D2*
X1842722Y3376901D1*
X1860879Y3415759D2*
Y3418174D1*
X1863294Y3423059D1*
X1865709Y3425474D1*
X1870594Y3427888D1*
X1880309D1*
X1885138Y3425474D1*
X1887553Y3423059D1*
X1890023Y3418174D1*
Y3413345D1*
X1887553Y3408459D1*
X1882723Y3401215D1*
X1858409Y3376901D1*
X1892438D1*
X1922724Y3427888D2*
X1915424Y3425474D1*
X1910539Y3418174D1*
X1908124Y3406045D1*
Y3398745D1*
X1910539Y3386615D1*
X1915424Y3379315D1*
X1922724Y3376901D1*
X1927553D1*
X1934853Y3379315D1*
X1939683Y3386615D1*
X1942153Y3398745D1*
Y3406045D1*
X1939683Y3418174D1*
X1934853Y3425474D1*
X1927553Y3427888D1*
X1922724D1*
X1939683Y3418174D2*
X1910539Y3386615D1*
X2374883Y3817195D2*
Y3766151D1*
X2357868Y3817195D2*
X2391898D1*
X2407584Y3790465D2*
X2429484D1*
X2436728Y3792880D1*
X2439199Y3795351D1*
X2441613Y3800180D1*
Y3807480D1*
X2439199Y3812309D1*
X2436728Y3814780D1*
X2429484Y3817195D1*
X2407584D1*
Y3766151D1*
X2457299Y3807424D2*
X2462185Y3809895D1*
X2469485Y3817138D1*
Y3766151D1*
X2363958Y3642571D2*
Y3591527D1*
X2346943Y3642571D2*
X2380972D1*
X2396659Y3615842D2*
X2418559D1*
X2425803Y3618257D1*
X2428273Y3620727D1*
X2430688Y3625557D1*
Y3632857D1*
X2428273Y3637686D1*
X2425803Y3640157D1*
X2418559Y3642571D1*
X2396659D1*
Y3591527D1*
X2448845Y3630386D2*
Y3632801D1*
X2451260Y3637686D1*
X2453674Y3640101D1*
X2458560Y3642515D1*
X2468274D1*
X2473103Y3640101D1*
X2475518Y3637686D1*
X2477989Y3632801D1*
Y3627971D1*
X2475518Y3623086D1*
X2470689Y3615842D1*
X2446374Y3591527D1*
X2480403D1*
X1252711Y3642568D2*
Y3591524D1*
X1235697Y3642568D2*
X1269726D1*
X1285412Y3615839D2*
X1307312D1*
X1314556Y3618253D1*
X1317027Y3620724D1*
X1319441Y3625553D1*
Y3632853D1*
X1317027Y3637683D1*
X1314556Y3640153D1*
X1307312Y3642568D1*
X1285412D1*
Y3591524D1*
X1344842D2*
X1369157Y3642512D1*
X1335128D1*
X1111042Y3245695D2*
Y3194651D1*
X1094027Y3245695D2*
X1128056D1*
X1143743Y3218965D2*
X1165643D1*
X1172887Y3221380D1*
X1175357Y3223851D1*
X1177772Y3228680D1*
Y3235980D1*
X1175357Y3240809D1*
X1172887Y3243280D1*
X1165643Y3245695D1*
X1143743D1*
Y3194651D1*
X1225073Y3228680D2*
X1222602Y3221380D1*
X1217773Y3216495D1*
X1210473Y3214080D1*
X1208058D1*
X1200758Y3216495D1*
X1195929Y3221380D1*
X1193458Y3228680D1*
Y3231095D1*
X1195929Y3238395D1*
X1200758Y3243224D1*
X1208058Y3245638D1*
X1210473D1*
X1217773Y3243224D1*
X1222602Y3238395D1*
X1225073Y3228680D1*
Y3216495D1*
X1222602Y3204365D1*
X1217773Y3197065D1*
X1210473Y3194651D1*
X1205644D1*
X1198344Y3197065D1*
X1195929Y3201951D1*
X1095899Y3452068D2*
Y3401024D1*
X1078884Y3452068D2*
X1112913D1*
X1128600Y3425339D2*
X1150500D1*
X1157743Y3427753D1*
X1160214Y3430224D1*
X1162629Y3435053D1*
Y3442353D1*
X1160214Y3447183D1*
X1157743Y3449653D1*
X1150500Y3452068D1*
X1128600D1*
Y3401024D1*
X1178315Y3442297D2*
X1183200Y3444768D1*
X1190500Y3452012D1*
Y3401024D1*
X1220787Y3452012D2*
X1213487Y3449597D1*
X1208601Y3442297D1*
X1206187Y3430168D1*
Y3422868D1*
X1208601Y3410739D1*
X1213487Y3403439D1*
X1220787Y3401024D1*
X1225616D1*
X1232916Y3403439D1*
X1237745Y3410739D1*
X1240216Y3422868D1*
Y3430168D1*
X1237745Y3442297D1*
X1232916Y3449597D1*
X1225616Y3452012D1*
X1220787D1*
X1237745Y3442297D2*
X1208601Y3410739D1*
X3017723Y3957695D2*
Y3921251D1*
X3020138Y3913951D1*
X3025023Y3909122D1*
X3032323Y3906651D1*
X3037152D1*
X3044452Y3909122D1*
X3049338Y3913951D1*
X3051752Y3921251D1*
Y3957695D1*
X3067438Y3947924D2*
X3072324Y3950395D1*
X3079624Y3957638D1*
Y3906651D1*
X6467674Y2715071D2*
Y2678627D1*
X6470089Y2671327D1*
X6474974Y2666498D1*
X6482274Y2664027D1*
X6487104D1*
X6494404Y2666498D1*
X6499289Y2671327D1*
X6501704Y2678627D1*
Y2715071D1*
X6519861Y2702886D2*
Y2705301D1*
X6522275Y2710186D1*
X6524690Y2712601D1*
X6529575Y2715015D1*
X6539290D1*
X6544119Y2712601D1*
X6546534Y2710186D1*
X6549004Y2705301D1*
Y2700471D1*
X6546534Y2695586D1*
X6541704Y2688342D1*
X6517390Y2664027D1*
X6551419D1*
X6345164Y3290365D2*
Y3253921D1*
X6347579Y3246621D1*
X6352464Y3241792D1*
X6359764Y3239321D1*
X6364594D1*
X6371894Y3241792D1*
X6376779Y3246621D1*
X6379194Y3253921D1*
Y3290365D1*
X6399765Y3290308D2*
X6426438D1*
X6411894Y3270879D1*
X6419194D1*
X6424024Y3268465D1*
X6426438Y3266050D1*
X6428909Y3258750D1*
Y3253921D1*
X6426438Y3246621D1*
X6421609Y3241735D1*
X6414309Y3239321D1*
X6407009D1*
X6399765Y3241735D1*
X6397351Y3244206D1*
X6394880Y3249035D1*
X1451847Y3508985D2*
Y3472541D1*
X1454262Y3465241D1*
X1459147Y3460412D1*
X1466447Y3457941D1*
X1471276D1*
X1478576Y3460412D1*
X1483462Y3465241D1*
X1485876Y3472541D1*
Y3508985D1*
X1525877Y3457941D2*
Y3508928D1*
X1501562Y3474955D1*
X1538006D1*
X1580428Y4505068D2*
Y4468624D1*
X1582842Y4461324D1*
X1587728Y4456495D1*
X1595028Y4454024D1*
X1599857D1*
X1607157Y4456495D1*
X1612042Y4461324D1*
X1614457Y4468624D1*
Y4505068D1*
X1659287Y4505012D2*
X1635029D1*
X1632614Y4483168D1*
X1635029Y4485583D1*
X1642329Y4488053D1*
X1649572D1*
X1656872Y4485583D1*
X1661758Y4480753D1*
X1664172Y4473453D1*
Y4468624D1*
X1661758Y4461324D1*
X1656872Y4456439D1*
X1649572Y4454024D1*
X1642329D1*
X1635029Y4456439D1*
X1632614Y4458910D1*
X1630143Y4463739D1*
M02*
